<?xml version="1.0" encoding="UTF-8"?>
<!DOCTYPE svg PUBLIC "-//W3C//DTD SVG 1.1//EN" "http://www.w3.org/Graphics/SVG/1.1/DTD/svg11.dtd">
<!-- Creator: CorelDRAW -->
<svg xmlns="http://www.w3.org/2000/svg" xml:space="preserve" width="4.31256in" height="4.31256in" version="1.1" style="shape-rendering:geometricPrecision; text-rendering:geometricPrecision; image-rendering:optimizeQuality; fill-rule:evenodd; clip-rule:evenodd"
viewBox="0 0 4544.11 4544.11"
 xmlns:xlink="http://www.w3.org/1999/xlink"
 xmlns:xodm="http://www.corel.com/coreldraw/odm/2003">
 <defs>
  <style type="text/css">
   <![CDATA[
    .fil1 {fill:black;fill-rule:nonzero}
    .fil0 {fill:white;fill-rule:nonzero}
   ]]>
  </style>
 </defs>
 <g id="Layer_x0020_1">
  <metadata id="CorelCorpID_0Corel-Layer"/>
  <g id="_2588557065504">
   <circle class="fil0" cx="2272.06" cy="2272.06" r="2272.06"/>
   <path class="fil1" d="M2977.5 1638.02c0.6,-3.7 2.46,-7.4 2.46,-11.7 0,-4.3 -1.23,-8 -1.84,-11.7 -0.61,-3.7 -0.61,-7.4 -2.47,-11.07 -1.23,-3.7 -4.3,-6.77 -6.16,-9.84 -1.84,-3.07 -3.7,-6.77 -6.16,-9.84 0,0 0,0 0,0 0,0 0,0 0,0 -2.46,-2.46 -6.16,-4.3 -9.23,-6.16 -3.7,-2.46 -6.77,-5.54 -10.47,-6.77 -3.7,-1.84 -8.01,-1.84 -11.7,-2.46 -3.7,-0.61 -7.4,-1.84 -11.08,-2.47 -3.07,0 -6.16,1.23 -8.61,1.23 -19.08,-2.46 -38.78,3.07 -52.93,17.85 -59.7,64.03 -161.9,147.13 -309.64,179.12 -274.53,59.09 -490.6,-109.58 -530.62,-143.43 -25.85,-22.17 -64.63,-19.08 -86.81,7.4 -22.17,25.84 -19.08,64.63 7.4,86.8 41.25,35.09 233.31,185.29 494.3,185.29 45.56,0 92.95,-4.93 142.2,-15.38 0,0 0,0 0.61,0l-992.31 992.3c-24.01,24.01 -24.01,62.79 0,86.81 12.31,12.31 27.71,17.85 43.72,17.85 16,0 31.38,-6.17 43.72,-17.85l988.6 -988.6c-65.26,329.32 127.43,590.34 168.05,640.2 12.31,14.77 30.15,22.77 48.02,22.77 13.54,0 27.08,-4.3 38.78,-13.54 26.48,-21.54 30.78,-60.33 9.24,-86.8 -34.48,-43.09 -205,-271.47 -140.37,-554.63 33.85,-147.13 116.35,-250.55 179.75,-310.85l1.24 -1.24c0,0 3.7,-6.16 6.16,-9.23 2.46,-3.7 5.54,-6.77 7.4,-11.08 1.84,-3.7 1.84,-7.4 2.47,-11.7l-3.72 -1.26z"/>
  </g>
 </g>
</svg>
