<?xml version="1.0" encoding="UTF-8"?>
<!DOCTYPE svg PUBLIC "-//W3C//DTD SVG 1.1//EN" "http://www.w3.org/Graphics/SVG/1.1/DTD/svg11.dtd">
<!-- Creator: CorelDRAW 2020 (64-Bit) -->
<svg xmlns="http://www.w3.org/2000/svg" xml:space="preserve" width="42.3938mm" height="40.796mm" version="1.1" style="shape-rendering:geometricPrecision; text-rendering:geometricPrecision; image-rendering:optimizeQuality; fill-rule:evenodd; clip-rule:evenodd"
viewBox="0 0 45.67 43.95"
 xmlns:xlink="http://www.w3.org/1999/xlink"
 xmlns:xodm="http://www.corel.com/coreldraw/odm/2003">
 <defs>
  <style type="text/css">
   <![CDATA[
    .str11 {stroke:green;stroke-width:0.27;stroke-miterlimit:10}
    .str14 {stroke:green;stroke-width:0.27;stroke-miterlimit:10}
    .str5 {stroke:green;stroke-width:0.27;stroke-miterlimit:10}
    .str9 {stroke:green;stroke-width:0.27;stroke-miterlimit:10}
    .str7 {stroke:green;stroke-width:0.27;stroke-miterlimit:10}
    .str12 {stroke:green;stroke-width:0.27;stroke-miterlimit:10}
    .str1 {stroke:green;stroke-width:0.27;stroke-miterlimit:10}
    .str13 {stroke:green;stroke-width:0.27;stroke-miterlimit:10}
    .str15 {stroke:green;stroke-width:0.27;stroke-miterlimit:10}
    .str16 {stroke:green;stroke-width:0.27;stroke-miterlimit:10}
    .str19 {stroke:green;stroke-width:0.27;stroke-miterlimit:10}
    .str18 {stroke:green;stroke-width:0.27;stroke-miterlimit:10}
    .str6 {stroke:green;stroke-width:0.27;stroke-miterlimit:10}
    .str10 {stroke:green;stroke-width:0.27;stroke-miterlimit:10}
    .str2 {stroke:green;stroke-width:0.27;stroke-miterlimit:10}
    .str3 {stroke:green;stroke-width:0.27;stroke-miterlimit:10}
    .str4 {stroke:green;stroke-width:0.27;stroke-miterlimit:2.61313}
    .str8 {stroke:green;stroke-width:0.27;stroke-miterlimit:10}
    .str17 {stroke:green;stroke-width:0.27;stroke-miterlimit:10}
    .str0 {stroke:green;stroke-width:0.27;stroke-miterlimit:10}
    .fil3 {fill:none}
    .fil1 {fill:none;fill-rule:nonzero}
    .fil0 {fill:#FFEC81;fill-rule:nonzero}
    .fil2 {fill:white;fill-rule:nonzero}
   ]]>
  </style>
 </defs>
 <g id="Layer_x0020_1">
  <metadata id="CorelCorpID_0Corel-Layer"/>
  <g id="_1507940026672">
   <path class="fil0 str0" d="M43.45 6.78c0.01,0.21 -0.14,0.43 -0.39,0.63 -0.59,0.5 -1.78,0.89 -2.89,0.83 -1.43,-0.08 -2.92,-0.94 -2.85,-1.6 0.04,-0.36 0.53,-0.59 1.07,-0.83 1.37,-0.62 2.67,-0.35 2.89,-0.3 0.13,0.03 0.32,0.08 0.53,0.14 0.69,0.21 1.63,0.61 1.64,1.13z"/>
   <g>
    <line class="fil1 str1" x1="28.68" y1="36.67" x2="27.9" y2= "36.67" />
    <line class="fil1 str1" x1="28.68" y1="37.74" x2="27.9" y2= "37.74" />
    <line class="fil1 str1" x1="28.68" y1="38.81" x2="27.9" y2= "38.81" />
    <line class="fil1 str1" x1="28.68" y1="39.87" x2="27.9" y2= "39.87" />
    <line class="fil1 str1" x1="28.68" y1="40.94" x2="27.9" y2= "40.94" />
    <line class="fil1 str1" x1="28.68" y1="42" x2="27.9" y2= "42" />
    <line class="fil1 str1" x1="28.68" y1="43.07" x2="27.9" y2= "43.07" />
   </g>
   <g>
    <line class="fil1 str1" x1="20.37" y1="37.08" x2="19.59" y2= "37.08" />
    <line class="fil1 str1" x1="20.37" y1="38.14" x2="19.59" y2= "38.14" />
    <line class="fil1 str1" x1="20.37" y1="39.21" x2="19.59" y2= "39.21" />
    <line class="fil1 str1" x1="20.37" y1="40.27" x2="19.59" y2= "40.27" />
    <line class="fil1 str1" x1="20.37" y1="41.34" x2="19.59" y2= "41.34" />
    <line class="fil1 str1" x1="20.37" y1="42.4" x2="19.59" y2= "42.4" />
    <line class="fil1 str1" x1="20.37" y1="43.47" x2="19.59" y2= "43.47" />
   </g>
   <path class="fil1 str1" d="M34.42 27.04c0.55,-0.02 3.51,-0.06 5.63,2.69 0.44,0.57 1.37,1.94 1.69,4.06 0.58,3.85 -1.35,6.9 -1.68,7.39"/>
   <path class="fil1 str1" d="M3.13 22.08c-0.08,0.67 -0.13,1.65 0.06,2.82 0.19,1.18 0.53,1.9 0.76,2.54 0.05,0.15 0.89,2.67 0.35,5.24 -0.5,2.36 -1.84,3.27 -1.88,5.92 -0.01,0.46 0.03,0.73 0.06,0.89 0.4,2.21 2.56,3.48 2.82,3.62 2.97,1.68 7.61,0.27 9.76,-2.59 0.83,-1.1 1.14,-2.21 1.27,-2.87"/>
   <path class="fil1 str1" d="M3.94 21.51c-0.07,0.22 -0.17,0.57 -0.23,0.99 -0.31,2.03 0.59,3.08 1.23,5.37 0.77,2.79 0.49,5.04 0.42,5.56 -0.17,1.25 -0.52,2.28 -0.67,2.71 -0.39,1.09 -0.86,1.98 -1.27,2.64"/>
   <path class="fil1 str1" d="M4.72 23.13c-0.01,0.21 -0.02,0.53 0,0.91 0.09,1.77 0.72,2.44 1.2,4.26 0.36,1.37 0.42,2.55 0.43,3.03 0.01,0.35 0.03,1.67 -0.32,3.3 -0.24,1.11 -0.57,1.97 -0.82,2.54"/>
   <path class="fil1 str1" d="M5.09 37.9c-0.07,0.27 -0.15,0.67 -0.15,1.14 0.02,1.27 0.66,2.68 1.81,3.44 2.01,1.33 4.89,0.2 6.16,-1.43 0.34,-0.44 0.53,-0.87 0.64,-1.17"/>
   <path class="fil1 str1" d="M3.91 34.08c-1.26,-1.08 -2.01,-2.18 -2.44,-2.92 -0.51,-0.87 -0.76,-1.59 -0.83,-1.79 -0.05,-0.15 -0.47,-1.4 -0.51,-2.69 -0.07,-2.57 1.4,-4.67 1.86,-5.28"/>
   <path class="fil1 str1" d="M2 23.12c-0.1,0.14 -0.24,0.35 -0.38,0.62 -0.53,1.02 -0.57,1.97 -0.59,2.66 -0.01,0.39 -0.02,1.5 0.41,2.75 0.29,0.86 0.69,1.45 0.8,1.63 0.66,0.98 1.47,1.61 2.08,1.99"/>
   <path class="fil1 str1" d="M2.02 28.58c0.16,0.45 0.32,0.72 0.41,0.87 0.52,0.92 1.2,1.52 1.72,1.88 0.1,0.07 0.19,0.13 0.27,0.18"/>
   <path class="fil1 str2" d="M27.17 0.13l-25.13 0c0,9.5 0,18.99 0,28.49"/>
   <polyline class="fil1 str1" points="28.39,43.82 27.2,43.82 27.2,43.78 "/>
   <path class="fil1 str1" d="M27.2 43.78c-0.01,-2.75 -0.03,-5.49 -0.04,-8.24 0.52,-0.03 1.04,-0.06 1.56,-0.08 0.01,2.41 0.03,4.83 0.04,7.24"/>
   <line class="fil1 str1" x1="28.75" y1="42.71" x2="28.76" y2= "43.81" />
   <path class="fil1 str3" d="M2.04 33.71l0.04 10.11c8.66,0 17.36,0 26.06,0 0.08,0 0.65,-0.01 0.67,-0.01 1.03,-0.02 2.07,-0.09 3.07,-0.19 0.32,-0.04 0.61,-0.07 0.61,-0.07 0.25,-0.03 1,-0.13 1.83,-0.3 0.49,-0.1 1.42,-0.28 2.52,-0.64 1.01,-0.33 2.63,-0.89 4.35,-2.12 0.52,-0.38 1,-0.78 1.43,-1.21 1.23,-1.23 2.08,-2.69 2.53,-4.35 0.26,-0.94 0.39,-1.94 0.39,-3 0,-0.46 -0.03,-0.91 -0.09,-1.35 -0.22,-1.56 -0.83,-3.04 -1.77,-4.35 -0.67,-0.92 -1.5,-1.75 -2.48,-2.47 -1.08,-0.78 -2.34,-1.42 -3.76,-1.88 -0.19,-0.06 -0.39,-0.12 -0.59,-0.18 -0.43,-0.12 -0.88,-0.22 -1.34,-0.31 0.46,-0.11 0.9,-0.23 1.34,-0.37 1.1,-0.36 2.04,-0.78 2.94,-1.36"/>
   <path class="fil1 str1" d="M29.9 25.11c1.51,0.86 3.4,2.17 5.15,4.13 0.66,0.74 1.21,1.48 1.67,2.17 0,0 0.2,0.37 0.42,0.98 0.09,0.25 0.43,1.23 0.54,2.42 0.08,0.87 0.02,2.35 -0.52,3.96 -0.74,2.21 -2.05,3.69 -2.87,4.48"/>
   <path class="fil1 str1" d="M27.17 43.77c-0.02,0.01 -0.03,0.02 -0.05,0.03"/>
   <path class="fil1 str1" d="M31.71 31.43c0.6,1.45 0.91,2.71 1.03,3.63 0.27,2.01 0.18,4.23 -0.19,5.78 -0.22,0.95 -0.5,1.59 -0.5,1.59 -0.2,0.4 -0.41,0.79 -0.61,1.19"/>
   <path class="fil1 str1" d="M16.08 26.11c3.01,-1.2 6.09,-1.34 8.94,-1.48 1.03,-0.05 2.09,-0.04 3.31,0.14 1.97,0.28 3.39,0.86 3.81,1.04 1.05,0.45 2.72,1.17 4.26,2.81 0.88,0.94 1.38,1.8 1.56,2.14 0.28,0.52 0.87,1.73 1.09,3.38 0.31,2.37 -0.35,4.2 -0.66,5.03 -0.61,1.64 -1.49,2.84 -2.2,3.64"/>
   <path class="fil1 str1" d="M8.97 31.83c1.44,-2.07 2.96,-3.32 3.97,-4.03 0.88,-0.62 1.77,-1.11 2.67,-1.5"/>
   <path class="fil1 str1" d="M7.88 19.3c-0.02,0.74 -0.1,1.56 -0.27,2.45 -0.44,2.29 -1.32,4.08 -2.07,5.32"/>
   <path class="fil1 str1" d="M8.62 20c0.1,0.35 0.23,0.88 0.27,1.52 0.13,1.79 -0.46,3.17 -0.93,4.24 -0.35,0.79 -0.93,1.9 -1.92,3.07"/>
   <path class="fil1 str1" d="M7.99 20.03c0.09,0.33 0.19,0.81 0.23,1.41 0.1,1.66 -0.38,2.94 -0.78,3.94 -0.29,0.73 -0.78,1.77 -1.6,2.86"/>
   <path class="fil1 str1" d="M9.55 23.62c-0.08,0.68 -0.23,1.46 -0.51,2.3 -0.69,2.09 -1.92,3.79 -2.74,4.67"/>
   <path class="fil0 str1" d="M31.66 27.17l0 7.92 -16.05 0.85 -0.06 -9.61 0.53 -0.22 15.46 0.91c0.07,0.02 0.11,0.06 0.12,0.15z"/>
   <polygon class="fil1 str1" points="20.37,43.8 18.81,43.8 18.81,35.93 20.37,35.9 "/>
   <line class="fil1 str1" x1="17.01" y1="26.16" x2="19.68" y2= "27.37" />
   <polygon class="fil2 str1" points="20.14,28.42 18.7,28.42 18.7,27.36 20.14,27.36 "/>
   <line class="fil1 str1" x1="20.86" y1="26.39" x2="23.17" y2= "27.44" />
   <polygon class="fil2 str1" points="23.64,28.49 22.2,28.49 22.2,27.43 23.64,27.43 "/>
   <line class="fil1 str1" x1="24.31" y1="26.57" x2="26.97" y2= "27.78" />
   <polygon class="fil2 str1" points="27.44,28.83 26,28.83 26,27.77 27.44,27.77 "/>
   <line class="fil1 str1" x1="28.25" y1="26.83" x2="30.62" y2= "27.97" />
   <polygon class="fil2 str1" points="31.08,29.02 29.64,29.02 29.64,27.96 31.08,27.96 "/>
   <path class="fil1 str1" d="M31.66 27.96c0.72,0.48 1.28,1.01 1.7,1.53 4.01,4.88 0.23,13.04 -0.2,13.94"/>
   <path class="fil1 str1" d="M10.06 27.35c1.06,-1.22 2.14,-2.18 3.19,-2.96 8.31,-6.14 19.08,-3.81 22.25,-3.01"/>
   <path class="fil1 str1" d="M39.7 29.31c0.67,0.19 1.2,0.46 1.61,0.73 3.02,1.99 3.04,6.28 3.04,6.92"/>
   <g>
    <path class="fil1 str1" d="M6.98 36.22c-0.17,0.27 -0.41,0.74 -0.53,1.34 -0.23,1.18 0.2,2.06 0.41,2.41 0.66,1.08 1.73,1.26 2.01,1.3 0.31,0.04 1.3,0.15 2.32,-0.59 0.89,-0.65 1.36,-1.63 1.53,-2.34 0.27,-1.08 0.08,-2.37 -0.17,-3.01 -0.05,-0.13 -0.19,-0.46 -0.19,-0.94 0,-0.15 0.02,-0.27 0.11,-0.77 0.2,-1.05 0.22,-1.02 0.23,-1.18 0.01,-0.73 -0.5,-1.19 -0.54,-1.23 -0.43,-0.38 -1.22,-0.57 -1.76,-0.11 -0.22,0.19 -0.34,0.43 -0.4,0.6"/>
    <path class="fil1 str1" d="M8.98 34.69c0.1,0.12 0.25,0.3 0.42,0.52 0.43,0.55 0.47,0.69 0.47,0.83 0,0.32 -0.2,0.59 -0.33,0.76 -0.1,0.14 -0.46,0.61 -0.92,0.62 -0.22,0 -0.37,-0.1 -0.45,-0.16"/>
    <path class="fil1 str1" d="M8.89 36.3c-0.11,0.06 -0.45,0.25 -0.65,0.66 -0.18,0.36 -0.15,0.68 -0.12,0.93 0.02,0.17 0.08,0.79 0.58,1.2 0.09,0.07 0.74,0.59 1.52,0.22 0.49,-0.23 0.87,-0.72 1.03,-1.22 0.1,-0.34 -0.01,-0.99 -0.24,-2.29 -0.04,-0.25 -0.12,-0.66 0.02,-1.17 0.07,-0.24 0.16,-0.43 0.23,-0.56"/>
   </g>
   <path class="fil3 str4" d="M29.84 8.27l0 -3.9 10.47 0 0 0.56m0 3.82l0 2.81m0 4.46l0 3.63 -10.47 0 0 -4.42"/>
   <path class="fil1 str5" d="M10.88 13.8c0.25,0.08 0.61,0.24 0.95,0.57 0.17,0.17 0.5,0.55 0.76,1.7 0.12,0.57 0.25,1.41 0.19,2.46"/>
   <path class="fil1 str6" d="M11.19 12.84c0.25,0.06 0.63,0.19 0.99,0.49 0.18,0.15 0.54,0.51 0.89,1.64 0.17,0.56 0.36,1.38 0.38,2.44"/>
   <path class="fil1 str1" d="M7.62 14.19c-0.37,0.04 -0.88,0.16 -1.26,0.55 -0.27,0.28 -0.2,0.41 -0.51,0.97 -0.52,0.96 -0.99,1.05 -1.21,1.88 -0.05,0.18 -0.06,0.31 -0.08,0.53 -0.07,0.65 -0.01,1.19 0.05,1.56"/>
   <path class="fil1 str7" d="M6.05 14.5c-0.37,0.04 -0.88,0.16 -1.26,0.55 -0.27,0.28 -0.2,0.41 -0.51,0.97 -0.52,0.96 -0.99,1.05 -1.21,1.88 -0.05,0.18 -0.06,0.31 -0.08,0.53 -0.07,0.65 -0.01,1.19 0.05,1.56"/>
   <path class="fil1 str1" d="M8.73 14.28c-0.37,0.04 -0.88,0.16 -1.26,0.55 -0.27,0.28 -0.2,0.41 -0.51,0.97 -0.52,0.96 -0.99,1.05 -1.21,1.88 -0.05,0.18 -0.06,0.31 -0.08,0.53 -0.07,0.65 -0.01,1.19 0.05,1.56"/>
   <path class="fil1 str1" d="M9.81 14.28c-0.37,0.04 -0.88,0.16 -1.26,0.55 -0.27,0.28 -0.2,0.41 -0.51,0.97 -0.52,0.96 -0.99,1.05 -1.21,1.88 -0.05,0.18 -0.06,0.31 -0.08,0.53 -0.07,0.65 -0.01,1.19 0.05,1.56"/>
   <path class="fil1 str8" d="M12.21 20.39c0,0.55 -0.47,0.99 -1.04,0.99 -0.57,0 -1.04,-0.44 -1.04,-0.99 0,-0.33 0.18,-0.57 0.25,-0.65 0.02,-0.02 0.33,-0.36 0.79,-0.34 0.48,0.01 1.04,0.4 1.04,0.99"/>
   <line class="fil1 str1" x1="8.58" y1="18.63" x2="11.85" y2= "18.63" />
   <line class="fil1 str1" x1="8.58" y1="17.46" x2="11.85" y2= "17.46" />
   <polygon class="fil1 str1" points="10.78,10.76 10.78,13.16 4.47,13.16 4.47,5.89 7.81,5.89 7.81,10.76 "/>
   <polygon class="fil1 str1" points="7.02,4.68 7.01,3.65 10.9,3.64 10.9,6.75 8.85,6.76 8.84,4.68 "/>
   <path class="fil1 str9" d="M13.63 9.98c0.59,-0.16 2.92,-0.89 4.58,-3.65 1.59,-2.66 1.51,-5.45 1.46,-6.2"/>
   <line class="fil1 str1" x1="6.56" y1="6.77" x2="13.31" y2= "6.8" />
   <line class="fil1 str1" x1="5.54" y1="7.66" x2="8.27" y2= "7.67" />
   <path class="fil2 str10" d="M41.29 6.83c0,0.48 -0.41,0.86 -0.91,0.86 -0.5,0 -0.91,-0.39 -0.91,-0.86 0,-0.28 0.16,-0.5 0.22,-0.56 0.02,-0.02 0.28,-0.31 0.69,-0.3 0.42,0.01 0.91,0.35 0.91,0.86z"/>
   <polygon class="fil1 str11" points="42.41,12.28 42.41,15.37 35.91,15.37 35.91,12.28 "/>
   <polyline class="fil1 str11" points="42.41,12.28 41.57,13.21 36.69,13.21 35.91,12.28 "/>
   <path class="fil1 str1" d="M40.37 19.26c0.29,-0.21 0.56,-0.42 0.82,-0.65 0.38,-0.33 0.73,-0.69 1.05,-1.08 1.01,-1.22 1.7,-2.67 1.98,-4.35 0.09,-0.55 0.14,-1.11 0.14,-1.71 0,-0.94 -0.11,-1.82 -0.32,-2.64 -0.09,-0.33 -0.19,-0.65 -0.3,-0.97m-1.45 -2.55c-0.1,-0.1 -0.67,-0.74 -0.77,-0.84 -0.1,-0.1 -0.21,-0.2 -0.31,-0.29 -1.16,-1.05 -2.62,-1.9 -4.35,-2.55 -1.3,-0.49 -2.76,-0.86 -4.35,-1.11 -1.35,-0.21 -2.8,-0.34 -4.35,-0.38 -0.32,-0.01 -0.64,-0.01 -0.97,-0.01"/>
   <polygon class="fil1 str12" points="8.51,9.11 5.79,9.11 5.79,8.53 8.51,8.53 "/>
   <polygon class="fil1 str13" points="11.36,7.95 8.65,7.95 8.65,7.37 11.36,7.37 "/>
   <path class="fil1 str1" d="M6.6 0.13c-0.15,0.18 -0.67,0.81 -0.69,1.77 -0.02,1.2 0.76,1.96 0.89,2.08"/>
   <path class="fil1 str14" d="M7.93 0.56c0.09,0.17 0.19,0.41 0.25,0.69 0.11,0.54 0.02,0.99 -0.05,1.24"/>
   <path class="fil1 str15" d="M7.79 1.68c0,0.34 -0.32,0.61 -0.72,0.61 -0.4,0 -0.72,-0.27 -0.72,-0.61 0,-0.34 0.32,-0.61 0.72,-0.61 0.4,0 0.72,0.27 0.72,0.61"/>
   <line class="fil1 str14" x1="8.13" y1="1.07" x2="9.73" y2= "1.07" />
   <line class="fil1 str14" x1="8.13" y1="2.3" x2="9.73" y2= "2.3" />
   <line class="fil1 str1" x1="3.76" y1="2.3" x2="5.35" y2= "2.3" />
   <line class="fil1 str1" x1="4.31" y1="2.3" x2="5.91" y2= "2.3" />
   <line class="fil1 str1" x1="4.31" y1="1.07" x2="6.14" y2= "1.07" />
   <path class="fil0 str16" d="M26.83 14.44c0.26,1.03 0.54,2.03 0.77,3.04 0.11,0.48 -0.15,0.83 -0.64,0.53 -2.09,-1.29 -4.15,-1.66 -6.5,-1.13 -0.14,0.41 -0.14,0.41 -1.08,0.92 0.46,0.74 0.91,1.48 1.36,2.22 0.4,0.64 0.35,0.79 -0.35,1 -0.37,0.11 -0.73,0.21 -1.09,0.34 -0.32,0.12 -0.53,0.02 -0.71,-0.28 -0.44,-0.75 -0.92,-1.48 -1.36,-2.24 -0.16,-0.28 -0.32,-0.43 -0.64,-0.27 -0.35,0.17 -0.59,0.04 -0.65,-0.37 -0.04,-0.27 -0.18,-0.33 -0.41,-0.36 -0.84,-0.09 -1.43,-0.62 -1.63,-1.44 -0.21,-0.88 0.05,-1.6 0.71,-2.15 0.2,-0.17 0.26,-0.31 0.17,-0.55 -0.14,-0.4 0.03,-0.59 0.39,-0.7 1.11,-0.33 2.22,-0.68 3.34,-1.01 0.15,-0.04 0.42,-0.05 0.48,0.04 0.21,0.35 0.46,0.2 0.69,0.1 1.81,-0.8 3.25,-2.09 4.28,-3.88 0.12,-0.2 0.2,-0.43 0.33,-0.62 0.32,-0.44 0.63,-0.47 0.8,0.1 0.25,0.85 0.46,1.71 0.67,2.58 0.07,0.31 0.17,0.46 0.51,0.5 0.73,0.09 1.24,0.55 1.45,1.32 0.22,0.79 0,1.46 -0.56,2.02 -0.09,0.09 -0.2,0.17 -0.34,0.28z"/>
   <path class="fil1 str17" d="M30.37 10.46c0.49,1.46 0.47,2.49 0.08,3.52 -0.08,0.22 -0.16,0.5 -0.47,0.39 -0.31,-0.12 -0.2,-0.37 -0.12,-0.61 0.66,-1.85 0.04,-3.71 -1.56,-4.68 -0.2,-0.12 -0.46,-0.23 -0.3,-0.54 0.16,-0.32 0.41,-0.16 0.62,-0.03 0.9,0.54 1.53,1.33 1.74,1.95"/>
   <path class="fil1 str17" d="M29.1 11.44c0.19,0.64 0.22,1.31 -0.07,1.95 -0.17,0.37 -0.69,0.26 -0.56,-0.23 0.32,-1.22 0.07,-1.97 -0.91,-2.69 -0.32,-0.24 -0.12,-0.76 0.29,-0.56 0.6,0.3 0.99,0.83 1.24,1.52z"/>
   <line class="fil1 str18" x1="20.19" y1="11.9" x2="21.49" y2= "16.75" />
   <line class="fil1 str19" x1="17.1" y1="18.66" x2="19.38" y2= "17.79" />
  </g>
 </g>
</svg>
