<?xml version="1.0" encoding="UTF-8"?>
<!DOCTYPE svg PUBLIC "-//W3C//DTD SVG 1.1//EN" "http://www.w3.org/Graphics/SVG/1.1/DTD/svg11.dtd">
<!-- Creator: CorelDRAW 2020 (64-Bit) -->
<svg xmlns="http://www.w3.org/2000/svg" xml:space="preserve" width="1.85713in" height="0.176469in" version="1.1" style="shape-rendering:geometricPrecision; text-rendering:geometricPrecision; image-rendering:optimizeQuality; fill-rule:evenodd; clip-rule:evenodd"
viewBox="0 0 524.99 49.89"
 xmlns:xlink="http://www.w3.org/1999/xlink"
 xmlns:xodm="http://www.corel.com/coreldraw/odm/2003">
 <defs>
  <style type="text/css">
   <![CDATA[
    .fil0 {fill:white;fill-rule:nonzero}
   ]]>
  </style>
 </defs>
 <g id="Layer_x0020_1">
  <metadata id="CorelCorpID_0Corel-Layer"/>
  <g id="_1678147461648">
   <path class="fil0" d="M-0 49.19l7.07 0 1.39 -9.49 8.66 0 0 -0.14 1.39 9.63 7.62 0 -7.9 -48.5 -10.32 0 -7.9 48.5zm9.35 -16.07l3.33 -23.97 0.14 0 3.39 23.97 -6.86 0zm34.74 16.77c7.48,0 11.36,-4.44 11.36,-12.19l0 -15.87 -11.02 0 0 6.93 3.81 0 0 9.49c0,3.46 -1.52,4.71 -3.95,4.71 -2.43,0 -3.95,-1.25 -3.95,-4.71l0 -26.54c0,-3.46 1.52,-4.78 3.95,-4.78 2.42,0 3.95,1.32 3.95,4.78l0 4.64 7.21 0 0 -4.16c0,-7.76 -3.88,-12.19 -11.36,-12.19 -7.48,0 -11.36,4.44 -11.36,12.19l0 25.5c0,7.76 3.88,12.19 11.36,12.19zm19.91 -0.69l7.62 0 0 -21.82 8.18 0 0 21.82 7.62 0 0 -48.5 -7.62 0 0 19.75 -8.18 0 0 -19.75 -7.62 0 0 48.5zm43.75 0.69c7.48,0 11.57,-4.44 11.57,-12.19l0 -25.5c0,-7.76 -4.09,-12.19 -11.57,-12.19 -7.48,0 -11.57,4.44 -11.57,12.19l0 25.5c0,7.76 4.09,12.19 11.57,12.19zm0 -6.93c-2.43,0 -3.95,-1.32 -3.95,-4.78l0 -26.47c0,-3.46 1.52,-4.78 3.95,-4.78 2.42,0 3.95,1.32 3.95,4.78l0 26.47c0,3.46 -1.52,4.78 -3.95,4.78zm20.33 6.24l7.62 0 0 -20.79 2.63 0c3.46,0 4.78,1.45 4.78,5.96l0 8.87c0,3.95 0.28,4.71 0.69,5.96l7.76 0c-0.76,-1.8 -0.83,-3.53 -0.83,-5.89l0 -8.52c0,-5.47 -1.25,-9.08 -5.06,-10.25l0 -0.14c3.39,-1.39 4.99,-4.57 4.99,-9.56l0 -2.98c0,-7.48 -3.4,-11.15 -11.29,-11.15l-11.29 0 0 48.5zm7.62 -27.71l0 -13.86 3.46 0c2.7,0 3.88,1.52 3.88,4.99l0 3.74c0,3.88 -1.73,5.13 -4.57,5.13l-2.77 0zm23.93 27.71l7.62 0 0 -48.5 -7.62 0 0 48.5zm28.02 0l6.65 0 0 -36.72 0.14 0 5.54 36.72 6.37 0 5.54 -36.72 0.14 0 0 36.72 7.21 0 0 -48.5 -10.88 0 -4.85 34.71 -0.14 0 -4.85 -34.71 -10.88 0 0 48.5zm40.9 0l20.79 0 0 -6.93 -13.16 0 0 -14.9 10.46 0 0 -6.93 -10.46 0 0 -12.82 13.16 0 0 -6.93 -20.79 0 0 48.5zm28.78 0l11.64 0c7.62,0 11.36,-4.23 11.36,-11.99l0 -24.53c0,-7.76 -3.74,-11.99 -11.36,-11.99l-11.64 0 0 48.5zm7.62 -6.93l0 -34.64 3.88 0c2.43,0 3.88,1.25 3.88,4.71l0 25.22c0,3.46 -1.46,4.71 -3.88,4.71l-3.88 0zm24.14 6.93l7.62 0 0 -48.5 -7.62 0 0 48.5zm14.92 0l7.07 0 1.39 -9.49 8.66 0 0 -0.14 1.39 9.63 7.62 0 -7.9 -48.5 -10.32 0 -7.9 48.5zm9.35 -16.07l3.33 -23.97 0.14 0 3.39 23.97 -6.86 0zm35.15 16.07l7.62 0 0 -21.82 8.18 0 0 21.82 7.62 0 0 -48.5 -7.62 0 0 19.75 -8.18 0 0 -19.75 -7.62 0 0 48.5zm43.75 0.69c7.48,0 11.57,-4.44 11.57,-12.19l0 -25.5c0,-7.76 -4.09,-12.19 -11.57,-12.19 -7.48,0 -11.57,4.44 -11.57,12.19l0 25.5c0,7.76 4.09,12.19 11.57,12.19zm0 -6.93c-2.43,0 -3.95,-1.32 -3.95,-4.78l0 -26.47c0,-3.46 1.52,-4.78 3.95,-4.78 2.42,0 3.95,1.32 3.95,4.78l0 26.47c0,3.46 -1.52,4.78 -3.95,4.78zm31.41 6.93c7.48,0 11.36,-4.44 11.36,-12.19l0 -37 -7.34 0 0 37.55c0,3.46 -1.46,4.71 -3.88,4.71 -2.42,0 -3.88,-1.25 -3.88,-4.71l0 -37.55 -7.62 0 0 37c0,7.76 3.88,12.19 11.36,12.19zm30.3 0c7.48,0 11.5,-4.44 11.5,-12.33 0,-6.03 -2.01,-9.91 -8.38,-15.52 -4.99,-4.36 -6.58,-6.93 -6.58,-10.46 0,-3.33 1.39,-4.64 3.81,-4.64 2.43,0 3.81,1.32 3.81,4.78l0 2.49 7.21 0 0 -2.01c0,-7.76 -3.67,-12.19 -11.08,-12.19 -7.41,0 -11.36,4.44 -11.36,12.06 0,5.54 2.08,9.49 8.45,15.1 4.99,4.36 6.51,6.93 6.51,10.95 0,3.6 -1.52,4.85 -3.95,4.85 -2.43,0 -3.95,-1.25 -3.95,-4.71l0 -3.33 -7.21 0 0 2.77c0,7.76 3.74,12.19 11.22,12.19zm19.49 -0.69l20.79 0 0 -6.93 -13.16 0 0 -14.9 10.46 0 0 -6.93 -10.46 0 0 -12.82 13.16 0 0 -6.93 -20.79 0 0 48.5z"/>
   <path class="fil0" d="M513.42 36.91c6.65,0 11.56,-5.09 11.56,-11.96 0,-6.88 -4.92,-11.96 -11.56,-11.96 -6.65,0 -11.57,5.08 -11.57,11.96 0,6.88 4.92,11.96 11.57,11.96zm0 -2.33c-5.35,0 -9.17,-4.02 -9.17,-9.64 0,-5.62 3.82,-9.64 9.17,-9.64 5.35,0 9.17,4.02 9.17,9.64 0,5.62 -3.82,9.64 -9.17,9.64zm-3.66 -2.53l2.53 0 0 -5.75 0.86 0c1.16,0 1.7,0.53 1.7,2.06l0 1.7c0,1.33 0.07,1.56 0.23,1.99l2.59 0c-0.27,-0.6 -0.3,-1.2 -0.3,-1.96l0 -1.7c0,-1.7 -0.43,-2.86 -1.73,-3.39l0 -0.07c1.2,-0.53 1.73,-1.56 1.73,-3.09l0 -0.3c0,-2.49 -1.16,-3.72 -3.76,-3.72l-3.86 0 0 14.22zm2.53 -8.08l0 -3.82 1.2 0c0.96,0 1.36,0.53 1.36,1.7l0 0.43c0,1.3 -0.6,1.7 -1.53,1.7l-1.03 0z"/>
  </g>
 </g>
</svg>
