<?xml version="1.0" encoding="utf-8"?>
<!-- Generator: Adobe Illustrator 24.3.0, SVG Export Plug-In . SVG Version: 6.00 Build 0)  -->
<svg version="1.1" id="Layer_1" xmlns="http://www.w3.org/2000/svg" xmlns:xlink="http://www.w3.org/1999/xlink" x="0px" y="0px"
	 viewBox="0 0 200 200" enable-background="new 0 0 200 200" xml:space="preserve">
<path fill="#ffff" d="M138.832,147.848h-77c-5.2,0-9.5-4.3-9.5-9.5v-57c0-5.2,4.3-9.5,9.5-9.5h82.5c1.1,0,2,0.9,2,2s-0.9,2-2,2
	h-82.5c-3,0-5.5,2.5-5.5,5.5v57c0,3,2.5,5.5,5.5,5.5h77c3,0,5.5-2.5,5.5-5.5v-42.5c0-1.1,0.9-2,2-2s2,0.9,2,2v42.5
	C148.332,143.648,144.032,147.848,138.832,147.848z"/>
<path fill="#ffff" d="M100.332,122.248c-0.5,0-1-0.2-1.4-0.6l-31.6-31.6c-0.8-0.8-0.8-2,0-2.8s2-0.8,2.8,0l30.2,30.2l42.4-42.4
	l-19.9-19.9c-0.8-0.8-0.8-2,0-2.8c0.8-0.8,2-0.8,2.8,0l21.3,21.3c0.8,0.8,0.8,2,0,2.8l-45.2,45.2
	C101.332,122.048,100.832,122.248,100.332,122.248z"/>
<path fill="#ffff" d="M69.032,132.348c-0.5,0-1-0.2-1.4-0.6c-0.8-0.8-0.8-2,0-2.8l20.7-20.7c0.8-0.8,2-0.8,2.8,0s0.8,2,0,2.8
	l-20.6,20.8C70.132,132.248,69.532,132.348,69.032,132.348z"/>
<path fill="#ffff" d="M132.632,132.348c-0.5,0-1-0.2-1.4-0.6l-20.7-20.6c-0.8-0.8-0.8-2,0-2.8c0.8-0.8,2-0.8,2.8,0l20.7,20.7
	c0.8,0.8,0.8,2,0,2.8C133.632,132.248,133.132,132.348,132.632,132.348z"/>
</svg>
