<svg id="Layer_1" data-name="Layer 1" xmlns="http://www.w3.org/2000/svg" viewBox="0 0 504 253.57"><defs><style>.cls-1{fill:none;}.cls-2{fill:#141414;}.cls-3{fill:#fff;}</style></defs><title>Inside Page Slider</title><rect class="cls-1" x="0.39" y="0.39" width="503.22" height="252.78"/><path class="cls-2" d="M99.25,88h15.26c10.48,0,15,4.93,15,15v2.6c0,6.7-2,10.88-6.52,12.74v.19c5.42,1.86,7.54,6.69,7.54,13.58v5.58c0,10-5.25,15.43-15.36,15.43H99.25Zm14.06,26.51c3.77,0,6.07-1.68,6.07-6.88V104c0-4.65-1.56-6.7-5.15-6.7h-4.87v17.21Zm1.84,29.29c3.4,0,5.24-1.58,5.24-6.41v-5.68c0-6-1.93-7.9-6.53-7.9h-4.5v20Z"/><path class="cls-3" d="M141,88h15c10.49,0,15,4.93,15,15v4c0,6.7-2.12,11-6.62,12.84v.18c5.06,1.59,6.71,6.42,6.71,13.77v11.44c0,3.16.09,5.49,1.1,7.9H161.91c-.55-1.67-.92-2.69-.92-8V133.15c0-6-1.75-8-6.34-8h-3.5v27.9H141Zm13.79,27.9c3.77,0,6.07-1.67,6.07-6.88v-5c0-4.65-1.57-6.7-5.15-6.7h-4.6v18.6Z"/><path class="cls-2" d="M190.55,88h13.7l10.48,65.1H204.62l-1.84-12.92v.18H191.29l-1.84,12.74h-9.38Zm11,43.53L197.08,99.3h-.18l-4.41,32.18Z"/><path class="cls-3" d="M224.26,88h12.68l9.84,39H247V88h9v65.1H245.58l-12.13-47.52h-.18v47.52h-9Z"/><path class="cls-3" d="M268.16,88h15.45c10.11,0,15.07,5.68,15.07,16.09V137c0,10.42-5,16.09-15.07,16.09H268.16Zm15.26,55.8c3.22,0,5.15-1.67,5.15-6.32V103.58c0-4.65-1.93-6.33-5.15-6.33h-5.15v46.5Z"/><path class="cls-2" d="M310.14,88h10.11v65.1H310.14Z"/><path class="cls-2" d="M332.44,88h12.68l9.84,39h.18V88h9v65.1H353.76l-12.13-47.52h-.18v47.52h-9Z"/><path class="cls-2" d="M375.61,137.62V103.39C375.61,93,380.76,87,390.68,87s15.08,6,15.08,16.37V109H396.2v-6.23c0-4.65-2-6.42-5.24-6.42s-5.24,1.77-5.24,6.42v35.62c0,4.65,2,6.32,5.24,6.32s5.24-1.67,5.24-6.32V125.62h-5.06v-9.3h14.62v21.3c0,10.41-5.15,16.36-15.08,16.36S375.61,148,375.61,137.62Z"/><path class="cls-3" d="M199.57,173.07l-1.28-2.23h-.7v2.23h-.91v-5.56h1.92a2.36,2.36,0,0,1,1.08.22,1.58,1.58,0,0,1,.67.6,1.7,1.7,0,0,1-.1,1.83,1.58,1.58,0,0,1-1,.6l1.37,2.31Zm-2-3h1a1.05,1.05,0,0,0,.77-.25.94.94,0,0,0,.26-.69.91.91,0,0,0-.26-.68,1.09,1.09,0,0,0-.77-.24h-1Z"/><path class="cls-3" d="M205.74,171.2h-3.37a1.26,1.26,0,0,0,.39.85,1.28,1.28,0,0,0,.87.32,1.05,1.05,0,0,0,1-.62h1a2,2,0,0,1-.72,1,2.11,2.11,0,0,1-1.3.39,2.24,2.24,0,0,1-1.13-.29,1.91,1.91,0,0,1-.79-.8,2.41,2.41,0,0,1-.28-1.19,2.47,2.47,0,0,1,.28-1.2,1.89,1.89,0,0,1,.77-.79,2.28,2.28,0,0,1,1.15-.28,2.23,2.23,0,0,1,1.11.27,1.85,1.85,0,0,1,.76.76,2.33,2.33,0,0,1,.27,1.13A3,3,0,0,1,205.74,171.2Zm-.92-.73a1,1,0,0,0-.36-.81,1.28,1.28,0,0,0-.87-.31,1.18,1.18,0,0,0-.81.3,1.28,1.28,0,0,0-.4.82Z"/><path class="cls-3" d="M207.34,173a1.7,1.7,0,0,1-.66-.51,1.28,1.28,0,0,1-.25-.73h.94a.66.66,0,0,0,.27.47,1,1,0,0,0,.61.19,1,1,0,0,0,.6-.15.44.44,0,0,0,.21-.38.4.4,0,0,0-.24-.37,4.51,4.51,0,0,0-.74-.26c-.33-.09-.6-.18-.81-.26a1.41,1.41,0,0,1-.54-.4,1,1,0,0,1-.23-.69,1.1,1.1,0,0,1,.21-.65,1.54,1.54,0,0,1,.59-.46,2.29,2.29,0,0,1,.9-.16,1.81,1.81,0,0,1,1.21.38,1.34,1.34,0,0,1,.49,1H209a.67.67,0,0,0-.24-.47.9.9,0,0,0-.59-.18,1,1,0,0,0-.55.14.41.41,0,0,0-.19.36.38.38,0,0,0,.13.3.79.79,0,0,0,.31.18l.54.18a4.86,4.86,0,0,1,.79.26,1.27,1.27,0,0,1,.53.38,1.08,1.08,0,0,1,.24.68,1.16,1.16,0,0,1-.21.68,1.45,1.45,0,0,1-.59.46,2.21,2.21,0,0,1-.89.17A2.12,2.12,0,0,1,207.34,173Z"/><path class="cls-3" d="M215,171.2h-3.37a1.26,1.26,0,0,0,.39.85,1.28,1.28,0,0,0,.87.32,1.06,1.06,0,0,0,1-.62h1a2,2,0,0,1-.72,1,2.13,2.13,0,0,1-1.3.39,2.24,2.24,0,0,1-1.13-.29,1.91,1.91,0,0,1-.79-.8,2.41,2.41,0,0,1-.28-1.19,2.59,2.59,0,0,1,.27-1.2,2,2,0,0,1,.78-.79,2.46,2.46,0,0,1,2.26,0,1.92,1.92,0,0,1,.76.76,2.33,2.33,0,0,1,.27,1.13A3,3,0,0,1,215,171.2Zm-.92-.73a1.06,1.06,0,0,0-.36-.81,1.32,1.32,0,0,0-.87-.31,1.16,1.16,0,0,0-.81.3,1.24,1.24,0,0,0-.4.82Z"/><path class="cls-3" d="M215.85,169.67a2,2,0,0,1,1.8-1.08,1.85,1.85,0,0,1,1.53.71v-.64h.92v4.41h-.92v-.66a1.73,1.73,0,0,1-.63.52,1.94,1.94,0,0,1-.91.21,2,2,0,0,1-1-.29,2.05,2.05,0,0,1-.75-.82,2.43,2.43,0,0,1-.28-1.19A2.36,2.36,0,0,1,215.85,169.67Zm3.14.4a1.3,1.3,0,0,0-.49-.52,1.35,1.35,0,0,0-1.31,0,1.31,1.31,0,0,0-.49.5,1.76,1.76,0,0,0,0,1.59,1.33,1.33,0,0,0,.49.53,1.31,1.31,0,0,0,.66.18,1.25,1.25,0,0,0,.65-.18,1.3,1.3,0,0,0,.49-.52,1.54,1.54,0,0,0,.19-.79A1.52,1.52,0,0,0,219,170.07Z"/><path class="cls-3" d="M222.74,168.77a1.67,1.67,0,0,1,.79-.18v.94h-.23a1.1,1.1,0,0,0-.81.27,1.28,1.28,0,0,0-.28.95v2.32h-.91v-4.41h.91v.64A1.49,1.49,0,0,1,222.74,168.77Z"/><path class="cls-3" d="M224.35,169.66a1.87,1.87,0,0,1,.76-.79,2.43,2.43,0,0,1,2.44.1,1.84,1.84,0,0,1,.71,1.08h-1a1,1,0,0,0-.39-.51,1.21,1.21,0,0,0-1.55.21,1.67,1.67,0,0,0-.33,1.11,1.71,1.71,0,0,0,.33,1.11,1.09,1.09,0,0,0,.89.4,1,1,0,0,0,1.05-.7h1a2,2,0,0,1-.72,1.07,2.08,2.08,0,0,1-1.31.4,2.17,2.17,0,0,1-1.12-.29,1.84,1.84,0,0,1-.76-.8,2.41,2.41,0,0,1-.28-1.19A2.47,2.47,0,0,1,224.35,169.66Z"/><path class="cls-3" d="M232.35,168.8a1.62,1.62,0,0,1,.63.64,2.2,2.2,0,0,1,.22,1v2.6h-.9V170.6a1.3,1.3,0,0,0-.3-.91,1,1,0,0,0-.8-.31,1.07,1.07,0,0,0-.82.31,1.3,1.3,0,0,0-.3.91v2.47h-.91v-5.92h.91v2a1.5,1.5,0,0,1,.59-.43,2,2,0,0,1,.78-.15A1.87,1.87,0,0,1,232.35,168.8Z"/><path class="cls-3" d="M236.42,169.67a2,2,0,0,1,1.8-1.08,1.88,1.88,0,0,1,.91.2,2,2,0,0,1,.62.51v-.64h.92v4.41h-.92v-.66a1.91,1.91,0,0,1-.63.52,1.94,1.94,0,0,1-.91.21,2,2,0,0,1-1-.29,2.05,2.05,0,0,1-.75-.82,2.43,2.43,0,0,1-.28-1.19A2.36,2.36,0,0,1,236.42,169.67Zm3.14.4a1.3,1.3,0,0,0-.49-.52,1.35,1.35,0,0,0-1.31,0,1.33,1.33,0,0,0-.5.5,1.85,1.85,0,0,0,0,1.59,1.42,1.42,0,0,0,.5.53,1.28,1.28,0,0,0,.65.18,1.26,1.26,0,0,0,.66-.18,1.3,1.3,0,0,0,.49-.52,1.54,1.54,0,0,0,.19-.79A1.52,1.52,0,0,0,239.56,170.07Z"/><path class="cls-3" d="M245,168.8a1.6,1.6,0,0,1,.65.64,2.21,2.21,0,0,1,.23,1v2.6H245V170.6a1.3,1.3,0,0,0-.3-.91,1.21,1.21,0,0,0-1.62,0,1.3,1.3,0,0,0-.3.91v2.47h-.91v-4.41h.91v.5a1.51,1.51,0,0,1,.57-.42,1.88,1.88,0,0,1,.74-.15A2,2,0,0,1,245,168.8Z"/><path class="cls-3" d="M247,169.67a2.14,2.14,0,0,1,.75-.8,2,2,0,0,1,1.06-.28,2.18,2.18,0,0,1,.86.18,1.8,1.8,0,0,1,.66.5v-2.12h.92v5.92h-.92v-.67a1.55,1.55,0,0,1-.62.53,1.87,1.87,0,0,1-.9.21,2,2,0,0,1-1.06-.29A2.2,2.2,0,0,1,247,172a2.54,2.54,0,0,1-.27-1.19A2.46,2.46,0,0,1,247,169.67Zm3.15.4a1.32,1.32,0,0,0-.5-.52,1.35,1.35,0,0,0-1.31,0,1.38,1.38,0,0,0-.49.5,1.76,1.76,0,0,0,0,1.59,1.35,1.35,0,0,0,.5.53,1.26,1.26,0,0,0,1.3,0,1.32,1.32,0,0,0,.5-.52,1.65,1.65,0,0,0,.18-.79A1.62,1.62,0,0,0,250.18,170.07Z"/><path class="cls-3" d="M254.54,169.67a2,2,0,0,1,.75-.8,2,2,0,0,1,1.06-.28,2.13,2.13,0,0,1,.85.18,1.93,1.93,0,0,1,.67.5v-2.12h.92v5.92h-.92v-.67a1.7,1.7,0,0,1-.62.53,1.94,1.94,0,0,1-.91.21,2,2,0,0,1-1-.29,2.05,2.05,0,0,1-.75-.82,2.43,2.43,0,0,1-.28-1.19A2.36,2.36,0,0,1,254.54,169.67Zm3.14.4a1.37,1.37,0,0,0-.49-.52,1.35,1.35,0,0,0-1.31,0,1.33,1.33,0,0,0-.5.5,1.85,1.85,0,0,0,0,1.59,1.42,1.42,0,0,0,.5.53,1.28,1.28,0,0,0,.65.18,1.26,1.26,0,0,0,.66-.18,1.37,1.37,0,0,0,.49-.52,1.65,1.65,0,0,0,.19-.79A1.62,1.62,0,0,0,257.68,170.07Z"/><path class="cls-3" d="M264,171.2h-3.37a1.22,1.22,0,0,0,.39.85,1.24,1.24,0,0,0,.86.32,1.05,1.05,0,0,0,1-.62h1a2,2,0,0,1-.73,1,2.11,2.11,0,0,1-1.3.39,2.26,2.26,0,0,1-1.13-.29,1.94,1.94,0,0,1-.78-.8,2.41,2.41,0,0,1-.29-1.19,2.59,2.59,0,0,1,.28-1.2,1.86,1.86,0,0,1,.78-.79,2.24,2.24,0,0,1,1.14-.28,2.29,2.29,0,0,1,1.12.27,2,2,0,0,1,.76.76,2.33,2.33,0,0,1,.27,1.13A3,3,0,0,1,264,171.2Zm-.92-.73a1.06,1.06,0,0,0-.36-.81,1.33,1.33,0,0,0-.88-.31,1.15,1.15,0,0,0-.8.3,1.24,1.24,0,0,0-.4.82Z"/><path class="cls-3" d="M266.63,172.25l1.25-3.59h1l-1.68,4.41h-1.08l-1.68-4.41h1Z"/><path class="cls-3" d="M273.54,171.2h-3.37a1.26,1.26,0,0,0,.39.85,1.28,1.28,0,0,0,.87.32,1.06,1.06,0,0,0,1-.62h1a2,2,0,0,1-.72,1,2.13,2.13,0,0,1-1.3.39,2.24,2.24,0,0,1-1.13-.29,1.91,1.91,0,0,1-.79-.8,2.41,2.41,0,0,1-.28-1.19,2.59,2.59,0,0,1,.27-1.2,2,2,0,0,1,.78-.79,2.46,2.46,0,0,1,2.26,0,1.92,1.92,0,0,1,.76.76,2.33,2.33,0,0,1,.27,1.13A3,3,0,0,1,273.54,171.2Zm-.92-.73a1.06,1.06,0,0,0-.36-.81,1.32,1.32,0,0,0-.87-.31,1.16,1.16,0,0,0-.81.3,1.24,1.24,0,0,0-.4.82Z"/><path class="cls-3" d="M275.38,167.15v5.92h-.91v-5.92Z"/><path class="cls-3" d="M277.36,172.85a2,2,0,0,1-.79-.8,2.41,2.41,0,0,1-.29-1.19,2.31,2.31,0,0,1,.3-1.19,2,2,0,0,1,.81-.8,2.29,2.29,0,0,1,1.14-.28,2.36,2.36,0,0,1,1.15.28,1.93,1.93,0,0,1,.8.8,2.31,2.31,0,0,1,.3,1.19,2.25,2.25,0,0,1-.31,1.19,2,2,0,0,1-.82.8,2.4,2.4,0,0,1-1.16.29A2.26,2.26,0,0,1,277.36,172.85Zm1.79-.67a1.23,1.23,0,0,0,.5-.51,1.57,1.57,0,0,0,.19-.81,1.67,1.67,0,0,0-.18-.81,1.32,1.32,0,0,0-1.8-.5,1.14,1.14,0,0,0-.47.5,1.67,1.67,0,0,0-.18.81,1.57,1.57,0,0,0,.36,1.1,1.22,1.22,0,0,0,.92.39A1.35,1.35,0,0,0,279.15,172.18Z"/><path class="cls-3" d="M283.23,168.79a2,2,0,0,1,.9-.2,2,2,0,0,1,1.8,1.08,2.46,2.46,0,0,1,.27,1.17,2.54,2.54,0,0,1-.27,1.19,2.05,2.05,0,0,1-.75.82,2,2,0,0,1-1.05.29,1.9,1.9,0,0,1-.9-.21,2,2,0,0,1-.64-.5v2.73h-.91v-6.5h.91v.65A1.85,1.85,0,0,1,283.23,168.79Zm1.86,1.26a1.33,1.33,0,0,0-.5-.5,1.35,1.35,0,0,0-1.31,0,1.32,1.32,0,0,0-.5.52,1.62,1.62,0,0,0-.19.79,1.65,1.65,0,0,0,.19.79,1.32,1.32,0,0,0,.5.52,1.28,1.28,0,0,0,1.31,0,1.35,1.35,0,0,0,.5-.53,1.85,1.85,0,0,0,0-1.59Z"/><path class="cls-3" d="M293.37,168.8a1.6,1.6,0,0,1,.65.64,2.09,2.09,0,0,1,.24,1v2.6h-.91V170.6a1.29,1.29,0,0,0-.29-.91,1.21,1.21,0,0,0-1.62,0,1.3,1.3,0,0,0-.3.91v2.47h-.91V170.6a1.29,1.29,0,0,0-.29-.91,1.21,1.21,0,0,0-1.62,0,1.3,1.3,0,0,0-.3.91v2.47h-.91v-4.41H288v.5a1.51,1.51,0,0,1,.57-.42,1.8,1.8,0,0,1,.73-.15,2,2,0,0,1,.95.22,1.6,1.6,0,0,1,.64.65,1.47,1.47,0,0,1,.62-.64,1.92,1.92,0,0,1,.91-.23A2,2,0,0,1,293.37,168.8Z"/><path class="cls-3" d="M299.43,171.2h-3.37a1.22,1.22,0,0,0,.39.85,1.24,1.24,0,0,0,.86.32,1.05,1.05,0,0,0,1-.62h1a2,2,0,0,1-.73,1,2.11,2.11,0,0,1-1.3.39,2.24,2.24,0,0,1-1.13-.29,1.94,1.94,0,0,1-.78-.8,2.41,2.41,0,0,1-.29-1.19,2.59,2.59,0,0,1,.28-1.2,1.86,1.86,0,0,1,.78-.79,2.24,2.24,0,0,1,1.14-.28,2.29,2.29,0,0,1,1.12.27,2,2,0,0,1,.76.76,2.33,2.33,0,0,1,.27,1.13A3,3,0,0,1,299.43,171.2Zm-.92-.73a1.06,1.06,0,0,0-.36-.81,1.33,1.33,0,0,0-.88-.31,1.15,1.15,0,0,0-.8.3,1.24,1.24,0,0,0-.4.82Z"/><path class="cls-3" d="M303.51,168.8a1.58,1.58,0,0,1,.64.64,2.09,2.09,0,0,1,.24,1v2.6h-.91V170.6a1.3,1.3,0,0,0-.3-.91,1,1,0,0,0-.8-.31,1.09,1.09,0,0,0-.82.31,1.35,1.35,0,0,0-.3.91v2.47h-.91v-4.41h.91v.5a1.47,1.47,0,0,1,.58-.42,1.85,1.85,0,0,1,.74-.15A2.05,2.05,0,0,1,303.51,168.8Z"/><path class="cls-3" d="M306.61,169.4v2.44a.5.5,0,0,0,.11.36.6.6,0,0,0,.4.11h.56v.76H307a1.39,1.39,0,0,1-.94-.29,1.19,1.19,0,0,1-.33-.94V169.4h-.52v-.74h.52v-1.1h.92v1.1h1.07v.74Z"/></svg>