<svg id="Layer_1" data-name="Layer 1" xmlns="http://www.w3.org/2000/svg" viewBox="0 0 504 253.57"><defs><style>.cls-1{fill:none;}.cls-2,.cls-3{fill:#fff;}.cls-3{fill-rule:evenodd;}.cls-4{fill:#333;}</style></defs><title>Inside Page Slider</title><rect class="cls-1" x="0.39" y="0.39" width="503.22" height="252.78"/><path class="cls-2" d="M120.81,141.44V106.06c0-10.16,4.94-16.18,14.29-16.18s14.28,6,14.28,16.18v7h-9.17V105.4c0-4.33-1.94-6.12-4.85-6.12s-4.85,1.79-4.85,6.12v36.79c0,4.33,1.94,6,4.85,6s4.85-1.69,4.85-6V132.12h9.17v9.32c0,10.16-4.94,16.18-14.28,16.18S120.81,151.6,120.81,141.44Z"/><path class="cls-2" d="M159.38,141.06V106.44c0-10.54,5.2-16.56,14.73-16.56s14.73,6,14.73,16.56v34.62c0,10.54-5.21,16.56-14.73,16.56S159.38,151.6,159.38,141.06Zm19.76.66V105.78c0-4.71-1.95-6.5-5-6.5s-5,1.79-5,6.5v35.94c0,4.7,1.94,6.49,5,6.49S179.14,146.42,179.14,141.72Z"/><path class="cls-2" d="M280.41,90.6h27v9.6h-17.1V118H303.9v9.59H290.31v20.64h17.1v9.6h-27Z"/><path class="cls-2" d="M317.24,142.24V106.15c0-10.36,5-16.51,14.58-16.51s14.57,6.15,14.57,16.51v7.1H337v-7.77c0-4.41-2-6.24-5-6.24s-4.95,1.83-4.95,6.24V143c0,4.41,2,6.14,4.95,6.14s5-1.73,5-6.14V132.74h9.35v9.5c0,10.37-5,16.51-14.57,16.51S317.24,152.61,317.24,142.24Z"/><path class="cls-2" d="M364.87,100.2H354.52V90.6h30.59v9.6H374.76v57.59h-9.89Z"/><path class="cls-3" d="M218.37,141.79V98.91a3.65,3.65,0,0,0-3.84-3.45h-.19a3.65,3.65,0,0,0-3.82,3.45v57.5a1.43,1.43,0,0,1-1.49,1.34h-4.87a1.43,1.43,0,0,1-1.49-1.34v-57c0-5.28,4.77-9.56,10.64-9.56h2.27c5.87,0,10.63,4.28,10.63,9.56v42.34a1.42,1.42,0,0,1-1.48,1.33h-4.87a1.42,1.42,0,0,1-1.49-1.33Z"/><path class="cls-3" d="M257.88,156.44V98.91A3.66,3.66,0,0,0,254,95.46h-.2A3.65,3.65,0,0,0,250,98.91v40a1.43,1.43,0,0,1-1.49,1.34h-4.87a1.42,1.42,0,0,1-1.48-1.34V99.45c0-5.28,4.76-9.56,10.63-9.56h2.27c5.88,0,10.64,4.28,10.64,9.56v57a1.44,1.44,0,0,1-1.49,1.34h-4.87a1.41,1.41,0,0,1-1.48-1.34Z"/><path class="cls-3" d="M242.17,110.14l0,35.19c0,6.51-6,7-8.16,7-2.45,0-7.86-.95-7.86-7V113.19a1.42,1.42,0,0,0-1.49-1.34h-4.87a1.42,1.42,0,0,0-1.48,1.34v31.59c0,5.29,3.69,13,12.1,13H237c8.87,0,13.07-7.71,13.06-13l0-34.64a1.42,1.42,0,0,0-1.49-1.33h-4.87a1.41,1.41,0,0,0-1.48,1.33Z"/><circle class="cls-4" cx="215.79" cy="80.42" r="4.82"/><circle class="cls-4" cx="253.69" cy="81.41" r="4.82"/><path class="cls-2" d="M129.67,167.81v.59h-1.52v5h-.72v-5H125.9v-.59Z"/><path class="cls-2" d="M133.64,169.14a1.47,1.47,0,0,1,.63.63,2.18,2.18,0,0,1,.23,1v2.59h-.72v-2.48a1.43,1.43,0,0,0-.33-1,1.35,1.35,0,0,0-1.81,0,1.43,1.43,0,0,0-.34,1v2.43h-.73v-5.92h.73v2.16a1.33,1.33,0,0,1,.6-.52,1.8,1.8,0,0,1,.85-.19A1.75,1.75,0,0,1,133.64,169.14Z"/><path class="cls-2" d="M139.67,171.47h-3.51a1.43,1.43,0,0,0,.45,1,1.41,1.41,0,0,0,1,.36,1.31,1.31,0,0,0,.78-.22,1.13,1.13,0,0,0,.45-.58h.78a1.87,1.87,0,0,1-.7,1,2.08,2.08,0,0,1-1.31.4,2.19,2.19,0,0,1-1.12-.28,2,2,0,0,1-.77-.8,2.41,2.41,0,0,1-.28-1.19,2.49,2.49,0,0,1,.27-1.19,1.87,1.87,0,0,1,.76-.79,2.24,2.24,0,0,1,1.14-.28,2.21,2.21,0,0,1,1.1.27,1.91,1.91,0,0,1,.74.75,2.27,2.27,0,0,1,.26,1.08C139.69,171.17,139.68,171.31,139.67,171.47Zm-.92-1.31a1.17,1.17,0,0,0-.5-.46,1.58,1.58,0,0,0-.69-.15,1.35,1.35,0,0,0-.95.35,1.47,1.47,0,0,0-.44,1h2.77A1.29,1.29,0,0,0,138.75,170.16Z"/><path class="cls-2" d="M144.42,172.72l1.36-3.72h.77l-1.72,4.39H144L142.27,169h.78Z"/><path class="cls-2" d="M148.07,173.18a2,2,0,0,1-.78-.8,2.59,2.59,0,0,1,0-2.38,2,2,0,0,1,.8-.79,2.26,2.26,0,0,1,1.13-.28,2.28,2.28,0,0,1,1.13.28,1.94,1.94,0,0,1,.79.79,2.29,2.29,0,0,1,.3,1.19,2.32,2.32,0,0,1-.31,1.19,2,2,0,0,1-.81.8,2.28,2.28,0,0,1-1.13.28A2.22,2.22,0,0,1,148.07,173.18Zm1.85-.54a1.44,1.44,0,0,0,.56-.56,1.75,1.75,0,0,0,.21-.89,1.81,1.81,0,0,0-.21-.9,1.43,1.43,0,0,0-.54-.55,1.55,1.55,0,0,0-.73-.18,1.49,1.49,0,0,0-.73.18,1.34,1.34,0,0,0-.53.55,1.81,1.81,0,0,0-.2.9,1.9,1.9,0,0,0,.19.9,1.28,1.28,0,0,0,.53.55,1.48,1.48,0,0,0,.72.18A1.55,1.55,0,0,0,149.92,172.64Z"/><path class="cls-2" d="M152.42,168.15a.49.49,0,0,1-.15-.35.49.49,0,0,1,.15-.36.48.48,0,0,1,.35-.14.48.48,0,0,1,.34.14.52.52,0,0,1,.14.36.52.52,0,0,1-.14.35.48.48,0,0,1-.34.14A.48.48,0,0,1,152.42,168.15Zm.7.85v4.39h-.73V169Z"/><path class="cls-2" d="M154.36,170a2,2,0,0,1,.76-.79,2.13,2.13,0,0,1,1.11-.28,2.16,2.16,0,0,1,1.33.39,1.85,1.85,0,0,1,.69,1.09h-.78a1.14,1.14,0,0,0-.44-.63,1.3,1.3,0,0,0-.8-.23,1.27,1.27,0,0,0-1,.43,1.71,1.71,0,0,0-.39,1.21,1.75,1.75,0,0,0,.39,1.22,1.27,1.27,0,0,0,1,.43,1.37,1.37,0,0,0,.8-.22,1.15,1.15,0,0,0,.44-.64h.78a2,2,0,0,1-.7,1.08,2.2,2.2,0,0,1-1.32.4,2.13,2.13,0,0,1-1.11-.28,2,2,0,0,1-.76-.79,2.53,2.53,0,0,1-.27-1.2A2.49,2.49,0,0,1,154.36,170Z"/><path class="cls-2" d="M163.19,171.47h-3.5a1.36,1.36,0,0,0,1.42,1.37,1.32,1.32,0,0,0,.79-.22,1.18,1.18,0,0,0,.45-.58h.78a1.87,1.87,0,0,1-.7,1,2.11,2.11,0,0,1-1.32.4,2.18,2.18,0,0,1-1.11-.28,1.92,1.92,0,0,1-.77-.8,2.41,2.41,0,0,1-.28-1.19,2.49,2.49,0,0,1,.27-1.19,1.81,1.81,0,0,1,.76-.79,2.42,2.42,0,0,1,2.24,0,2,2,0,0,1,.74.75,2.27,2.27,0,0,1,.26,1.08A3.49,3.49,0,0,1,163.19,171.47Zm-.91-1.31a1.23,1.23,0,0,0-.5-.46,1.6,1.6,0,0,0-.7-.15,1.32,1.32,0,0,0-.94.35,1.39,1.39,0,0,0-.44,1h2.77A1.38,1.38,0,0,0,162.28,170.16Z"/><path class="cls-2" d="M167.11,173.18a2,2,0,0,1-.78-.8,2.59,2.59,0,0,1,0-2.38,2,2,0,0,1,.8-.79,2.26,2.26,0,0,1,1.13-.28,2.28,2.28,0,0,1,1.13.28,1.94,1.94,0,0,1,.79.79,2.28,2.28,0,0,1,.29,1.19,2.31,2.31,0,0,1-.3,1.19,2.08,2.08,0,0,1-.81.8,2.28,2.28,0,0,1-1.13.28A2.19,2.19,0,0,1,167.11,173.18Zm1.85-.54a1.44,1.44,0,0,0,.56-.56,1.75,1.75,0,0,0,.21-.89,1.81,1.81,0,0,0-.21-.9,1.43,1.43,0,0,0-.54-.55,1.55,1.55,0,0,0-.73-.18,1.49,1.49,0,0,0-.73.18,1.34,1.34,0,0,0-.53.55,1.81,1.81,0,0,0-.2.9,1.9,1.9,0,0,0,.19.9,1.28,1.28,0,0,0,.53.55,1.43,1.43,0,0,0,.72.18A1.55,1.55,0,0,0,169,172.64Z"/><path class="cls-2" d="M173.22,169.6h-.92v3.79h-.73V169.6H171V169h.57v-.31a1.36,1.36,0,0,1,.38-1.07,1.78,1.78,0,0,1,1.22-.34v.6a1,1,0,0,0-.68.19.84.84,0,0,0-.19.62V169h.92Z"/><path class="cls-2" d="M180,169l-2.64,6.45h-.75l.86-2.11L175.68,169h.81l1.38,3.56,1.36-3.56Z"/><path class="cls-2" d="M181.5,173.18a2,2,0,0,1-.78-.8,2.41,2.41,0,0,1-.29-1.19,2.31,2.31,0,0,1,.3-1.19,2,2,0,0,1,.79-.79,2.42,2.42,0,0,1,2.26,0,1.94,1.94,0,0,1,.79.79,2.29,2.29,0,0,1,.3,1.19,2.31,2.31,0,0,1-.3,1.19,2,2,0,0,1-.82.8,2.28,2.28,0,0,1-1.13.28A2.24,2.24,0,0,1,181.5,173.18Zm1.85-.54a1.44,1.44,0,0,0,.56-.56,1.75,1.75,0,0,0,.21-.89,1.81,1.81,0,0,0-.21-.9,1.36,1.36,0,0,0-.54-.55,1.57,1.57,0,0,0-1.46,0,1.34,1.34,0,0,0-.53.55,1.81,1.81,0,0,0-.2.9,1.9,1.9,0,0,0,.19.9,1.34,1.34,0,0,0,.53.55,1.48,1.48,0,0,0,.72.18A1.55,1.55,0,0,0,183.35,172.64Z"/><path class="cls-2" d="M189.71,169v4.39H189v-.65a1.46,1.46,0,0,1-.58.52,1.77,1.77,0,0,1-.82.19,2,2,0,0,1-.92-.21,1.49,1.49,0,0,1-.65-.64,2,2,0,0,1-.23-1V169h.72v2.48a1.37,1.37,0,0,0,.32,1,1.34,1.34,0,0,0,1.82,0,1.5,1.5,0,0,0,.34-1.05V169Z"/><path class="cls-2" d="M192.22,169.13a1.7,1.7,0,0,1,.87-.21v.76h-.19q-1.23,0-1.23,1.32v2.39H191V169h.72v.72A1.37,1.37,0,0,1,192.22,169.13Z"/><path class="cls-2" d="M197.45,169.18a1.91,1.91,0,0,1,1-.25,2,2,0,0,1,1.07.28,2,2,0,0,1,.74.79,2.48,2.48,0,0,1,.27,1.18,2.5,2.5,0,0,1-.27,1.18,2,2,0,0,1-.75.81,2,2,0,0,1-1.06.29,1.89,1.89,0,0,1-1-.25,1.64,1.64,0,0,1-.65-.63v.81h-.72v-5.92h.72v2.35A1.77,1.77,0,0,1,197.45,169.18Zm2.12,1.14a1.27,1.27,0,0,0-.54-.56,1.49,1.49,0,0,0-1.49,0,1.35,1.35,0,0,0-.54.57,1.71,1.71,0,0,0-.21.86,1.75,1.75,0,0,0,.21.87,1.39,1.39,0,0,0,.54.56,1.49,1.49,0,0,0,1.49,0,1.39,1.39,0,0,0,.54-.56,1.87,1.87,0,0,0,.2-.88A1.79,1.79,0,0,0,199.57,170.32Z"/><path class="cls-2" d="M202.75,169.13a1.7,1.7,0,0,1,.87-.21v.76h-.19q-1.23,0-1.23,1.32v2.39h-.73V169h.73v.72A1.37,1.37,0,0,1,202.75,169.13Z"/><path class="cls-2" d="M204.46,170a2,2,0,0,1,.75-.79,2,2,0,0,1,1.06-.28,1.93,1.93,0,0,1,1,.25,1.7,1.7,0,0,1,.63.62V169h.73v4.39h-.73v-.82a1.74,1.74,0,0,1-.65.64,1.87,1.87,0,0,1-1,.25,2,2,0,0,1-1.06-.29,2,2,0,0,1-.74-.81,2.5,2.5,0,0,1-.27-1.18A2.48,2.48,0,0,1,204.46,170Zm3.24.32a1.53,1.53,0,0,0-.54-.56,1.5,1.5,0,0,0-.75-.2,1.44,1.44,0,0,0-.74.2,1.27,1.27,0,0,0-.54.56,1.79,1.79,0,0,0-.2.86,1.87,1.87,0,0,0,.2.88,1.39,1.39,0,0,0,.54.56,1.44,1.44,0,0,0,.74.2,1.5,1.5,0,0,0,.75-.2,1.53,1.53,0,0,0,.54-.56,2,2,0,0,0,0-1.74Z"/><path class="cls-2" d="M213.3,169.41a1.86,1.86,0,0,1,.49,1.39v2.59h-.72v-2.48a1.47,1.47,0,0,0-.32-1,1.18,1.18,0,0,0-.9-.34,1.22,1.22,0,0,0-.92.36,1.48,1.48,0,0,0-.34,1v2.43h-.72V169h.72v.63a1.41,1.41,0,0,1,.59-.52,1.74,1.74,0,0,1,.82-.19A1.76,1.76,0,0,1,213.3,169.41Z"/><path class="cls-2" d="M215,170a2,2,0,0,1,.74-.79,2.06,2.06,0,0,1,1.07-.28,1.94,1.94,0,0,1,.95.24,1.64,1.64,0,0,1,.68.62v-2.32h.73v5.92h-.73v-.83a1.81,1.81,0,0,1-.64.65,1.93,1.93,0,0,1-1,.25,2,2,0,0,1-1.06-.29,2,2,0,0,1-.74-.81,2.39,2.39,0,0,1-.28-1.18A2.37,2.37,0,0,1,215,170Zm3.24.32a1.53,1.53,0,0,0-.54-.56,1.51,1.51,0,0,0-1.5,0,1.31,1.31,0,0,0-.53.56,1.68,1.68,0,0,0-.2.86,1.76,1.76,0,0,0,.2.88,1.43,1.43,0,0,0,.53.56,1.51,1.51,0,0,0,1.5,0,1.53,1.53,0,0,0,.54-.56,2,2,0,0,0,0-1.74Z"/><path class="cls-2" d="M223.42,169.6v2.59a.62.62,0,0,0,.13.45.67.67,0,0,0,.48.13h.53v.62h-.65a1.37,1.37,0,0,1-.92-.28,1.23,1.23,0,0,1-.3-.92V169.6h-.57V169h.57v-1.1h.73V169h1.14v.6Z"/><path class="cls-2" d="M228.51,169.14a1.47,1.47,0,0,1,.63.63,2.18,2.18,0,0,1,.23,1v2.59h-.72v-2.48a1.43,1.43,0,0,0-.33-1,1.18,1.18,0,0,0-.89-.34,1.21,1.21,0,0,0-.92.36,1.43,1.43,0,0,0-.34,1v2.43h-.73v-5.92h.73v2.16a1.33,1.33,0,0,1,.6-.52,1.8,1.8,0,0,1,.85-.19A1.75,1.75,0,0,1,228.51,169.14Z"/><path class="cls-2" d="M230.56,170a2,2,0,0,1,.75-.79,2,2,0,0,1,1.06-.28,1.9,1.9,0,0,1,1,.25,1.7,1.7,0,0,1,.63.62V169h.74v4.39H234v-.82a1.71,1.71,0,0,1-.64.64,1.93,1.93,0,0,1-1,.25,2,2,0,0,1-1.8-1.1,2.5,2.5,0,0,1-.27-1.18A2.48,2.48,0,0,1,230.56,170Zm3.24.32a1.39,1.39,0,0,0-.54-.56,1.48,1.48,0,0,0-.75-.2,1.44,1.44,0,0,0-.74.2,1.39,1.39,0,0,0-.54.56,1.79,1.79,0,0,0-.2.86,1.87,1.87,0,0,0,.2.88,1.53,1.53,0,0,0,.54.56,1.44,1.44,0,0,0,.74.2,1.48,1.48,0,0,0,.75-.2,1.39,1.39,0,0,0,.54-.56,2,2,0,0,0,0-1.74Z"/><path class="cls-2" d="M236.86,169.6v2.59a.62.62,0,0,0,.13.45.67.67,0,0,0,.48.13H238v.62h-.65a1.37,1.37,0,0,1-.92-.28,1.23,1.23,0,0,1-.3-.92V169.6h-.57V169h.57v-1.1h.73V169H238v.6Z"/><path class="cls-2" d="M241,170a2,2,0,0,1,.75-.79,2.41,2.41,0,0,1,2.44.11,1.85,1.85,0,0,1,.69,1.09h-.78a1.12,1.12,0,0,0-.43-.63,1.34,1.34,0,0,0-.81-.23,1.29,1.29,0,0,0-1,.43,1.75,1.75,0,0,0-.38,1.21,1.8,1.8,0,0,0,.38,1.22,1.29,1.29,0,0,0,1,.43,1.35,1.35,0,0,0,.8-.22,1.15,1.15,0,0,0,.44-.64h.78a1.9,1.9,0,0,1-.7,1.08,2.16,2.16,0,0,1-1.32.4,2.18,2.18,0,0,1-1.11-.28,2,2,0,0,1-.75-.79,2.53,2.53,0,0,1-.28-1.2A2.49,2.49,0,0,1,241,170Z"/><path class="cls-2" d="M246.67,173.18a1.94,1.94,0,0,1-.78-.8,2.59,2.59,0,0,1,0-2.38,2,2,0,0,1,.8-.79,2.23,2.23,0,0,1,1.13-.28,2.28,2.28,0,0,1,1.13.28,1.94,1.94,0,0,1,.79.79,2.28,2.28,0,0,1,.29,1.19,2.31,2.31,0,0,1-.3,1.19,2.08,2.08,0,0,1-.81.8,2.28,2.28,0,0,1-1.13.28A2.19,2.19,0,0,1,246.67,173.18Zm1.85-.54a1.44,1.44,0,0,0,.56-.56,1.75,1.75,0,0,0,.21-.89,1.81,1.81,0,0,0-.21-.9,1.43,1.43,0,0,0-.54-.55,1.55,1.55,0,0,0-.73-.18,1.49,1.49,0,0,0-.73.18,1.34,1.34,0,0,0-.53.55,1.81,1.81,0,0,0-.2.9,1.9,1.9,0,0,0,.19.9,1.32,1.32,0,0,0,.52.55,1.49,1.49,0,0,0,.73.18A1.55,1.55,0,0,0,248.52,172.64Z"/><path class="cls-2" d="M254.43,169.41a1.86,1.86,0,0,1,.49,1.39v2.59h-.72v-2.48a1.43,1.43,0,0,0-.33-1,1.16,1.16,0,0,0-.89-.34,1.21,1.21,0,0,0-.92.36,1.43,1.43,0,0,0-.34,1v2.43H251V169h.73v.63a1.41,1.41,0,0,1,.59-.52,1.74,1.74,0,0,1,.82-.19A1.78,1.78,0,0,1,254.43,169.41Z"/><path class="cls-2" d="M259.55,169.41a1.86,1.86,0,0,1,.49,1.39v2.59h-.72v-2.48a1.43,1.43,0,0,0-.33-1,1.16,1.16,0,0,0-.89-.34,1.21,1.21,0,0,0-.92.36,1.43,1.43,0,0,0-.34,1v2.43h-.73V169h.73v.63a1.41,1.41,0,0,1,.59-.52,1.74,1.74,0,0,1,.82-.19A1.78,1.78,0,0,1,259.55,169.41Z"/><path class="cls-2" d="M265.21,171.47h-3.5a1.38,1.38,0,0,0,.44,1,1.43,1.43,0,0,0,1,.36,1.34,1.34,0,0,0,.79-.22,1.11,1.11,0,0,0,.44-.58h.79a1.89,1.89,0,0,1-.71,1,2.08,2.08,0,0,1-1.31.4,2.19,2.19,0,0,1-1.12-.28,2,2,0,0,1-.77-.8,2.52,2.52,0,0,1-.28-1.19,2.49,2.49,0,0,1,.27-1.19,1.84,1.84,0,0,1,.77-.79,2.4,2.4,0,0,1,2.23,0,1.91,1.91,0,0,1,.74.75,2.16,2.16,0,0,1,.26,1.08A3.39,3.39,0,0,1,265.21,171.47Zm-.91-1.31a1.23,1.23,0,0,0-.5-.46,1.63,1.63,0,0,0-.7-.15,1.32,1.32,0,0,0-.94.35,1.44,1.44,0,0,0-.45,1h2.77A1.37,1.37,0,0,0,264.3,170.16Z"/><path class="cls-2" d="M266.19,170a2,2,0,0,1,.76-.79,2.13,2.13,0,0,1,1.11-.28,2.16,2.16,0,0,1,1.33.39,1.85,1.85,0,0,1,.69,1.09h-.78a1.14,1.14,0,0,0-.44-.63,1.44,1.44,0,0,0-1.81.2,1.71,1.71,0,0,0-.38,1.21,1.75,1.75,0,0,0,.38,1.22,1.28,1.28,0,0,0,1,.43,1.37,1.37,0,0,0,.8-.22,1.15,1.15,0,0,0,.44-.64h.78a2,2,0,0,1-.7,1.08,2.16,2.16,0,0,1-1.32.4,2.13,2.13,0,0,1-1.11-.28,2,2,0,0,1-.76-.79,2.53,2.53,0,0,1-.27-1.2A2.49,2.49,0,0,1,266.19,170Z"/><path class="cls-2" d="M271.94,169.6v2.59a.62.62,0,0,0,.13.45.67.67,0,0,0,.48.13h.53v.62h-.65a1.37,1.37,0,0,1-.92-.28,1.23,1.23,0,0,1-.3-.92V169.6h-.57V169h.57v-1.1h.73V169h1.14v.6Z"/><path class="cls-2" d="M274.61,173.29a1.56,1.56,0,0,1-.63-.48,1.28,1.28,0,0,1-.26-.71h.75a.76.76,0,0,0,.31.54,1.26,1.26,0,0,0,.73.2,1.07,1.07,0,0,0,.65-.18.56.56,0,0,0,.24-.46.45.45,0,0,0-.25-.43,3.41,3.41,0,0,0-.8-.28,4.86,4.86,0,0,1-.79-.26,1.46,1.46,0,0,1-.53-.39,1,1,0,0,1-.22-.68,1.07,1.07,0,0,1,.2-.62,1.22,1.22,0,0,1,.57-.44,2,2,0,0,1,.84-.17,1.76,1.76,0,0,1,1.17.37,1.31,1.31,0,0,1,.48,1h-.72a.74.74,0,0,0-.28-.55,1,1,0,0,0-.68-.21,1,1,0,0,0-.62.17.49.49,0,0,0-.23.44.45.45,0,0,0,.14.35,1,1,0,0,0,.35.23l.59.18a6.21,6.21,0,0,1,.77.26,1.28,1.28,0,0,1,.5.37,1,1,0,0,1,.22.65,1,1,0,0,1-.2.64,1.28,1.28,0,0,1-.56.46,2.17,2.17,0,0,1-.84.16A2.37,2.37,0,0,1,274.61,173.29Z"/><path class="cls-2" d="M284.05,169l-2.64,6.45h-.75l.86-2.11L279.75,169h.81l1.38,3.56L283.3,169Z"/><path class="cls-2" d="M285.57,173.18a2,2,0,0,1-.78-.8,2.41,2.41,0,0,1-.29-1.19,2.31,2.31,0,0,1,.3-1.19,2,2,0,0,1,.79-.79,2.42,2.42,0,0,1,2.26,0,2,2,0,0,1,.8.79,2.38,2.38,0,0,1,.29,1.19,2.31,2.31,0,0,1-.3,1.19,2,2,0,0,1-.82.8,2.4,2.4,0,0,1-2.25,0Zm1.85-.54a1.44,1.44,0,0,0,.56-.56,1.75,1.75,0,0,0,.21-.89,1.81,1.81,0,0,0-.21-.9,1.36,1.36,0,0,0-.54-.55,1.57,1.57,0,0,0-1.46,0,1.34,1.34,0,0,0-.53.55,1.81,1.81,0,0,0-.2.9,1.9,1.9,0,0,0,.19.9,1.34,1.34,0,0,0,.53.55,1.48,1.48,0,0,0,.72.18A1.55,1.55,0,0,0,287.42,172.64Z"/><path class="cls-2" d="M293.78,169v4.39h-.72v-.65a1.4,1.4,0,0,1-.58.52,1.74,1.74,0,0,1-.82.19,2,2,0,0,1-.92-.21,1.49,1.49,0,0,1-.65-.64,2.15,2.15,0,0,1-.23-1V169h.72v2.48a1.42,1.42,0,0,0,.32,1,1.34,1.34,0,0,0,1.82,0,1.5,1.5,0,0,0,.34-1.05V169Z"/><path class="cls-2" d="M303,169l-1.37,4.39h-.75l-1.05-3.48-1.06,3.48H298L296.63,169h.75l1,3.68,1.09-3.68h.75l1.06,3.69,1-3.69Z"/><path class="cls-2" d="M303.74,168.15a.49.49,0,0,1-.15-.35.49.49,0,0,1,.15-.36.48.48,0,0,1,.35-.14.48.48,0,0,1,.34.14.52.52,0,0,1,.14.36.52.52,0,0,1-.14.35.48.48,0,0,1-.34.14A.48.48,0,0,1,303.74,168.15Zm.7.85v4.39h-.73V169Z"/><path class="cls-2" d="M306.57,169.6v2.59a.62.62,0,0,0,.13.45.69.69,0,0,0,.48.13h.53v.62h-.65a1.32,1.32,0,0,1-.91-.28,1.19,1.19,0,0,1-.31-.92V169.6h-.57V169h.57v-1.1h.73V169h1.14v.6Z"/><path class="cls-2" d="M311.67,169.14a1.51,1.51,0,0,1,.62.63,2.18,2.18,0,0,1,.23,1v2.59h-.72v-2.48a1.43,1.43,0,0,0-.33-1,1.16,1.16,0,0,0-.89-.34,1.21,1.21,0,0,0-.92.36,1.43,1.43,0,0,0-.34,1v2.43h-.73v-5.92h.73v2.16a1.38,1.38,0,0,1,.6-.52,2,2,0,0,1,1.75,0Z"/><path class="cls-2" d="M319.62,169,317,175.45h-.75l.87-2.11L315.33,169h.81l1.37,3.56,1.36-3.56Z"/><path class="cls-2" d="M321.15,173.18a2,2,0,0,1-.79-.8,2.52,2.52,0,0,1-.28-1.19,2.41,2.41,0,0,1,.29-1.19,2,2,0,0,1,.8-.79,2.23,2.23,0,0,1,1.13-.28,2.28,2.28,0,0,1,1.13.28,1.94,1.94,0,0,1,.79.79,2.28,2.28,0,0,1,.29,1.19,2.31,2.31,0,0,1-.3,1.19,2.08,2.08,0,0,1-.81.8,2.28,2.28,0,0,1-1.13.28A2.19,2.19,0,0,1,321.15,173.18Zm1.85-.54a1.44,1.44,0,0,0,.56-.56,1.75,1.75,0,0,0,.21-.89,1.81,1.81,0,0,0-.21-.9,1.43,1.43,0,0,0-.54-.55,1.55,1.55,0,0,0-.73-.18,1.49,1.49,0,0,0-.73.18,1.43,1.43,0,0,0-.54.55,1.93,1.93,0,0,0-.2.9,1.9,1.9,0,0,0,.2.9,1.32,1.32,0,0,0,.52.55,1.49,1.49,0,0,0,.73.18A1.55,1.55,0,0,0,323,172.64Z"/><path class="cls-2" d="M329.36,169v4.39h-.73v-.65a1.4,1.4,0,0,1-.58.52,1.71,1.71,0,0,1-.82.19,2,2,0,0,1-.92-.21,1.52,1.52,0,0,1-.64-.64,2,2,0,0,1-.24-1V169h.72v2.48a1.38,1.38,0,0,0,.33,1,1.19,1.19,0,0,0,.9.35,1.21,1.21,0,0,0,.92-.36,1.5,1.5,0,0,0,.33-1.05V169Z"/><path class="cls-2" d="M331.87,169.13a1.7,1.7,0,0,1,.87-.21v.76h-.19q-1.23,0-1.23,1.32v2.39h-.73V169h.73v.72A1.37,1.37,0,0,1,331.87,169.13Z"/><path class="cls-2" d="M335.71,170a2,2,0,0,1,.75-.79,2,2,0,0,1,1.06-.28,1.9,1.9,0,0,1,1,.25,1.7,1.7,0,0,1,.63.62V169h.74v4.39h-.74v-.82a1.71,1.71,0,0,1-.64.64,1.93,1.93,0,0,1-1,.25,2,2,0,0,1-1.8-1.1,2.5,2.5,0,0,1-.27-1.18A2.48,2.48,0,0,1,335.71,170Zm3.24.32a1.39,1.39,0,0,0-.54-.56,1.49,1.49,0,0,0-1.49,0,1.39,1.39,0,0,0-.54.56,1.79,1.79,0,0,0-.2.86,1.87,1.87,0,0,0,.2.88,1.53,1.53,0,0,0,.54.56,1.49,1.49,0,0,0,1.49,0,1.39,1.39,0,0,0,.54-.56,2,2,0,0,0,0-1.74Z"/><path class="cls-2" d="M345,169v4.39h-.73v-.65a1.4,1.4,0,0,1-.58.52,1.74,1.74,0,0,1-.82.19,2,2,0,0,1-.92-.21,1.47,1.47,0,0,1-.64-.64,2,2,0,0,1-.24-1V169h.72v2.48a1.38,1.38,0,0,0,.33,1,1.33,1.33,0,0,0,1.81,0,1.46,1.46,0,0,0,.34-1.05V169Z"/><path class="cls-2" d="M346.24,170a2,2,0,0,1,.75-.79,2,2,0,0,1,1.07-.28,1.94,1.94,0,0,1,.95.24,1.61,1.61,0,0,1,.67.62v-2.32h.74v5.92h-.74v-.83a1.73,1.73,0,0,1-.64.65,1.87,1.87,0,0,1-1,.25,2,2,0,0,1-1.06-.29,2,2,0,0,1-.75-.81,2.5,2.5,0,0,1-.27-1.18A2.48,2.48,0,0,1,346.24,170Zm3.24.32a1.39,1.39,0,0,0-.54-.56,1.5,1.5,0,0,0-.75-.2,1.44,1.44,0,0,0-.74.2,1.33,1.33,0,0,0-.54.56,1.79,1.79,0,0,0-.2.86,1.87,1.87,0,0,0,.2.88,1.46,1.46,0,0,0,.54.56,1.44,1.44,0,0,0,.74.2,1.5,1.5,0,0,0,.75-.2,1.39,1.39,0,0,0,.54-.56,2,2,0,0,0,0-1.74Z"/><path class="cls-2" d="M351.67,168.15a.52.52,0,0,1-.14-.35.52.52,0,0,1,.14-.36.52.52,0,0,1,.35-.14.46.46,0,0,1,.34.14.48.48,0,0,1,.14.36.47.47,0,0,1-.14.35.46.46,0,0,1-.34.14A.52.52,0,0,1,351.67,168.15Zm.71.85v4.39h-.73V169Z"/><path class="cls-2" d="M357.59,171.47h-3.5a1.38,1.38,0,0,0,.44,1,1.43,1.43,0,0,0,1,.36,1.32,1.32,0,0,0,.79-.22,1.11,1.11,0,0,0,.44-.58h.79a1.84,1.84,0,0,1-.71,1,2.08,2.08,0,0,1-1.31.4,2.16,2.16,0,0,1-1.11-.28,2,2,0,0,1-.78-.8,2.52,2.52,0,0,1-.28-1.19,2.49,2.49,0,0,1,.28-1.19,1.81,1.81,0,0,1,.76-.79,2.42,2.42,0,0,1,2.24,0,2,2,0,0,1,.74.75,2.27,2.27,0,0,1,.26,1.08A3.49,3.49,0,0,1,357.59,171.47Zm-.91-1.31a1.23,1.23,0,0,0-.5-.46,1.6,1.6,0,0,0-.7-.15,1.32,1.32,0,0,0-.94.35,1.39,1.39,0,0,0-.44,1h2.76A1.37,1.37,0,0,0,356.68,170.16Z"/><path class="cls-2" d="M362,169.41a1.86,1.86,0,0,1,.49,1.39v2.59h-.72v-2.48a1.43,1.43,0,0,0-.32-1,1.18,1.18,0,0,0-.9-.34,1.22,1.22,0,0,0-.92.36,1.48,1.48,0,0,0-.34,1v2.43h-.72V169h.72v.63a1.41,1.41,0,0,1,.59-.52,1.93,1.93,0,0,1,2.12.3Z"/><path class="cls-2" d="M363.7,170a2,2,0,0,1,.75-.79,2.41,2.41,0,0,1,2.44.11,1.85,1.85,0,0,1,.69,1.09h-.78a1.09,1.09,0,0,0-.44-.63,1.44,1.44,0,0,0-1.81.2,1.75,1.75,0,0,0-.38,1.21,1.8,1.8,0,0,0,.38,1.22,1.29,1.29,0,0,0,1,.43,1.35,1.35,0,0,0,.8-.22,1.15,1.15,0,0,0,.44-.64h.78a1.9,1.9,0,0,1-.7,1.08,2.36,2.36,0,0,1-2.43.12,2,2,0,0,1-.75-.79,2.53,2.53,0,0,1-.28-1.2A2.49,2.49,0,0,1,363.7,170Z"/><path class="cls-2" d="M372.53,171.47H369a1.43,1.43,0,0,0,.45,1,1.41,1.41,0,0,0,1,.36,1.36,1.36,0,0,0,.79-.22,1.16,1.16,0,0,0,.44-.58h.78a1.82,1.82,0,0,1-.7,1,2.08,2.08,0,0,1-1.31.4,2.19,2.19,0,0,1-1.12-.28,2,2,0,0,1-.77-.8,2.41,2.41,0,0,1-.28-1.19,2.49,2.49,0,0,1,.27-1.19,1.84,1.84,0,0,1,.77-.79,2.18,2.18,0,0,1,1.13-.28,2.21,2.21,0,0,1,1.1.27,1.91,1.91,0,0,1,.74.75,2.16,2.16,0,0,1,.26,1.08C372.55,171.17,372.54,171.31,372.53,171.47Zm-.91-1.31a1.3,1.3,0,0,0-.5-.46,1.63,1.63,0,0,0-.7-.15,1.31,1.31,0,0,0-.94.35,1.44,1.44,0,0,0-.45,1h2.77A1.37,1.37,0,0,0,371.62,170.16Z"/></svg>