<svg id="Layer_1" data-name="Layer 1" xmlns="http://www.w3.org/2000/svg" viewBox="0 0 504 253.57"><defs><style>.cls-1{fill:none;}.cls-2{fill:#0d1c5b;}.cls-3{fill:#fff;}</style></defs><title>Inside Page Slider</title><rect class="cls-1" x="0.39" y="0.39" width="503.22" height="252.78"/><path class="cls-2" d="M95.54,101.94h11c7.2,0,10.74,4,10.74,11.46v23.45c0,7.42-3.54,11.47-10.74,11.47h-11Zm10.88,39.75c2.29,0,3.66-1.19,3.66-4.51V113.07c0-3.31-1.37-4.51-3.66-4.51h-3.67v33.13Z"/><path class="cls-2" d="M125.45,101.94h7.2v46.38h-7.2Z"/><path class="cls-2" d="M140.81,137.32V112.94c0-7.42,3.67-11.67,10.74-11.67s10.74,4.25,10.74,11.67v4h-6.81v-4.44c0-3.31-1.44-4.57-3.73-4.57s-3.74,1.26-3.74,4.57v25.38c0,3.31,1.44,4.5,3.74,4.5s3.73-1.19,3.73-4.5v-9.08h-3.6v-6.62h10.41v15.17c0,7.42-3.67,11.66-10.74,11.66S140.81,144.74,140.81,137.32Z"/><path class="cls-2" d="M170.25,101.94h7.21v46.38h-7.21Z"/><path class="cls-2" d="M191.77,108.56h-7.53v-6.62h22.27v6.62H199v39.76h-7.2Z"/><path class="cls-2" d="M215.85,101.94h9.75l7.47,46.38h-7.21l-1.31-9.21v.13h-8.18l-1.31,9.08h-6.68Zm7.85,31L220.49,110h-.13l-3.14,22.92Z"/><path class="cls-2" d="M239.85,101.94h7.21v39.75h11.85v6.63H239.85Z"/><path class="cls-2" d="M276.14,101.94h10.28L291,135.13h.13l4.59-33.19H306v46.38h-6.81V113.2h-.13l-5.24,35.12h-6l-5.24-35.12h-.13v35.12h-6.28Z"/><path class="cls-2" d="M314.69,101.94h19.64v6.62H321.89v12.26h9.89v6.62h-9.89v14.25h12.44v6.63H314.69Z"/><path class="cls-2" d="M341.77,101.94h11c7.21,0,10.74,4,10.74,11.46v23.45c0,7.42-3.53,11.47-10.74,11.47h-11Zm10.87,39.75c2.3,0,3.67-1.19,3.67-4.51V113.07c0-3.31-1.37-4.51-3.67-4.51H349v33.13Z"/><path class="cls-2" d="M371.68,101.94h7.2v46.38h-7.2Z"/><path class="cls-2" d="M393.13,101.94h9.76l7.46,46.38h-7.2l-1.31-9.21v.13h-8.19l-1.31,9.08h-6.68Zm7.86,31L397.78,110h-.13l-3.15,22.92Z"/><path class="cls-3" d="M127.13,160.72v.75h-1.48v4.81h-.92v-4.81h-1.48v-.75Z"/><path class="cls-3" d="M131.23,162a1.53,1.53,0,0,1,.62.64,2.13,2.13,0,0,1,.23,1v2.6h-.91v-2.46a1.32,1.32,0,0,0-.29-.91,1.21,1.21,0,0,0-1.62,0,1.28,1.28,0,0,0-.3.91v2.46h-.91v-5.92H129v2a1.44,1.44,0,0,1,.59-.43,2,2,0,0,1,1.68.06Z"/><path class="cls-3" d="M137.25,164.42h-3.37a1.22,1.22,0,0,0,.39.85,1.24,1.24,0,0,0,.86.32,1.07,1.07,0,0,0,1-.62h1a2,2,0,0,1-.73,1,2.11,2.11,0,0,1-1.3.39,2.26,2.26,0,0,1-1.13-.29,2,2,0,0,1-.78-.8,2.41,2.41,0,0,1-.29-1.19,2.53,2.53,0,0,1,.28-1.2,1.94,1.94,0,0,1,.78-.8,2.35,2.35,0,0,1,1.14-.28,2.3,2.3,0,0,1,1.12.28,2,2,0,0,1,.76.76,2.33,2.33,0,0,1,.27,1.13A3,3,0,0,1,137.25,164.42Zm-.92-.74a1.06,1.06,0,0,0-.36-.8,1.28,1.28,0,0,0-.88-.31,1.15,1.15,0,0,0-.8.3,1.21,1.21,0,0,0-.4.81Z"/><path class="cls-3" d="M143.43,162a1.5,1.5,0,0,1,.63.64,2.13,2.13,0,0,1,.23,1v2.6h-.91v-2.46a1.32,1.32,0,0,0-.29-.91,1.21,1.21,0,0,0-1.62,0,1.28,1.28,0,0,0-.3.91v2.46h-.92v-5.92h.92v2a1.47,1.47,0,0,1,.58-.43,2,2,0,0,1,.78-.16A1.87,1.87,0,0,1,143.43,162Z"/><path class="cls-3" d="M145.49,161.12a.56.56,0,0,1-.16-.41.57.57,0,0,1,.16-.42.57.57,0,0,1,.42-.17.56.56,0,0,1,.57.59.56.56,0,0,1-.16.41.53.53,0,0,1-.41.17A.54.54,0,0,1,145.49,161.12Zm.87.76v4.4h-.92v-4.4Z"/><path class="cls-3" d="M147.53,162.88a2,2,0,0,1,.75-.79,2,2,0,0,1,1.06-.29,2.14,2.14,0,0,1,.85.19,1.74,1.74,0,0,1,.67.5v-2.13h.92v5.92h-.92v-.66a1.71,1.71,0,0,1-.62.53,1.91,1.91,0,0,1-.91.21,2,2,0,0,1-1.8-1.11,2.58,2.58,0,0,1-.28-1.19A2.54,2.54,0,0,1,147.53,162.88Zm3.14.4a1.34,1.34,0,0,0-.49-.51,1.31,1.31,0,0,0-1.8.5,1.54,1.54,0,0,0-.19.79,1.6,1.6,0,0,0,.19.8,1.3,1.3,0,0,0,.49.52,1.31,1.31,0,0,0,.66.18,1.24,1.24,0,0,0,.65-.17,1.3,1.3,0,0,0,.49-.52,1.54,1.54,0,0,0,.19-.79A1.58,1.58,0,0,0,150.67,163.28Z"/><path class="cls-3" d="M153,162.88a2.06,2.06,0,0,1,.76-.79,2,2,0,0,1,1-.29,2.19,2.19,0,0,1,.86.19,1.82,1.82,0,0,1,.67.5v-2.13h.92v5.92h-.92v-.66a1.8,1.8,0,0,1-.62.53,1.94,1.94,0,0,1-.91.21,1.89,1.89,0,0,1-1-.3,2.05,2.05,0,0,1-.76-.81,2.57,2.57,0,0,1-.27-1.19A2.53,2.53,0,0,1,153,162.88Zm3.15.4a1.36,1.36,0,0,0-.5-.51,1.24,1.24,0,0,0-.65-.17,1.27,1.27,0,0,0-.66.17,1.31,1.31,0,0,0-.49.5,1.65,1.65,0,0,0-.19.79,1.72,1.72,0,0,0,.19.8,1.32,1.32,0,0,0,.5.52,1.29,1.29,0,0,0,1.3,0,1.32,1.32,0,0,0,.5-.52,1.65,1.65,0,0,0,.19-.79A1.69,1.69,0,0,0,156.1,163.28Z"/><path class="cls-3" d="M162.41,164.42h-3.36a1.18,1.18,0,0,0,.39.85,1.24,1.24,0,0,0,.86.32,1.07,1.07,0,0,0,1-.62h1a2,2,0,0,1-.72,1,2.11,2.11,0,0,1-1.3.39,2.24,2.24,0,0,1-1.13-.29,1.94,1.94,0,0,1-.78-.8,2.65,2.65,0,0,1,0-2.39,2,2,0,0,1,.77-.8,2.42,2.42,0,0,1,1.15-.28,2.23,2.23,0,0,1,1.11.28,1.85,1.85,0,0,1,.76.76,2.33,2.33,0,0,1,.27,1.13A3,3,0,0,1,162.41,164.42Zm-.92-.74a1,1,0,0,0-.36-.8,1.24,1.24,0,0,0-.87-.31,1.2,1.2,0,0,0-.81.3,1.31,1.31,0,0,0-.4.81Z"/><path class="cls-3" d="M166.5,162a1.52,1.52,0,0,1,.64.64,2,2,0,0,1,.23,1v2.6h-.9v-2.46a1.28,1.28,0,0,0-.3-.91,1,1,0,0,0-.81-.31,1.06,1.06,0,0,0-.81.31,1.28,1.28,0,0,0-.3.91v2.46h-.91v-4.4h.91v.5a1.51,1.51,0,0,1,.57-.42,1.89,1.89,0,0,1,.74-.16A2.07,2.07,0,0,1,166.5,162Z"/><path class="cls-3" d="M172.16,162a1.87,1.87,0,0,1,.9-.21,2,2,0,0,1,1.05.29,2,2,0,0,1,.75.79,2.53,2.53,0,0,1,.27,1.18,2.57,2.57,0,0,1-.27,1.19,2,2,0,0,1-.75.81,1.92,1.92,0,0,1-1.05.3,2,2,0,0,1-1.54-.72v2.74h-.91v-6.5h.91v.64A2,2,0,0,1,172.16,162Zm1.86,1.26a1.27,1.27,0,0,0-.5-.5,1.35,1.35,0,0,0-1.31,0,1.36,1.36,0,0,0-.5.51,1.69,1.69,0,0,0-.19.8,1.65,1.65,0,0,0,.19.79,1.32,1.32,0,0,0,.5.52,1.24,1.24,0,0,0,.65.17,1.26,1.26,0,0,0,.66-.18,1.32,1.32,0,0,0,.5-.52,1.72,1.72,0,0,0,.19-.8A1.65,1.65,0,0,0,174,163.27Z"/><path class="cls-3" d="M176.09,161.12a.53.53,0,0,1-.17-.41.54.54,0,0,1,.17-.42.58.58,0,0,1,.82,0,.57.57,0,0,1,.17.42.57.57,0,0,1-.17.41.58.58,0,0,1-.82,0Zm.86.76v4.4H176v-4.4Z"/><path class="cls-3" d="M179.06,160.36v5.92h-.91v-5.92Z"/><path class="cls-3" d="M181.17,160.36v5.92h-.91v-5.92Z"/><path class="cls-3" d="M182.35,162.88a2,2,0,0,1,.75-.79,2,2,0,0,1,1.05-.29,1.88,1.88,0,0,1,.91.21,1.74,1.74,0,0,1,.62.51v-.64h.92v4.4h-.92v-.65a1.91,1.91,0,0,1-.63.52,2,2,0,0,1-.92.21,1.93,1.93,0,0,1-1-.3,2,2,0,0,1-.74-.81,2.46,2.46,0,0,1-.28-1.19A2.42,2.42,0,0,1,182.35,162.88Zm3.14.4a1.41,1.41,0,0,0-.49-.51,1.35,1.35,0,0,0-1.31,0,1.27,1.27,0,0,0-.5.5,1.65,1.65,0,0,0-.18.79,1.71,1.71,0,0,0,.18.8,1.32,1.32,0,0,0,.5.52,1.31,1.31,0,0,0,1.31,0,1.37,1.37,0,0,0,.49-.52,1.65,1.65,0,0,0,.19-.79A1.69,1.69,0,0,0,185.49,163.28Z"/><path class="cls-3" d="M189.24,162a1.65,1.65,0,0,1,.79-.19v.95h-.23a1.1,1.1,0,0,0-.81.27,1.27,1.27,0,0,0-.28.94v2.32h-.91v-4.4h.91v.64A1.42,1.42,0,0,1,189.24,162Z"/><path class="cls-3" d="M193.73,166.07a2,2,0,0,1-.79-.8,2.41,2.41,0,0,1-.29-1.19,2.38,2.38,0,0,1,.3-1.2,2.14,2.14,0,0,1,.81-.8,2.4,2.4,0,0,1,1.14-.28,2.47,2.47,0,0,1,1.15.28,2.05,2.05,0,0,1,.8.8,2.53,2.53,0,0,1,0,2.39,2.2,2.2,0,0,1-.83.8,2.4,2.4,0,0,1-1.16.29A2.29,2.29,0,0,1,193.73,166.07Zm1.79-.67a1.29,1.29,0,0,0,.5-.51,1.57,1.57,0,0,0,.19-.81,1.74,1.74,0,0,0-.18-.82,1.31,1.31,0,0,0-.49-.5,1.42,1.42,0,0,0-1.31,0,1.26,1.26,0,0,0-.47.5,1.74,1.74,0,0,0-.18.82,1.53,1.53,0,0,0,.37,1.1,1.17,1.17,0,0,0,.91.38A1.34,1.34,0,0,0,195.52,165.4Z"/><path class="cls-3" d="M199.9,162.62h-.81v3.66h-.92v-3.66h-.52v-.74h.52v-.32a1.37,1.37,0,0,1,.4-1.1,1.87,1.87,0,0,1,1.27-.35v.76a.91.91,0,0,0-.59.15.74.74,0,0,0-.16.54v.32h.81Z"/><path class="cls-3" d="M209.06,162a1.6,1.6,0,0,1,.65.64,2.13,2.13,0,0,1,.23,1v2.6H209v-2.46a1.28,1.28,0,0,0-.3-.91,1.21,1.21,0,0,0-1.62,0,1.28,1.28,0,0,0-.3.91v2.46h-.9v-2.46a1.28,1.28,0,0,0-.3-.91,1.21,1.21,0,0,0-1.62,0,1.28,1.28,0,0,0-.3.91v2.46h-.91v-4.4h.91v.5a1.51,1.51,0,0,1,.57-.42,1.82,1.82,0,0,1,.74-.16,2,2,0,0,1,.94.23,1.49,1.49,0,0,1,.64.65,1.47,1.47,0,0,1,.62-.64,1.86,1.86,0,0,1,.92-.24A2.06,2.06,0,0,1,209.06,162Z"/><path class="cls-3" d="M211.07,162.88a2.06,2.06,0,0,1,.76-.79,2,2,0,0,1,1-.29,1.91,1.91,0,0,1,.91.21,1.83,1.83,0,0,1,.62.51v-.64h.92v4.4h-.92v-.65a1.85,1.85,0,0,1-.64.52,2,2,0,0,1-2-.09,2.1,2.1,0,0,1-.75-.81,2.57,2.57,0,0,1-.27-1.19A2.53,2.53,0,0,1,211.07,162.88Zm3.15.4a1.36,1.36,0,0,0-.5-.51,1.24,1.24,0,0,0-.65-.17,1.27,1.27,0,0,0-.66.17,1.31,1.31,0,0,0-.49.5,1.65,1.65,0,0,0-.19.79,1.72,1.72,0,0,0,.19.8,1.32,1.32,0,0,0,.5.52,1.29,1.29,0,0,0,1.3,0,1.32,1.32,0,0,0,.5-.52,1.65,1.65,0,0,0,.19-.79A1.69,1.69,0,0,0,214.22,163.28Z"/><path class="cls-3" d="M218,162a1.62,1.62,0,0,1,.79-.19v.95h-.24a1.13,1.13,0,0,0-.81.27,1.32,1.32,0,0,0-.27.94v2.32h-.92v-4.4h.92v.64A1.42,1.42,0,0,1,218,162Z"/><path class="cls-3" d="M221.34,164.08l2,2.2h-1.23l-1.63-1.89v1.89h-.91v-5.92h.91v3.44l1.6-1.92h1.26Z"/><path class="cls-3" d="M228,164.42h-3.37a1.21,1.21,0,0,0,1.26,1.17,1.08,1.08,0,0,0,1-.62h1a2,2,0,0,1-.73,1,2.08,2.08,0,0,1-1.29.39,2.27,2.27,0,0,1-1.14-.29,2,2,0,0,1-.78-.8,2.41,2.41,0,0,1-.29-1.19,2.53,2.53,0,0,1,.28-1.2,1.94,1.94,0,0,1,.78-.8,2.36,2.36,0,0,1,1.15-.28,2.29,2.29,0,0,1,1.11.28,1.92,1.92,0,0,1,.76.76,2.33,2.33,0,0,1,.27,1.13A3,3,0,0,1,228,164.42Zm-.92-.74a1.06,1.06,0,0,0-.36-.8,1.27,1.27,0,0,0-.87-.31,1.16,1.16,0,0,0-.81.3,1.21,1.21,0,0,0-.4.81Z"/><path class="cls-3" d="M230,162.62v2.44a.52.52,0,0,0,.11.36.6.6,0,0,0,.4.1h.56v.76h-.72a1.39,1.39,0,0,1-.94-.28,1.21,1.21,0,0,1-.33-.94v-2.44h-.52v-.74h.52v-1.1H230v1.1h1.07v.74Z"/><path class="cls-3" d="M232,161.12a.57.57,0,0,1-.17-.41.57.57,0,0,1,.17-.42.58.58,0,0,1,.82,0,.57.57,0,0,1,.17.42.57.57,0,0,1-.17.41.58.58,0,0,1-.82,0Zm.86.76v4.4h-.91v-4.4Z"/><path class="cls-3" d="M237.21,162a1.52,1.52,0,0,1,.64.64,2,2,0,0,1,.23,1v2.6h-.9v-2.46a1.28,1.28,0,0,0-.3-.91,1,1,0,0,0-.8-.31,1.07,1.07,0,0,0-.82.31,1.28,1.28,0,0,0-.3.91v2.46h-.91v-4.4H235v.5a1.47,1.47,0,0,1,.58-.42,1.82,1.82,0,0,1,.74-.16A2.06,2.06,0,0,1,237.21,162Z"/><path class="cls-3" d="M241.93,162a1.65,1.65,0,0,1,.62.51v-.64h.92v4.48a2.27,2.27,0,0,1-.26,1.08,1.84,1.84,0,0,1-.74.75,2.33,2.33,0,0,1-1.15.27,2.5,2.5,0,0,1-1.49-.42,1.52,1.52,0,0,1-.67-1.14h.9a1,1,0,0,0,.44.56,1.54,1.54,0,0,0,.82.21,1.21,1.21,0,0,0,.89-.34,1.33,1.33,0,0,0,.34-1v-.74a1.91,1.91,0,0,1-.63.52,1.77,1.77,0,0,1-.9.22,2,2,0,0,1-1.8-1.11,2.46,2.46,0,0,1-.28-1.19,2.42,2.42,0,0,1,.28-1.18,2,2,0,0,1,.75-.79,2,2,0,0,1,1.05-.29A1.94,1.94,0,0,1,241.93,162Zm.43,1.27a1.41,1.41,0,0,0-.49-.51,1.35,1.35,0,0,0-1.31,0,1.27,1.27,0,0,0-.5.5,1.65,1.65,0,0,0-.18.79,1.71,1.71,0,0,0,.18.8,1.32,1.32,0,0,0,.5.52,1.31,1.31,0,0,0,1.31,0,1.37,1.37,0,0,0,.49-.52,1.65,1.65,0,0,0,.19-.79A1.69,1.69,0,0,0,242.36,163.28Z"/><path class="cls-3" d="M247.81,162.62v2.44a.47.47,0,0,0,.12.36.59.59,0,0,0,.39.1h.56v.76h-.72a1.39,1.39,0,0,1-.94-.28,1.21,1.21,0,0,1-.33-.94v-2.44h-.52v-.74h.52v-1.1h.92v1.1h1.07v.74Z"/><path class="cls-3" d="M252.9,162a1.5,1.5,0,0,1,.63.64,2.13,2.13,0,0,1,.23,1v2.6h-.91v-2.46a1.28,1.28,0,0,0-.3-.91,1,1,0,0,0-.8-.31,1.1,1.1,0,0,0-.82.31,1.32,1.32,0,0,0-.29.91v2.46h-.92v-5.92h.92v2a1.47,1.47,0,0,1,.58-.43,2,2,0,0,1,.78-.16A1.87,1.87,0,0,1,252.9,162Z"/><path class="cls-3" d="M254.89,162.88a2,2,0,0,1,.75-.79,2,2,0,0,1,1.05-.29,1.88,1.88,0,0,1,.91.21,1.74,1.74,0,0,1,.62.51v-.64h.92v4.4h-.92v-.65a1.91,1.91,0,0,1-.63.52,1.94,1.94,0,0,1-.91.21,1.89,1.89,0,0,1-1-.3,2,2,0,0,1-.75-.81,2.46,2.46,0,0,1-.28-1.19A2.42,2.42,0,0,1,254.89,162.88Zm3.14.4a1.34,1.34,0,0,0-.49-.51,1.35,1.35,0,0,0-1.31,0,1.18,1.18,0,0,0-.49.5,1.54,1.54,0,0,0-.19.79,1.6,1.6,0,0,0,.19.8,1.3,1.3,0,0,0,.49.52,1.28,1.28,0,0,0,.65.18,1.25,1.25,0,0,0,.66-.17,1.3,1.3,0,0,0,.49-.52,1.54,1.54,0,0,0,.19-.79A1.58,1.58,0,0,0,258,163.28Z"/><path class="cls-3" d="M261.4,162.62v2.44a.47.47,0,0,0,.12.36.6.6,0,0,0,.4.1h.56v.76h-.72a1.42,1.42,0,0,1-.95-.28,1.21,1.21,0,0,1-.33-.94v-2.44H260v-.74h.52v-1.1h.92v1.1h1.08v.74Z"/><path class="cls-3" d="M266.06,166.17a1.76,1.76,0,0,1-.65-.51,1.28,1.28,0,0,1-.25-.73h.94a.64.64,0,0,0,.27.47.93.93,0,0,0,.61.19,1,1,0,0,0,.6-.15.44.44,0,0,0,.21-.38.4.4,0,0,0-.24-.37,4.14,4.14,0,0,0-.75-.26,5.66,5.66,0,0,1-.8-.27,1.29,1.29,0,0,1-.54-.39,1,1,0,0,1-.23-.69,1.16,1.16,0,0,1,.2-.65,1.42,1.42,0,0,1,.6-.46,2.28,2.28,0,0,1,.89-.17,1.89,1.89,0,0,1,1.22.38,1.4,1.4,0,0,1,.49,1h-.91a.65.65,0,0,0-.25-.47.86.86,0,0,0-.58-.18,1,1,0,0,0-.55.14.41.41,0,0,0-.19.36.36.36,0,0,0,.13.29.74.74,0,0,0,.31.19c.12,0,.3.1.54.17s.58.18.79.26a1.55,1.55,0,0,1,.53.39,1,1,0,0,1,.23.68,1.11,1.11,0,0,1-.21.67,1.3,1.3,0,0,1-.58.47,2.24,2.24,0,0,1-.89.17A2.35,2.35,0,0,1,266.06,166.17Z"/><path class="cls-3" d="M269.72,161.12a.53.53,0,0,1-.17-.41.54.54,0,0,1,.17-.42.58.58,0,0,1,.82,0,.57.57,0,0,1,.17.42.57.57,0,0,1-.17.41.58.58,0,0,1-.82,0Zm.86.76v4.4h-.91v-4.4Z"/><path class="cls-3" d="M272.69,160.36v5.92h-.91v-5.92Z"/><path class="cls-3" d="M277.9,164.42h-3.37a1.26,1.26,0,0,0,.39.85,1.28,1.28,0,0,0,.87.32,1.07,1.07,0,0,0,1-.62h1a2,2,0,0,1-.72,1,2.11,2.11,0,0,1-1.3.39,2.24,2.24,0,0,1-1.13-.29,2,2,0,0,1-.79-.8,2.41,2.41,0,0,1-.28-1.19,2.53,2.53,0,0,1,.27-1.2,2.07,2.07,0,0,1,.78-.8,2.39,2.39,0,0,1,1.15-.28,2.29,2.29,0,0,1,1.11.28,1.85,1.85,0,0,1,.76.76,2.33,2.33,0,0,1,.27,1.13A3,3,0,0,1,277.9,164.42Zm-.92-.74a1.06,1.06,0,0,0-.36-.8,1.24,1.24,0,0,0-.87-.31,1.16,1.16,0,0,0-.81.3,1.26,1.26,0,0,0-.4.81Z"/><path class="cls-3" d="M282,162a1.54,1.54,0,0,1,.65.64,2.13,2.13,0,0,1,.23,1v2.6H282v-2.46a1.28,1.28,0,0,0-.3-.91,1.21,1.21,0,0,0-1.62,0,1.28,1.28,0,0,0-.3.91v2.46h-.91v-4.4h.91v.5a1.51,1.51,0,0,1,.57-.42,1.86,1.86,0,0,1,.74-.16A2,2,0,0,1,282,162Z"/><path class="cls-3" d="M285.08,162.62v2.44a.47.47,0,0,0,.12.36.6.6,0,0,0,.4.1h.56v.76h-.73a1.39,1.39,0,0,1-.94-.28,1.21,1.21,0,0,1-.33-.94v-2.44h-.52v-.74h.52v-1.1h.92v1.1h1.08v.74Z"/><path class="cls-3" d="M287.91,160.36v5.92H287v-5.92Z"/><path class="cls-3" d="M293.08,161.88l-2.71,6.48h-.94l.89-2.15-1.73-4.33h1l1.24,3.36,1.29-3.36Z"/><path class="cls-3" d="M296.51,166.17a1.76,1.76,0,0,1-.65-.51,1.3,1.3,0,0,1-.26-.73h.95a.61.61,0,0,0,.27.47.93.93,0,0,0,.61.19,1,1,0,0,0,.59-.15.45.45,0,0,0,.22-.38.4.4,0,0,0-.24-.37,4.14,4.14,0,0,0-.75-.26,6.35,6.35,0,0,1-.81-.27,1.36,1.36,0,0,1-.54-.39,1,1,0,0,1-.22-.69,1.09,1.09,0,0,1,.2-.65,1.42,1.42,0,0,1,.6-.46,2.28,2.28,0,0,1,.89-.17,1.84,1.84,0,0,1,1.21.38,1.4,1.4,0,0,1,.5,1h-.92a.61.61,0,0,0-.24-.47.87.87,0,0,0-.58-.18,1,1,0,0,0-.55.14.41.41,0,0,0-.19.36.38.38,0,0,0,.12.29.85.85,0,0,0,.32.19c.12,0,.3.1.54.17s.58.18.79.26a1.55,1.55,0,0,1,.53.39,1,1,0,0,1,.23.68,1.11,1.11,0,0,1-.21.67,1.36,1.36,0,0,1-.58.47,2.29,2.29,0,0,1-.9.17A2.34,2.34,0,0,1,296.51,166.17Z"/><path class="cls-3" d="M301.18,162.62v2.44a.47.47,0,0,0,.12.36.55.55,0,0,0,.39.1h.56v.76h-.72a1.39,1.39,0,0,1-.94-.28,1.21,1.21,0,0,1-.33-.94v-2.44h-.52v-.74h.52v-1.1h.92v1.1h1.07v.74Z"/><path class="cls-3" d="M304.53,162a1.68,1.68,0,0,1,.79-.19v.95h-.23a1.1,1.1,0,0,0-.81.27,1.27,1.27,0,0,0-.28.94v2.32h-.91v-4.4H304v.64A1.49,1.49,0,0,1,304.53,162Z"/><path class="cls-3" d="M310.17,164.42H306.8a1.26,1.26,0,0,0,.39.85,1.28,1.28,0,0,0,.87.32,1.07,1.07,0,0,0,1-.62h1a2,2,0,0,1-.72,1,2.11,2.11,0,0,1-1.3.39,2.24,2.24,0,0,1-1.13-.29,2,2,0,0,1-.79-.8,2.69,2.69,0,0,1,0-2.39,2,2,0,0,1,.77-.8,2.39,2.39,0,0,1,1.15-.28,2.26,2.26,0,0,1,1.11.28,1.85,1.85,0,0,1,.76.76,2.33,2.33,0,0,1,.27,1.13A3,3,0,0,1,310.17,164.42Zm-.92-.74a1,1,0,0,0-.36-.8,1.24,1.24,0,0,0-.87-.31,1.16,1.16,0,0,0-.81.3,1.26,1.26,0,0,0-.4.81Z"/><path class="cls-3" d="M314.25,162a1.54,1.54,0,0,1,.65.64,2.13,2.13,0,0,1,.23,1v2.6h-.9v-2.46a1.28,1.28,0,0,0-.3-.91,1.21,1.21,0,0,0-1.62,0,1.28,1.28,0,0,0-.3.91v2.46h-.91v-4.4H312v.5a1.51,1.51,0,0,1,.57-.42,1.86,1.86,0,0,1,.74-.16A2,2,0,0,1,314.25,162Z"/><path class="cls-3" d="M319,162a1.61,1.61,0,0,1,.63.51v-.64h.91v4.48a2.26,2.26,0,0,1-.25,1.08,1.84,1.84,0,0,1-.74.75,2.34,2.34,0,0,1-1.16.27,2.52,2.52,0,0,1-1.49-.42,1.58,1.58,0,0,1-.67-1.14h.91a1,1,0,0,0,.44.56,1.53,1.53,0,0,0,.81.21,1.21,1.21,0,0,0,.9-.34,1.33,1.33,0,0,0,.34-1v-.74a1.91,1.91,0,0,1-.63.52,1.82,1.82,0,0,1-.9.22,2,2,0,0,1-1.06-.3,2.1,2.1,0,0,1-.75-.81,2.57,2.57,0,0,1-.27-1.19,2.53,2.53,0,0,1,.27-1.18,2.11,2.11,0,0,1,.75-.79,2,2,0,0,1,1.06-.29A1.87,1.87,0,0,1,319,162Zm.44,1.27a1.36,1.36,0,0,0-.5-.51,1.35,1.35,0,0,0-1.31,0,1.31,1.31,0,0,0-.49.5,1.65,1.65,0,0,0-.19.79,1.72,1.72,0,0,0,.19.8,1.32,1.32,0,0,0,.5.52,1.29,1.29,0,0,0,1.3,0,1.32,1.32,0,0,0,.5-.52,1.65,1.65,0,0,0,.19-.79A1.69,1.69,0,0,0,319.41,163.28Z"/><path class="cls-3" d="M324.89,162a1.5,1.5,0,0,1,.63.64,2.13,2.13,0,0,1,.23,1v2.6h-.91v-2.46a1.32,1.32,0,0,0-.29-.91,1.21,1.21,0,0,0-1.62,0,1.28,1.28,0,0,0-.3.91v2.46h-.92v-5.92h.92v2a1.47,1.47,0,0,1,.58-.43,2,2,0,0,1,.78-.16A1.87,1.87,0,0,1,324.89,162Z"/><path class="cls-3" d="M330.91,164.42h-3.36a1.18,1.18,0,0,0,.39.85,1.24,1.24,0,0,0,.86.32,1.07,1.07,0,0,0,1-.62h1a2,2,0,0,1-.73,1,2.11,2.11,0,0,1-1.3.39,2.24,2.24,0,0,1-1.13-.29,2,2,0,0,1-.78-.8,2.65,2.65,0,0,1,0-2.39,2,2,0,0,1,.77-.8,2.42,2.42,0,0,1,1.15-.28,2.23,2.23,0,0,1,1.11.28,1.85,1.85,0,0,1,.76.76A2.34,2.34,0,0,1,331,164,2.89,2.89,0,0,1,330.91,164.42Zm-.92-.74a1,1,0,0,0-.36-.8,1.24,1.24,0,0,0-.87-.31,1.2,1.2,0,0,0-.81.3,1.31,1.31,0,0,0-.4.81Z"/><path class="cls-3" d="M335,162a1.52,1.52,0,0,1,.64.64,2,2,0,0,1,.23,1v2.6H335v-2.46a1.28,1.28,0,0,0-.3-.91,1,1,0,0,0-.8-.31,1.07,1.07,0,0,0-.82.31,1.28,1.28,0,0,0-.3.91v2.46h-.91v-4.4h.91v.5a1.47,1.47,0,0,1,.58-.42,1.82,1.82,0,0,1,.74-.16A2.06,2.06,0,0,1,335,162Z"/><path class="cls-3" d="M337.7,166.17a1.76,1.76,0,0,1-.65-.51,1.3,1.3,0,0,1-.26-.73h.95a.61.61,0,0,0,.27.47.93.93,0,0,0,.61.19,1,1,0,0,0,.59-.15.45.45,0,0,0,.22-.38.4.4,0,0,0-.24-.37,4.14,4.14,0,0,0-.75-.26,6.35,6.35,0,0,1-.81-.27,1.36,1.36,0,0,1-.54-.39,1,1,0,0,1-.23-.69,1.1,1.1,0,0,1,.21-.65,1.42,1.42,0,0,1,.6-.46,2.24,2.24,0,0,1,.89-.17,1.84,1.84,0,0,1,1.21.38,1.36,1.36,0,0,1,.49,1h-.91a.61.61,0,0,0-.24-.47.87.87,0,0,0-.58-.18.93.93,0,0,0-.55.14.42.42,0,0,0-.2.36.39.39,0,0,0,.13.29.89.89,0,0,0,.31.19l.55.17c.32.09.58.18.79.26a1.55,1.55,0,0,1,.53.39,1,1,0,0,1,.23.68,1.11,1.11,0,0,1-.21.67,1.33,1.33,0,0,1-.59.47,2.21,2.21,0,0,1-.89.17A2.34,2.34,0,0,1,337.7,166.17Z"/><path class="cls-3" d="M344.45,162.62v2.44a.52.52,0,0,0,.11.36.6.6,0,0,0,.4.1h.56v.76h-.72a1.39,1.39,0,0,1-.94-.28,1.21,1.21,0,0,1-.33-.94v-2.44H343v-.74h.52v-1.1h.92v1.1h1.07v.74Z"/><path class="cls-3" d="M349.54,162a1.53,1.53,0,0,1,.62.64,2,2,0,0,1,.23,1v2.6h-.9v-2.46a1.28,1.28,0,0,0-.3-.91,1.21,1.21,0,0,0-1.62,0,1.28,1.28,0,0,0-.3.91v2.46h-.91v-5.92h.91v2a1.5,1.5,0,0,1,.59-.43,2,2,0,0,1,.78-.16A1.87,1.87,0,0,1,349.54,162Z"/><path class="cls-3" d="M355.56,164.42h-3.37a1.26,1.26,0,0,0,.39.85,1.28,1.28,0,0,0,.87.32,1.07,1.07,0,0,0,1-.62h1a2,2,0,0,1-.72,1,2.11,2.11,0,0,1-1.3.39,2.24,2.24,0,0,1-1.13-.29,2,2,0,0,1-.79-.8,2.41,2.41,0,0,1-.28-1.19,2.53,2.53,0,0,1,.27-1.2,2.07,2.07,0,0,1,.78-.8,2.39,2.39,0,0,1,1.15-.28,2.29,2.29,0,0,1,1.11.28,1.85,1.85,0,0,1,.76.76,2.33,2.33,0,0,1,.27,1.13A3,3,0,0,1,355.56,164.42Zm-.92-.74a1,1,0,0,0-.36-.8,1.24,1.24,0,0,0-.87-.31,1.16,1.16,0,0,0-.81.3,1.26,1.26,0,0,0-.4.81Z"/><path class="cls-3" d="M359.24,166.17a1.72,1.72,0,0,1-.66-.51,1.28,1.28,0,0,1-.25-.73h.94a.68.68,0,0,0,.27.47,1,1,0,0,0,.61.19,1,1,0,0,0,.6-.15.44.44,0,0,0,.21-.38.4.4,0,0,0-.24-.37,3.72,3.72,0,0,0-.74-.26,6.35,6.35,0,0,1-.81-.27,1.29,1.29,0,0,1-.54-.39,1,1,0,0,1-.23-.69,1.1,1.1,0,0,1,.21-.65,1.45,1.45,0,0,1,.59-.46,2.29,2.29,0,0,1,.9-.17,1.86,1.86,0,0,1,1.21.38,1.4,1.4,0,0,1,.49,1h-.91a.67.67,0,0,0-.24-.47.9.9,0,0,0-.59-.18,1,1,0,0,0-.55.14.41.41,0,0,0-.19.36.36.36,0,0,0,.13.29.81.81,0,0,0,.31.19c.12,0,.3.1.54.17a8.14,8.14,0,0,1,.79.26,1.46,1.46,0,0,1,.53.39,1.06,1.06,0,0,1,.24.68,1.11,1.11,0,0,1-.21.67,1.39,1.39,0,0,1-.59.47,2.21,2.21,0,0,1-.89.17A2.27,2.27,0,0,1,359.24,166.17Z"/><path class="cls-3" d="M366,162a1.53,1.53,0,0,1,.62.64,2,2,0,0,1,.23,1v2.6H366v-2.46a1.28,1.28,0,0,0-.3-.91,1.21,1.21,0,0,0-1.62,0,1.28,1.28,0,0,0-.3.91v2.46h-.91v-5.92h.91v2a1.5,1.5,0,0,1,.59-.43,2,2,0,0,1,.78-.16A1.87,1.87,0,0,1,366,162Z"/><path class="cls-3" d="M368.81,166.07a2.09,2.09,0,0,1-.79-.8,2.41,2.41,0,0,1-.29-1.19,2.38,2.38,0,0,1,.3-1.2,2.14,2.14,0,0,1,.81-.8,2.4,2.4,0,0,1,1.14-.28,2.44,2.44,0,0,1,1.15.28,2.05,2.05,0,0,1,.8.8,2.53,2.53,0,0,1,0,2.39,2.2,2.2,0,0,1-.83.8,2.4,2.4,0,0,1-1.16.29A2.29,2.29,0,0,1,368.81,166.07Zm1.79-.67a1.29,1.29,0,0,0,.5-.51,1.57,1.57,0,0,0,.2-.81,1.74,1.74,0,0,0-.19-.82,1.24,1.24,0,0,0-.49-.5,1.42,1.42,0,0,0-1.31,0,1.26,1.26,0,0,0-.47.5,1.74,1.74,0,0,0-.18.82,1.53,1.53,0,0,0,.37,1.1,1.17,1.17,0,0,0,.91.38A1.34,1.34,0,0,0,370.6,165.4Z"/><path class="cls-3" d="M379.05,161.88l-1.36,4.4h-1l-.89-3.25-.89,3.25h-1l-1.38-4.4h.93l.92,3.54.94-3.54h1l.9,3.52.91-3.52Z"/><path class="cls-3" d="M379.69,166.17a.53.53,0,0,1-.17-.41.54.54,0,0,1,.17-.42.58.58,0,0,1,.82,0,.57.57,0,0,1,.17.42.58.58,0,0,1-1,.41Z"/></svg>