<svg id="Layer_1" data-name="Layer 1" xmlns="http://www.w3.org/2000/svg" viewBox="0 0 504 253.57"><defs><style>.cls-1{fill:none;}.cls-2{fill:#333;}.cls-3{fill:#fff;}</style></defs><title>Inside Page Slider</title><rect class="cls-1" x="0.39" y="0.39" width="503.22" height="252.78"/><path class="cls-2" d="M354,179.27H214.81a10.77,10.77,0,0,1-10.76-10.76V165a1.95,1.95,0,1,1,3.89,0v3.5a6.87,6.87,0,0,0,6.87,6.86H354a6.87,6.87,0,0,0,6.87-6.86V145.63a2,2,0,0,1,.95-1.68,2,2,0,0,1,1.93,0l36.68,20a2.75,2.75,0,0,0,2.51.25c.14-.08.5-.29.5-1.2V85.68a1.83,1.83,0,0,0-.65-1.62,2.58,2.58,0,0,0-2.31.41l-36.74,20a1.95,1.95,0,0,1-2.87-1.71V81.36A6.87,6.87,0,0,0,354,74.5H214.81a6.87,6.87,0,0,0-6.87,6.86v3.5a1.95,1.95,0,1,1-3.89,0v-3.5A10.77,10.77,0,0,1,214.81,70.6H354a10.77,10.77,0,0,1,10.76,10.76V99.43l33.82-18.36a6.11,6.11,0,0,1,6.16-.38,5.52,5.52,0,0,1,2.6,5V163a5,5,0,0,1-2.45,4.58,6.53,6.53,0,0,1-6.37-.23l-33.76-18.42v19.6A10.77,10.77,0,0,1,354,179.27Z"/><path class="cls-2" d="M244.73,153.5H249a1.31,1.31,0,0,1,1.31,1.31v2.86A1.32,1.32,0,0,1,249,159H237.85a1.31,1.31,0,0,1-1.3-1.32V94.42a1.31,1.31,0,0,1,1.3-1.32h4.27a1.31,1.31,0,0,1,1.3,1.32v57.76A1.32,1.32,0,0,0,244.73,153.5Z"/><path class="cls-3" d="M118.44,115.07h-4.25a1.33,1.33,0,0,1-1.31-1.33V102a3.38,3.38,0,0,0-3.36-3.4h-.16A3.38,3.38,0,0,0,106,102v48.1a3.38,3.38,0,0,0,3.36,3.4h.16a3.38,3.38,0,0,0,3.36-3.4V138.36a1.33,1.33,0,0,1,1.31-1.33h4.25a1.33,1.33,0,0,1,1.31,1.33V149.6a9.35,9.35,0,0,1-9.29,9.4h-2a9.35,9.35,0,0,1-9.29-9.4V102.5a9.35,9.35,0,0,1,9.29-9.4h2a9.35,9.35,0,0,1,9.29,9.4v11.24A1.33,1.33,0,0,1,118.44,115.07Z"/><path class="cls-3" d="M151.63,126a9.47,9.47,0,0,1,2.74,6.67v25a1.32,1.32,0,0,1-1.31,1.32H148.8a1.32,1.32,0,0,1-1.31-1.32v-25.5a3.37,3.37,0,0,0-3.35-3.39h-2.22a1.31,1.31,0,0,0-1.3,1.32v27.57a1.32,1.32,0,0,1-1.31,1.32h-4.26a1.32,1.32,0,0,1-1.31-1.32V94.42a1.32,1.32,0,0,1,1.31-1.32h10a9.37,9.37,0,0,1,9.32,9.42v16.84A9.43,9.43,0,0,1,151.63,126Zm-7.49-2.75a3.37,3.37,0,0,0,3.35-3.39V102a3.37,3.37,0,0,0-3.35-3.39h-2.22a1.31,1.31,0,0,0-1.3,1.32v22a1.31,1.31,0,0,0,1.3,1.32Z"/><path class="cls-3" d="M180.8,98.6h-4.26a1.32,1.32,0,0,0-1.31,1.32v22a1.32,1.32,0,0,0,1.31,1.32h4.26a1.32,1.32,0,0,1,1.31,1.32v2.86a1.32,1.32,0,0,1-1.31,1.32h-4.26a1.32,1.32,0,0,0-1.31,1.32v22.08a1.32,1.32,0,0,0,1.31,1.32h4.26a1.31,1.31,0,0,1,1.31,1.31v2.86A1.32,1.32,0,0,1,180.8,159H169.66a1.31,1.31,0,0,1-1.3-1.32V94.42a1.31,1.31,0,0,1,1.3-1.32H180.8a1.32,1.32,0,0,1,1.31,1.32v2.86A1.32,1.32,0,0,1,180.8,98.6Z"/><path class="cls-3" d="M218.72,157.56a1.31,1.31,0,0,1-1.3,1.43h-3.65a1.31,1.31,0,0,1-1.3-1.2l-1.7-19.6a1.31,1.31,0,0,0-1.3-1.2h-4.13a1.31,1.31,0,0,0-1.3,1.2l-1.69,19.6a1.31,1.31,0,0,1-1.3,1.2h-3.66a1.32,1.32,0,0,1-1.3-1.43L201.4,96.2a3.37,3.37,0,0,1,3.34-3.1h5.33a3.37,3.37,0,0,1,3.34,3.1Zm-8.65-27.5-2.17-25s-.07-.8-.49-.8-.5.8-.5.8l-2.16,25a1.31,1.31,0,0,0,1.3,1.43h2.72A1.32,1.32,0,0,0,210.07,130.06Z"/><path class="cls-3" d="M231,93.1h18a1.31,1.31,0,0,1,1.3,1.32v2.86A1.31,1.31,0,0,1,249,98.6h-4.27a1.31,1.31,0,0,0-1.3,1.32v57.75a1.32,1.32,0,0,1-1.31,1.32h-4.26a1.32,1.32,0,0,1-1.31-1.32V99.92a1.31,1.31,0,0,0-1.3-1.32H231a1.31,1.31,0,0,1-1.3-1.32V94.42A1.31,1.31,0,0,1,231,93.1Z"/><path class="cls-2" d="M265.6,93.1h4.26a1.32,1.32,0,0,1,1.31,1.32v63.25a1.32,1.32,0,0,1-1.31,1.32H265.6a1.32,1.32,0,0,1-1.31-1.32V94.42A1.32,1.32,0,0,1,265.6,93.1Z"/><path class="cls-2" d="M302.44,93.1h3.75a1.32,1.32,0,0,1,1.3,1.43L302,157.79a1.31,1.31,0,0,1-1.3,1.2H291.9a1.31,1.31,0,0,1-1.3-1.2l-5.46-63.26a1.32,1.32,0,0,1,1.3-1.43h3.76a1.32,1.32,0,0,1,1.3,1.21l4.75,55.05c0,.09.14.09.15,0l4.74-55.05A1.32,1.32,0,0,1,302.44,93.1Z"/><path class="cls-2" d="M333.87,98.6h-4.26a1.32,1.32,0,0,0-1.31,1.32v22a1.32,1.32,0,0,0,1.31,1.32h4.26a1.32,1.32,0,0,1,1.31,1.32v2.86a1.32,1.32,0,0,1-1.31,1.32h-4.26a1.32,1.32,0,0,0-1.31,1.32v22.08a1.32,1.32,0,0,0,1.31,1.32h4.26a1.31,1.31,0,0,1,1.31,1.31v2.86a1.32,1.32,0,0,1-1.31,1.32H322.73a1.31,1.31,0,0,1-1.3-1.32V94.42a1.31,1.31,0,0,1,1.3-1.32h11.14a1.32,1.32,0,0,1,1.31,1.32v2.86A1.32,1.32,0,0,1,333.87,98.6Z"/><circle class="cls-3" cx="349.17" cy="85.1" r="4.11" transform="translate(-9.12 57.03) rotate(-9.22)"/></svg>