<svg id="Layer_1" data-name="Layer 1" xmlns="http://www.w3.org/2000/svg" viewBox="0 0 504 253.57"><defs><style>.cls-1{fill:none;}.cls-2{fill:#fff;}.cls-3{fill:#1f1f1f;}</style></defs><title>Inside Page Slider</title><rect class="cls-1" x="0.39" y="0.39" width="503.22" height="252.78"/><path class="cls-2" d="M111.81,153.76v.74h-1.48v4.82h-.91V154.5h-1.49v-.74Z"/><path class="cls-2" d="M116.18,155.06a1.48,1.48,0,0,1,.62.64,2.13,2.13,0,0,1,.23,1v2.6h-.9v-2.46a1.26,1.26,0,0,0-.3-.91,1.19,1.19,0,0,0-1.62,0,1.26,1.26,0,0,0-.3.91v2.46H113V153.4h.91v2a1.53,1.53,0,0,1,.59-.43,2,2,0,0,1,.78-.15A1.82,1.82,0,0,1,116.18,155.06Z"/><path class="cls-2" d="M118.5,154.16a.57.57,0,0,1-.16-.42.56.56,0,0,1,.16-.41.61.61,0,0,1,.42-.17.58.58,0,0,1,.58.58.57.57,0,0,1-.17.42.57.57,0,0,1-.41.17A.61.61,0,0,1,118.5,154.16Zm.87.75v4.41h-.91v-4.41Z"/><path class="cls-2" d="M121.5,159.2a1.58,1.58,0,0,1-.65-.51,1.25,1.25,0,0,1-.25-.72h.94a.7.7,0,0,0,.27.47,1,1,0,0,0,.61.18,1.13,1.13,0,0,0,.6-.14.46.46,0,0,0,.21-.38.39.39,0,0,0-.24-.37,4.9,4.9,0,0,0-.75-.27,5.81,5.81,0,0,1-.8-.26,1.5,1.5,0,0,1-.54-.39,1,1,0,0,1-.23-.7,1.07,1.07,0,0,1,.21-.64,1.26,1.26,0,0,1,.59-.46,2.28,2.28,0,0,1,.89-.17,1.87,1.87,0,0,1,1.22.38,1.38,1.38,0,0,1,.49,1h-.91a.7.7,0,0,0-.24-.48,1.16,1.16,0,0,0-1.14,0,.41.41,0,0,0-.19.36.38.38,0,0,0,.13.3,1,1,0,0,0,.31.19l.54.17a6.65,6.65,0,0,1,.79.26,1.55,1.55,0,0,1,.53.39,1,1,0,0,1,.23.68,1.2,1.2,0,0,1-.2.67,1.37,1.37,0,0,1-.59.46,2.08,2.08,0,0,1-.89.17A2.19,2.19,0,0,1,121.5,159.2Z"/><path class="cls-2" d="M128.56,159a2.7,2.7,0,0,1-1-1,3,3,0,0,1,0-2.94,2.7,2.7,0,0,1,1-1,2.92,2.92,0,0,1,1.43-.36,3,3,0,0,1,1.44.36,2.67,2.67,0,0,1,1,1,3,3,0,0,1,0,2.94,2.67,2.67,0,0,1-1,1,3,3,0,0,1-1.44.37A2.93,2.93,0,0,1,128.56,159Zm2.41-.68a1.75,1.75,0,0,0,.68-.72,2.55,2.55,0,0,0,0-2.16,1.67,1.67,0,0,0-.68-.71,2,2,0,0,0-2,0,1.67,1.67,0,0,0-.68.71,2.55,2.55,0,0,0,0,2.16,1.75,1.75,0,0,0,.68.72,2,2,0,0,0,2,0Z"/><path class="cls-2" d="M134,155.92a1.89,1.89,0,0,1,.76-.8,2.17,2.17,0,0,1,1.12-.28,2.22,2.22,0,0,1,1.32.38,1.84,1.84,0,0,1,.71,1.08h-1a1,1,0,0,0-.39-.51A1.24,1.24,0,0,0,135,156a1.71,1.71,0,0,0-.33,1.11,1.67,1.67,0,0,0,.33,1.11,1.09,1.09,0,0,0,.89.4,1,1,0,0,0,1.05-.69h1a2,2,0,0,1-.72,1.07,2.14,2.14,0,0,1-1.31.39,2.17,2.17,0,0,1-1.12-.28,2,2,0,0,1-.76-.8,2.45,2.45,0,0,1-.28-1.2A2.41,2.41,0,0,1,134,155.92Z"/><path class="cls-2" d="M143.07,157.46H139.7a1.23,1.23,0,0,0,.39.84,1.22,1.22,0,0,0,.87.32,1.07,1.07,0,0,0,1-.61h1a2,2,0,0,1-.72,1,2.13,2.13,0,0,1-1.3.39,2.27,2.27,0,0,1-1.14-.28,2.07,2.07,0,0,1-.78-.8,2.45,2.45,0,0,1-.28-1.2,2.52,2.52,0,0,1,.27-1.19,1.94,1.94,0,0,1,.78-.8,2.25,2.25,0,0,1,1.15-.28,2.28,2.28,0,0,1,1.11.27,1.94,1.94,0,0,1,.76.77,2.28,2.28,0,0,1,.27,1.13A3.19,3.19,0,0,1,143.07,157.46Zm-.92-.74a1.06,1.06,0,0,0-.36-.81,1.31,1.31,0,0,0-.87-.3,1.16,1.16,0,0,0-.81.3,1.21,1.21,0,0,0-.4.81Z"/><path class="cls-2" d="M144.23,155.92a2,2,0,0,1,1.81-1.08,2,2,0,0,1,.91.2,2,2,0,0,1,.62.51v-.64h.92v4.41h-.92v-.66a1.8,1.8,0,0,1-.63.52,2.06,2.06,0,0,1-2-.08,2.2,2.2,0,0,1-.75-.82,2.5,2.5,0,0,1-.27-1.18A2.48,2.48,0,0,1,144.23,155.92Zm3.15.4a1.41,1.41,0,0,0-.49-.51,1.28,1.28,0,0,0-.66-.18,1.34,1.34,0,0,0-.65.17,1.36,1.36,0,0,0-.5.51,1.62,1.62,0,0,0-.18.79,1.71,1.71,0,0,0,.18.8,1.32,1.32,0,0,0,.5.52,1.25,1.25,0,0,0,.65.18,1.28,1.28,0,0,0,.66-.18,1.34,1.34,0,0,0,.49-.51,1.69,1.69,0,0,0,.19-.8A1.65,1.65,0,0,0,147.38,156.32Z"/><path class="cls-2" d="M153.11,155.06a1.47,1.47,0,0,1,.64.64,2,2,0,0,1,.24,1v2.6h-.91v-2.46a1.31,1.31,0,0,0-.29-.91,1.19,1.19,0,0,0-1.62,0,1.26,1.26,0,0,0-.3.91v2.46H150v-4.41h.92v.51a1.37,1.37,0,0,1,.57-.43,1.85,1.85,0,0,1,.74-.15A1.93,1.93,0,0,1,153.11,155.06Z"/><path class="cls-2" d="M158.28,159.11a2.12,2.12,0,0,1-.8-.8,2.65,2.65,0,0,1,0-2.39,2.08,2.08,0,0,1,.81-.8,2.48,2.48,0,0,1,2.29,0,2.08,2.08,0,0,1,.81.8,2.44,2.44,0,0,1,.29,1.19,2.31,2.31,0,0,1-.3,1.19,2.09,2.09,0,0,1-.83.81,2.37,2.37,0,0,1-1.16.28A2.22,2.22,0,0,1,158.28,159.11Zm1.78-.68a1.2,1.2,0,0,0,.5-.5,1.63,1.63,0,0,0,.2-.82,1.57,1.57,0,0,0-.19-.81,1.18,1.18,0,0,0-.49-.5,1.34,1.34,0,0,0-.65-.17,1.31,1.31,0,0,0-.65.17,1.22,1.22,0,0,0-.48.5,1.67,1.67,0,0,0-.18.81,1.55,1.55,0,0,0,.37,1.1,1.2,1.2,0,0,0,.91.39A1.35,1.35,0,0,0,160.06,158.43Z"/><path class="cls-2" d="M164.71,155.66h-.81v3.66H163v-3.66h-.52v-.75H163v-.31a1.38,1.38,0,0,1,.4-1.11,1.93,1.93,0,0,1,1.27-.35v.76a.91.91,0,0,0-.59.16.71.71,0,0,0-.16.54v.31h.81Z"/><path class="cls-2" d="M171,155.06a1.49,1.49,0,0,1,.65.64,2.13,2.13,0,0,1,.23,1v2.6H171v-2.46a1.26,1.26,0,0,0-.29-.91,1.19,1.19,0,0,0-1.62,0,1.26,1.26,0,0,0-.3.91v2.46h-.91v-4.41h.91v.51a1.44,1.44,0,0,1,.57-.43,1.85,1.85,0,0,1,.74-.15A1.88,1.88,0,0,1,171,155.06Z"/><path class="cls-2" d="M177.33,157.46H174a1.23,1.23,0,0,0,1.26,1.16,1.06,1.06,0,0,0,1-.61h1a1.93,1.93,0,0,1-.72,1,2.11,2.11,0,0,1-1.3.39,2.23,2.23,0,0,1-1.13-.28,2.09,2.09,0,0,1-.79-.8,2.56,2.56,0,0,1-.28-1.2,2.41,2.41,0,0,1,.28-1.19,1.92,1.92,0,0,1,.77-.8,2.3,2.3,0,0,1,1.15-.28,2.23,2.23,0,0,1,1.11.27,1.88,1.88,0,0,1,.76.77,2.28,2.28,0,0,1,.27,1.13A3.19,3.19,0,0,1,177.33,157.46Zm-.92-.74a1,1,0,0,0-.36-.81,1.28,1.28,0,0,0-.87-.3,1.2,1.2,0,0,0-.81.3,1.31,1.31,0,0,0-.4.81Z"/><path class="cls-2" d="M179.59,155.66v2.44a.45.45,0,0,0,.12.35.59.59,0,0,0,.39.11h.56v.76h-.72A1.39,1.39,0,0,1,179,159a1.17,1.17,0,0,1-.33-.93v-2.44h-.52v-.75h.52v-1.09h.92v1.09h1.07v.75Z"/><path class="cls-2" d="M187.69,154.91l-1.37,4.41h-1l-.89-3.26-.88,3.26h-1l-1.38-4.41h.93l.92,3.55.93-3.55h1l.89,3.53.91-3.53Z"/><path class="cls-2" d="M189.42,159.11a2.09,2.09,0,0,1-.79-.8,2.45,2.45,0,0,1-.29-1.2,2.34,2.34,0,0,1,.3-1.19,2,2,0,0,1,.81-.8,2.46,2.46,0,0,1,2.28,0,2.08,2.08,0,0,1,.81.8,2.34,2.34,0,0,1,.3,1.19,2.22,2.22,0,0,1-.31,1.19,2.13,2.13,0,0,1-.82.81,2.4,2.4,0,0,1-1.16.28A2.26,2.26,0,0,1,189.42,159.11Zm1.79-.68a1.27,1.27,0,0,0,.5-.5,1.63,1.63,0,0,0,.19-.82,1.67,1.67,0,0,0-.18-.81,1.31,1.31,0,0,0-.49-.5,1.35,1.35,0,0,0-1.31,0,1.14,1.14,0,0,0-.47.5,1.67,1.67,0,0,0-.18.81,1.55,1.55,0,0,0,.36,1.1,1.22,1.22,0,0,0,.92.39A1.41,1.41,0,0,0,191.21,158.43Z"/><path class="cls-2" d="M195.45,155a1.54,1.54,0,0,1,.79-.19v.94H196a1.06,1.06,0,0,0-.81.28,1.26,1.26,0,0,0-.28.94v2.32H194v-4.41h.91v.64A1.39,1.39,0,0,1,195.45,155Z"/><path class="cls-2" d="M199.09,157.12l2,2.2h-1.23l-1.63-1.9v1.9h-.91V153.4h.91v3.44l1.6-1.93h1.26Z"/><path class="cls-2" d="M202.09,154.16a.57.57,0,0,1-.16-.42.56.56,0,0,1,.16-.41.59.59,0,0,1,.42-.17.58.58,0,0,1,.58.58.57.57,0,0,1-.17.42.57.57,0,0,1-.41.17A.59.59,0,0,1,202.09,154.16Zm.87.75v4.41h-.91v-4.41Z"/><path class="cls-2" d="M207.58,155.06a1.47,1.47,0,0,1,.64.64,2,2,0,0,1,.24,1v2.6h-.91v-2.46a1.31,1.31,0,0,0-.29-.91,1.19,1.19,0,0,0-1.62,0,1.26,1.26,0,0,0-.3.91v2.46h-.92v-4.41h.92v.51a1.44,1.44,0,0,1,.57-.43,1.85,1.85,0,0,1,.74-.15A1.91,1.91,0,0,1,207.58,155.06Z"/><path class="cls-2" d="M212.57,155a1.87,1.87,0,0,1,.62.51v-.64h.92v4.48a2.28,2.28,0,0,1-.26,1.09,1.88,1.88,0,0,1-.74.74,2.33,2.33,0,0,1-1.15.28,2.5,2.5,0,0,1-1.49-.42,1.52,1.52,0,0,1-.67-1.14h.9a1,1,0,0,0,.44.55,1.54,1.54,0,0,0,.82.21,1.24,1.24,0,0,0,.89-.33,1.35,1.35,0,0,0,.34-1v-.73a2,2,0,0,1-.63.52,1.87,1.87,0,0,1-.9.21,2,2,0,0,1-1-.29,2.15,2.15,0,0,1-.76-.82,2.5,2.5,0,0,1-.27-1.18,2.48,2.48,0,0,1,.27-1.18,2,2,0,0,1,1.81-1.08A2.06,2.06,0,0,1,212.57,155Zm.43,1.28a1.41,1.41,0,0,0-.49-.51,1.28,1.28,0,0,0-.66-.18,1.34,1.34,0,0,0-.65.17,1.36,1.36,0,0,0-.5.51,1.62,1.62,0,0,0-.18.79,1.71,1.71,0,0,0,.18.8,1.32,1.32,0,0,0,.5.52,1.25,1.25,0,0,0,.65.18,1.28,1.28,0,0,0,.66-.18,1.34,1.34,0,0,0,.49-.51,1.69,1.69,0,0,0,.19-.8A1.65,1.65,0,0,0,213,156.32Z"/><path class="cls-2" d="M217.63,155.92a2,2,0,0,1,.75-.8,2.09,2.09,0,0,1,1.05-.28,2,2,0,0,1,.91.2,2,2,0,0,1,.62.51v-.64h.92v4.41H221v-.66a1.8,1.8,0,0,1-.63.52,2,2,0,0,1-.92.21,2,2,0,0,1-1-.29,2.1,2.1,0,0,1-.74-.82,2.39,2.39,0,0,1-.28-1.18A2.37,2.37,0,0,1,217.63,155.92Zm3.14.4a1.41,1.41,0,0,0-.49-.51,1.26,1.26,0,0,0-.66-.18,1.34,1.34,0,0,0-.65.17,1.36,1.36,0,0,0-.5.51,1.62,1.62,0,0,0-.18.79,1.71,1.71,0,0,0,.18.8,1.32,1.32,0,0,0,.5.52,1.28,1.28,0,0,0,1.31,0,1.34,1.34,0,0,0,.49-.51,1.58,1.58,0,0,0,.19-.8A1.54,1.54,0,0,0,220.77,156.32Z"/><path class="cls-2" d="M226.5,155.06a1.42,1.42,0,0,1,.64.64,2,2,0,0,1,.24,1v2.6h-.91v-2.46a1.31,1.31,0,0,0-.29-.91,1.19,1.19,0,0,0-1.62,0,1.26,1.26,0,0,0-.3.91v2.46h-.92v-4.41h.92v.51a1.44,1.44,0,0,1,.57-.43,1.85,1.85,0,0,1,.74-.15A1.88,1.88,0,0,1,226.5,155.06Z"/><path class="cls-2" d="M228.77,155.92a2,2,0,0,1,1.82-1.08,2,2,0,0,1,.85.19,1.71,1.71,0,0,1,.67.5V153.4H233v5.92h-.92v-.66a1.68,1.68,0,0,1-.62.52,1.94,1.94,0,0,1-.91.21,2,2,0,0,1-1.05-.29,2.15,2.15,0,0,1-.76-.82,2.5,2.5,0,0,1-.27-1.18A2.48,2.48,0,0,1,228.77,155.92Zm3.15.4a1.41,1.41,0,0,0-.49-.51,1.28,1.28,0,0,0-.66-.18,1.34,1.34,0,0,0-.65.17,1.36,1.36,0,0,0-.5.51,1.62,1.62,0,0,0-.18.79,1.71,1.71,0,0,0,.18.8,1.32,1.32,0,0,0,.5.52,1.25,1.25,0,0,0,.65.18,1.28,1.28,0,0,0,.66-.18,1.34,1.34,0,0,0,.49-.51,1.69,1.69,0,0,0,.19-.8A1.65,1.65,0,0,0,231.92,156.32Z"/><path class="cls-2" d="M240.58,157.46h-3.37a1.23,1.23,0,0,0,1.26,1.16,1.06,1.06,0,0,0,1-.61h1a1.93,1.93,0,0,1-.72,1,2.11,2.11,0,0,1-1.3.39,2.23,2.23,0,0,1-1.13-.28,2,2,0,0,1-.79-.8,2.45,2.45,0,0,1-.28-1.2,2.41,2.41,0,0,1,.28-1.19,1.92,1.92,0,0,1,.77-.8,2.3,2.3,0,0,1,1.15-.28,2.23,2.23,0,0,1,1.11.27,1.88,1.88,0,0,1,.76.77,2.28,2.28,0,0,1,.27,1.13A3.19,3.19,0,0,1,240.58,157.46Zm-.92-.74a1,1,0,0,0-.36-.81,1.28,1.28,0,0,0-.87-.3,1.2,1.2,0,0,0-.81.3,1.26,1.26,0,0,0-.4.81Z"/><path class="cls-2" d="M244.93,155.06a1.49,1.49,0,0,1,.65.64,2.13,2.13,0,0,1,.23,1v2.6h-.91v-2.46a1.26,1.26,0,0,0-.29-.91,1.19,1.19,0,0,0-1.62,0,1.26,1.26,0,0,0-.3.91v2.46h-.91v-4.41h.91v.51a1.44,1.44,0,0,1,.57-.43,1.85,1.85,0,0,1,.74-.15A1.88,1.88,0,0,1,244.93,155.06Z"/><path class="cls-2" d="M248.3,155.66v2.44a.45.45,0,0,0,.12.35.57.57,0,0,0,.39.11h.56v.76h-.72a1.39,1.39,0,0,1-.94-.29,1.17,1.17,0,0,1-.33-.93v-2.44h-.52v-.75h.52v-1.09h.92v1.09h1.07v.75Z"/><path class="cls-2" d="M254.49,157.46h-3.37a1.23,1.23,0,0,0,.39.84,1.21,1.21,0,0,0,.86.32,1.05,1.05,0,0,0,1-.61h1a2,2,0,0,1-.73,1,2.09,2.09,0,0,1-1.3.39,2.26,2.26,0,0,1-1.13-.28,2.07,2.07,0,0,1-.78-.8,2.45,2.45,0,0,1-.29-1.2,2.52,2.52,0,0,1,.28-1.19,1.88,1.88,0,0,1,.78-.8,2.24,2.24,0,0,1,1.14-.28,2.29,2.29,0,0,1,1.12.27,2,2,0,0,1,.76.77,2.28,2.28,0,0,1,.27,1.13A3.19,3.19,0,0,1,254.49,157.46Zm-.92-.74a1.06,1.06,0,0,0-.36-.81,1.32,1.32,0,0,0-.88-.3,1.15,1.15,0,0,0-.8.3,1.21,1.21,0,0,0-.4.81Z"/><path class="cls-2" d="M257.13,155a1.5,1.5,0,0,1,.78-.19v.94h-.23a1.06,1.06,0,0,0-.81.28,1.3,1.3,0,0,0-.28.94v2.32h-.91v-4.41h.91v.64A1.42,1.42,0,0,1,257.13,155Z"/><path class="cls-2" d="M260.08,155.66v2.44a.45.45,0,0,0,.12.35.6.6,0,0,0,.4.11h.56v.76h-.72a1.42,1.42,0,0,1-.95-.29,1.17,1.17,0,0,1-.33-.93v-2.44h-.52v-.75h.52v-1.09h.92v1.09h1.08v.75Z"/><path class="cls-2" d="M262.23,155.92a2,2,0,0,1,1.81-1.08,2,2,0,0,1,.91.2,2,2,0,0,1,.62.51v-.64h.92v4.41h-.92v-.66a1.8,1.8,0,0,1-.63.52,2.06,2.06,0,0,1-2-.08,2.2,2.2,0,0,1-.75-.82,2.5,2.5,0,0,1-.27-1.18A2.48,2.48,0,0,1,262.23,155.92Zm3.15.4a1.41,1.41,0,0,0-.49-.51,1.28,1.28,0,0,0-.66-.18,1.34,1.34,0,0,0-.65.17,1.36,1.36,0,0,0-.5.51,1.62,1.62,0,0,0-.18.79,1.71,1.71,0,0,0,.18.8,1.32,1.32,0,0,0,.5.52,1.25,1.25,0,0,0,.65.18,1.28,1.28,0,0,0,.66-.18,1.34,1.34,0,0,0,.49-.51,1.69,1.69,0,0,0,.19-.8A1.65,1.65,0,0,0,265.38,156.32Z"/><path class="cls-2" d="M268,154.16a.57.57,0,0,1-.17-.42.57.57,0,0,1,.17-.41.57.57,0,0,1,.42-.17.58.58,0,0,1,.41.17.56.56,0,0,1,.16.41.57.57,0,0,1-.16.42.58.58,0,0,1-.41.17A.57.57,0,0,1,268,154.16Zm.87.75v4.41H268v-4.41Z"/><path class="cls-2" d="M273.49,155.06a1.47,1.47,0,0,1,.64.64,2,2,0,0,1,.23,1v2.6h-.9v-2.46a1.26,1.26,0,0,0-.3-.91,1,1,0,0,0-.8-.32,1.09,1.09,0,0,0-.82.32,1.26,1.26,0,0,0-.3.91v2.46h-.91v-4.41h.91v.51a1.4,1.4,0,0,1,.58-.43,1.81,1.81,0,0,1,.74-.15A1.93,1.93,0,0,1,273.49,155.06Z"/><path class="cls-2" d="M282.06,155.06a1.54,1.54,0,0,1,.65.64,2.13,2.13,0,0,1,.23,1v2.6H282v-2.46a1.26,1.26,0,0,0-.3-.91,1,1,0,0,0-.8-.32,1.08,1.08,0,0,0-.82.32,1.26,1.26,0,0,0-.3.91v2.46h-.9v-2.46a1.26,1.26,0,0,0-.3-.91,1,1,0,0,0-.8-.32,1.08,1.08,0,0,0-.82.32,1.26,1.26,0,0,0-.3.91v2.46h-.91v-4.41h.91v.51a1.44,1.44,0,0,1,.57-.43,1.85,1.85,0,0,1,.74-.15,2,2,0,0,1,.94.22,1.54,1.54,0,0,1,.64.65,1.37,1.37,0,0,1,.63-.63,1.79,1.79,0,0,1,.91-.24A1.93,1.93,0,0,1,282.06,155.06Z"/><path class="cls-2" d="M288.38,157.46H285a1.23,1.23,0,0,0,.39.84,1.22,1.22,0,0,0,.87.32,1.07,1.07,0,0,0,1-.61h1a1.93,1.93,0,0,1-.72,1,2.13,2.13,0,0,1-1.3.39,2.27,2.27,0,0,1-1.14-.28,2.07,2.07,0,0,1-.78-.8,2.45,2.45,0,0,1-.28-1.2,2.52,2.52,0,0,1,.27-1.19,1.94,1.94,0,0,1,.78-.8,2.25,2.25,0,0,1,1.15-.28,2.28,2.28,0,0,1,1.11.27,1.94,1.94,0,0,1,.76.77,2.28,2.28,0,0,1,.27,1.13A3.19,3.19,0,0,1,288.38,157.46Zm-.92-.74a1.06,1.06,0,0,0-.36-.81,1.31,1.31,0,0,0-.87-.3,1.16,1.16,0,0,0-.81.3,1.21,1.21,0,0,0-.4.81Z"/><path class="cls-2" d="M292.73,155.06a1.47,1.47,0,0,1,.64.64,2,2,0,0,1,.23,1v2.6h-.9v-2.46a1.31,1.31,0,0,0-.29-.91,1.19,1.19,0,0,0-1.62,0,1.22,1.22,0,0,0-.3.91v2.46h-.92v-4.41h.92v.51a1.37,1.37,0,0,1,.57-.43,1.85,1.85,0,0,1,.74-.15A1.93,1.93,0,0,1,292.73,155.06Z"/><path class="cls-2" d="M296.1,155.66v2.44a.45.45,0,0,0,.11.35.6.6,0,0,0,.4.11h.56v.76h-.72a1.42,1.42,0,0,1-.95-.29,1.17,1.17,0,0,1-.32-.93v-2.44h-.52v-.75h.52v-1.09h.92v1.09h1.07v.75Z"/><path class="cls-2" d="M300.33,155.92a2,2,0,0,1,.75-.8,2.12,2.12,0,0,1,1.06-.28,2,2,0,0,1,.85.19,1.71,1.71,0,0,1,.67.5V153.4h.92v5.92h-.92v-.66a1.68,1.68,0,0,1-.62.52,1.94,1.94,0,0,1-.91.21,2,2,0,0,1-1.05-.29,2.05,2.05,0,0,1-.75-.82,2.39,2.39,0,0,1-.28-1.18A2.37,2.37,0,0,1,300.33,155.92Zm3.14.4a1.34,1.34,0,0,0-.49-.51,1.26,1.26,0,0,0-.66-.18,1.34,1.34,0,0,0-.65.17,1.36,1.36,0,0,0-.5.51,1.62,1.62,0,0,0-.18.79,1.71,1.71,0,0,0,.18.8,1.39,1.39,0,0,0,.5.52,1.28,1.28,0,0,0,.65.18,1.31,1.31,0,0,0,1.15-.69,1.58,1.58,0,0,0,.19-.8A1.54,1.54,0,0,0,303.47,156.32Z"/><path class="cls-2" d="M306.83,159.11a2,2,0,0,1-.79-.8,2.45,2.45,0,0,1-.29-1.2,2.34,2.34,0,0,1,.3-1.19,2,2,0,0,1,.8-.8,2.33,2.33,0,0,1,1.15-.28,2.29,2.29,0,0,1,1.14.28,2.08,2.08,0,0,1,.81.8,2.47,2.47,0,0,1,0,2.38,2.09,2.09,0,0,1-.83.81,2.36,2.36,0,0,1-1.15.28A2.26,2.26,0,0,1,306.83,159.11Zm1.79-.68a1.33,1.33,0,0,0,.5-.5,1.63,1.63,0,0,0,.19-.82,1.67,1.67,0,0,0-.18-.81,1.31,1.31,0,0,0-.49-.5,1.38,1.38,0,0,0-.66-.17,1.34,1.34,0,0,0-.65.17,1.22,1.22,0,0,0-.48.5,1.8,1.8,0,0,0-.17.81,1.55,1.55,0,0,0,.36,1.1,1.2,1.2,0,0,0,.92.39A1.41,1.41,0,0,0,308.62,158.43Z"/><path class="cls-2" d="M317.68,155.06a1.49,1.49,0,0,1,.65.64,2,2,0,0,1,.24,1v2.6h-.91v-2.46a1.26,1.26,0,0,0-.29-.91,1.19,1.19,0,0,0-1.62,0,1.26,1.26,0,0,0-.3.91v2.46h-.91v-2.46a1.26,1.26,0,0,0-.29-.91,1.19,1.19,0,0,0-1.62,0,1.26,1.26,0,0,0-.3.91v2.46h-.91v-4.41h.91v.51a1.44,1.44,0,0,1,.57-.43,1.8,1.8,0,0,1,.73-.15,2,2,0,0,1,.95.22,1.6,1.6,0,0,1,.64.65,1.4,1.4,0,0,1,.62-.63,1.82,1.82,0,0,1,.91-.24A1.88,1.88,0,0,1,317.68,155.06Z"/><path class="cls-2" d="M320,154.16a.57.57,0,0,1-.16-.42.56.56,0,0,1,.16-.41.57.57,0,0,1,.42-.17.58.58,0,0,1,.41.17.57.57,0,0,1,.17.41.57.57,0,0,1-.17.42.58.58,0,0,1-.41.17A.57.57,0,0,1,320,154.16Zm.87.75v4.41H320v-4.41Z"/><path class="cls-2" d="M325.53,155.06a1.47,1.47,0,0,1,.64.64,2,2,0,0,1,.24,1v2.6h-.91v-2.46a1.31,1.31,0,0,0-.29-.91,1.19,1.19,0,0,0-1.62,0,1.26,1.26,0,0,0-.3.91v2.46h-.92v-4.41h.92v.51a1.44,1.44,0,0,1,.57-.43,1.85,1.85,0,0,1,.74-.15A1.91,1.91,0,0,1,325.53,155.06Z"/><path class="cls-2" d="M327.8,155.92a2.09,2.09,0,0,1,.76-.8,2.06,2.06,0,0,1,1.05-.28,2,2,0,0,1,.91.2,2.09,2.09,0,0,1,.62.51v-.64h.92v4.41h-.92v-.66a1.75,1.75,0,0,1-.64.52,1.91,1.91,0,0,1-.91.21,2,2,0,0,1-1-.29,2.2,2.2,0,0,1-.75-.82,2.5,2.5,0,0,1-.27-1.18A2.48,2.48,0,0,1,327.8,155.92Zm3.15.4a1.41,1.41,0,0,0-.49-.51,1.28,1.28,0,0,0-.66-.18,1.27,1.27,0,0,0-1.15.68,1.62,1.62,0,0,0-.19.79,1.72,1.72,0,0,0,.19.8,1.32,1.32,0,0,0,.5.52,1.25,1.25,0,0,0,.65.18,1.28,1.28,0,0,0,.66-.18,1.34,1.34,0,0,0,.49-.51,1.69,1.69,0,0,0,.19-.8A1.65,1.65,0,0,0,331,156.32Z"/><path class="cls-2" d="M334.59,155.66v2.44a.49.49,0,0,0,.11.35.6.6,0,0,0,.4.11h.56v.76h-.72A1.37,1.37,0,0,1,334,159a1.17,1.17,0,0,1-.33-.93v-2.44h-.52v-.75h.52v-1.09h.92v1.09h1.07v.75Z"/><path class="cls-2" d="M340.77,157.46h-3.36a1.15,1.15,0,0,0,.39.84,1.19,1.19,0,0,0,.86.32,1.06,1.06,0,0,0,1-.61h1a2,2,0,0,1-.73,1,2.11,2.11,0,0,1-1.3.39,2.23,2.23,0,0,1-1.13-.28,2.07,2.07,0,0,1-.78-.8,2.45,2.45,0,0,1-.29-1.2,2.41,2.41,0,0,1,.28-1.19,1.92,1.92,0,0,1,.77-.8,2.3,2.3,0,0,1,1.15-.28,2.23,2.23,0,0,1,1.11.27,1.88,1.88,0,0,1,.76.77,2.18,2.18,0,0,1,.28,1.13A2.15,2.15,0,0,1,340.77,157.46Zm-.92-.74a1,1,0,0,0-.36-.81,1.28,1.28,0,0,0-.87-.3,1.2,1.2,0,0,0-.81.3,1.31,1.31,0,0,0-.4.81Z"/><path class="cls-2" d="M342.64,159.2a1.52,1.52,0,0,1-.65-.51,1.27,1.27,0,0,1-.26-.72h.94a.7.7,0,0,0,.27.47,1,1,0,0,0,.61.18,1.11,1.11,0,0,0,.6-.14.46.46,0,0,0,.21-.38.39.39,0,0,0-.23-.37,4.9,4.9,0,0,0-.75-.27,6.52,6.52,0,0,1-.81-.26,1.5,1.5,0,0,1-.54-.39,1.05,1.05,0,0,1-.23-.7,1.07,1.07,0,0,1,.21-.64,1.37,1.37,0,0,1,.59-.46,2.29,2.29,0,0,1,.9-.17,1.86,1.86,0,0,1,1.21.38,1.35,1.35,0,0,1,.49,1h-.91a.7.7,0,0,0-.24-.48.93.93,0,0,0-.58-.17,1,1,0,0,0-.56.13.44.44,0,0,0-.19.36.38.38,0,0,0,.13.3,1,1,0,0,0,.31.19l.55.17a6.43,6.43,0,0,1,.78.26,1.38,1.38,0,0,1,.53.39,1.06,1.06,0,0,1,.24.68,1.13,1.13,0,0,1-.21.67,1.37,1.37,0,0,1-.59.46,2.05,2.05,0,0,1-.89.17A2.12,2.12,0,0,1,342.64,159.2Z"/><path class="cls-2" d="M349.65,155.66v2.44a.45.45,0,0,0,.12.35.59.59,0,0,0,.39.11h.56v.76H350a1.39,1.39,0,0,1-.94-.29,1.17,1.17,0,0,1-.33-.93v-2.44h-.52v-.75h.52v-1.09h.92v1.09h1.07v.75Z"/><path class="cls-2" d="M355,155.06a1.48,1.48,0,0,1,.62.64,2,2,0,0,1,.23,1v2.6H355v-2.46a1.26,1.26,0,0,0-.3-.91,1,1,0,0,0-.81-.32,1.07,1.07,0,0,0-.81.32,1.26,1.26,0,0,0-.3.91v2.46h-.91V153.4h.91v2a1.61,1.61,0,0,1,.59-.43,2,2,0,0,1,.78-.15A1.77,1.77,0,0,1,355,155.06Z"/><path class="cls-2" d="M361.3,157.46h-3.37a1.23,1.23,0,0,0,.39.84,1.22,1.22,0,0,0,.87.32,1.07,1.07,0,0,0,1-.61h1a2,2,0,0,1-.72,1,2.13,2.13,0,0,1-1.3.39,2.27,2.27,0,0,1-1.14-.28,2.07,2.07,0,0,1-.78-.8,2.45,2.45,0,0,1-.28-1.2,2.52,2.52,0,0,1,.27-1.19,1.94,1.94,0,0,1,.78-.8,2.25,2.25,0,0,1,1.15-.28,2.28,2.28,0,0,1,1.11.27,1.94,1.94,0,0,1,.76.77,2.28,2.28,0,0,1,.27,1.13A3.19,3.19,0,0,1,361.3,157.46Zm-.92-.74a1.06,1.06,0,0,0-.36-.81,1.31,1.31,0,0,0-.87-.3,1.16,1.16,0,0,0-.81.3,1.21,1.21,0,0,0-.4.81Z"/><path class="cls-2" d="M366.12,155.05a1.87,1.87,0,0,1,.9-.21,2.09,2.09,0,0,1,1.05.28,2,2,0,0,1,.75.8,2.48,2.48,0,0,1,.27,1.18,2.5,2.5,0,0,1-.27,1.18,2.05,2.05,0,0,1-.75.82,2,2,0,0,1-1.05.29,2,2,0,0,1-.9-.2,2.18,2.18,0,0,1-.64-.51v2.74h-.91v-6.51h.91v.65A2,2,0,0,1,366.12,155.05Zm1.86,1.26a1.3,1.3,0,0,0-1.16-.68,1.25,1.25,0,0,0-.65.18,1.36,1.36,0,0,0-.5.51,1.65,1.65,0,0,0-.19.79,1.69,1.69,0,0,0,.19.8,1.29,1.29,0,0,0,.5.51,1.28,1.28,0,0,0,1.31,0,1.32,1.32,0,0,0,.5-.52,1.71,1.71,0,0,0,.18-.8A1.62,1.62,0,0,0,368,156.31Z"/><path class="cls-2" d="M371.71,155a1.52,1.52,0,0,1,.79-.19v.94h-.24a1.09,1.09,0,0,0-.81.28,1.3,1.3,0,0,0-.27.94v2.32h-.92v-4.41h.92v.64A1.39,1.39,0,0,1,371.71,155Z"/><path class="cls-2" d="M377.61,157.46h-3.37a1.21,1.21,0,0,0,1.26,1.16,1.07,1.07,0,0,0,1-.61h1a1.93,1.93,0,0,1-.72,1,2.11,2.11,0,0,1-1.3.39,2.23,2.23,0,0,1-1.13-.28,2,2,0,0,1-.79-.8,2.45,2.45,0,0,1-.28-1.2,2.52,2.52,0,0,1,.27-1.19,2,2,0,0,1,.78-.8,2.46,2.46,0,0,1,2.26,0,1.88,1.88,0,0,1,.76.77,2.28,2.28,0,0,1,.27,1.13A3.19,3.19,0,0,1,377.61,157.46Zm-.92-.74a1.06,1.06,0,0,0-.36-.81,1.3,1.3,0,0,0-.87-.3,1.16,1.16,0,0,0-.81.3,1.26,1.26,0,0,0-.4.81Z"/><path class="cls-2" d="M379.47,159.2a1.58,1.58,0,0,1-.65-.51,1.34,1.34,0,0,1-.26-.72h.95a.63.63,0,0,0,.27.47,1,1,0,0,0,.61.18,1.07,1.07,0,0,0,.59-.14.44.44,0,0,0,.22-.38.39.39,0,0,0-.24-.37,4.9,4.9,0,0,0-.75-.27,5.81,5.81,0,0,1-.8-.26,1.5,1.5,0,0,1-.54-.39,1,1,0,0,1-.23-.7,1.07,1.07,0,0,1,.21-.64,1.26,1.26,0,0,1,.59-.46,2.28,2.28,0,0,1,.89-.17,1.84,1.84,0,0,1,1.21.38,1.35,1.35,0,0,1,.5,1h-.91a.7.7,0,0,0-.24-.48,1.16,1.16,0,0,0-1.14,0,.41.41,0,0,0-.19.36.38.38,0,0,0,.13.3.86.86,0,0,0,.31.19l.54.17a6.65,6.65,0,0,1,.79.26,1.55,1.55,0,0,1,.53.39,1,1,0,0,1,.23.68,1.2,1.2,0,0,1-.2.67,1.37,1.37,0,0,1-.59.46,2.08,2.08,0,0,1-.89.17A2.19,2.19,0,0,1,379.47,159.2Z"/><path class="cls-2" d="M387.35,157.46H384a1.23,1.23,0,0,0,1.26,1.16,1.06,1.06,0,0,0,1-.61h1a1.93,1.93,0,0,1-.72,1,2.11,2.11,0,0,1-1.3.39,2.23,2.23,0,0,1-1.13-.28,2,2,0,0,1-.79-.8,2.45,2.45,0,0,1-.28-1.2,2.41,2.41,0,0,1,.28-1.19,1.92,1.92,0,0,1,.77-.8,2.28,2.28,0,0,1,1.15-.28,2.23,2.23,0,0,1,1.11.27,1.88,1.88,0,0,1,.76.77,2.28,2.28,0,0,1,.27,1.13A3.19,3.19,0,0,1,387.35,157.46Zm-.92-.74a1,1,0,0,0-.36-.81,1.28,1.28,0,0,0-.87-.3,1.18,1.18,0,0,0-.81.3,1.26,1.26,0,0,0-.4.81Z"/><path class="cls-2" d="M391.7,155.06a1.49,1.49,0,0,1,.65.64,2.13,2.13,0,0,1,.23,1v2.6h-.91v-2.46a1.26,1.26,0,0,0-.29-.91,1.19,1.19,0,0,0-1.62,0,1.26,1.26,0,0,0-.3.91v2.46h-.91v-4.41h.91v.51A1.44,1.44,0,0,1,390,155a1.85,1.85,0,0,1,.74-.15A1.88,1.88,0,0,1,391.7,155.06Z"/><path class="cls-2" d="M395.07,155.66v2.44a.45.45,0,0,0,.12.35.55.55,0,0,0,.39.11h.56v.76h-.72a1.39,1.39,0,0,1-.94-.29,1.17,1.17,0,0,1-.33-.93v-2.44h-.52v-.75h.52v-1.09h.92v1.09h1.07v.75Z"/><path class="cls-2" d="M95.9,132.35v-2.49h6.38v3c0,3.1,1.34,4.22,3.49,4.22s3.5-1.12,3.5-4.34c0-3.6-1.35-5.9-5.77-9.8-5.64-5-7.48-8.57-7.48-13.53,0-6.82,3.5-10.79,10.06-10.79s9.81,4,9.81,10.91v1.8h-6.38v-2.23c0-3.1-1.22-4.28-3.37-4.28s-3.37,1.18-3.37,4.16c0,3.16,1.41,5.46,5.82,9.36,5.64,5,7.42,8.5,7.42,13.9,0,7.07-3.55,11.05-10.18,11.05S95.9,139.29,95.9,132.35Z"/><path class="cls-3" d="M122.49,132.35V109.51c0-6.94,3.62-10.91,10.24-10.91s10.24,4,10.24,10.91v22.84c0,6.94-3.62,10.92-10.24,10.92S122.49,139.29,122.49,132.35Zm13.73.43v-23.7c0-3.1-1.34-4.28-3.49-4.28s-3.5,1.18-3.5,4.28v23.7c0,3.1,1.35,4.28,3.5,4.28S136.22,135.88,136.22,132.78Z"/><path class="cls-3" d="M150.18,132.59V109.27c0-6.7,3.44-10.67,9.94-10.67s9.93,4,9.93,10.67v4.59h-6.38v-5c0-2.85-1.35-4-3.37-4s-3.37,1.18-3.37,4v24.26c0,2.85,1.35,4,3.37,4s3.37-1.12,3.37-4v-6.64h6.38v6.14c0,6.7-3.43,10.68-9.93,10.68S150.18,139.29,150.18,132.59Z"/><path class="cls-2" d="M177.2,99.22H184v43.43H177.2Z"/><path class="cls-2" d="M197.29,99.22h9.14l7,43.43h-6.75L205.45,134v.13h-7.67l-1.23,8.5H190.3Zm7.36,29-3-21.47h-.12l-2.94,21.47Z"/><path class="cls-2" d="M219.77,99.22h6.75v37.22h11.1v6.21H219.77Z"/><path class="cls-2" d="M253.75,99.22h9.63l4.29,31.08h.12l4.29-31.08h9.63v43.43h-6.38V109.76h-.12l-4.91,32.89h-5.64l-4.9-32.89h-.13v32.89h-5.88Z"/><path class="cls-3" d="M289.84,99.22h18.4v6.2H296.59V116.9h9.26v6.2h-9.26v13.34h11.65v6.21h-18.4Z"/><path class="cls-2" d="M315.21,99.22h10.3c6.75,0,10.06,3.78,10.06,10.73v22c0,7-3.31,10.74-10.06,10.74h-10.3Zm10.18,37.22c2.14,0,3.43-1.12,3.43-4.22V109.64c0-3.1-1.29-4.22-3.43-4.22H322v31Z"/><path class="cls-2" d="M343.21,99.22H350v43.43h-6.74Z"/><path class="cls-3" d="M363.3,99.22h9.13l7,43.43h-6.74L371.45,134v.13h-7.66l-1.23,8.5H356.3Zm7.35,29-3-21.47h-.12l-2.95,21.47Z"/><path class="cls-3" d="M385.78,99.22h8.46l6.56,26h.12v-26h6v43.43H400l-8.09-31.71h-.12v31.71h-6Z"/></svg>