<svg id="Layer_1" data-name="Layer 1" xmlns="http://www.w3.org/2000/svg" viewBox="0 0 504 253.57"><defs><style>.cls-1,.cls-2,.cls-3,.cls-4,.cls-5,.cls-7,.cls-8,.cls-9{fill:#141618;}.cls-1,.cls-2,.cls-3,.cls-4,.cls-5,.cls-6,.cls-7,.cls-8{stroke:#25282b;}.cls-1,.cls-2,.cls-4,.cls-5,.cls-6,.cls-7,.cls-8{stroke-miterlimit:22.93;}.cls-1,.cls-2,.cls-4,.cls-5,.cls-6,.cls-8{stroke-width:1.42px;}.cls-1,.cls-11,.cls-3,.cls-4,.cls-5,.cls-6,.cls-7{fill-rule:evenodd;}.cls-3{stroke-miterlimit:10;}.cls-4,.cls-8{stroke-linecap:round;}.cls-5,.cls-6{stroke-dasharray:2.83 4.25;}.cls-6{fill:none;}.cls-7{stroke-width:0.71px;}.cls-10,.cls-11{fill:#25282b;}</style></defs><title>Web-development-design-Responsive-html-java-css-word-press-process-01</title><path class="cls-1" d="M202.77,134.45H311.9a4.44,4.44,0,0,1,4.43,4.43v70a4.44,4.44,0,0,1-4.43,4.43H202.77a4.44,4.44,0,0,1-4.43-4.43v-70a4.45,4.45,0,0,1,4.43-4.43Zm5.56,6.05h99.21a3.2,3.2,0,0,1,3.2,3.2v50.5a3.2,3.2,0,0,1-3.2,3.19H208.33a3.2,3.2,0,0,1-3.2-3.19V143.7A3.2,3.2,0,0,1,208.33,140.5Z"/><path class="cls-1" d="M173.76,65.35l6.46,2.77,22.57,9.82c3.19,1.11,7-1.59,7.6-3.89l-27.21-12a6.38,6.38,0,0,0-8.81-7.23c-4,1.69-4.56,8.26-.61,10.5Z"/><path class="cls-1" d="M173.76,70.07l6.46-2.78,22.57-9.82c3.19-1.1,7,1.59,7.6,3.89l-27.21,12a6.38,6.38,0,0,1-8.81,7.22c-4-1.69-4.56-8.26-.61-10.49Z"/><path class="cls-1" d="M187.61,66.37a1.21,1.21,0,1,1-1.21,1.21A1.22,1.22,0,0,1,187.61,66.37Z"/><path class="cls-1" d="M177.18,72.42a2.43,2.43,0,1,1-2.42,2.43A2.42,2.42,0,0,1,177.18,72.42Z"/><path class="cls-1" d="M177.18,58a2.43,2.43,0,1,1-2.42,2.44A2.42,2.42,0,0,1,177.18,58Z"/><path class="cls-1" d="M301.53,67a14.64,14.64,0,1,1-14.66,14.63A14.64,14.64,0,0,1,301.53,67Z"/><polygon class="cls-1" points="291.42 79.37 295.51 75.66 301.48 81.62 316.23 66.88 320.73 71.38 302.09 90.03 291.42 79.37"/><rect class="cls-2" x="100.38" y="125.15" width="19.82" height="13.56"/><rect class="cls-2" x="123.02" y="125.15" width="19.83" height="13.56"/><rect class="cls-2" x="123.02" y="163.52" width="19.83" height="17.6"/><rect class="cls-2" x="100.38" y="141.28" width="42.48" height="19.63"/><rect class="cls-2" x="100.38" y="163.52" width="19.82" height="17.6"/><path class="cls-1" d="M377.48,49.37a15.16,15.16,0,1,1-15.16,15.16,15.17,15.17,0,0,1,15.16-15.16Zm0,4.42a10.74,10.74,0,1,1-10.73,10.74A10.74,10.74,0,0,1,377.48,53.79Z"/><path class="cls-1" d="M363.63,72.55l5.86,5.92a.52.52,0,0,1,0,.73l-1.75,1.74a.57.57,0,0,1-.74,0L361.14,75a.53.53,0,0,1,0-.74l1.76-1.72A.52.52,0,0,1,363.63,72.55Z"/><path class="cls-1" d="M351.72,86.68,362.4,76.34l3.29,3.39L355,90.07a.89.89,0,0,1-1.26,0l-2.05-2.11a.89.89,0,0,1,0-1.26Z"/><path class="cls-1" d="M420.37,71.45a8.18,8.18,0,1,1-8.44,7.92A8,8,0,0,1,412.8,76l5.37,5.88,4.65-4.26-5.28-5.67a9.48,9.48,0,0,1,2.83-.46Z"/><path class="cls-1" d="M427.64,82.55a8.24,8.24,0,0,1-6.46,5.08l18.18,21.59a8.13,8.13,0,0,1,6.41-5.52L427.64,82.56Z"/><path class="cls-1" d="M447,120a8.22,8.22,0,1,1,7.57-4.53l-5.37-5.88-4.65,4.27,5.28,5.68A11,11,0,0,1,447,120Z"/><polygon class="cls-3" points="430.44 101.67 428.07 99.47 444.46 80.34 444.46 76.51 450.61 72.54 453.01 74.5 450.3 81.62 447.32 81.96 430.44 101.67"/><path class="cls-1" d="M412.2,112.63l7.3-7.89a2.07,2.07,0,0,1,2.94-.12l1.59-1.74-.61-3.59,2.06-2.24,8.11,7.59-2,2.16-3,.14-1.65,1.79c.51,1,.9,2.09.12,2.93l-7.27,7.9a2.09,2.09,0,0,1-2.95.12l-4.47-4.1a2.12,2.12,0,0,1-.12-3Z"/><path class="cls-1" d="M397.6,154.05c-3.85,3.66-10.17,6.3-18.41,8.16v17.63c7,2,13.9,4.07,18.41,8.66Z"/><path class="cls-1" d="M401,150.72h0a3.46,3.46,0,0,1,3.46,3.45v34.55a3.46,3.46,0,0,1-3.46,3.46h0a3.46,3.46,0,0,1-3.44-3.46V154.17A3.45,3.45,0,0,1,401,150.72Z"/><path class="cls-1" d="M404.5,164.37a4.48,4.48,0,0,1,3.84,4.41v5.34a4.48,4.48,0,0,1-3.7,4.39Z"/><path class="cls-4" d="M382.29,164a25,25,0,0,0,7.37-2.19"/><path class="cls-4" d="M392.46,160.84a14.12,14.12,0,0,0,2.71-1.49"/><path class="cls-1" d="M357.72,175.94a4.45,4.45,0,0,1,0-8.84Z"/><path class="cls-1" d="M293.89,151.87l-13.12,1.26c4.52-11.54,9.37-20.42,21-18.73l16.07,16.39c1.48,10.31-5.63,15.52-18.15,20.79l.92-12.81-6.75-6.9Z"/><path class="cls-1" d="M273.35,179.21c1.17-13.19,7.27-21.59,20-23.56l3.14,2.81c-.26,11.36-7.45,18.6-23.1,20.75Z"/><path class="cls-1" d="M300.64,158.77l-6.75-6.9c11.3-29.19,24.37-45.24,49.69-43.4,2.26,23.36-13.52,39.15-42.94,50.3Z"/><path class="cls-1" d="M343.58,108.47a39.6,39.6,0,0,0-18.73,2.61c3.08,9.54,8.54,14.79,16,16.42A39,39,0,0,0,343.58,108.47Z"/><path class="cls-1" d="M321.1,122.53a8.22,8.22,0,1,1-8.23,8.21A8.22,8.22,0,0,1,321.1,122.53Z"/><path class="cls-1" d="M282.07,170.15c1.34-5.85,5-9.82,11.48-11.55C293,164.78,289.22,168.66,282.07,170.15Z"/><path class="cls-4" d="M324.58,129.39c.51,2.51-.15,4.28-2.25,5.18"/><path class="cls-1" d="M241,223.36h32.64c-4.58-2.23-7.43-5.42-7.61-10.06H249.75C249.19,218.76,246.07,221.93,241,223.36Z"/><path class="cls-1" d="M228.69,227.94H286v-2.28a2.31,2.31,0,0,0-2.29-2.3H231a2.3,2.3,0,0,0-2.28,2.3v2.28Z"/><path class="cls-1" d="M120.5,227.87h275a2.2,2.2,0,0,1,2.2,2.18v5.52a2.21,2.21,0,0,1-2.2,2.2h-275a2.2,2.2,0,0,1-2.18-2.2v-5.52A2.19,2.19,0,0,1,120.5,227.87Z"/><rect class="cls-2" x="377.28" y="237.77" width="10.17" height="15.79"/><rect class="cls-2" x="128.13" y="237.77" width="10.15" height="15.79"/><rect class="cls-2" x="119.61" y="203.52" width="37.19" height="8.11" rx="1.4"/><path class="cls-1" d="M119,211.63h34.4a1.39,1.39,0,0,1,1.4,1.38v5.32a1.4,1.4,0,0,1-1.4,1.4H119a1.4,1.4,0,0,1-1.4-1.4V213A1.39,1.39,0,0,1,119,211.63Z"/><rect class="cls-2" x="120.16" y="219.76" width="37.19" height="8.11" rx="1.4"/><rect class="cls-2" x="316.33" y="188.09" width="29.66" height="14.87"/><rect class="cls-2" x="346" y="186.23" width="6.66" height="18.59" rx="1.28"/><path class="cls-1" d="M364.69,181.38h7.48v19.69a3.68,3.68,0,0,1-3.65,3.65h-.19a3.66,3.66,0,0,1-3.64-3.65V181.38Z"/><path class="cls-1" d="M352.66,200.17v-10h2.91l7.74-5.5c1.41-1,2.88-1.08,3.91,0,1.15,1.33-.37,3.24-2.55,4l-.1,13.27h-6.94a2.73,2.73,0,0,1-2.11-1.72Z"/><path class="cls-1" d="M369.54,188.43h4a1.55,1.55,0,0,1,1.53,1.53h0a1.55,1.55,0,0,1-1.53,1.54h-4A1.53,1.53,0,0,1,368,190h0A1.53,1.53,0,0,1,369.54,188.43Z"/><path class="cls-1" d="M369.15,191.84h4.79a1.54,1.54,0,0,1,1.53,1.53h0a1.54,1.54,0,0,1-1.53,1.52h-4.79a1.53,1.53,0,0,1-1.52-1.52h0A1.53,1.53,0,0,1,369.15,191.84Z"/><path class="cls-1" d="M369.54,195.23h4a1.55,1.55,0,0,1,1.53,1.53h0a1.54,1.54,0,0,1-1.53,1.53h-4a1.52,1.52,0,0,1-1.51-1.53h0A1.53,1.53,0,0,1,369.54,195.23Z"/><path class="cls-1" d="M370,198.63h2.81a1.44,1.44,0,0,1,1.43,1.44h0a1.43,1.43,0,0,1-1.43,1.44H370a1.44,1.44,0,0,1-1.43-1.44h0A1.44,1.44,0,0,1,370,198.63Z"/><path class="cls-1" d="M361,161.15,375.86,160a3.25,3.25,0,0,1,3.33,3.3v15.88a3.26,3.26,0,0,1-3.33,3.31l-14.84-1a3.42,3.42,0,0,1-3.3-3.33V164.47a3.43,3.43,0,0,1,3.3-3.32Z"/><polyline class="cls-5" points="70.73 111.91 70.73 153.16 96.66 153.16"/><polyline class="cls-5" points="138.46 97.14 138.46 67.97 167.1 67.97"/><polyline class="cls-5" points="207.8 67.78 226.9 67.78 226.9 98.86"/><polyline class="cls-6" points="261.66 161 271.66 161 271.66 81.21 285.08 81.21"/><polyline class="cls-5" points="318.55 81.57 338.09 81.57 338.09 64.55 359.39 64.55"/><polyline class="cls-5" points="377.31 84.36 377.31 106.51 352.1 106.51 352.1 151.54 337.41 151.54 337.41 171.99 350.29 171.99"/><polyline class="cls-6" points="425.41 171.63 435.41 171.63 435.41 128.68 392.99 128.68 392.99 95.25 423.16 95.25"/><path class="cls-1" d="M300.84,227.43h16v-3.49a3.51,3.51,0,0,0-3.49-3.5h-9a3.5,3.5,0,0,0-3.5,3.5v3.49Z"/><path class="cls-1" d="M75.23,99.23l-9.37,0c-.4-10.58-9.2-13.32-9.22-22,.75-20,27.52-18.09,27.82-.52C84.19,87,75.79,87.53,75.23,99.23Z"/><path class="cls-1" d="M65.45,99.23H75.64a.94.94,0,0,1,.93.94h0a.93.93,0,0,1-.93.92H65.45a.93.93,0,0,1-.92-.92h0A.94.94,0,0,1,65.45,99.23Z"/><path class="cls-1" d="M65.45,101.09H75.64a.93.93,0,0,1,.93.92h0a.93.93,0,0,1-.93.92H65.45a.93.93,0,0,1-.92-.92h0A.92.92,0,0,1,65.45,101.09Z"/><path class="cls-1" d="M65.45,102.93H75.64a.93.93,0,0,1,.93.92h0a.93.93,0,0,1-.93.92H65.45a.92.92,0,0,1-.92-.92h0A.92.92,0,0,1,65.45,102.93Z"/><path class="cls-1" d="M65.92,104.87h9.26A5.48,5.48,0,0,1,65.92,104.87Z"/><path class="cls-7" d="M69.37,99.25C69,93.12,70.71,86,68.38,80.9c-.65-1.87-2.2-3.25-3.43-3.06-2.45.47,1.37,8.91,3.56,1.84a6.45,6.45,0,0,0,.55-4.43c-.31-1-1.58-.63-1.6.83.34,2.56,1.26,3.92,2.72,4.16,1.26.13,2-1,2.78-4,.34-1.38.09-2.31-.82-2.18-1.22.17-1.84,6.85,1.67,6.9,1.11,0,2-1.07,2.73-3.06,1.4-4.08-3.37-2.66-2.1,2.94.63,1.49,1.62,2.08,3.12,1.35,2.11-1.64-.9-2.61-2.49.15-4.29,5.92-5.11,12.13-4,16.9"/><line class="cls-8" x1="86.93" y1="65.02" x2="91.99" y2="59.79"/><line class="cls-9" x1="55.45" y1="65.02" x2="50.39" y2="59.79"/><path class="cls-10" d="M55.45,65.73a.71.71,0,0,1-.51-.21l-5.06-5.24a.7.7,0,0,1,0-1,.72.72,0,0,1,1,0L56,64.53a.71.71,0,0,1,0,1A.69.69,0,0,1,55.45,65.73Z"/><line class="cls-8" x1="79.78" y1="59.57" x2="82.76" y2="52.93"/><line class="cls-9" x1="61.39" y1="59.59" x2="58.39" y2="52.93"/><path class="cls-10" d="M61.39,60.3a.7.7,0,0,1-.64-.42l-3-6.66A.71.71,0,1,1,59,52.64l3,6.66a.7.7,0,0,1-.36.93A.59.59,0,0,1,61.39,60.3Z"/><line class="cls-9" x1="70.54" y1="50.73" x2="70.56" y2="58.02"/><path class="cls-10" d="M70.56,58.73a.71.71,0,0,1-.71-.71l0-7.29a.71.71,0,0,1,.71-.71h0a.71.71,0,0,1,.71.71l0,7.29a.71.71,0,0,1-.71.71Z"/><line class="cls-8" x1="89.44" y1="74.07" x2="96.29" y2="71.57"/><line class="cls-9" x1="51.56" y1="74.07" x2="44.71" y2="71.57"/><path class="cls-10" d="M51.56,74.78a1,1,0,0,1-.24,0l-6.85-2.51a.7.7,0,0,1-.42-.91A.71.71,0,0,1,45,70.9l6.85,2.5a.71.71,0,0,1-.25,1.38Z"/><line class="cls-8" x1="89.52" y1="82.55" x2="96.81" y2="82.52"/><line class="cls-9" x1="51.58" y1="82.55" x2="44.29" y2="82.52"/><path class="cls-10" d="M51.58,83.26h0l-7.3,0a.7.7,0,0,1-.7-.71.71.71,0,0,1,.71-.71h0l7.29,0a.71.71,0,0,1,.71.71A.7.7,0,0,1,51.58,83.26Z"/><line class="cls-9" x1="53.79" y1="89.52" x2="46.94" y2="92.03"/><path class="cls-10" d="M46.94,92.74a.71.71,0,0,1-.24-1.38l6.85-2.5a.7.7,0,0,1,.91.42.72.72,0,0,1-.42.91l-6.85,2.5A.74.74,0,0,1,46.94,92.74Z"/><line class="cls-8" x1="86.95" y1="89.52" x2="93.82" y2="92.03"/><path class="cls-3" d="M194.12,117.52H241a2.59,2.59,0,0,1,2.57,2.59V162a2.58,2.58,0,0,1-2.57,2.57H194.12a2.58,2.58,0,0,1-2.57-2.57V120.11A2.59,2.59,0,0,1,194.12,117.52Z"/><path class="cls-3" d="M192.82,130.36h49.52v30.89a1.92,1.92,0,0,1-1.91,1.91h-45.7a1.92,1.92,0,0,1-1.91-1.91Z"/><path class="cls-3" d="M197.54,121a3,3,0,1,1-3,3A3,3,0,0,1,197.54,121Z"/><path class="cls-3" d="M206.22,121a3,3,0,1,1-3,3A3,3,0,0,1,206.22,121Z"/><path class="cls-3" d="M214.87,121a3,3,0,1,1-3,3A3,3,0,0,1,214.87,121Z"/><rect class="cls-2" x="145.66" y="125.15" width="19.83" height="13.56"/><rect class="cls-2" x="145.66" y="141.28" width="19.83" height="39.83"/><path class="cls-1" d="M171.3,203.49h17.88a1.12,1.12,0,0,1,1.11,1.11v19.06a4.22,4.22,0,0,1-4.2,4.21h-11.7a4.21,4.21,0,0,1-4.19-4.21V204.6A1.11,1.11,0,0,1,171.3,203.49Z"/><path class="cls-1" d="M190.29,207.32c1.73-.22,4,.36,4.1,1.93l0,7.67c-.07,1.9-2.06,3-4.12,3.37"/><line class="cls-8" x1="174.3" y1="207" x2="174.3" y2="214.53"/><line class="cls-8" x1="174.3" y1="217.73" x2="174.3" y2="220.61"/><path class="cls-4" d="M180.47,182.55c7,7.79-8.84,8,.46,17.4"/><path class="cls-11" d="M59.28,43h1.23V35.44H59.28V43Zm5.3-7.52H62.13V43h2.45c2.42,0,4-1.42,4-3.73a3.64,3.64,0,0,0-4-3.79ZM63.37,42v-5.5h1.21a2.51,2.51,0,0,1,2.72,2.78A2.46,2.46,0,0,1,64.58,42ZM74,35.44H69.79V43H74V42H71v-2.3h2.61v-1H71v-2.2H74v-1ZM80.53,43h1.29l-2.69-7.52H77.7L75,43H76.3l.55-1.53H80L80.53,43Zm-.89-2.54H77.19l1.22-3.49Z"/><path class="cls-11" d="M110.1,111.18l1.38,0,1.67-5.67,1.59,5.67h1.4l2.21-7.5H117l-1.57,6.09-1.57-6.09h-1.38l-1.68,6.12-1.57-6.12H108l2.13,7.52Zm13.43-7.53h-4.16v7.51h4.16v-1H120.6v-2.3h2.61v-1H120.6v-2.2h2.93v-1Zm5.74,5.37c0,.73-.51,1.14-1.34,1.14h-1.66v-2.34h1.62a1.21,1.21,0,0,1,1.38,1.2Zm-.19-3.28c0,.7-.49,1.08-1.29,1.08h-1.52v-2.15h1.52c.8,0,1.29.39,1.29,1.07Zm1.42,3.41a1.87,1.87,0,0,0-1.45-1.84,1.76,1.76,0,0,0,1.28-1.72c0-1.06-.84-1.92-2.44-1.92H125v7.49h3c1.53,0,2.45-.87,2.45-2Zm6.61-5.49h-2.45v7.5h2.45c2.4,0,4-1.41,4-3.71a3.64,3.64,0,0,0-4-3.79Zm-1.23,6.5v-5.49h1.23a2.51,2.51,0,0,1,2.73,2.78,2.47,2.47,0,0,1-2.73,2.71Zm10.58-6.51h-4.14v7.51h4.14v-1h-2.91v-2.3h2.59v-1h-2.59v-2.2h2.91v-1Zm6.6,5.38c0-2.74-4-1.68-4-3.37,0-.73.56-1.07,1.26-1.06a1.22,1.22,0,0,1,1.28,1H153a2.29,2.29,0,0,0-2.57-2c-1.53,0-2.57.82-2.57,2.13,0,2.78,4,1.6,4,3.41,0,.65-.49,1.11-1.36,1.11a1.2,1.2,0,0,1-1.33-1.11h-1.33c0,1.33,1.16,2.15,2.66,2.15a2.35,2.35,0,0,0,2.61-2.22Zm1.45,2.13h1.24v-7.5h-1.24v7.5Zm6.28-7.6a3.84,3.84,0,0,0,0,7.67,3.71,3.71,0,0,0,3.72-3.22v-1h-4.14v1h2.82a2.27,2.27,0,0,1-2.4,2.09,2.72,2.72,0,0,1,0-5.43,2.15,2.15,0,0,1,2,1.12h1.49a3.6,3.6,0,0,0-3.5-2.25Zm9.87.09v5.59l-3.72-5.59h-1.22v7.51h1.22v-5.6l3.72,5.6h1.22v-7.51Z"/><path class="cls-11" d="M171.34,35.46V43h3.78V42h-2.55V35.46ZM181.2,43h1.3l-2.69-7.52h-1.42L175.7,43H177l.54-1.53h3.16L181.2,43Zm-.88-2.54h-2.46l1.25-3.48,1.21,3.48Zm5.19-.17V43h1.25V40.25l2.49-4.79h-1.37l-1.74,3.68-1.75-3.68H183l2.48,4.79Zm12-1.06A3.83,3.83,0,1,0,193.64,43a3.74,3.74,0,0,0,3.83-3.85Zm-6.4,0a2.58,2.58,0,1,1,5.14,0,2.58,2.58,0,1,1-5.14,0Zm7.6,1a2.94,2.94,0,0,0,5.88,0V35.46h-1.23v4.79A1.54,1.54,0,0,1,201.6,42a1.52,1.52,0,0,1-1.69-1.7V35.46h-1.24v4.76Zm7.09-3.75h2V43H209V36.47h2v-1h-5.24Z"/><path class="cls-11" d="M289.75,52.57h2v6.51H293V52.57h2v-1h-5.25v1Zm10.63-1h-4.14v7.53h4.14v-1h-2.91v-2.3h2.59v-1h-2.59V52.55h2.91v-1ZM307,57c0-2.75-4-1.69-4-3.39,0-.72.55-1.06,1.26-1a1.17,1.17,0,0,1,1.28,1h1.35a2.3,2.3,0,0,0-2.56-2c-1.53,0-2.57.84-2.57,2.15,0,2.76,4,1.58,4,3.4,0,.64-.49,1.1-1.36,1.1A1.2,1.2,0,0,1,303,57h-1.33c0,1.33,1.16,2.14,2.66,2.14A2.33,2.33,0,0,0,307,57Zm1-4.38h2v6.51h1.24V52.57h2v-1H308Z"/><path class="cls-11" d="M372.9,40.35c0-2.76-4-1.68-4-3.39,0-.71.56-1.07,1.26-1a1.18,1.18,0,0,1,1.28,1h1.36a2.28,2.28,0,0,0-2.57-2c-1.53,0-2.59.81-2.59,2.14,0,2.76,4,1.59,4,3.39,0,.65-.49,1.11-1.36,1.11A1.19,1.19,0,0,1,369,40.4h-1.33c0,1.33,1.16,2.15,2.66,2.15a2.33,2.33,0,0,0,2.61-2.2Zm5.62-5.4h-4.16v7.53h4.16v-1h-2.93V39.16h2.61v-1h-2.61V36h2.93V35Zm8.79,3.75a3.84,3.84,0,1,0-3.83,3.85,3.74,3.74,0,0,0,3.83-3.85Zm-6.42,0a2.59,2.59,0,1,1,5.16,0,2.59,2.59,0,1,1-5.16,0Z"/><path class="cls-11" d="M418.39,59c0-2.76-4-1.68-4-3.39,0-.73.55-1.07,1.26-1a1.16,1.16,0,0,1,1.26,1h1.38a2.3,2.3,0,0,0-2.57-2c-1.53,0-2.59.81-2.59,2.14,0,2.76,4,1.59,4,3.39,0,.65-.5,1.11-1.37,1.11a1.2,1.2,0,0,1-1.34-1.11h-1.31c0,1.33,1.15,2.15,2.65,2.15a2.35,2.35,0,0,0,2.61-2.2Zm1.45-.63a2.68,2.68,0,0,0,2.91,2.83,2.72,2.72,0,0,0,3-2.83V53.66h-1.23v4.79a1.72,1.72,0,0,1-3.43,0V53.66h-1.22v4.75Zm8.72-1.29V54.66h1.36c1,0,1.4.45,1.4,1.23s-.44,1.23-1.4,1.23Zm4-1.23c0-1.23-.87-2.23-2.66-2.23h-2.6v7.5h1.24v-3h1.36c2,0,2.66-1.16,2.66-2.23ZM435,57.12V54.66h1.36c1,0,1.4.45,1.4,1.23s-.42,1.23-1.4,1.23Zm4-1.23c0-1.23-.87-2.23-2.66-2.23h-2.6v7.5H435v-3h1.36c2,0,2.66-1.16,2.66-2.23Zm8.47,1.5a3.84,3.84,0,1,0-3.85,3.85,3.74,3.74,0,0,0,3.85-3.85Zm-6.42,0a2.59,2.59,0,1,1,2.57,2.78,2.54,2.54,0,0,1-2.57-2.78Zm11.63-1.48a1.21,1.21,0,0,1-1.39,1.26h-1.37V54.66h1.37c.95,0,1.39.48,1.39,1.25Zm-4-2.25v7.5h1.24v-3h.94l1.74,3h1.46l-1.85-3.11A2.13,2.13,0,0,0,454,55.91c0-1.23-.86-2.25-2.65-2.25Zm6.46,1h2v6.5h1.24v-6.5h2v-1h-5.26Z"/><path class="cls-11" d="M362.91,142.1v-2.45h1.37c1,0,1.39.46,1.39,1.23s-.42,1.22-1.39,1.22Zm4-1.22c0-1.21-.88-2.24-2.67-2.24h-2.59v7.52h1.22v-3h1.37c2,0,2.67-1.16,2.67-2.23Zm5.18,0a1.22,1.22,0,0,1-1.4,1.28h-1.38v-2.52h1.38c1,0,1.4.49,1.4,1.24Zm-4-2.25v7.52h1.22v-3h1l1.72,3h1.48L371.65,143a2.13,2.13,0,0,0,1.74-2.15c0-1.22-.88-2.25-2.66-2.25Zm14.12,3.75a3.84,3.84,0,1,0-3.85,3.84,3.76,3.76,0,0,0,3.85-3.84Zm-6.42,0a2.59,2.59,0,1,1,5.16,0,2.59,2.59,0,1,1-5.16,0Zm7.63,3.77h1.25V141l2.3,5.15h.85l2.3-5.15v5.15h1.24v-7.52h-1.33l-2.62,5.9-2.66-5.9h-1.33v7.52Zm16.84-3.77a3.85,3.85,0,1,0-3.84,3.84,3.76,3.76,0,0,0,3.84-3.84Zm-6.43,0a2.59,2.59,0,1,1,2.59,2.78A2.54,2.54,0,0,1,393.87,142.39Z"/><path class="cls-11" d="M201.7,110.51a2.76,2.76,0,0,0,2.83,2.82,2.59,2.59,0,0,0,2.55-1.66H206a1.51,1.51,0,0,1-1.46.87,2,2,0,0,1,0-4.05,1.52,1.52,0,0,1,1.46.85h1.09a2.61,2.61,0,0,0-2.55-1.65,2.76,2.76,0,0,0-2.83,2.82Zm11.79,0a2.82,2.82,0,1,0-2.83,2.83,2.75,2.75,0,0,0,2.83-2.83Zm-4.72,0a1.89,1.89,0,1,1,3.78,0,1.9,1.9,0,1,1-3.78,0Zm7.41-2.76h-1.8v5.52h1.8a2.65,2.65,0,0,0,2.93-2.74,2.68,2.68,0,0,0-2.93-2.78Zm-.9,4.79v-4h.9a2,2,0,0,1,0,4Zm4.74.73h.9v-5.52H220v5.52Zm5.72-5.52v4.11L223,107.75h-.91v5.52H223v-4.12l2.72,4.12h.9v-5.52Zm4.62-.06a2.82,2.82,0,0,0,0,5.64A2.72,2.72,0,0,0,233.1,111v-.7h-3V111h2.08a1.68,1.68,0,0,1-1.77,1.54,2,2,0,0,1,0-4,1.57,1.57,0,0,1,1.48.82h1.09A2.63,2.63,0,0,0,230.36,107.69Z"/><path class="cls-11" d="M203.46,139.73,205.3,138h-1.15l-1.82,1.78,1.82,1.81h1.15l-1.84-1.81ZM206.9,144h.88L210,135.1H209L206.9,144Zm4.19-1.38h.9v-2.45a1.11,1.11,0,1,1,2.22,0v2.45h.88V140a1.67,1.67,0,0,0-1.74-1.85,1.71,1.71,0,0,0-1.36.58v-2h-.9v5.87Zm5.3-1.22c0,.9.49,1.22,1.28,1.22h.71v-.75h-.56c-.38,0-.51-.13-.51-.47V139h1.07v-.73h-1.07v-1.1h-.92v1.1h-.51V139h.51v2.42Zm9,1.22h.9V140a1.81,1.81,0,0,0-3.34-1,1.69,1.69,0,0,0-1.57-.85,1.64,1.64,0,0,0-1.29.56v-.49h-.9v4.37h.9v-2.45c0-.8.42-1.21,1.11-1.21a1.06,1.06,0,0,1,1.09,1.21v2.45h.9v-2.45a1.11,1.11,0,1,1,2.2,0v2.45Zm2,0h.92v-5.87h-.92v5.87Zm2.4-1.07H231l1.82-1.81L231,138h-1.15l1.84,1.78Z"/><path class="cls-11" d="M204.73,152.41l1.84-1.81h-1.16l-1.82,1.81,1.82,1.81h1.16l-1.84-1.81Zm3.43,4.26h.9l2.16-8.89h-.9l-2.16,8.89Zm5.11-5.13v-.65h-.9v6.48h.9v-2.73a2,2,0,0,0,1.52.72,2.12,2.12,0,0,0,2.06-2.28,2.08,2.08,0,0,0-2.06-2.25,1.89,1.89,0,0,0-1.52.71Zm2.66,1.54a1.38,1.38,0,0,1-1.33,1.48,1.48,1.48,0,1,1,1.33-1.48Zm1.82,2.19h.9v-2.43a1.08,1.08,0,0,1,1.11-1.23c.67,0,1.09.43,1.09,1.23v2.43h.9V152.7a1.68,1.68,0,0,0-1.73-1.87,1.78,1.78,0,0,0-1.37.58v-2h-.9v5.88Zm6.07-3.73v-.65h-.91v6.48h.91v-2.73a2,2,0,0,0,1.53.72,2.11,2.11,0,0,0,2-2.28,2.07,2.07,0,0,0-2-2.25,1.91,1.91,0,0,0-1.53.71Zm2.65,1.54a1.37,1.37,0,0,1-1.33,1.48,1.48,1.48,0,1,1,1.33-1.48Zm2.12,1.14h1.16l1.82-1.81-1.82-1.81h-1.16l1.84,1.81Z"/></svg>