<svg id="Layer_1" data-name="Layer 1" xmlns="http://www.w3.org/2000/svg" viewBox="0 0 504 253.57"><defs><style>.cls-1{fill:none;}.cls-2{fill:#fff;}.cls-3{fill:#25282b;}</style></defs><title>Inside Page Slider</title><rect class="cls-1" x="0.39" y="0.39" width="503.22" height="252.78"/><path class="cls-2" d="M204.89,102.82v.75h-1.48v4.81h-.91v-4.81H201v-.75Z"/><path class="cls-2" d="M205.78,105a2.06,2.06,0,0,1,.76-.79,2,2,0,0,1,1.05-.29,1.93,1.93,0,0,1,1.53.71V104H210v4.41h-.92v-.65a2,2,0,0,1-.64.52,2.08,2.08,0,0,1-1.95-.09,2.1,2.1,0,0,1-.75-.81,2.57,2.57,0,0,1-.27-1.19A2.5,2.5,0,0,1,205.78,105Zm3.15.4a1.41,1.41,0,0,0-.49-.51,1.31,1.31,0,0,0-.66-.18,1.28,1.28,0,0,0-.66.18,1.31,1.31,0,0,0-.49.5,1.62,1.62,0,0,0-.19.79,1.72,1.72,0,0,0,.19.8,1.32,1.32,0,0,0,.5.52,1.25,1.25,0,0,0,.65.18,1.41,1.41,0,0,0,.66-.17,1.37,1.37,0,0,0,.49-.52,1.76,1.76,0,0,0,0-1.59Z"/><path class="cls-2" d="M213,106.18l2,2.2h-1.23l-1.63-1.89v1.89h-.92v-5.92h.92v3.44l1.6-1.93H215Z"/><path class="cls-2" d="M215.72,103.22a.53.53,0,0,1-.17-.41.54.54,0,0,1,.17-.42.58.58,0,0,1,.82,0,.57.57,0,0,1,.17.42.58.58,0,0,1-1,.41Zm.86.75v4.41h-.91V104Z"/><path class="cls-2" d="M220.94,104.12a1.58,1.58,0,0,1,.64.64,2.13,2.13,0,0,1,.23,1v2.6h-.9v-2.46a1.26,1.26,0,0,0-.3-.91,1.19,1.19,0,0,0-1.62,0,1.26,1.26,0,0,0-.3.91v2.46h-.91V104h.91v.51a1.65,1.65,0,0,1,.57-.43,1.88,1.88,0,0,1,.74-.15A2,2,0,0,1,220.94,104.12Z"/><path class="cls-2" d="M225.66,104.11a1.73,1.73,0,0,1,.62.5V104h.92v4.48a2.28,2.28,0,0,1-.26,1.09,1.84,1.84,0,0,1-.74.75,2.34,2.34,0,0,1-1.16.27,2.49,2.49,0,0,1-1.48-.42,1.56,1.56,0,0,1-.68-1.14h.91a1,1,0,0,0,.44.55,1.45,1.45,0,0,0,.81.22,1.25,1.25,0,0,0,.9-.34,1.34,1.34,0,0,0,.34-1v-.73a1.91,1.91,0,0,1-1.53.73,1.89,1.89,0,0,1-1.05-.29,2.05,2.05,0,0,1-.76-.81,2.57,2.57,0,0,1-.27-1.19,2.5,2.5,0,0,1,.27-1.18,2.06,2.06,0,0,1,.76-.79,2,2,0,0,1,1.05-.29A1.94,1.94,0,0,1,225.66,104.11Zm.43,1.27a1.41,1.41,0,0,0-.49-.51,1.31,1.31,0,0,0-.66-.18,1.28,1.28,0,0,0-.66.18,1.31,1.31,0,0,0-.49.5,1.62,1.62,0,0,0-.19.79,1.72,1.72,0,0,0,.19.8,1.32,1.32,0,0,0,.5.52,1.25,1.25,0,0,0,.65.18,1.41,1.41,0,0,0,.66-.17,1.37,1.37,0,0,0,.49-.52,1.76,1.76,0,0,0,0-1.59Z"/><path class="cls-2" d="M234.44,104l-2.7,6.48h-.94l.89-2.14L230,104h1l1.24,3.36L233.5,104Z"/><path class="cls-2" d="M235.92,108.17a2.12,2.12,0,0,1-.8-.8,2.42,2.42,0,0,1-.28-1.2,2.36,2.36,0,0,1,.29-1.19,2.14,2.14,0,0,1,.81-.8,2.48,2.48,0,0,1,2.29,0,2.14,2.14,0,0,1,.81.8,2.47,2.47,0,0,1,.29,1.19,2.38,2.38,0,0,1-.3,1.2,2.2,2.2,0,0,1-.83.8,2.37,2.37,0,0,1-1.16.28A2.22,2.22,0,0,1,235.92,108.17Zm1.78-.68a1.2,1.2,0,0,0,.5-.5,1.61,1.61,0,0,0,.2-.82,1.67,1.67,0,0,0-.19-.81,1.18,1.18,0,0,0-.49-.5,1.34,1.34,0,0,0-.65-.17,1.31,1.31,0,0,0-.65.17,1.22,1.22,0,0,0-.48.5,1.67,1.67,0,0,0-.18.81,1.54,1.54,0,0,0,.37,1.1,1.2,1.2,0,0,0,.91.39A1.25,1.25,0,0,0,237.7,107.49Z"/><path class="cls-2" d="M244.23,104v4.41h-.92v-.52a1.43,1.43,0,0,1-.56.43,1.7,1.7,0,0,1-.74.16,1.88,1.88,0,0,1-.93-.22,1.54,1.54,0,0,1-.65-.64,2,2,0,0,1-.24-1V104h.91v2.46a1.26,1.26,0,0,0,.3.91,1,1,0,0,0,.8.31,1.1,1.1,0,0,0,.82-.31,1.26,1.26,0,0,0,.29-.91V104Z"/><path class="cls-2" d="M246.87,104.09a1.65,1.65,0,0,1,.79-.19v.95h-.23a1.14,1.14,0,0,0-.82.27,1.3,1.3,0,0,0-.27.94v2.32h-.91V104h.91v.64A1.47,1.47,0,0,1,246.87,104.09Z"/><path class="cls-2" d="M254.31,106a1.39,1.39,0,0,1,.32.89,1.43,1.43,0,0,1-.22.76,1.49,1.49,0,0,1-.64.54,2.27,2.27,0,0,1-1,.19h-2.22v-5.56h2.12a2.45,2.45,0,0,1,1,.19,1.43,1.43,0,0,1,.61.52,1.32,1.32,0,0,1,.21.72,1.24,1.24,0,0,1-.26.8,1.46,1.46,0,0,1-.68.48A1.2,1.2,0,0,1,254.31,106Zm-2.82-.84h1.13a1.06,1.06,0,0,0,.7-.21.69.69,0,0,0,.25-.58.72.72,0,0,0-.25-.59,1.06,1.06,0,0,0-.7-.21h-1.13Zm2,2.26a.77.77,0,0,0,.27-.63.84.84,0,0,0-.28-.65,1.13,1.13,0,0,0-.75-.24h-1.2v1.74h1.23A1.15,1.15,0,0,0,253.45,107.42Z"/><path class="cls-2" d="M259.61,104v4.41h-.91v-.52a1.43,1.43,0,0,1-.56.43,1.73,1.73,0,0,1-.74.16,2,2,0,0,1-.94-.22,1.6,1.6,0,0,1-.65-.64,2.13,2.13,0,0,1-.23-1V104h.9v2.46a1.26,1.26,0,0,0,.3.91,1.21,1.21,0,0,0,1.62,0,1.26,1.26,0,0,0,.3-.91V104Z"/><path class="cls-2" d="M261.48,108.27a1.62,1.62,0,0,1-.65-.52,1.24,1.24,0,0,1-.26-.72h.95a.63.63,0,0,0,.26.47,1,1,0,0,0,.62.19,1,1,0,0,0,.59-.15.46.46,0,0,0,.21-.38.39.39,0,0,0-.23-.37,4.14,4.14,0,0,0-.75-.26,6.35,6.35,0,0,1-.81-.27,1.29,1.29,0,0,1-.54-.39,1.05,1.05,0,0,1-.23-.7,1.09,1.09,0,0,1,.21-.64,1.42,1.42,0,0,1,.6-.46,2.24,2.24,0,0,1,.89-.17,1.86,1.86,0,0,1,1.21.38,1.36,1.36,0,0,1,.49,1h-.91a.59.59,0,0,0-.24-.47.87.87,0,0,0-.58-.18.93.93,0,0,0-.55.14.42.42,0,0,0-.2.36.41.41,0,0,0,.13.29.89.89,0,0,0,.31.19l.55.17a6.65,6.65,0,0,1,.79.26,1.55,1.55,0,0,1,.53.39,1.05,1.05,0,0,1,.23.68,1.11,1.11,0,0,1-.21.67,1.4,1.4,0,0,1-.59.47,2.21,2.21,0,0,1-.89.16A2.27,2.27,0,0,1,261.48,108.27Z"/><path class="cls-2" d="M265.13,103.22a.57.57,0,0,1-.17-.41.58.58,0,0,1,.59-.59.54.54,0,0,1,.4.17.54.54,0,0,1,.17.42.53.53,0,0,1-.17.41.54.54,0,0,1-.4.17A.57.57,0,0,1,265.13,103.22Zm.86.75v4.41h-.91V104Z"/><path class="cls-2" d="M270.35,104.12a1.54,1.54,0,0,1,.65.64,2.13,2.13,0,0,1,.23,1v2.6h-.91v-2.46A1.31,1.31,0,0,0,270,105a1.19,1.19,0,0,0-1.62,0,1.26,1.26,0,0,0-.3.91v2.46h-.92V104h.92v.51a1.65,1.65,0,0,1,.57-.43,1.85,1.85,0,0,1,.74-.15A1.88,1.88,0,0,1,270.35,104.12Z"/><path class="cls-2" d="M276.4,106.52H273a1.21,1.21,0,0,0,1.25,1.17,1.07,1.07,0,0,0,1-.62h1a2,2,0,0,1-.73,1,2.11,2.11,0,0,1-1.3.38,2.23,2.23,0,0,1-1.13-.28,2.07,2.07,0,0,1-.78-.8,2.42,2.42,0,0,1-.29-1.2,2.52,2.52,0,0,1,.28-1.19,1.88,1.88,0,0,1,.78-.8,2.35,2.35,0,0,1,1.14-.28,2.29,2.29,0,0,1,1.12.27,2.08,2.08,0,0,1,.76.77,2.3,2.3,0,0,1,.27,1.13A3,3,0,0,1,276.4,106.52Zm-.92-.74a1.1,1.1,0,0,0-.36-.81,1.32,1.32,0,0,0-.88-.3,1.15,1.15,0,0,0-.8.3,1.21,1.21,0,0,0-.4.81Z"/><path class="cls-2" d="M278,108.27a1.69,1.69,0,0,1-.65-.52,1.24,1.24,0,0,1-.26-.72H278a.61.61,0,0,0,.27.47,1,1,0,0,0,.61.19,1,1,0,0,0,.59-.15.47.47,0,0,0,.22-.38.39.39,0,0,0-.24-.37,4.14,4.14,0,0,0-.75-.26,6.35,6.35,0,0,1-.81-.27,1.36,1.36,0,0,1-.54-.39,1.05,1.05,0,0,1-.23-.7,1.09,1.09,0,0,1,.21-.64,1.42,1.42,0,0,1,.6-.46,2.28,2.28,0,0,1,.89-.17,1.84,1.84,0,0,1,1.21.38,1.4,1.4,0,0,1,.5,1h-.92a.59.59,0,0,0-.24-.47.87.87,0,0,0-.58-.18,1,1,0,0,0-.55.14.42.42,0,0,0-.2.36.41.41,0,0,0,.13.29.85.85,0,0,0,.32.19c.12,0,.3.1.54.17a6.65,6.65,0,0,1,.79.26,1.55,1.55,0,0,1,.53.39,1,1,0,0,1,.23.68,1.11,1.11,0,0,1-.21.67,1.4,1.4,0,0,1-.59.47,2.21,2.21,0,0,1-.89.16A2.34,2.34,0,0,1,278,108.27Z"/><path class="cls-2" d="M282.26,108.27a1.69,1.69,0,0,1-.65-.52,1.23,1.23,0,0,1-.25-.72h.94a.61.61,0,0,0,.27.47,1.15,1.15,0,0,0,1.2,0,.44.44,0,0,0,.22-.38.39.39,0,0,0-.24-.37,4.14,4.14,0,0,0-.75-.26,6.35,6.35,0,0,1-.81-.27,1.43,1.43,0,0,1-.54-.39,1,1,0,0,1-.22-.7,1.15,1.15,0,0,1,.2-.64,1.42,1.42,0,0,1,.6-.46,2.28,2.28,0,0,1,.89-.17,1.84,1.84,0,0,1,1.21.38,1.37,1.37,0,0,1,.5,1h-.92a.59.59,0,0,0-.24-.47.86.86,0,0,0-.58-.18,1,1,0,0,0-.55.14.41.41,0,0,0-.19.36.37.37,0,0,0,.13.29.74.74,0,0,0,.31.19c.12,0,.3.1.54.17a6.65,6.65,0,0,1,.79.26,1.55,1.55,0,0,1,.53.39,1,1,0,0,1,.23.68,1.11,1.11,0,0,1-.21.67,1.37,1.37,0,0,1-.58.47,2.26,2.26,0,0,1-.9.16A2.34,2.34,0,0,1,282.26,108.27Z"/><path class="cls-2" d="M202.41,120.29a2.59,2.59,0,0,1-1-1,3,3,0,0,1,0-2.93,2.63,2.63,0,0,1,1-1,2.95,2.95,0,0,1,2.86,0,2.63,2.63,0,0,1,1,1,3,3,0,0,1,0,2.93,2.59,2.59,0,0,1-1,1,3,3,0,0,1-2.86,0Zm2.41-.68a1.82,1.82,0,0,0,.68-.72,2.57,2.57,0,0,0,0-2.17,1.86,1.86,0,0,0-.68-.71,2.07,2.07,0,0,0-2,0,1.76,1.76,0,0,0-.67.71,2.48,2.48,0,0,0,0,2.17,1.73,1.73,0,0,0,.67.72,2.07,2.07,0,0,0,2,0Z"/><path class="cls-2" d="M210.73,116.33a1.58,1.58,0,0,1,.64.64,2.09,2.09,0,0,1,.23,1v2.6h-.9v-2.47a1.3,1.3,0,0,0-.3-.91,1,1,0,0,0-.8-.31,1.07,1.07,0,0,0-.82.31,1.3,1.3,0,0,0-.3.91v2.47h-.91v-4.41h.91v.5a1.47,1.47,0,0,1,.58-.42,1.81,1.81,0,0,1,.74-.15A2.05,2.05,0,0,1,210.73,116.33Z"/><path class="cls-2" d="M213.67,114.68v5.92h-.91v-5.92Z"/><path class="cls-2" d="M214.92,115.44a.58.58,0,0,1-.16-.42.6.6,0,0,1,.16-.42.57.57,0,0,1,.42-.16.56.56,0,0,1,.41.16.6.6,0,0,1,.16.42.58.58,0,0,1-.16.42.56.56,0,0,1-.41.16A.57.57,0,0,1,214.92,115.44Zm.87.75v4.41h-.92v-4.41Z"/><path class="cls-2" d="M220.14,116.33a1.6,1.6,0,0,1,.65.64,2.21,2.21,0,0,1,.23,1v2.6h-.91v-2.47a1.29,1.29,0,0,0-.29-.91,1.21,1.21,0,0,0-1.62,0,1.3,1.3,0,0,0-.3.91v2.47H217v-4.41h.91v.5a1.51,1.51,0,0,1,.57-.42,1.85,1.85,0,0,1,.74-.15A2,2,0,0,1,220.14,116.33Z"/><path class="cls-2" d="M226.19,118.73h-3.37a1.26,1.26,0,0,0,.39.85,1.24,1.24,0,0,0,.86.32,1.05,1.05,0,0,0,1-.62h1a2,2,0,0,1-.73,1,2.11,2.11,0,0,1-1.3.39,2.26,2.26,0,0,1-1.13-.29,1.94,1.94,0,0,1-.78-.8,2.41,2.41,0,0,1-.29-1.19,2.59,2.59,0,0,1,.28-1.2,1.86,1.86,0,0,1,.78-.79,2.24,2.24,0,0,1,1.14-.28,2.29,2.29,0,0,1,1.12.27,1.92,1.92,0,0,1,.76.76,2.33,2.33,0,0,1,.27,1.13A3,3,0,0,1,226.19,118.73Zm-.92-.73a1.06,1.06,0,0,0-.36-.81,1.33,1.33,0,0,0-.88-.31,1.15,1.15,0,0,0-.8.3,1.24,1.24,0,0,0-.4.82Z"/><path class="cls-2" d="M229.24,115.44a.59.59,0,0,1-.17-.42.61.61,0,0,1,.17-.42.57.57,0,0,1,.42-.16.57.57,0,0,1,.41.16.6.6,0,0,1,.16.42.58.58,0,0,1-.16.42.57.57,0,0,1-.41.16A.57.57,0,0,1,229.24,115.44Zm.87.75v4.41h-.92v-4.41Z"/><path class="cls-2" d="M232,120.48a1.67,1.67,0,0,1-.65-.51,1.28,1.28,0,0,1-.25-.73H232a.66.66,0,0,0,.27.47,1,1,0,0,0,.61.19,1,1,0,0,0,.6-.15.44.44,0,0,0,.21-.38.4.4,0,0,0-.24-.37,4.36,4.36,0,0,0-.75-.26,7.6,7.6,0,0,1-.8-.26,1.41,1.41,0,0,1-.54-.4,1,1,0,0,1-.23-.69,1.1,1.1,0,0,1,.21-.65,1.4,1.4,0,0,1,.59-.46,2.28,2.28,0,0,1,.89-.16,1.82,1.82,0,0,1,1.22.38,1.37,1.37,0,0,1,.49,1h-.91a.7.7,0,0,0-.24-.47.9.9,0,0,0-.59-.18,1,1,0,0,0-.55.14.41.41,0,0,0-.19.36.38.38,0,0,0,.13.3.79.79,0,0,0,.31.18l.54.18a4.86,4.86,0,0,1,.79.26,1.33,1.33,0,0,1,.53.38,1,1,0,0,1,.23.68,1.21,1.21,0,0,1-.2.68,1.45,1.45,0,0,1-.59.46,2.42,2.42,0,0,1-1.83,0Z"/><path class="cls-2" d="M240.81,116.33a1.6,1.6,0,0,1,.65.64,2.21,2.21,0,0,1,.23,1v2.6h-.9v-2.47a1.3,1.3,0,0,0-.3-.91,1.21,1.21,0,0,0-1.62,0,1.3,1.3,0,0,0-.3.91v2.47h-.91v-4.41h.91v.5a1.51,1.51,0,0,1,.57-.42,1.88,1.88,0,0,1,.74-.15A2,2,0,0,1,240.81,116.33Z"/><path class="cls-2" d="M243.63,120.38a2,2,0,0,1-.79-.8,2.41,2.41,0,0,1-.29-1.19,2.31,2.31,0,0,1,.3-1.19,2,2,0,0,1,.81-.8,2.29,2.29,0,0,1,1.14-.28,2.33,2.33,0,0,1,1.15.28,1.93,1.93,0,0,1,.8.8,2.31,2.31,0,0,1,.3,1.19,2.34,2.34,0,0,1-.3,1.19,2.06,2.06,0,0,1-.83.8,2.4,2.4,0,0,1-1.16.29A2.29,2.29,0,0,1,243.63,120.38Zm1.79-.67a1.23,1.23,0,0,0,.5-.51,1.57,1.57,0,0,0,.19-.81,1.67,1.67,0,0,0-.18-.81,1.18,1.18,0,0,0-.49-.5,1.35,1.35,0,0,0-1.31,0,1.2,1.2,0,0,0-.47.5,1.67,1.67,0,0,0-.18.81,1.53,1.53,0,0,0,.37,1.1,1.18,1.18,0,0,0,.91.39A1.35,1.35,0,0,0,245.42,119.71Z"/><path class="cls-2" d="M251,114.68v5.92H250v-5.92Z"/><path class="cls-2" d="M252.93,120.38a1.91,1.91,0,0,1-.79-.8,2.41,2.41,0,0,1-.29-1.19,2.31,2.31,0,0,1,.3-1.19,1.93,1.93,0,0,1,.8-.8,2.36,2.36,0,0,1,1.15-.28,2.29,2.29,0,0,1,1.14.28,2,2,0,0,1,.81.8,2.31,2.31,0,0,1,.3,1.19,2.34,2.34,0,0,1-.31,1.19,2,2,0,0,1-.83.8,2.37,2.37,0,0,1-1.15.29A2.26,2.26,0,0,1,252.93,120.38Zm1.79-.67a1.29,1.29,0,0,0,.5-.51,1.57,1.57,0,0,0,.19-.81,1.67,1.67,0,0,0-.18-.81,1.31,1.31,0,0,0-.49-.5,1.35,1.35,0,0,0-1.31,0,1.22,1.22,0,0,0-.48.5,1.8,1.8,0,0,0-.17.81,1.57,1.57,0,0,0,.36,1.1,1.22,1.22,0,0,0,.92.39A1.41,1.41,0,0,0,254.72,119.71Z"/><path class="cls-2" d="M260.41,116.33a1.58,1.58,0,0,1,.64.64,2.21,2.21,0,0,1,.23,1v2.6h-.9v-2.47a1.3,1.3,0,0,0-.3-.91,1.21,1.21,0,0,0-1.62,0,1.3,1.3,0,0,0-.3.91v2.47h-.91v-4.41h.91v.5a1.51,1.51,0,0,1,.57-.42,1.88,1.88,0,0,1,.74-.15A2.06,2.06,0,0,1,260.41,116.33Z"/><path class="cls-2" d="M265.13,116.32a1.87,1.87,0,0,1,.62.51v-.64h.92v4.48a2.24,2.24,0,0,1-.26,1.08,1.84,1.84,0,0,1-.74.75,2.34,2.34,0,0,1-1.16.27,2.49,2.49,0,0,1-1.48-.42,1.56,1.56,0,0,1-.68-1.14h.91a1,1,0,0,0,.44.56,1.53,1.53,0,0,0,.81.21,1.21,1.21,0,0,0,.9-.34,1.31,1.31,0,0,0,.34-1v-.74a1.88,1.88,0,0,1-1.53.74,2,2,0,0,1-1.05-.29,2.15,2.15,0,0,1-.76-.82,2.54,2.54,0,0,1-.27-1.19,2.46,2.46,0,0,1,.27-1.17,2.09,2.09,0,0,1,.76-.8,2,2,0,0,1,1.05-.28A1.93,1.93,0,0,1,265.13,116.32Zm.43,1.28a1.26,1.26,0,0,0-1.15-.69,1.41,1.41,0,0,0-.66.17,1.38,1.38,0,0,0-.49.5,1.76,1.76,0,0,0,0,1.59,1.35,1.35,0,0,0,.5.53,1.25,1.25,0,0,0,.65.18,1.28,1.28,0,0,0,.66-.18,1.37,1.37,0,0,0,.49-.52,1.65,1.65,0,0,0,.19-.79A1.62,1.62,0,0,0,265.56,117.6Z"/><path class="cls-2" d="M271.87,118.73h-3.36a1.18,1.18,0,0,0,.39.85,1.24,1.24,0,0,0,.86.32,1.05,1.05,0,0,0,1-.62h1a2,2,0,0,1-.73,1,2.11,2.11,0,0,1-1.3.39,2.24,2.24,0,0,1-1.13-.29,1.94,1.94,0,0,1-.78-.8,2.41,2.41,0,0,1-.29-1.19,2.47,2.47,0,0,1,.28-1.2,1.89,1.89,0,0,1,.77-.79,2.3,2.3,0,0,1,1.15-.28,2.23,2.23,0,0,1,1.11.27,1.85,1.85,0,0,1,.76.76,2.34,2.34,0,0,1,.28,1.13A2,2,0,0,1,271.87,118.73ZM271,118a1,1,0,0,0-.36-.81,1.28,1.28,0,0,0-.87-.31,1.2,1.2,0,0,0-.81.3,1.33,1.33,0,0,0-.4.82Z"/><path class="cls-2" d="M274.25,116.3a1.61,1.61,0,0,1,.78-.18v.94h-.23a1.1,1.1,0,0,0-.81.27,1.33,1.33,0,0,0-.28,1v2.32h-.91v-4.41h.91v.64A1.44,1.44,0,0,1,274.25,116.3Z"/><path class="cls-2" d="M277.93,117.2a2,2,0,0,1,1.8-1.08,1.88,1.88,0,0,1,.91.2,2,2,0,0,1,.62.51v-.64h.92v4.41h-.92v-.66a1.91,1.91,0,0,1-.63.52,2,2,0,0,1-.92.21,2,2,0,0,1-1-.29,2.1,2.1,0,0,1-.74-.82,2.43,2.43,0,0,1-.28-1.19A2.36,2.36,0,0,1,277.93,117.2Zm3.14.4a1.37,1.37,0,0,0-.49-.52,1.35,1.35,0,0,0-1.31,0,1.33,1.33,0,0,0-.5.5,1.85,1.85,0,0,0,0,1.59,1.35,1.35,0,0,0,.5.53,1.28,1.28,0,0,0,.65.18,1.26,1.26,0,0,0,.66-.18,1.37,1.37,0,0,0,.49-.52,1.65,1.65,0,0,0,.19-.79A1.62,1.62,0,0,0,281.07,117.6Z"/><path class="cls-2" d="M286.53,116.33a1.6,1.6,0,0,1,.65.64,2.21,2.21,0,0,1,.23,1v2.6h-.9v-2.47a1.3,1.3,0,0,0-.3-.91,1.21,1.21,0,0,0-1.62,0,1.3,1.3,0,0,0-.3.91v2.47h-.91v-4.41h.91v.5a1.51,1.51,0,0,1,.57-.42,1.85,1.85,0,0,1,.74-.15A2,2,0,0,1,286.53,116.33Z"/><path class="cls-2" d="M291.43,120.38a2,2,0,0,1-.79-.8,2.41,2.41,0,0,1-.29-1.19,2.31,2.31,0,0,1,.3-1.19,2,2,0,0,1,.81-.8,2.29,2.29,0,0,1,1.14-.28,2.36,2.36,0,0,1,1.15.28,1.93,1.93,0,0,1,.8.8,2.31,2.31,0,0,1,.3,1.19,2.34,2.34,0,0,1-.3,1.19,2.06,2.06,0,0,1-.83.8,2.4,2.4,0,0,1-1.16.29A2.29,2.29,0,0,1,291.43,120.38Zm1.79-.67a1.23,1.23,0,0,0,.5-.51,1.57,1.57,0,0,0,.19-.81,1.67,1.67,0,0,0-.18-.81,1.32,1.32,0,0,0-1.8-.5,1.14,1.14,0,0,0-.47.5,1.67,1.67,0,0,0-.18.81,1.53,1.53,0,0,0,.37,1.1,1.18,1.18,0,0,0,.91.39A1.35,1.35,0,0,0,293.22,119.71Z"/><path class="cls-2" d="M297.3,116.32a2,2,0,0,1,2.7.88,2.46,2.46,0,0,1,.27,1.17,2.54,2.54,0,0,1-.27,1.19,2.05,2.05,0,0,1-.75.82,2,2,0,0,1-1.05.29,1.83,1.83,0,0,1-.89-.21,1.94,1.94,0,0,1-.65-.5v2.73h-.91v-6.5h.91v.65A1.85,1.85,0,0,1,297.3,116.32Zm1.86,1.26a1.33,1.33,0,0,0-.5-.5,1.35,1.35,0,0,0-1.31,0,1.32,1.32,0,0,0-.5.52,1.62,1.62,0,0,0-.19.79,1.65,1.65,0,0,0,.19.79,1.32,1.32,0,0,0,.5.52,1.28,1.28,0,0,0,1.31,0,1.35,1.35,0,0,0,.5-.53,1.76,1.76,0,0,0,0-1.59Z"/><path class="cls-2" d="M302.24,116.93v2.44a.46.46,0,0,0,.12.36.57.57,0,0,0,.39.11h.56v.76h-.72a1.39,1.39,0,0,1-.94-.29,1.19,1.19,0,0,1-.33-.94v-2.44h-.52v-.74h.52v-1.1h.92v1.1h1.07v.74Z"/><path class="cls-2" d="M304.2,115.44A.59.59,0,0,1,304,115a.61.61,0,0,1,.17-.42.57.57,0,0,1,.42-.16.54.54,0,0,1,.4.16.57.57,0,0,1,.17.42.55.55,0,0,1-.17.42.54.54,0,0,1-.4.16A.57.57,0,0,1,304.2,115.44Zm.86.75v4.41h-.91v-4.41Z"/><path class="cls-2" d="M307.05,120.38a1.91,1.91,0,0,1-.79-.8,2.31,2.31,0,0,1-.29-1.19,2.41,2.41,0,0,1,.29-1.19,2,2,0,0,1,.81-.8,2.33,2.33,0,0,1,1.15-.28,2.29,2.29,0,0,1,1.14.28,2,2,0,0,1,.81.8,2.31,2.31,0,0,1,.29,1.19,2.34,2.34,0,0,1-.3,1.19,2,2,0,0,1-.83.8,2.37,2.37,0,0,1-1.15.29A2.24,2.24,0,0,1,307.05,120.38Zm1.79-.67a1.29,1.29,0,0,0,.5-.51,1.67,1.67,0,0,0,.19-.81,1.57,1.57,0,0,0-.19-.81,1.22,1.22,0,0,0-.48-.5,1.27,1.27,0,0,0-.66-.17,1.24,1.24,0,0,0-.65.17,1.22,1.22,0,0,0-.48.5,1.8,1.8,0,0,0-.17.81,1.57,1.57,0,0,0,.36,1.1,1.2,1.2,0,0,0,.92.39A1.41,1.41,0,0,0,308.84,119.71Z"/><path class="cls-2" d="M314.52,116.33a1.6,1.6,0,0,1,.65.64,2.21,2.21,0,0,1,.23,1v2.6h-.9v-2.47a1.3,1.3,0,0,0-.3-.91,1.21,1.21,0,0,0-1.62,0,1.3,1.3,0,0,0-.3.91v2.47h-.91v-4.41h.91v.5a1.51,1.51,0,0,1,.57-.42,1.85,1.85,0,0,1,.74-.15A2,2,0,0,1,314.52,116.33Z"/><path class="cls-3" d="M99.61,75.38h6.71l3.11,34.47h.13l3.29-34.47h7.6l3.29,34.47h.13L127,75.38h6l-4.5,44.85h-8.67L116.65,90h-.13l-3.16,30.24h-9.25Z"/><path class="cls-3" d="M139.74,75.38h19v6.41h-12V93.64h9.56v6.41h-9.56v13.78h12v6.4h-19Z"/><path class="cls-2" d="M165.94,75.38h10.51c7.22,0,10.33,3.4,10.33,10.32v1.79c0,4.61-1.4,7.5-4.5,8.78v.13c3.74,1.28,5.19,4.61,5.19,9.35v3.85c0,6.92-3.61,10.63-10.57,10.63h-11Zm9.69,18.26c2.6,0,4.18-1.15,4.18-4.74V86.4c0-3.2-1.08-4.61-3.55-4.61h-3.35V93.64Zm1.27,20.19c2.34,0,3.61-1.09,3.61-4.43v-3.9c0-4.17-1.33-5.45-4.5-5.45h-3.1v13.78Z"/><path class="cls-3" d="M101.26,130.13H111.9c7,0,10.39,3.91,10.39,11.09V163.9c0,7.17-3.42,11.08-10.39,11.08H101.26Zm10.51,38.44c2.22,0,3.55-1.15,3.55-4.35V140.9c0-3.21-1.33-4.36-3.55-4.36h-3.54v32Z"/><path class="cls-3" d="M130.18,130.13h19v6.41h-12v11.85h9.57v6.41h-9.57v13.77h12V175h-19Z"/><path class="cls-3" d="M154.54,130.13h7l4.56,34.79h.12l4.56-34.79h6.4L170.5,175h-9.25Z"/><path class="cls-3" d="M183.77,130.13h19v6.41h-12v11.85h9.56v6.41h-9.56v13.77h12V175h-19Z"/><path class="cls-3" d="M210,130.13h7v38.44H228.4V175H210Z"/><path class="cls-2" d="M234.45,164.35V140.77c0-7.18,3.74-11.28,10.58-11.28s10.58,4.1,10.58,11.28v23.58c0,7.17-3.74,11.27-10.58,11.27S234.45,171.52,234.45,164.35Zm14.19.44V140.32c0-3.2-1.39-4.42-3.61-4.42s-3.61,1.22-3.61,4.42v24.47c0,3.21,1.39,4.42,3.61,4.42S248.64,168,248.64,164.79Z"/><path class="cls-3" d="M263.5,130.13h10.26c7,0,10.39,3.91,10.39,11.09v4.42c0,7.17-3.42,11.08-10.39,11.08h-3.29V175h-7Zm10.26,20.18c2.22,0,3.42-1,3.42-4.23v-5.31c0-3.21-1.2-4.23-3.42-4.23h-3.29v13.77Z"/><path class="cls-3" d="M291.15,130.13h10l4.43,32.1h.13l4.43-32.1h10V175h-6.59V141h-.13l-5.07,34h-5.82l-5.07-34h-.13v34h-6.08Z"/><path class="cls-3" d="M328.43,130.13h19v6.41h-12v11.85H345v6.41H335.4v13.77h12V175h-19Z"/><path class="cls-3" d="M354.63,130.13h8.74L370.15,157h.12V130.13h6.21V175h-7.16L361,142.24h-.12V175h-6.21Z"/><path class="cls-3" d="M390.33,136.54H383v-6.41h21.54v6.41h-7.29V175h-7Z"/></svg>