<?xml version="1.0" encoding="UTF-8"?>
<!DOCTYPE svg PUBLIC "-//W3C//DTD SVG 1.1//EN" "http://www.w3.org/Graphics/SVG/1.1/DTD/svg11.dtd">
<!-- Creator: CorelDRAW X8 -->
<svg xmlns="http://www.w3.org/2000/svg" xml:space="preserve" width="636px" height="350px" version="1.1" shape-rendering="geometricPrecision" text-rendering="geometricPrecision" image-rendering="optimizeQuality" fill-rule="evenodd" clip-rule="evenodd"
viewBox="0 0 389 214"
 xmlns:xlink="http://www.w3.org/1999/xlink">
 <g id="Layer_x0020_1">
  <metadata id="CorelCorpID_0Corel-Layer"/>
  <g id="_1582495999232">
   <path fill="#7B542D" fill-rule="nonzero" d="M28 21c4,-2 7,-5 7,-9 0,-8 -7,-11 -17,-11l-16 0 0 2c2,0 3,1 3,3l0 32c0,3 -1,4 -3,4l0 2 20 0c10,0 17,-4 17,-12 1,-7 -4,-11 -11,-11zm-2 -9c0,5 -3,8 -9,8l-3 0 0 -16 3 0c6,0 9,3 9,8zm-7 28l-5 0 0 -17 5 0c7,0 11,3 11,9 0,5 -4,8 -11,8zm56 -8c-1,4 -3,8 -9,8l-11 0 0 -16 6 0c5,0 5,1 6,4l1 0 0 -12 -1 0c-1,3 -1,4 -6,4l-6 0 0 -16 10 0c5,0 7,5 8,8l2 0 -1 -11 -31 0 0 2c2,0 3,1 3,3l0 32c0,3 -1,4 -3,4l0 2 32 0 1 -12 -1 0zm37 -31l0 2c3,0 3,1 3,3l0 26 -24 -31 -11 0 0 2c3,0 3,1 3,3l0 32c0,3 0,4 -3,4l0 2 10 0 0 -2c-2,0 -3,-1 -3,-4l0 -27 26 33 6 0 0 -38c0,-2 0,-3 3,-3l0 -2 -10 0zm46 31c-1,4 -3,8 -9,8l-11 0 0 -16 7 0c4,0 5,1 5,4l2 0 0 -12 -2 0c0,3 -1,4 -5,4l-7 0 0 -16 10 0c6,0 8,5 9,8l1 0 -1 -11 -31 0 0 2c3,0 3,1 3,3l0 32c0,3 0,4 -3,4l0 2 32 0 2 -12 -2 0zm37 -31l-31 0 0 2c2,0 3,1 3,3l0 32c0,3 -1,4 -3,4l0 2 15 0 0 -2c-2,0 -3,-1 -3,-4l0 -13 6 0c5,0 5,1 6,4l1 0 0 -12 -1 0c-1,3 -1,4 -6,4l-6 0 0 -17 10 0c6,0 8,5 8,8l2 0 -1 -11zm20 2l0 -2 -15 0 0 2c2,0 3,1 3,3l0 32c0,3 -1,4 -3,4l0 2 15 0 0 -2c-3,0 -3,-1 -3,-4l0 -32c0,-2 0,-3 3,-3zm41 -2l-36 0 -2 11 2 0c1,-3 3,-8 9,-8l4 0 0 34c0,3 0,4 -3,4l0 2 15 0 0 -2c-2,0 -3,-1 -3,-4l0 -34 5 0c6,0 8,5 9,8l1 0 -1 -11zm23 17c-5,-3 -10,-6 -10,-10 1,-3 3,-6 8,-6 5,1 8,3 10,11l1 0 0 -9c-4,-3 -7,-4 -12,-4 -7,0 -12,2 -14,8 -3,10 5,14 12,18 5,3 9,4 8,10 0,4 -3,7 -8,6 -6,0 -10,-5 -13,-12l-1 0 0 10c4,3 9,5 15,5 7,0 13,-3 15,-10 3,-9 -3,-13 -11,-17zm51 -18c-13,0 -24,9 -24,22 0,13 11,23 24,23 13,0 23,-10 23,-23 0,-13 -10,-22 -23,-22zm0 42c-8,0 -14,-7 -14,-20 0,-12 6,-20 14,-20 8,0 13,8 13,20 0,13 -5,20 -13,20zm58 -41l-31 0 0 2c2,0 3,1 3,3l0 32c0,3 -1,4 -3,4l0 2 15 0 0 -2c-2,0 -3,-1 -3,-4l0 -13 6 0c5,0 6,1 6,4l2 0 0 -12 -2 0c0,3 -1,4 -6,4l-6 0 0 -17 10 0c6,0 8,5 8,8l2 0 -1 -11z"/>
   <path fill="#BC9161" fill-rule="nonzero" d="M50 110c-3,10 -9,14 -19,14 -11,-1 -18,-11 -18,-26 0,-14 6,-25 18,-25 8,0 15,5 17,15l2 0 0 -13c-5,-3 -13,-5 -20,-5 -17,0 -30,11 -30,28 0,18 13,28 30,29 8,0 15,-2 20,-6l2 -11 -2 0zm37 -40c-17,0 -30,12 -30,28 0,17 13,29 30,29 16,0 30,-12 30,-29 0,-16 -14,-28 -30,-28zm0 54c-10,0 -18,-10 -18,-26 0,-16 8,-25 18,-25 10,0 17,9 17,25 0,16 -7,26 -17,26zm75 -53l0 2c3,0 4,2 4,5l0 32 -31 -39 -14 0 0 2c3,0 4,2 4,5l0 41c0,3 -1,4 -4,5l0 2 13 0 0 -2c-3,-1 -4,-2 -4,-5l0 -36 33 43 7 0 0 -48c0,-3 1,-5 4,-5l0 -2 -12 0zm65 0l-47 0 -1 14 2 0c1,-4 3,-10 11,-10l6 0 0 44c0,3 -1,4 -4,5l0 2 19 0 0 -2c-3,-1 -4,-2 -4,-5l0 -44 6 0c8,0 10,6 12,10l2 0 -2 -14zm47 40c-1,4 -4,10 -11,10l-15 0 0 -21 9 0c5,0 6,2 7,5l2 0 0 -15 -2 0c-1,4 -2,6 -7,6l-9 0 0 -21 13 0c8,0 10,6 11,10l2 0 -1 -14 -40 0 0 2c3,0 4,2 4,5l0 41c0,3 -1,4 -4,5l0 2 41 0 2 -15 -2 0zm48 -40l0 2c3,0 4,2 4,5l0 32 -31 -39 -14 0 0 2c3,0 4,2 4,5l0 41c0,3 -1,4 -4,5l0 2 13 0 0 -2c-3,-1 -4,-2 -4,-5l0 -36 33 43 7 0 0 -48c0,-3 1,-5 4,-5l0 -2 -12 0zm65 0l-47 0 -2 14 2 0c2,-4 4,-10 12,-10l6 0 0 44c0,3 -1,4 -4,5l0 2 19 0 0 -2c-3,-1 -4,-2 -4,-5l0 -44 6 0c8,0 10,6 11,10l2 0 -1 -14z"/>
   <path fill="#7B542D" fill-rule="nonzero" d="M74 153l0 3c3,0 4,1 2,5l-11 35 -14 -43 -6 0 -15 43 -11 -34c-1,-4 1,-6 3,-6l0 -3 -22 0 0 3c3,0 4,1 6,4l18 54 6 0 14 -45 15 45 6 0 17 -53c1,-4 2,-5 5,-5l0 -3 -13 0zm67 52l-12 -18c7,-3 11,-9 11,-16 0,-11 -10,-18 -24,-18l-24 0 0 3c3,0 4,2 4,5l0 44c0,4 -1,5 -4,6l0 3 20 0 0 -3c-3,-1 -4,-2 -4,-6l0 -16 8 0c0,0 0,0 0,0l15 25 16 0 0 -3c-2,-1 -4,-3 -6,-6zm-33 -21l0 -26 5 0c9,0 14,5 14,13 0,8 -5,13 -14,13l-5 0zm65 -28l0 -3 -20 0 0 3c3,0 4,2 4,5l0 44c0,4 -1,5 -4,6l0 3 20 0 0 -3c-3,-1 -4,-2 -4,-6l0 -44c0,-3 1,-5 4,-5zm58 -3l-51 0 -1 16 2 0c1,-4 4,-11 12,-11l7 0 0 47c0,4 -1,5 -5,6l0 3 21 0 0 -3c-3,-1 -4,-2 -4,-6l0 -47 7 0c8,0 11,7 12,11l2 0 -2 -16zm28 3l0 -3 -21 0 0 3c3,0 4,2 4,5l0 44c0,4 -1,5 -4,6l0 3 21 0 0 -3c-3,-1 -4,-2 -4,-6l0 -44c0,-3 1,-5 4,-5zm51 -3l0 3c3,0 4,2 4,5l0 35 -34 -43 -14 0 0 3c3,0 4,2 4,5l0 44c0,4 -1,5 -4,6l0 3 13 0 0 -3c-3,-1 -4,-2 -4,-6l0 -38 37 47 7 0 0 -53c0,-3 1,-5 4,-5l0 -3 -13 0zm58 34l0 3c4,0 4,2 4,5l0 13c-2,2 -6,3 -10,3 -13,0 -20,-11 -20,-28 0,-15 6,-27 19,-28 9,0 16,6 19,17l2 0 0 -14c-5,-4 -14,-6 -22,-6 -18,0 -32,12 -32,31 0,19 14,31 33,31 8,1 18,-2 23,-7l0 -12c0,-3 1,-5 4,-5l0 -3 -20 0z"/>
  </g>
 </g>
</svg>
