<?xml version="1.0" encoding="UTF-8"?>
<!DOCTYPE svg PUBLIC "-//W3C//DTD SVG 1.1//EN" "http://www.w3.org/Graphics/SVG/1.1/DTD/svg11.dtd">
<!-- Creator: CorelDRAW X8 -->
<svg xmlns="http://www.w3.org/2000/svg" xml:space="preserve" width="635px" height="283px" version="1.1" shape-rendering="geometricPrecision" text-rendering="geometricPrecision" image-rendering="optimizeQuality" fill-rule="evenodd" clip-rule="evenodd"
viewBox="0 0 388 173"
 xmlns:xlink="http://www.w3.org/1999/xlink">
 <g id="Layer_x0020_1">
  <metadata id="CorelCorpID_0Corel-Layer"/>
  <g id="_1582429701296">
   <path fill="#3F67B1" fill-rule="nonzero" d="M77 76c-2,8 -7,20 -21,20l-27 0 0 -82c0,-6 1,-9 7,-9l0 -5 -36 0 0 5c6,0 7,3 7,9l0 76c0,6 -1,9 -7,10l0 4 78 0 3 -28 -4 0zm88 0c-2,8 -7,20 -21,20l-27 0 0 -40 16 0c11,0 13,3 14,10l3 0 0 -29 -3 0c-1,7 -3,10 -14,10l-16 0 0 -38 24 0c14,0 19,11 21,19l4 0 -3 -28 -74 0 0 5c5,0 7,3 7,9l0 76c0,6 -2,9 -7,10l0 4 77 0 3 -28 -4 0zm104 14l-38 -90 -24 0 0 5c6,0 7,5 4,10l-27 75c-2,6 -5,9 -11,10l0 4 26 0 0 -4c-6,-1 -8,-4 -6,-10l7 -17 38 0 7 17c2,6 0,9 -6,10l0 4 40 0 0 -4c-5,-1 -8,-4 -10,-10zm-66 -26l16 -42 16 42 -32 0zm126 -64l-42 0 0 5c5,0 7,3 7,9l0 76c0,6 -2,9 -7,10l0 4 42 0c40,0 59,-23 59,-52 0,-29 -19,-52 -59,-52zm-3 96l-11 0 0 -87 11 0c25,0 38,17 38,43 0,26 -13,44 -38,44z"/>
   <path fill="#3F67B1" fill-rule="nonzero" d="M28 155l0 1c2,1 3,2 3,4l0 9c-2,2 -4,2 -7,2 -9,0 -14,-8 -14,-19 0,-11 4,-19 13,-19 6,0 11,3 13,11l2 0 0 -10c-4,-2 -10,-4 -16,-4 -12,0 -22,9 -22,22 0,13 10,21 23,21 6,1 12,-1 16,-5l0 -8c0,-2 1,-3 3,-4l0 -1 -14 0zm48 6c-1,4 -3,8 -9,8l-10 0 0 -16 6 0c4,0 5,2 5,4l2 0 0 -11 -2 0c0,2 -1,4 -5,4l-6 0 0 -16 9 0c6,0 8,5 9,8l1 0 -1 -11 -30 0 0 2c3,0 3,1 3,4l0 30c0,2 0,4 -3,4l0 2 31 0 1 -12 -1 0zm36 -30l0 2c2,0 3,1 3,4l0 24 -24 -30 -9 0 0 2c2,0 2,1 2,4l0 30c0,2 0,4 -2,4l0 2 9 0 0 -2c-3,0 -3,-2 -3,-4l0 -26 25 32 5 0 0 -36c0,-3 1,-4 3,-4l0 -2 -9 0zm44 30c-1,4 -3,8 -8,8l-11 0 0 -16 6 0c5,0 5,2 6,4l1 0 0 -11 -1 0c-1,2 -1,4 -6,4l-6 0 0 -16 10 0c5,0 7,5 8,8l2 0 -2 -11 -29 0 0 2c2,0 2,1 2,4l0 30c0,2 0,4 -2,4l0 2 31 0 1 -12 -2 0zm40 6l-9 -13c5,-2 8,-6 8,-11 0,-7 -7,-12 -17,-12l-16 0 0 2c2,0 3,1 3,4l0 30c0,2 -1,4 -3,4l0 2 14 0 0 -2c-2,0 -3,-2 -3,-4l0 -11 5 0c1,0 1,0 1,0l10 17 11 0 0 -2c-1,0 -3,-2 -4,-4zm-23 -15l0 -18 4 0c6,0 9,4 9,9 0,6 -3,9 -9,9l-4 0zm68 15l-15 -36 -10 0 0 2c3,0 3,2 2,4l-11 30c-1,2 -2,4 -4,4l0 2 10 0 0 -2c-2,0 -3,-2 -2,-4l2 -7 16 0 3 7c0,2 -1,4 -3,4l0 2 16 0 0 -2c-2,0 -3,-2 -4,-4zm-26 -10l6 -17 6 17 -12 0zm62 -26l-35 0 -2 11 2 0c1,-3 3,-8 8,-8l5 0 0 33c0,2 -1,4 -3,4l0 2 14 0 0 -2c-2,0 -3,-2 -3,-4l0 -33 5 0c6,0 8,5 8,8l2 0 -1 -11zm19 2l0 -2 -14 0 0 2c2,0 2,1 2,4l0 30c0,2 0,4 -2,4l0 2 14 0 0 -2c-2,0 -3,-2 -3,-4l0 -30c0,-3 1,-4 3,-4zm26 -3c-13,0 -23,9 -23,22 0,12 10,21 23,21 13,0 23,-9 23,-21 0,-13 -10,-22 -23,-22zm0 41c-8,0 -13,-7 -13,-19 0,-12 5,-19 13,-19 7,0 13,7 13,19 0,12 -6,19 -13,19zm57 -40l0 2c2,0 3,1 3,4l0 24 -24 -30 -10 0 0 2c2,0 3,1 3,4l0 30c0,2 -1,4 -3,4l0 2 9 0 0 -2c-2,0 -3,-2 -3,-4l0 -26 26 32 5 0 0 -36c0,-3 1,-4 3,-4l0 -2 -9 0z"/>
  </g>
 </g>
</svg>
