<?xml version="1.0" encoding="UTF-8"?>
<!DOCTYPE svg PUBLIC "-//W3C//DTD SVG 1.1//EN" "http://www.w3.org/Graphics/SVG/1.1/DTD/svg11.dtd">
<!-- Creator: CorelDRAW X8 -->
<svg xmlns="http://www.w3.org/2000/svg" xml:space="preserve" width="643px" height="168px" version="1.1" shape-rendering="geometricPrecision" text-rendering="geometricPrecision" image-rendering="optimizeQuality" fill-rule="evenodd" clip-rule="evenodd"
viewBox="0 0 398 104"
 xmlns:xlink="http://www.w3.org/1999/xlink">
 <g id="Layer_x0020_1">
  <metadata id="CorelCorpID_0Corel-Layer"/>
  <g id="_1582495973312">
   <path fill="#3F67B1" fill-rule="nonzero" d="M18 19c0,1 -1,4 -5,4l-6 0 0 -19c0,-2 0,-2 2,-3l0 -1 -9 0 0 1c1,1 2,1 2,3l0 18c0,1 -1,2 -2,2l0 1 18 0 1 -6 -1 0zm21 0c0,1 -1,4 -5,4l-6 0 0 -9 4 0c2,0 3,0 3,2l1 0 0 -7 -1 0c0,2 -1,3 -3,3l-4 0 0 -10 6 0c3,0 4,3 5,5l1 0 -1 -7 -18 0 0 1c2,1 2,1 2,3l0 18c0,1 0,2 -2,2l0 1 19 0 0 -6 -1 0zm25 3l-9 -22 -6 0 0 1c2,1 2,2 1,3l-6 18c-1,1 -1,2 -3,2l0 1 6 0 0 -1c-1,0 -1,-1 -1,-2l2 -4 9 0 1 4c1,1 0,2 -1,2l0 1 10 0 0 -1c-2,0 -2,-1 -3,-2zm-16 -6l4 -10 4 10 -8 0zm30 -16l-10 0 0 1c2,1 2,1 2,3l0 18c0,1 0,2 -2,2l0 1 10 0c10,0 14,-5 14,-12 0,-7 -4,-13 -14,-13zm0 23l-3 0 0 -21 3 0c6,0 9,5 9,11 0,6 -3,10 -9,10zm39 -9l0 2c2,0 2,0 2,2l0 5c-1,1 -2,1 -4,1 -5,0 -9,-4 -9,-11 0,-7 3,-12 8,-12 4,0 7,3 8,7l1 0 0 -6c-2,-1 -6,-2 -9,-2 -8,0 -13,5 -13,13 0,8 6,12 13,13 4,0 8,-1 10,-4l0 -4c0,-2 0,-2 2,-2l0 -2 -9 0zm29 5c-1,1 -2,4 -5,4l-7 0 0 -9 4 0c3,0 3,0 3,2l1 0 0 -7 -1 0c0,2 0,3 -3,3l-4 0 0 -10 6 0c3,0 5,3 5,5l1 0 -1 -7 -17 0 0 1c1,1 1,1 1,3l0 18c0,1 0,2 -1,2l0 1 18 0 1 -6 -1 0zm21 -19l0 1c2,1 2,1 2,3l0 14 -14 -18 -6 0 0 1c2,1 2,1 2,3l0 18c0,1 0,2 -2,2l0 1 6 0 0 -1c-2,0 -2,-1 -2,-2l0 -16 15 19 3 0 0 -21c0,-2 1,-2 2,-3l0 -1 -6 0zm27 19c-1,1 -2,4 -5,4l-7 0 0 -9 4 0c3,0 3,0 3,2l1 0 0 -7 -1 0c0,2 0,3 -3,3l-4 0 0 -10 6 0c3,0 5,3 5,5l1 0 -1 -7 -17 0 0 1c1,1 1,1 1,3l0 18c0,1 0,2 -1,2l0 1 18 0 1 -6 -1 0zm23 3l-5 -8c3,-1 5,-3 5,-6 0,-5 -4,-8 -10,-8l-10 0 0 1c1,1 2,1 2,3l0 18c0,1 -1,2 -2,2l0 1 9 0 0 -1c-2,0 -2,-1 -2,-2l0 -7 3 0c0,0 0,0 0,0l6 10 7 0 0 -1c-1,0 -2,-1 -3,-2zm-13 -9l0 -11 2 0c4,0 6,3 6,6 0,3 -2,5 -6,5l-2 0zm40 9l-9 -22 -6 0 0 1c2,1 2,2 2,3l-7 18c0,1 -1,2 -3,2l0 1 7 0 0 -1c-2,0 -2,-1 -2,-2l2 -4 9 0 2 4c0,1 -1,2 -2,2l0 1 10 0 0 -1c-2,0 -2,-1 -3,-2zm-15 -6l3 -10 4 10 -7 0zm37 -16l-21 0 -1 7 1 0c0,-2 1,-5 5,-5l2 0 0 20c0,1 0,2 -1,2l0 1 8 0 0 -1c-1,0 -1,-1 -1,-2l0 -20 2 0c4,0 5,3 5,5l1 0 0 -7zm11 1l0 -1 -9 0 0 1c2,1 2,1 2,3l0 18c0,1 0,2 -2,2l0 1 9 0 0 -1c-1,0 -2,-1 -2,-2l0 -18c0,-2 1,-2 2,-3zm15 -1c-7,0 -13,5 -13,13 0,7 6,13 13,13 8,0 14,-6 14,-13 0,-8 -6,-13 -14,-13zm0 24c-4,0 -7,-4 -7,-11 0,-7 3,-12 7,-12 5,0 8,5 8,12 0,7 -3,11 -8,11zm34 -24l0 1c2,1 2,1 2,3l0 14 -14 -18 -6 0 0 1c1,1 2,1 2,3l0 18c0,1 -1,2 -2,2l0 1 5 0 0 -1c-1,0 -1,-1 -1,-2l0 -16 15 19 3 0 0 -21c0,-2 0,-2 2,-3l0 -1 -6 0zm28 0c-7,0 -13,5 -13,13 0,7 6,13 13,13 8,0 14,-6 14,-13 0,-8 -6,-13 -14,-13zm0 24c-4,0 -8,-4 -8,-11 0,-7 4,-12 8,-12 5,0 8,5 8,12 0,7 -3,11 -8,11zm34 -24l0 1c1,1 2,1 2,3l0 14 -14 -18 -6 0 0 1c1,1 1,1 1,3l0 18c0,1 0,2 -1,2l0 1 5 0 0 -1c-1,0 -2,-1 -2,-2l0 -16 16 19 3 0 0 -21c0,-2 0,-2 1,-3l0 -1 -5 0z"/>
   <path fill="#3F67B1" fill-rule="nonzero" d="M36 53l-36 0 0 2c3,0 3,2 3,4l0 37c0,3 0,5 -3,5l0 2 17 0 0 -2c-2,0 -3,-2 -3,-5l0 -15 8 0c5,0 6,1 6,4l2 0 0 -13 -2 0c0,3 -1,4 -6,4l-8 0 0 -19 12 0c6,0 9,5 10,9l2 0 -2 -13zm44 43l-18 -43 -12 0 0 2c3,0 4,2 3,5l-14 36c-1,3 -2,5 -5,5l0 2 13 0 0 -2c-3,0 -4,-2 -3,-5l3 -8 19 0 3 8c1,3 0,5 -3,5l0 2 20 0 0 -2c-3,0 -5,-2 -6,-5zm-32 -12l8 -21 8 21 -16 0zm82 4c-3,9 -8,14 -17,13 -10,0 -17,-9 -17,-23 0,-13 5,-23 16,-24 8,0 14,5 16,14l2 0 0 -11c-5,-3 -12,-5 -18,-5 -16,0 -28,10 -28,26 0,16 12,25 28,26 7,0 14,-1 18,-5l2 -11 -2 0zm44 2c-1,4 -3,9 -10,9l-13 0 0 -19 8 0c5,0 6,1 6,4l2 0 0 -13 -2 0c0,3 -1,4 -6,4l-8 0 0 -18 11 0c7,0 10,5 11,9l2 0 -2 -13 -36 0 0 2c3,0 3,2 3,4l0 37c0,3 0,5 -3,5l0 2 38 0 1 -13 -2 0zm38 -14c5,-1 8,-5 8,-10 0,-9 -8,-13 -20,-13l-19 0 0 2c3,0 3,2 3,4l0 37c0,3 0,5 -3,5l0 2 23 0c12,0 20,-5 21,-14 0,-7 -5,-12 -13,-13zm-3 -10c0,5 -3,9 -10,9l-4 0 0 -18 4 0c7,0 10,3 10,9zm-7 33l-7 0 0 -20 7 0c7,0 11,4 11,10 0,7 -4,10 -11,10zm54 -47c-15,0 -27,11 -27,26 0,15 12,26 27,26 16,0 28,-11 28,-26 0,-15 -12,-26 -28,-26zm0 49c-9,0 -15,-8 -15,-23 0,-15 6,-24 15,-24 10,0 16,9 16,24 0,15 -6,23 -16,23zm60 -49c-16,0 -28,11 -28,26 0,15 12,26 28,26 15,0 27,-11 27,-26 0,-15 -12,-26 -27,-26zm0 49c-9,0 -16,-8 -16,-23 0,-15 7,-24 16,-24 9,0 16,9 16,24 0,15 -7,23 -16,23zm77 -5l-17 -27 9 -9c4,-5 6,-5 8,-5l0 -2 -13 0 0 2c1,0 1,0 1,1 1,0 1,2 -1,4l-19 19 0 -20c0,-2 1,-4 4,-4l0 -2 -17 0 0 2c2,0 3,2 3,4l0 37c0,3 -1,5 -3,5l0 2 17 0 0 -2c-3,0 -4,-2 -4,-5l0 -11 7 -8 12 19c2,3 1,5 -2,5l0 2 20 0 0 -2c-2,0 -4,-2 -5,-5z"/>
  </g>
 </g>
</svg>
