<svg id="Layer_1" data-name="Layer 1" xmlns="http://www.w3.org/2000/svg" viewBox="0 0 81 65.78"><defs><style>.cls-1,.cls-2,.cls-3{fill:#25282b;}.cls-1,.cls-3{stroke:#000;stroke-miterlimit:22.93;stroke-width:0.56px;}.cls-1,.cls-2,.cls-4,.cls-5{fill-rule:evenodd;}.cls-4{fill:#141618;}</style></defs><title>CAMPAIGN DEVELOPMENT</title><path class="cls-1" d="M63.36,26.47a3,3,0,1,0,3,3A3,3,0,0,0,63.36,26.47Z" transform="translate(-2.7 -10.31)"/><polygon class="cls-2" points="60.13 25.18 51.33 25.18 51.33 28.52 63.43 28.52 63.43 25.18 60.13 25.18"/><rect class="cls-3" x="2.19" y="27.12" width="7.17" height="7.05"/><rect class="cls-3" x="34.09" y="23.29" width="2.51" height="4.36"/><polygon class="cls-4" points="36.6 23.49 36.6 27.65 39.12 27.65 39.12 21.08 36.6 21.08 36.6 23.49"/><polygon class="cls-1" points="39.12 21.08 39.12 27.65 41.63 27.65 41.63 18.67 39.12 18.67 39.12 21.08"/><path class="cls-1" d="M35.38,13.08a5,5,0,1,0,4.95,5A5,5,0,0,0,35.38,13.08Z" transform="translate(-2.7 -10.31)"/><path class="cls-1" d="M72.65,54.75H16.3v2.64a2.18,2.18,0,0,0,2.18,2.18H68.11C73.11,59.81,72.53,56.88,72.65,54.75Z" transform="translate(-2.7 -10.31)"/><rect class="cls-3" x="35.09" y="49.26" width="13.28" height="12.05"/><path class="cls-1" d="M54.24,71.73H34.63a1.76,1.76,0,0,0-1.76,1.76v2.09H56V73.49A1.76,1.76,0,0,0,54.24,71.73Z" transform="translate(-2.7 -10.31)"/><path class="cls-5" d="M78.72,29.85a.51.51,0,0,0-.32.65.53.53,0,0,0,.49.34.51.51,0,0,0,.17,0,.51.51,0,1,0-.34-1Z" transform="translate(-2.7 -10.31)"/><path class="cls-5" d="M79.37,28a.5.5,0,0,0-.7.16.52.52,0,0,0,.16.71.53.53,0,0,0,.27.08.54.54,0,0,0,.44-.24A.52.52,0,0,0,79.37,28Z" transform="translate(-2.7 -10.31)"/><path class="cls-5" d="M82.19,28.39a.51.51,0,0,0,.72,0,.52.52,0,0,0,0-.73h0a.52.52,0,0,0-.73,0,.51.51,0,0,0,0,.72Z" transform="translate(-2.7 -10.31)"/><path class="cls-5" d="M83.24,29.33a.51.51,0,0,0-.11,1h.06a.52.52,0,0,0,.51-.45A.52.52,0,0,0,83.24,29.33Z" transform="translate(-2.7 -10.31)"/><path class="cls-5" d="M80.42,31.2a.51.51,0,0,0-.65.32.51.51,0,0,0,.31.65l.17,0a.51.51,0,0,0,.17-1Z" transform="translate(-2.7 -10.31)"/><path class="cls-5" d="M81.89,31a.5.5,0,0,0-.16.7.5.5,0,0,0,.43.24.48.48,0,0,0,.28-.08.5.5,0,0,0,.16-.7A.52.52,0,0,0,81.89,31Z" transform="translate(-2.7 -10.31)"/><path class="cls-5" d="M80.67,26.88a.52.52,0,0,0-.45.57.51.51,0,0,0,.51.45h.06a.51.51,0,1,0-.12-1Z" transform="translate(-2.7 -10.31)"/><path class="cls-5" d="M64.05,67.3a.53.53,0,0,0-.31.66.5.5,0,0,0,.48.34.47.47,0,0,0,.17,0,.51.51,0,0,0,.32-.65A.53.53,0,0,0,64.05,67.3Z" transform="translate(-2.7 -10.31)"/><path class="cls-5" d="M64.71,65.44a.51.51,0,1,0-.55.87.56.56,0,0,0,.27.08.52.52,0,0,0,.44-.24A.52.52,0,0,0,64.71,65.44Z" transform="translate(-2.7 -10.31)"/><path class="cls-5" d="M67.52,65.84h0a.51.51,0,0,0,.36.15.51.51,0,0,0,.37-.15.52.52,0,0,0,0-.73h0a.52.52,0,0,0-.72,0,.51.51,0,0,0,0,.72Z" transform="translate(-2.7 -10.31)"/><path class="cls-5" d="M65.75,68.66a.51.51,0,0,0-.33,1,.47.47,0,0,0,.17,0,.5.5,0,0,0,.48-.34A.53.53,0,0,0,65.75,68.66Z" transform="translate(-2.7 -10.31)"/><path class="cls-5" d="M68.58,66.79a.52.52,0,0,0-.57.45h0a.52.52,0,0,0,.45.57h.06a.51.51,0,0,0,.06-1Z" transform="translate(-2.7 -10.31)"/><path class="cls-5" d="M66,64.34a.52.52,0,0,0-.45.57.51.51,0,0,0,.51.45h.06a.52.52,0,0,0,.45-.57A.51.51,0,0,0,66,64.34Z" transform="translate(-2.7 -10.31)"/><path class="cls-5" d="M67.22,68.5h0a.5.5,0,0,0-.16.7.51.51,0,0,0,.44.24.45.45,0,0,0,.27-.08.51.51,0,1,0-.55-.86Z" transform="translate(-2.7 -10.31)"/><path class="cls-5" d="M82.18,48.74h0a.51.51,0,0,0,.36.15.51.51,0,0,0,.37-.15.52.52,0,0,0,0-.73h0a.51.51,0,0,0-.72,0,.52.52,0,0,0,0,.73Z" transform="translate(-2.7 -10.31)"/><path class="cls-5" d="M79.37,48.33a.52.52,0,0,0-.71.17.5.5,0,0,0,.16.7.47.47,0,0,0,.27.08.5.5,0,0,0,.44-.24A.52.52,0,0,0,79.37,48.33Z" transform="translate(-2.7 -10.31)"/><path class="cls-5" d="M78.71,50.2a.51.51,0,0,0-.31.65h0a.5.5,0,0,0,.48.34l.17,0a.53.53,0,0,0,.32-.66A.51.51,0,0,0,78.71,50.2Z" transform="translate(-2.7 -10.31)"/><path class="cls-5" d="M80.41,51.56a.5.5,0,0,0-.65.31.51.51,0,0,0,.32.65.47.47,0,0,0,.17,0,.5.5,0,0,0,.48-.34A.51.51,0,0,0,80.41,51.56Z" transform="translate(-2.7 -10.31)"/><path class="cls-5" d="M83.24,49.68a.52.52,0,0,0-.57.46.51.51,0,0,0,.45.56h.06a.52.52,0,0,0,.06-1Z" transform="translate(-2.7 -10.31)"/><path class="cls-5" d="M80.66,47.23a.52.52,0,0,0-.45.57.51.51,0,0,0,.51.45h.06a.52.52,0,0,0,.45-.57A.51.51,0,0,0,80.66,47.23Z" transform="translate(-2.7 -10.31)"/><path class="cls-5" d="M81.88,51.39a.52.52,0,0,0-.16.71.54.54,0,0,0,.44.24.53.53,0,0,0,.27-.08.51.51,0,0,0-.55-.87Z" transform="translate(-2.7 -10.31)"/><path class="cls-5" d="M61.21,13.78a.52.52,0,0,0-.71.16h0a.52.52,0,0,0,.16.71.57.57,0,0,0,.28.08.51.51,0,0,0,.27-1Z" transform="translate(-2.7 -10.31)"/><path class="cls-5" d="M64,14.19a.53.53,0,0,0,.37.15.51.51,0,0,0,.36-.15.52.52,0,0,0,0-.73h0a.51.51,0,0,0-.72.72Z" transform="translate(-2.7 -10.31)"/><path class="cls-5" d="M62.26,17a.53.53,0,0,0-.66.32.51.51,0,0,0,.32.65.47.47,0,0,0,.17,0,.5.5,0,0,0,.48-.34A.53.53,0,0,0,62.26,17Z" transform="translate(-2.7 -10.31)"/><path class="cls-5" d="M60.56,15.65a.51.51,0,0,0-.32.65.52.52,0,0,0,.49.34l.17,0a.51.51,0,0,0,.31-.65A.5.5,0,0,0,60.56,15.65Z" transform="translate(-2.7 -10.31)"/><path class="cls-5" d="M65.08,15.13a.52.52,0,0,0-.57.45.51.51,0,0,0,.45.57H65a.51.51,0,0,0,.51-.45A.52.52,0,0,0,65.08,15.13Z" transform="translate(-2.7 -10.31)"/><path class="cls-5" d="M62.51,12.68a.51.51,0,0,0,.05,1h.06a.51.51,0,0,0-.11-1Z" transform="translate(-2.7 -10.31)"/><path class="cls-5" d="M63.73,16.84a.5.5,0,0,0-.16.7.49.49,0,0,0,.43.24.45.45,0,0,0,.27-.08.51.51,0,1,0-.54-.86Z" transform="translate(-2.7 -10.31)"/><path class="cls-5" d="M20,12.76a.51.51,0,0,0-.54.87.52.52,0,0,0,.27.07.49.49,0,0,0,.43-.24A.5.5,0,0,0,20,12.76Z" transform="translate(-2.7 -10.31)"/><path class="cls-5" d="M19.32,14.62a.51.51,0,0,0-.32.65.54.54,0,0,0,.49.35l.17,0a.52.52,0,0,0,.31-.66A.51.51,0,0,0,19.32,14.62Z" transform="translate(-2.7 -10.31)"/><path class="cls-5" d="M21,16a.51.51,0,0,0-.65.31.51.51,0,0,0,.31.66.5.5,0,0,0,.17,0,.5.5,0,0,0,.48-.34A.5.5,0,0,0,21,16Z" transform="translate(-2.7 -10.31)"/><path class="cls-5" d="M22.79,13.16a.51.51,0,0,0,.72-.72h0a.52.52,0,0,0-.73.73Z" transform="translate(-2.7 -10.31)"/><path class="cls-5" d="M21.27,11.65a.52.52,0,0,0,.06,1h.05a.51.51,0,0,0,.46-.56A.52.52,0,0,0,21.27,11.65Z" transform="translate(-2.7 -10.31)"/><path class="cls-5" d="M23.84,14.11a.51.51,0,1,0-.11,1h.05a.52.52,0,0,0,.51-.46A.5.5,0,0,0,23.84,14.11Z" transform="translate(-2.7 -10.31)"/><path class="cls-5" d="M22.49,15.81a.51.51,0,0,0,.27,1,.57.57,0,0,0,.28-.08.51.51,0,1,0-.55-.87Z" transform="translate(-2.7 -10.31)"/><path class="cls-5" d="M7.11,27.69a.51.51,0,0,0-.31.66h0a.51.51,0,1,0,1-.34A.51.51,0,0,0,7.11,27.69Z" transform="translate(-2.7 -10.31)"/><path class="cls-5" d="M10.58,26.23h0a.51.51,0,0,0,.72,0,.52.52,0,0,0,0-.73h0a.52.52,0,0,0-.73,0,.51.51,0,0,0,0,.72Z" transform="translate(-2.7 -10.31)"/><path class="cls-5" d="M8.81,29.05a.51.51,0,0,0-.65.32.52.52,0,0,0,.31.65l.17,0a.51.51,0,0,0,.17-1Z" transform="translate(-2.7 -10.31)"/><path class="cls-5" d="M7.76,25.83a.5.5,0,0,0-.7.16.52.52,0,0,0,.16.71.53.53,0,0,0,.27.08.54.54,0,0,0,.44-.24A.52.52,0,0,0,7.76,25.83Z" transform="translate(-2.7 -10.31)"/><path class="cls-5" d="M11.63,27.18a.51.51,0,0,0-.56.45.52.52,0,0,0,.45.57h.06a.51.51,0,0,0,.05-1Z" transform="translate(-2.7 -10.31)"/><path class="cls-5" d="M10.28,28.88a.51.51,0,0,0,.28.95.47.47,0,0,0,.27-.08A.52.52,0,0,0,11,29,.53.53,0,0,0,10.28,28.88Z" transform="translate(-2.7 -10.31)"/><path class="cls-5" d="M9.06,24.73a.51.51,0,0,0,.06,1h.06a.52.52,0,0,0,.45-.57A.52.52,0,0,0,9.06,24.73Z" transform="translate(-2.7 -10.31)"/><path class="cls-5" d="M7.11,59.86a.5.5,0,0,0-.31.65h0a.5.5,0,0,0,.48.34l.17,0a.51.51,0,0,0,.31-.66A.5.5,0,0,0,7.11,59.86Z" transform="translate(-2.7 -10.31)"/><path class="cls-5" d="M7.76,58a.51.51,0,0,0-.54.87.45.45,0,0,0,.27.08.51.51,0,0,0,.44-.24A.52.52,0,0,0,7.76,58Z" transform="translate(-2.7 -10.31)"/><path class="cls-5" d="M10.58,58.4h0a.51.51,0,0,0,.72,0,.52.52,0,0,0,0-.73h0a.52.52,0,1,0-.73.73Z" transform="translate(-2.7 -10.31)"/><path class="cls-5" d="M11.63,59.34a.51.51,0,0,0-.11,1h.06a.52.52,0,0,0,.05-1Z" transform="translate(-2.7 -10.31)"/><path class="cls-5" d="M10.28,61.05a.52.52,0,0,0-.16.71.54.54,0,0,0,.44.24.56.56,0,0,0,.27-.08.51.51,0,1,0-.55-.87Z" transform="translate(-2.7 -10.31)"/><path class="cls-5" d="M9.06,56.89a.52.52,0,0,0-.45.57.51.51,0,0,0,.51.45h.06a.51.51,0,0,0,.45-.57A.52.52,0,0,0,9.06,56.89Z" transform="translate(-2.7 -10.31)"/><path class="cls-5" d="M8.81,61.22a.5.5,0,0,0-.65.31.51.51,0,0,0,.31.65l.17,0a.52.52,0,0,0,.49-.34A.51.51,0,0,0,8.81,61.22Z" transform="translate(-2.7 -10.31)"/><path class="cls-5" d="M26.15,66.62a.51.51,0,0,0-.31.66.5.5,0,0,0,.48.34.47.47,0,0,0,.17,0,.51.51,0,0,0,.32-.65A.53.53,0,0,0,26.15,66.62Z" transform="translate(-2.7 -10.31)"/><path class="cls-5" d="M29.62,65.17a.51.51,0,0,0,.36.15.5.5,0,0,0,.37-.16.51.51,0,0,0,0-.72h0a.52.52,0,0,0-.73,0,.51.51,0,0,0,0,.72Z" transform="translate(-2.7 -10.31)"/><path class="cls-5" d="M26.81,64.76a.51.51,0,1,0-.55.87.56.56,0,0,0,.27.08.54.54,0,0,0,.44-.24A.52.52,0,0,0,26.81,64.76Z" transform="translate(-2.7 -10.31)"/><path class="cls-5" d="M28.1,63.66a.51.51,0,0,0,.06,1h.06a.51.51,0,0,0-.12-1Z" transform="translate(-2.7 -10.31)"/><path class="cls-5" d="M30.68,66.11a.51.51,0,0,0-.57.45.52.52,0,0,0,.45.57h.06a.51.51,0,0,0,.06-1Z" transform="translate(-2.7 -10.31)"/><path class="cls-5" d="M29.32,67.81a.51.51,0,0,0,.28,1,.45.45,0,0,0,.27-.08.51.51,0,0,0-.55-.87Z" transform="translate(-2.7 -10.31)"/><path class="cls-5" d="M27.85,68a.51.51,0,1,0-.33,1,.45.45,0,0,0,.16,0,.5.5,0,0,0,.49-.35A.51.51,0,0,0,27.85,68Z" transform="translate(-2.7 -10.31)"/><path class="cls-5" d="M74.75,15.25a.38.38,0,0,0-.38.38v2.46a.39.39,0,0,0,.38.39.4.4,0,0,0,.39-.39V15.63A.39.39,0,0,0,74.75,15.25Z" transform="translate(-2.7 -10.31)"/><path class="cls-5" d="M76,16.5H73.55a.39.39,0,1,0,0,.77H76a.39.39,0,0,0,0-.77Z" transform="translate(-2.7 -10.31)"/><path class="cls-5" d="M14.45,68.55a.38.38,0,0,0-.38.39V71.4a.38.38,0,0,0,.38.38.39.39,0,0,0,.39-.38V68.94A.39.39,0,0,0,14.45,68.55Z" transform="translate(-2.7 -10.31)"/><path class="cls-5" d="M15.71,69.81H13.25a.38.38,0,0,0-.39.38.39.39,0,0,0,.39.39h2.46a.39.39,0,0,0,.38-.39A.38.38,0,0,0,15.71,69.81Z" transform="translate(-2.7 -10.31)"/><path class="cls-5" d="M10.58,10.31a.38.38,0,0,0-.38.38v2.47a.39.39,0,0,0,.77,0V10.69A.38.38,0,0,0,10.58,10.31Z" transform="translate(-2.7 -10.31)"/><path class="cls-5" d="M11.84,11.57H9.38A.39.39,0,0,0,9,12a.4.4,0,0,0,.39.39h2.46a.4.4,0,0,0,.39-.39A.39.39,0,0,0,11.84,11.57Z" transform="translate(-2.7 -10.31)"/><path class="cls-5" d="M77.17,40.44a.38.38,0,0,0-.39.38v2.47a.39.39,0,0,0,.77,0V40.82A.38.38,0,0,0,77.17,40.44Z" transform="translate(-2.7 -10.31)"/><path class="cls-5" d="M78.42,41.7H76a.38.38,0,0,0-.38.38.39.39,0,0,0,.38.39h2.46a.39.39,0,0,0,.39-.39A.38.38,0,0,0,78.42,41.7Z" transform="translate(-2.7 -10.31)"/><path class="cls-5" d="M76.81,60.32a.39.39,0,0,0-.39.38v2.46a.39.39,0,0,0,.39.39.38.38,0,0,0,.38-.39V60.7A.38.38,0,0,0,76.81,60.32Z" transform="translate(-2.7 -10.31)"/><path class="cls-5" d="M78.06,61.57H75.6a.39.39,0,0,0-.38.39.38.38,0,0,0,.38.38h2.46a.38.38,0,0,0,.39-.38A.39.39,0,0,0,78.06,61.57Z" transform="translate(-2.7 -10.31)"/><path class="cls-5" d="M82.9,75.32H69.16a.39.39,0,1,0,0,.77H82.9a.39.39,0,1,0,0-.77Z" transform="translate(-2.7 -10.31)"/><path class="cls-5" d="M65.93,75.22H53.57a.39.39,0,1,0,0,.77H65.93a.39.39,0,0,0,0-.77Z" transform="translate(-2.7 -10.31)"/><path class="cls-5" d="M37.77,75.27H14A.39.39,0,0,0,14,76h23.8a.39.39,0,0,0,0-.77Z" transform="translate(-2.7 -10.31)"/><path class="cls-5" d="M52.54,10.75H28.64a.39.39,0,0,0-.39.38v23.8a.39.39,0,0,0,.39.38.38.38,0,0,0,.38-.38V11.52H52.15V43.93h-19a.39.39,0,1,0,0,.77H52.54a.38.38,0,0,0,.38-.38V11.13A.38.38,0,0,0,52.54,10.75Z" transform="translate(-2.7 -10.31)"/><path class="cls-5" d="M35.38,22.59A4.57,4.57,0,1,1,40,18a4.56,4.56,0,0,1-4.57,4.56Zm0-9.89A5.33,5.33,0,1,0,40.72,18,5.33,5.33,0,0,0,35.38,12.7Z" transform="translate(-2.7 -10.31)"/><path class="cls-5" d="M35.79,17.86V13.23a.38.38,0,0,0-.38-.38.39.39,0,0,0-.39.38V18a.4.4,0,0,0,.1.26L38.42,22a.36.36,0,0,0,.29.13A.38.38,0,0,0,39,22a.39.39,0,0,0,0-.55Z" transform="translate(-2.7 -10.31)"/><path class="cls-5" d="M32.88,13.74a.38.38,0,0,0-.63.44l2.84,4.05a.42.42,0,0,0,.32.16.36.36,0,0,0,.22-.07.38.38,0,0,0,.09-.54Z" transform="translate(-2.7 -10.31)"/><path class="cls-5" d="M44.49,13.57H41.82a.38.38,0,0,0-.38.38.39.39,0,0,0,.38.39h2.67a.39.39,0,0,0,.38-.39A.38.38,0,0,0,44.49,13.57Z" transform="translate(-2.7 -10.31)"/><path class="cls-5" d="M51,13.57H46.23a.38.38,0,0,0-.38.38.39.39,0,0,0,.38.39H51a.39.39,0,0,0,.38-.39A.38.38,0,0,0,51,13.57Z" transform="translate(-2.7 -10.31)"/><path class="cls-5" d="M48,15.62H41.82a.39.39,0,0,0,0,.77H48a.39.39,0,1,0,0-.77Z" transform="translate(-2.7 -10.31)"/><path class="cls-5" d="M42.56,20.13H41.9v-.66h.66v.66ZM43,18.7H41.51a.38.38,0,0,0-.38.38v1.44a.38.38,0,0,0,.38.38H43a.38.38,0,0,0,.38-.38V19.08A.38.38,0,0,0,43,18.7Z" transform="translate(-2.7 -10.31)"/><path class="cls-5" d="M50.54,19.41H44.18a.4.4,0,0,0-.39.39.39.39,0,0,0,.39.38h6.36a.38.38,0,0,0,.38-.38A.39.39,0,0,0,50.54,19.41Z" transform="translate(-2.7 -10.31)"/><path class="cls-5" d="M42.56,23.31H41.9v-.66h.66v.66ZM43,21.88H41.51a.38.38,0,0,0-.38.38V23.7a.38.38,0,0,0,.38.38H43a.38.38,0,0,0,.38-.38V22.26A.38.38,0,0,0,43,21.88Z" transform="translate(-2.7 -10.31)"/><path class="cls-5" d="M50.54,22.59H44.18a.4.4,0,0,0-.39.39.39.39,0,0,0,.39.38h6.36a.38.38,0,0,0,.38-.38A.39.39,0,0,0,50.54,22.59Z" transform="translate(-2.7 -10.31)"/><path class="cls-5" d="M42.56,26.49H41.9v-.66h.66v.66ZM43,25.06H41.51a.38.38,0,0,0-.38.38v1.44a.38.38,0,0,0,.38.38H43a.38.38,0,0,0,.38-.38V25.44A.38.38,0,0,0,43,25.06Z" transform="translate(-2.7 -10.31)"/><path class="cls-5" d="M50.54,25.77H44.18a.4.4,0,0,0-.39.39.39.39,0,0,0,.39.38h6.36a.38.38,0,0,0,.38-.38A.39.39,0,0,0,50.54,25.77Z" transform="translate(-2.7 -10.31)"/><path class="cls-5" d="M38.92,37.57H37.18V34h1.74v3.59Zm.39-4.36H36.79a.38.38,0,0,0-.38.39V38a.38.38,0,0,0,.38.38h2.52a.38.38,0,0,0,.38-.38V33.6A.38.38,0,0,0,39.31,33.21Z" transform="translate(-2.7 -10.31)"/><path class="cls-5" d="M41.82,31H39.31a.38.38,0,0,0-.39.38V33.8a.39.39,0,1,0,.77,0v-2h1.75v5.79H39.31a.39.39,0,1,0,0,.77h2.51A.38.38,0,0,0,42.2,38V31.39A.38.38,0,0,0,41.82,31Z" transform="translate(-2.7 -10.31)"/><path class="cls-5" d="M44.33,28.6H41.82a.38.38,0,0,0-.38.38v2.41a.38.38,0,1,0,.76,0v-2H44v8.21H41.82a.39.39,0,0,0,0,.77h2.51a.38.38,0,0,0,.39-.38V29A.38.38,0,0,0,44.33,28.6Z" transform="translate(-2.7 -10.31)"/><path class="cls-5" d="M38.9,39.47H34.43a.39.39,0,0,0,0,.77H38.9a.39.39,0,0,0,0-.77Z" transform="translate(-2.7 -10.31)"/><path class="cls-5" d="M51,39.47H41.82a.39.39,0,0,0,0,.77H51a.39.39,0,1,0,0-.77Z" transform="translate(-2.7 -10.31)"/><path class="cls-5" d="M44.18,41.62H34.43a.39.39,0,0,0,0,.77h9.75a.39.39,0,0,0,0-.77Z" transform="translate(-2.7 -10.31)"/><path class="cls-5" d="M51,41.62H46.38a.39.39,0,0,0,0,.77H51a.39.39,0,1,0,0-.77Z" transform="translate(-2.7 -10.31)"/><path class="cls-5" d="M68.08,23.94H52.54a.38.38,0,1,0,0,.76H67.7V39.93H52.54a.39.39,0,1,0,0,.77H68.08a.39.39,0,0,0,.39-.38v-16A.39.39,0,0,0,68.08,23.94Z" transform="translate(-2.7 -10.31)"/><path class="cls-5" d="M63.36,32.13A2.64,2.64,0,1,1,66,29.49a2.64,2.64,0,0,1-2.64,2.64Zm0-6.05a3.41,3.41,0,1,0,3.41,3.41A3.41,3.41,0,0,0,63.36,26.08Z" transform="translate(-2.7 -10.31)"/><path class="cls-5" d="M56.59,27H52.54a.39.39,0,0,0-.39.38.4.4,0,0,0,.39.39h4.05a.4.4,0,0,0,.39-.39A.39.39,0,0,0,56.59,27Z" transform="translate(-2.7 -10.31)"/><path class="cls-5" d="M57.77,29.85H52.54a.39.39,0,1,0,0,.77h5.23a.39.39,0,1,0,0-.77Z" transform="translate(-2.7 -10.31)"/><path class="cls-5" d="M59.52,32.74h-7a.39.39,0,1,0,0,.77h7a.39.39,0,0,0,0-.77Z" transform="translate(-2.7 -10.31)"/><path class="cls-5" d="M66.13,35.11h-.68a.39.39,0,1,0,0,.77h.3v2.56H54.41V35.88h8.43a.39.39,0,0,0,0-.77H54a.38.38,0,0,0-.39.38v3.34a.38.38,0,0,0,.39.38h12.1a.39.39,0,0,0,.39-.38V35.49A.39.39,0,0,0,66.13,35.11Z" transform="translate(-2.7 -10.31)"/><path class="cls-5" d="M69.9,20.61H53a.39.39,0,0,0-.38.39.38.38,0,0,0,.38.38H69.9a2.39,2.39,0,0,1,2.39,2.39V50a.38.38,0,0,0,.38.39.39.39,0,0,0,.39-.39V23.77A3.17,3.17,0,0,0,69.9,20.61Z" transform="translate(-2.7 -10.31)"/><path class="cls-5" d="M28.41,20.61H19a3.16,3.16,0,0,0-3.15,3.16V35.11a.38.38,0,0,0,.38.38.39.39,0,0,0,.39-.38V23.77A2.39,2.39,0,0,1,19,21.38h9.44A.38.38,0,0,0,28.8,21,.39.39,0,0,0,28.41,20.61Z" transform="translate(-2.7 -10.31)"/><path class="cls-5" d="M68.1,59.2H19a2.39,2.39,0,0,1-2.38-2.38V50a.4.4,0,0,0-.39-.39.39.39,0,0,0-.38.39v6.83A3.15,3.15,0,0,0,19,60H68.1a.38.38,0,0,0,.38-.38A.39.39,0,0,0,68.1,59.2Z" transform="translate(-2.7 -10.31)"/><path class="cls-5" d="M72.48,54.39H16.32a.39.39,0,1,0,0,.77H72.48a.38.38,0,0,0,.38-.38A.39.39,0,0,0,72.48,54.39Z" transform="translate(-2.7 -10.31)"/><path class="cls-5" d="M55.63,75.22H33.24V73.8a1.68,1.68,0,0,1,1.68-1.67H54a1.67,1.67,0,0,1,1.67,1.67v1.42ZM54,71.36h-19a2.45,2.45,0,0,0-2.45,2.44v1.8a.39.39,0,0,0,.39.39H56a.38.38,0,0,0,.39-.39V73.8A2.44,2.44,0,0,0,54,71.36Z" transform="translate(-2.7 -10.31)"/><path class="cls-5" d="M37.78,59.49a.4.4,0,0,0-.39.39V71.74a.39.39,0,0,0,.39.39.38.38,0,0,0,.38-.39V59.88A.39.39,0,0,0,37.78,59.49Z" transform="translate(-2.7 -10.31)"/><path class="cls-5" d="M51.09,59.49a.39.39,0,0,0-.38.39V71.74a.39.39,0,1,0,.77,0V59.88A.39.39,0,0,0,51.09,59.49Z" transform="translate(-2.7 -10.31)"/><path class="cls-5" d="M39.56,61.16a.39.39,0,0,0-.38.39v2.36a.39.39,0,0,0,.77,0V61.55A.39.39,0,0,0,39.56,61.16Z" transform="translate(-2.7 -10.31)"/><path class="cls-5" d="M43.41,69.58H40.2V66.37a.38.38,0,0,0-.38-.38.39.39,0,0,0-.39.38V70a.4.4,0,0,0,.39.39h3.59a.39.39,0,0,0,.38-.39A.38.38,0,0,0,43.41,69.58Z" transform="translate(-2.7 -10.31)"/><path class="cls-5" d="M44.64,48.17a.85.85,0,1,1,.85-.85.85.85,0,0,1-.85.85Zm0-2.46a1.62,1.62,0,0,0,0,3.23,1.62,1.62,0,1,0,0-3.23Z" transform="translate(-2.7 -10.31)"/><path class="cls-5" d="M54.67,46.19H48.26a.39.39,0,0,0-.39.38.4.4,0,0,0,.39.39h6.41a.39.39,0,0,0,.38-.39A.38.38,0,0,0,54.67,46.19Z" transform="translate(-2.7 -10.31)"/><path class="cls-5" d="M62,47.68H48.26a.38.38,0,1,0,0,.76H62a.38.38,0,1,0,0-.76Z" transform="translate(-2.7 -10.31)"/><path class="cls-5" d="M44.64,52.48a.85.85,0,1,1,.85-.85.85.85,0,0,1-.85.85Zm0-2.46a1.62,1.62,0,0,0,0,3.23,1.62,1.62,0,1,0,0-3.23Z" transform="translate(-2.7 -10.31)"/><path class="cls-5" d="M54.67,50.5H48.26a.39.39,0,0,0-.39.38.4.4,0,0,0,.39.39h6.41a.39.39,0,0,0,.38-.39A.38.38,0,0,0,54.67,50.5Z" transform="translate(-2.7 -10.31)"/><path class="cls-5" d="M62,52H48.26a.4.4,0,0,0-.39.39.39.39,0,0,0,.39.38H62a.39.39,0,0,0,.39-.38A.4.4,0,0,0,62,52Z" transform="translate(-2.7 -10.31)"/><path class="cls-5" d="M32.07,49.4H3.49V35.81H32.07V49.4ZM32.47,35H3.1a.41.41,0,0,0-.4.42V49.82a.41.41,0,0,0,.4.43H32.47a.41.41,0,0,0,.39-.43V35.38A.4.4,0,0,0,32.47,35Z" transform="translate(-2.7 -10.31)"/><path class="cls-5" d="M11.67,44.05H5.29V37.86h6.38v6.19Zm.39-7H4.89a.41.41,0,0,0-.4.43v7a.42.42,0,0,0,.4.43h7.17a.42.42,0,0,0,.4-.43v-7A.41.41,0,0,0,12.06,37Z" transform="translate(-2.7 -10.31)"/><path class="cls-5" d="M17.76,37.86h-3a.43.43,0,0,0,0,.85h3a.43.43,0,0,0,0-.85Z" transform="translate(-2.7 -10.31)"/><path class="cls-5" d="M29.94,37.86H20a.43.43,0,0,0,0,.85h10a.43.43,0,0,0,0-.85Z" transform="translate(-2.7 -10.31)"/><path class="cls-5" d="M25.83,40.53H14.75a.43.43,0,0,0,0,.85H25.83a.43.43,0,0,0,0-.85Z" transform="translate(-2.7 -10.31)"/><path class="cls-5" d="M23.19,42.92H14.75a.43.43,0,0,0,0,.85h8.44a.43.43,0,0,0,0-.85Z" transform="translate(-2.7 -10.31)"/><path class="cls-5" d="M20.78,59.2H69.9a2.39,2.39,0,0,0,2.39-2.38v-8.6a.38.38,0,0,1,.38-.39.39.39,0,0,1,.39.39v8.6A3.16,3.16,0,0,1,69.9,60H20.78a.38.38,0,0,1-.39-.38A.39.39,0,0,1,20.78,59.2Z" transform="translate(-2.7 -10.31)"/></svg>