<svg id="Layer_1" data-name="Layer 1" xmlns="http://www.w3.org/2000/svg" viewBox="0 0 85.31 69.52"><defs><style>.cls-1{fill:#25282b;stroke:#000;stroke-miterlimit:22.93;stroke-width:0.56px;}.cls-1,.cls-2{fill-rule:evenodd;}</style></defs><title>COMMUNITY DEVELOPMENT</title><path class="cls-1" d="M53.53,71.57a4.64,4.64,0,0,0,2.16-4.07H51.37A4.62,4.62,0,0,0,53.53,71.57Z" transform="translate(-0.55 -8.3)"/><polygon class="cls-1" points="74.84 3.69 73.33 0.63 71.83 3.69 68.46 4.17 70.9 6.55 70.32 9.9 73.33 8.32 76.35 9.9 75.77 6.55 78.21 4.17 74.84 3.69"/><path class="cls-1" d="M13,19.09a6.28,6.28,0,1,0,6.28,6.28A6.28,6.28,0,0,0,13,19.09Z" transform="translate(-0.55 -8.3)"/><path class="cls-1" d="M83.25,32.87H70.06a2.25,2.25,0,0,0-2.25,2.25v7a2.25,2.25,0,0,0,2.25,2.25h4.73l3.11,3.1,2.26-3.1h3.09a2.25,2.25,0,0,0,2.25-2.25v-7A2.25,2.25,0,0,0,83.25,32.87Z" transform="translate(-0.55 -8.3)"/><path class="cls-2" d="M71.66,37.37a1.27,1.27,0,1,0,1.27,1.27A1.26,1.26,0,0,0,71.66,37.37Z" transform="translate(-0.55 -8.3)"/><path class="cls-2" d="M76.66,37.37a1.27,1.27,0,1,0,1.26,1.27A1.27,1.27,0,0,0,76.66,37.37Z" transform="translate(-0.55 -8.3)"/><path class="cls-2" d="M81.65,37.37a1.27,1.27,0,1,0,1.26,1.27A1.27,1.27,0,0,0,81.65,37.37Z" transform="translate(-0.55 -8.3)"/><path class="cls-2" d="M71.66,37.37a1.27,1.27,0,1,0,1.27,1.27A1.26,1.26,0,0,0,71.66,37.37Z" transform="translate(-0.55 -8.3)"/><path class="cls-2" d="M76.66,37.37a1.27,1.27,0,1,0,1.26,1.27A1.27,1.27,0,0,0,76.66,37.37Z" transform="translate(-0.55 -8.3)"/><path class="cls-2" d="M81.65,37.37a1.27,1.27,0,1,0,1.26,1.27A1.27,1.27,0,0,0,81.65,37.37Z" transform="translate(-0.55 -8.3)"/><path class="cls-2" d="M34,21a.35.35,0,0,1-.35-.35V18.21a.36.36,0,0,1,.71,0v2.43A.36.36,0,0,1,34,21Z" transform="translate(-0.55 -8.3)"/><path class="cls-2" d="M35.2,19.77H32.77a.34.34,0,0,1-.35-.35.35.35,0,0,1,.35-.35H35.2a.35.35,0,0,1,.35.35A.35.35,0,0,1,35.2,19.77Z" transform="translate(-0.55 -8.3)"/><path class="cls-2" d="M70.39,63.23a.35.35,0,0,1-.35-.35V60.45a.35.35,0,0,1,.35-.35.35.35,0,0,1,.35.35v2.43A.35.35,0,0,1,70.39,63.23Z" transform="translate(-0.55 -8.3)"/><path class="cls-2" d="M71.61,62H69.18a.36.36,0,0,1,0-.71h2.43a.36.36,0,0,1,0,.71Z" transform="translate(-0.55 -8.3)"/><path class="cls-2" d="M62.61,45.46a.35.35,0,0,1-.35-.35V42.68a.36.36,0,0,1,.71,0v2.43A.36.36,0,0,1,62.61,45.46Z" transform="translate(-0.55 -8.3)"/><path class="cls-2" d="M63.83,44.24H61.4a.35.35,0,0,1-.35-.35.35.35,0,0,1,.35-.35h2.43a.35.35,0,0,1,.35.35A.35.35,0,0,1,63.83,44.24Z" transform="translate(-0.55 -8.3)"/><path class="cls-2" d="M22.59,75.22a.35.35,0,0,1-.36-.35V72.44a.36.36,0,0,1,.71,0v2.43A.35.35,0,0,1,22.59,75.22Z" transform="translate(-0.55 -8.3)"/><path class="cls-2" d="M23.8,74H21.37a.35.35,0,0,1-.35-.35.35.35,0,0,1,.35-.35H23.8a.34.34,0,0,1,.35.35A.35.35,0,0,1,23.8,74Z" transform="translate(-0.55 -8.3)"/><path class="cls-2" d="M2.11,60.64a.35.35,0,0,1-.35-.35V57.86a.35.35,0,0,1,.35-.35.34.34,0,0,1,.35.35v2.43A.35.35,0,0,1,2.11,60.64Z" transform="translate(-0.55 -8.3)"/><path class="cls-2" d="M3.33,59.42H.9a.34.34,0,0,1-.35-.35.35.35,0,0,1,.35-.35H3.33a.35.35,0,0,1,.35.35A.35.35,0,0,1,3.33,59.42Z" transform="translate(-0.55 -8.3)"/><path class="cls-2" d="M77.52,28.82a.35.35,0,0,1-.35-.35V26a.36.36,0,0,1,.71,0v2.43A.36.36,0,0,1,77.52,28.82Z" transform="translate(-0.55 -8.3)"/><path class="cls-2" d="M78.74,27.61H76.31a.36.36,0,0,1,0-.71h2.43a.36.36,0,0,1,0,.71Z" transform="translate(-0.55 -8.3)"/><path class="cls-2" d="M53.38,12.51a.35.35,0,0,1-.35-.35V9.73a.35.35,0,0,1,.35-.36.36.36,0,0,1,.35.36v2.43A.35.35,0,0,1,53.38,12.51Z" transform="translate(-0.55 -8.3)"/><path class="cls-2" d="M54.59,11.29H52.16a.35.35,0,0,1-.35-.35.35.35,0,0,1,.35-.35h2.43a.35.35,0,0,1,.35.35A.34.34,0,0,1,54.59,11.29Z" transform="translate(-0.55 -8.3)"/><path class="cls-2" d="M46.48,32c-5,0-8.59,4.2-8.59,10,0,6,3.85,10.84,8.59,10.84S55.06,48,55.06,42c0-5.77-3.61-10-8.58-10Zm0,21.51a8.41,8.41,0,0,1-6.59-3.41A13,13,0,0,1,37.19,42a11.46,11.46,0,0,1,2.71-7.71,8.79,8.79,0,0,1,13.16,0A11.51,11.51,0,0,1,55.77,42a13,13,0,0,1-2.7,8.13A8.42,8.42,0,0,1,46.48,53.51Z" transform="translate(-0.55 -8.3)"/><path class="cls-2" d="M37.85,39.89a.35.35,0,0,1-.26-.12.34.34,0,0,1,0-.49c2.46-2.27,5.29-1.69,8-1.13,3,.61,5.78,1.18,8.32-1.53a.35.35,0,1,1,.51.48A6.65,6.65,0,0,1,50,39.33a16.19,16.19,0,0,1-4.53-.49c-2.68-.55-5.21-1.07-7.41,1A.36.36,0,0,1,37.85,39.89Z" transform="translate(-0.55 -8.3)"/><path class="cls-2" d="M46.46,45.89a.35.35,0,0,1-.35-.35V43.92a.35.35,0,0,1,.35-.35.35.35,0,0,1,.35.35v1.62A.35.35,0,0,1,46.46,45.89Z" transform="translate(-0.55 -8.3)"/><path class="cls-2" d="M41.42,41.22a.38.38,0,0,0-.38.38.38.38,0,1,0,.76,0,.38.38,0,0,0-.38-.38Zm0,1.47A1.09,1.09,0,1,1,42.5,41.6,1.09,1.09,0,0,1,41.42,42.69Z" transform="translate(-0.55 -8.3)"/><path class="cls-2" d="M51.54,41.22a.38.38,0,0,0-.38.38.38.38,0,1,0,.76,0,.38.38,0,0,0-.38-.38Zm0,1.47a1.09,1.09,0,1,1,1.08-1.09A1.08,1.08,0,0,1,51.54,42.69Z" transform="translate(-0.55 -8.3)"/><path class="cls-2" d="M46.48,49.86a3.31,3.31,0,0,1-2.37-1,.34.34,0,0,1,0-.49.35.35,0,0,1,.5,0,2.65,2.65,0,0,0,3.74,0,.35.35,0,0,1,.5,0,.36.36,0,0,1,0,.49A3.32,3.32,0,0,1,46.48,49.86Z" transform="translate(-0.55 -8.3)"/><path class="cls-2" d="M29.07,76.85a.35.35,0,0,1-.35-.36V63.94a4.87,4.87,0,0,1,3.63-4.71l7-1.85a.35.35,0,0,1,.18.68l-7,1.85a4.17,4.17,0,0,0-3.11,4V76.49A.36.36,0,0,1,29.07,76.85Z" transform="translate(-0.55 -8.3)"/><path class="cls-2" d="M41.49,55.71a.4.4,0,0,1-.15,0,.35.35,0,0,1-.16-.47,4.88,4.88,0,0,0,0-3.68.35.35,0,0,1,.23-.44.36.36,0,0,1,.44.24,5.5,5.5,0,0,1,0,4.18A.35.35,0,0,1,41.49,55.71Z" transform="translate(-0.55 -8.3)"/><path class="cls-2" d="M51.38,55.71a.35.35,0,0,1-.32-.2,5.5,5.5,0,0,1,0-4.18.35.35,0,0,1,.68.2,4.79,4.79,0,0,0,0,3.68.36.36,0,0,1-.17.47A.4.4,0,0,1,51.38,55.71Z" transform="translate(-0.55 -8.3)"/><path class="cls-2" d="M63.86,76.9a.35.35,0,0,1-.35-.35V64a4.17,4.17,0,0,0-3.11-4l-7-1.85a.35.35,0,0,1-.25-.43.36.36,0,0,1,.43-.25l7,1.85A4.87,4.87,0,0,1,64.21,64V76.55A.35.35,0,0,1,63.86,76.9Z" transform="translate(-0.55 -8.3)"/><path class="cls-2" d="M40.07,57.72l1.7,4.42,4-5.2a13.13,13.13,0,0,1-4.56-1.14l-1.16,1.92Zm7.11-.78,4,5.21L53,57.83l-1.21-2a13.18,13.18,0,0,1-4.57,1.14Zm4.13,6.26a.33.33,0,0,1-.27-.14l-4.55-5.87-4.55,5.87a.35.35,0,0,1-.33.13.37.37,0,0,1-.28-.22l-2-5.15a.34.34,0,0,1,0-.31l1.41-2.35a.35.35,0,0,1,.45-.13,11.82,11.82,0,0,0,10.5,0,.34.34,0,0,1,.45.14l1.46,2.45a.34.34,0,0,1,0,.31l-2,5a.34.34,0,0,1-.28.21Z" transform="translate(-0.55 -8.3)"/><path class="cls-2" d="M46.49,62.76a.35.35,0,0,1-.25-.1l-2.39-2.39a.34.34,0,0,1,0-.49.35.35,0,0,1,.5,0l2.14,2.14,2.14-2.14a.35.35,0,0,1,.5,0,.36.36,0,0,1,0,.49l-2.39,2.39A.35.35,0,0,1,46.49,62.76Z" transform="translate(-0.55 -8.3)"/><path class="cls-2" d="M46.49,77.82a.34.34,0,0,1-.29-.16L44.75,75.5a.37.37,0,0,1-.06-.21l.54-13.65a.35.35,0,0,1,.7,0L45.4,75.21l1.09,1.63,1.09-1.63-.53-13.55a.35.35,0,0,1,.33-.36.35.35,0,0,1,.37.34l.54,13.65a.37.37,0,0,1-.06.21l-1.45,2.16A.34.34,0,0,1,46.49,77.82Z" transform="translate(-0.55 -8.3)"/><path class="cls-2" d="M45.9,59.57l.59.58.58-.58L46.49,59l-.59.59ZM46.49,61a.35.35,0,0,1-.25-.1l-1.08-1.08a.36.36,0,0,1,0-.5l1.08-1.08a.36.36,0,0,1,.5,0l1.08,1.08a.36.36,0,0,1,0,.5L46.74,60.9A.35.35,0,0,1,46.49,61Z" transform="translate(-0.55 -8.3)"/><path class="cls-2" d="M51.74,67.85a4.15,4.15,0,0,0,1.79,3.3,4.17,4.17,0,0,0,1.78-3.3Zm1.79,4.07a.35.35,0,0,1-.18,0A4.89,4.89,0,0,1,51,67.52a.31.31,0,0,1,.09-.26.36.36,0,0,1,.26-.11h4.32a.36.36,0,0,1,.25.11.35.35,0,0,1,.1.26,4.92,4.92,0,0,1-2.34,4.35A.34.34,0,0,1,53.53,71.92Z" transform="translate(-0.55 -8.3)"/><path class="cls-2" d="M34.58,76.85a.35.35,0,0,1-.35-.36V70.77a.34.34,0,0,1,.35-.35.35.35,0,0,1,.35.35v5.72A.36.36,0,0,1,34.58,76.85Z" transform="translate(-0.55 -8.3)"/><path class="cls-2" d="M58.4,76.85a.36.36,0,0,1-.35-.36V70.77a.35.35,0,1,1,.7,0v5.72A.36.36,0,0,1,58.4,76.85Z" transform="translate(-0.55 -8.3)"/><path class="cls-2" d="M73.88,16.27a.42.42,0,0,1,.16,0l2.39,1.25L76,14.91a.36.36,0,0,1,.1-.31L78,12.72l-2.66-.39a.32.32,0,0,1-.27-.19L73.88,9.73l-1.19,2.41a.32.32,0,0,1-.26.19l-2.67.39,1.93,1.88a.36.36,0,0,1,.1.31l-.45,2.65,2.38-1.25a.47.47,0,0,1,.16,0Zm3,2.29a.47.47,0,0,1-.16,0L73.88,17,71,18.52a.35.35,0,0,1-.37,0,.35.35,0,0,1-.14-.34L71.07,15l-2.31-2.24a.37.37,0,0,1-.09-.36.35.35,0,0,1,.29-.24l3.18-.46,1.43-2.89a.35.35,0,0,1,.31-.2.37.37,0,0,1,.32.2l1.42,2.89,3.19.46a.35.35,0,0,1,.28.24.35.35,0,0,1-.09.36L76.7,15l.54,3.18a.35.35,0,0,1-.14.34A.31.31,0,0,1,76.89,18.56Z" transform="translate(-0.55 -8.3)"/><path class="cls-2" d="M70.06,33.22a1.91,1.91,0,0,0-1.9,1.9v7a1.9,1.9,0,0,0,1.9,1.9h4.73a.37.37,0,0,1,.25.1l2.82,2.82,2-2.78a.34.34,0,0,1,.28-.14h3.09a1.9,1.9,0,0,0,1.9-1.9v-7a1.91,1.91,0,0,0-1.9-1.9ZM77.9,47.83a.33.33,0,0,1-.25-.11l-3-3H70.06a2.6,2.6,0,0,1-2.6-2.6v-7a2.6,2.6,0,0,1,2.6-2.6H83.25a2.6,2.6,0,0,1,2.6,2.6v7a2.6,2.6,0,0,1-2.6,2.6H80.34l-2.16,3a.33.33,0,0,1-.26.14Z" transform="translate(-0.55 -8.3)"/><path class="cls-2" d="M71.66,37.73a.92.92,0,1,0,.92.91.91.91,0,0,0-.92-.91Zm0,2.53a1.62,1.62,0,1,1,1.62-1.62A1.62,1.62,0,0,1,71.66,40.26Z" transform="translate(-0.55 -8.3)"/><path class="cls-2" d="M76.66,37.73a.92.92,0,1,0,.91.91.92.92,0,0,0-.91-.91Zm0,2.53a1.62,1.62,0,1,1,1.61-1.62A1.62,1.62,0,0,1,76.66,40.26Z" transform="translate(-0.55 -8.3)"/><path class="cls-2" d="M81.65,37.73a.92.92,0,1,0,.91.91.92.92,0,0,0-.91-.91Zm0,2.53a1.62,1.62,0,1,1,1.61-1.62A1.62,1.62,0,0,1,81.65,40.26Z" transform="translate(-0.55 -8.3)"/><path class="cls-2" d="M3.45,45.24A1.55,1.55,0,1,0,5,46.79a1.55,1.55,0,0,0-1.55-1.55Zm0,3.8A2.25,2.25,0,1,1,5.7,46.79,2.26,2.26,0,0,1,3.45,49Z" transform="translate(-0.55 -8.3)"/><path class="cls-2" d="M6,53a.36.36,0,0,1-.35-.36V51.23a2.19,2.19,0,1,0-4.37,0v1.41A.35.35,0,0,1,.91,53a.36.36,0,0,1-.35-.36V51.23a2.89,2.89,0,1,1,5.77,0v1.41A.35.35,0,0,1,6,53Z" transform="translate(-0.55 -8.3)"/><path class="cls-2" d="M13,45.24a1.55,1.55,0,1,0,1.55,1.55A1.55,1.55,0,0,0,13,45.24ZM13,49a2.25,2.25,0,1,1,2.25-2.25A2.26,2.26,0,0,1,13,49Z" transform="translate(-0.55 -8.3)"/><path class="cls-2" d="M15.56,53a.36.36,0,0,1-.35-.36V51.23a2.19,2.19,0,1,0-4.37,0v1.41a.35.35,0,0,1-.35.36.36.36,0,0,1-.35-.36V51.23a2.89,2.89,0,1,1,5.77,0v1.41A.35.35,0,0,1,15.56,53Z" transform="translate(-0.55 -8.3)"/><path class="cls-2" d="M22.61,45.24a1.55,1.55,0,1,0,1.55,1.55,1.55,1.55,0,0,0-1.55-1.55Zm0,3.8a2.25,2.25,0,1,1,2.25-2.25A2.26,2.26,0,0,1,22.61,49Z" transform="translate(-0.55 -8.3)"/><path class="cls-2" d="M25.14,53a.36.36,0,0,1-.35-.36V51.23a2.19,2.19,0,1,0-4.37,0v1.41a.35.35,0,0,1-.35.36.36.36,0,0,1-.35-.36V51.23a2.89,2.89,0,0,1,5.78,0v1.41A.36.36,0,0,1,25.14,53Z" transform="translate(-0.55 -8.3)"/><path class="cls-2" d="M13,21.84a1.56,1.56,0,1,0,1.55,1.56A1.55,1.55,0,0,0,13,21.84Zm0,3.81a2.26,2.26,0,1,1,2.25-2.25A2.26,2.26,0,0,1,13,25.65Z" transform="translate(-0.55 -8.3)"/><path class="cls-2" d="M15.56,29.6a.35.35,0,0,1-.35-.35V27.83a2.19,2.19,0,0,0-4.37,0v1.42a.35.35,0,0,1-.35.35.35.35,0,0,1-.35-.35V27.83a2.89,2.89,0,0,1,5.77,0v1.42A.35.35,0,0,1,15.56,29.6Z" transform="translate(-0.55 -8.3)"/><path class="cls-2" d="M13,19.44A5.93,5.93,0,1,0,19,25.37,5.94,5.94,0,0,0,13,19.44ZM13,32a6.63,6.63,0,1,1,6.63-6.63A6.64,6.64,0,0,1,13,32Z" transform="translate(-0.55 -8.3)"/><path class="cls-2" d="M22.61,42.88a.35.35,0,0,1-.35-.35V38.65H3.8v3.88a.35.35,0,0,1-.35.35.35.35,0,0,1-.35-.35V38.3a.35.35,0,0,1,.35-.36H22.61a.36.36,0,0,1,.35.36v4.23A.35.35,0,0,1,22.61,42.88Z" transform="translate(-0.55 -8.3)"/><path class="cls-2" d="M13,42.92a.35.35,0,0,1-.35-.35V34.09a.36.36,0,0,1,.71,0v8.48A.36.36,0,0,1,13,42.92Z" transform="translate(-0.55 -8.3)"/><path class="cls-2" d="M77.9,49.4a.35.35,0,0,1-.35-.35v-.7A.35.35,0,0,1,77.9,48a.35.35,0,0,1,.35.35v.7A.34.34,0,0,1,77.9,49.4Z" transform="translate(-0.55 -8.3)"/><path class="cls-2" d="M77.9,52.32a.35.35,0,0,1-.35-.35V50.73a.35.35,0,0,1,.35-.35.34.34,0,0,1,.35.35V52A.35.35,0,0,1,77.9,52.32Z" transform="translate(-0.55 -8.3)"/><path class="cls-2" d="M77.9,54.72h-.67a.34.34,0,0,1-.35-.35.35.35,0,0,1,.35-.35h.32V53.7a.35.35,0,0,1,.35-.35.34.34,0,0,1,.35.35v.67A.34.34,0,0,1,77.9,54.72Z" transform="translate(-0.55 -8.3)"/><path class="cls-2" d="M60.05,54.72h-1.3a.35.35,0,0,1-.35-.35.35.35,0,0,1,.35-.35h1.3a.35.35,0,0,1,.35.35.35.35,0,0,1-.35.35Zm3.08,0h-1.3a.35.35,0,0,1-.35-.35.35.35,0,0,1,.35-.35h1.3a.35.35,0,0,1,.35.35.35.35,0,0,1-.35.35Zm3.08,0h-1.3a.35.35,0,0,1-.35-.35.35.35,0,0,1,.35-.35h1.3a.35.35,0,0,1,.35.35.35.35,0,0,1-.35.35Zm3.08,0H68a.35.35,0,0,1-.35-.35A.35.35,0,0,1,68,54h1.3a.35.35,0,0,1,.35.35.35.35,0,0,1-.35.35Zm3.07,0H71.07a.34.34,0,0,1-.35-.35.35.35,0,0,1,.35-.35h1.29a.36.36,0,0,1,.36.35.35.35,0,0,1-.36.35Zm3.08,0H74.15a.34.34,0,0,1-.35-.35.35.35,0,0,1,.35-.35h1.29a.36.36,0,0,1,.36.35A.35.35,0,0,1,75.44,54.72Z" transform="translate(-0.55 -8.3)"/><path class="cls-2" d="M56.81,54.72h-.65a.35.35,0,0,1-.35-.35.35.35,0,0,1,.35-.35h.65a.35.35,0,0,1,.35.35A.35.35,0,0,1,56.81,54.72Z" transform="translate(-0.55 -8.3)"/><path class="cls-2" d="M13,17.86a.36.36,0,0,1-.35-.36v-.64a.36.36,0,0,1,.71,0v.64A.36.36,0,0,1,13,17.86Z" transform="translate(-0.55 -8.3)"/><path class="cls-2" d="M13,12.72a.35.35,0,0,1-.35-.35V11.18a.36.36,0,0,1,.71,0v1.19a.35.35,0,0,1-.36.35Zm0,2.81a.35.35,0,0,1-.35-.35V14a.36.36,0,0,1,.71,0v1.19A.35.35,0,0,1,13,15.53Z" transform="translate(-0.55 -8.3)"/><path class="cls-2" d="M13,10a.35.35,0,0,1-.35-.35V8.94A.35.35,0,0,1,13,8.59h.68a.35.35,0,0,1,.35.35.35.35,0,0,1-.35.35h-.32v.33A.36.36,0,0,1,13,10Z" transform="translate(-0.55 -8.3)"/><path class="cls-2" d="M17.05,9.29H15.64a.35.35,0,0,1-.35-.35.35.35,0,0,1,.35-.35h1.41a.35.35,0,0,1,.35.35.35.35,0,0,1-.35.35Zm3.35,0H19a.35.35,0,0,1-.35-.35A.35.35,0,0,1,19,8.59H20.4a.35.35,0,0,1,.35.35.35.35,0,0,1-.35.35Zm3.35,0H22.34A.35.35,0,0,1,22,8.94a.35.35,0,0,1,.35-.35h1.41a.35.35,0,0,1,.35.35.35.35,0,0,1-.35.35Zm3.35,0H25.69a.35.35,0,0,1-.35-.35.35.35,0,0,1,.35-.35H27.1a.35.35,0,0,1,.35.35.35.35,0,0,1-.35.35Zm3.35,0H29a.35.35,0,0,1-.35-.35A.35.35,0,0,1,29,8.59h1.41a.35.35,0,0,1,.35.35.35.35,0,0,1-.35.35Zm3.35,0H32.39A.35.35,0,0,1,32,8.94a.35.35,0,0,1,.35-.35H33.8a.35.35,0,0,1,.35.35.35.35,0,0,1-.35.35Zm3.34,0h-1.4a.35.35,0,0,1-.35-.35.35.35,0,0,1,.35-.35h1.4a.36.36,0,0,1,.36.35.35.35,0,0,1-.36.35Zm3.35,0h-1.4a.34.34,0,0,1-.35-.35.35.35,0,0,1,.35-.35h1.4a.35.35,0,0,1,.35.35.34.34,0,0,1-.35.35Zm3.35,0h-1.4a.34.34,0,0,1-.35-.35.35.35,0,0,1,.35-.35h1.4a.35.35,0,0,1,.35.35A.34.34,0,0,1,43.84,9.29Z" transform="translate(-0.55 -8.3)"/><path class="cls-2" d="M46.46,10a.35.35,0,0,1-.35-.35V9.29h-.32a.34.34,0,0,1-.35-.35.35.35,0,0,1,.35-.35h.67a.35.35,0,0,1,.35.35v.68A.35.35,0,0,1,46.46,10Z" transform="translate(-0.55 -8.3)"/><path class="cls-2" d="M46.46,13.59a.35.35,0,0,1-.35-.35V11.72a.35.35,0,0,1,.35-.35.35.35,0,0,1,.35.35v1.52a.35.35,0,0,1-.35.35Zm0,3.62a.35.35,0,0,1-.35-.35V15.34a.35.35,0,0,1,.35-.35.35.35,0,0,1,.35.35v1.52a.35.35,0,0,1-.35.35Zm0,3.62a.35.35,0,0,1-.35-.35V19a.35.35,0,0,1,.35-.35.35.35,0,0,1,.35.35v1.52A.35.35,0,0,1,46.46,20.83Z" transform="translate(-0.55 -8.3)"/><path class="cls-2" d="M46.46,23.74a.35.35,0,0,1-.35-.35v-.65a.35.35,0,0,1,.35-.35.35.35,0,0,1,.35.35v.65A.34.34,0,0,1,46.46,23.74Z" transform="translate(-0.55 -8.3)"/><path class="cls-2" d="M78.4,68.31a.36.36,0,0,1,.36-.35h0a.35.35,0,0,1,.35.35h0a.35.35,0,0,1-.35.35h0a.35.35,0,0,1-.36-.35Zm1.78.91a.34.34,0,0,1,0-.5h0a.35.35,0,0,1,.49,0h0a.34.34,0,0,1,0,.49h0a.33.33,0,0,1-.25.12h0a.34.34,0,0,1-.24-.09Zm-3.42.07a.34.34,0,0,1,0-.49h0a.36.36,0,0,1,.5,0h0a.36.36,0,0,1,0,.5h0a.35.35,0,0,1-.25.1h0a.35.35,0,0,1-.25-.1Zm4.1,1.4a.35.35,0,0,1,.34-.37h0a.36.36,0,0,1,.36.34h0a.35.35,0,0,1-.34.37h0a.35.35,0,0,1-.35-.34ZM76,70.8a.35.35,0,0,1,.35-.35h0a.34.34,0,0,1,.35.34h0a.35.35,0,0,1-.34.36h0A.35.35,0,0,1,76,70.8Zm4.36,1.91a.35.35,0,0,1,0-.5h0a.36.36,0,0,1,.5,0h0a.36.36,0,0,1,0,.5h0a.36.36,0,0,1-.25.11h0a.34.34,0,0,1-.24-.09Zm-3.5.08a.36.36,0,0,1,0-.5h0a.36.36,0,0,1,.5,0h0a.36.36,0,0,1,0,.5h0a.38.38,0,0,1-.26.11h0a.34.34,0,0,1-.24-.1Zm1.66.44a.35.35,0,0,1,.34-.36h0a.36.36,0,0,1,.36.34h0a.35.35,0,0,1-.34.36h0A.35.35,0,0,1,78.47,73.23Z" transform="translate(-0.55 -8.3)"/><path class="cls-2" d="M12.67,63.48a.35.35,0,0,1,.35-.35h0a.35.35,0,0,1,.36.35h0a.36.36,0,0,1-.36.35h0a.35.35,0,0,1-.35-.35Zm1.78.9a.34.34,0,0,1,0-.49h0a.35.35,0,0,1,.5,0h0a.36.36,0,0,1,0,.5h0a.33.33,0,0,1-.26.11h0a.33.33,0,0,1-.23-.09ZM11,64.46a.35.35,0,0,1,0-.5h0a.34.34,0,0,1,.49,0h0a.35.35,0,0,1,0,.49h0a.36.36,0,0,1-.25.11h0a.39.39,0,0,1-.25-.1Zm4.1,1.39a.35.35,0,0,1,.34-.36h0a.35.35,0,0,1,.36.34h0a.35.35,0,0,1-.34.36h0a.35.35,0,0,1-.35-.34ZM10.22,66a.35.35,0,0,1,.34-.36h0a.36.36,0,0,1,.36.35h0a.36.36,0,0,1-.35.36h0a.35.35,0,0,1-.35-.35Zm4.35,1.9a.36.36,0,0,1,0-.5h0a.35.35,0,0,1,.49,0h0a.34.34,0,0,1,0,.49h0a.34.34,0,0,1-.26.12h0a.39.39,0,0,1-.24-.1ZM11.08,68a.34.34,0,0,1,0-.49h0a.34.34,0,0,1,.49,0h0a.35.35,0,0,1,0,.5h0a.35.35,0,0,1-.25.1h0a.33.33,0,0,1-.24-.1Zm1.65.45a.35.35,0,0,1,.35-.36h0a.35.35,0,0,1,.36.34h0a.36.36,0,0,1-.35.36h0A.36.36,0,0,1,12.73,68.4Z" transform="translate(-0.55 -8.3)"/><path class="cls-2" d="M29.39,30.09a.35.35,0,0,1,.35-.35h0a.35.35,0,0,1,.35.35h0a.35.35,0,0,1-.35.35h0a.35.35,0,0,1-.35-.35Zm1.78.9a.34.34,0,0,1,0-.49h0a.34.34,0,0,1,.5,0h0a.35.35,0,0,1,0,.49h0a.33.33,0,0,1-.26.11h0a.29.29,0,0,1-.23-.09Zm-3.42.08a.35.35,0,0,1,0-.5h0a.34.34,0,0,1,.49,0h0a.36.36,0,0,1,0,.5h0a.35.35,0,0,1-.25.1h0a.35.35,0,0,1-.25-.1Zm4.1,1.4a.35.35,0,0,1,.33-.37h0a.36.36,0,0,1,.37.34h0a.35.35,0,0,1-.34.36h0a.34.34,0,0,1-.35-.33Zm-4.91.11a.36.36,0,0,1,.34-.36h0a.36.36,0,0,1,.36.35h0a.36.36,0,0,1-.35.36h0a.35.35,0,0,1-.35-.35Zm4.35,1.9a.34.34,0,0,1,0-.49h0a.34.34,0,0,1,.49,0h0a.36.36,0,0,1,0,.5h0a.36.36,0,0,1-.26.11h0a.34.34,0,0,1-.24-.1Zm-3.49.09a.35.35,0,0,1,0-.5h0a.35.35,0,0,1,.49,0h0a.35.35,0,0,1,0,.5h0a.35.35,0,0,1-.25.1h0a.34.34,0,0,1-.24-.09Zm1.65.44a.35.35,0,0,1,.35-.36h0a.35.35,0,0,1,.36.34h0a.36.36,0,0,1-.35.36h0A.35.35,0,0,1,29.45,35Z" transform="translate(-0.55 -8.3)"/><path class="cls-2" d="M61,23.26a.36.36,0,0,1,.36-.35h0a.35.35,0,0,1,.35.35h0a.35.35,0,0,1-.35.35h0a.36.36,0,0,1-.36-.35Zm1.78.9a.33.33,0,0,1,0-.49h0a.33.33,0,0,1,.49,0h0a.35.35,0,0,1,0,.49h0a.34.34,0,0,1-.26.12h0a.3.3,0,0,1-.23-.1Zm-3.42.08a.35.35,0,0,1,0-.5h0a.36.36,0,0,1,.5,0h0a.37.37,0,0,1,0,.5h0a.35.35,0,0,1-.25.1h0a.35.35,0,0,1-.25-.1Zm4.1,1.4h0a.35.35,0,0,1,.34-.37h0a.36.36,0,0,1,.36.34h0a.34.34,0,0,1-.34.36h0a.34.34,0,0,1-.35-.33Zm-4.91.11a.35.35,0,0,1,.35-.35h0a.34.34,0,0,1,.35.34h0a.36.36,0,0,1-.35.36h0a.35.35,0,0,1-.35-.35Zm4.36,1.9a.34.34,0,0,1,0-.49h0a.35.35,0,0,1,.5,0h0a.36.36,0,0,1,0,.5h0a.36.36,0,0,1-.25.11h0a.31.31,0,0,1-.24-.1Zm-3.5.09a.35.35,0,0,1,0-.5h0a.36.36,0,0,1,.5,0h0a.36.36,0,0,1,0,.5h0a.38.38,0,0,1-.26.11h0a.37.37,0,0,1-.24-.1Zm1.66.44a.34.34,0,0,1,.34-.36h0a.35.35,0,0,1,.36.34h0a.35.35,0,0,1-.34.36h0A.35.35,0,0,1,61.1,28.18Z" transform="translate(-0.55 -8.3)"/></svg>