<svg id="Layer_1" data-name="Layer 1" xmlns="http://www.w3.org/2000/svg" viewBox="0 0 81.43 61.97"><defs><style>.cls-1,.cls-2{fill-rule:evenodd;}.cls-2{fill:#25282b;}</style></defs><title>LEAD GENERATION</title><path class="cls-1" d="M43.71,55.53h2.4V58H43.73l0-2.42Zm0-6.58V46.52h2.38l0,2.43Zm-8.45.51c.1-.09.22-.07.25,0a1.81,1.81,0,0,1-.36.72.15.15,0,0,1-.22-.08c0-.14.24-.62.33-.69ZM39.15,47A14.41,14.41,0,0,1,41,47c.2,0,.83-.09.68.23s-2.32-.33-4.16.59a9.31,9.31,0,0,0-1.4,1,.15.15,0,0,1-.18-.21,2.73,2.73,0,0,1,.49-.46,5.08,5.08,0,0,1,2.7-1.1ZM34,54.39a6,6,0,0,0,2.19,2.83,3.79,3.79,0,0,1,.57.4c.1,0,.66.28.92.37a9.67,9.67,0,0,0,3.58.34c1.74,0,3.49,0,5.23,0V55.16H40.05a3,3,0,0,1-2-.49,2.89,2.89,0,0,1,1.11-5.31c.42-.09,5.12,0,5.68,0h1.6V46.15c-1.63,0-3.26,0-4.87,0s-3-.11-4.36.52a6.13,6.13,0,0,0-3.41,3.9A6.2,6.2,0,0,0,34,54.39Z" transform="translate(-2.48 -12.21)"/><path class="cls-1" d="M58.53,56.26c.64.14.37,0,.72,0,0,.1,0,.18.16.24l.29.1a.83.83,0,0,1-1.65,0l.1,0,.08,0a.43.43,0,0,0,.28-.25l0,0Zm-1-1.6c-.1,0,.1-.06-.14-.12-.1.29.09.35.14.61.14,0,0,0,.14,0,.43.75,1,1.64,1.94.7a2.52,2.52,0,0,0,.46-.69c.1,0,0,0,.15,0,0-.15.36-.61,0-.64l0,.15a.68.68,0,0,0-.19-.4,1.09,1.09,0,0,1-.22-.38c-.17-.48.09-.23-.68,0a3,3,0,0,1-1.12,0c-.5,0-.44.35-.46.76Zm1.86-2a.71.71,0,0,0-.38,0c-.24.08-.09.05-.33,0s-.36.08-.62.19-.32.2-.51.6a1.86,1.86,0,0,0-.11,1c-.18.15-.26.11-.14.6.17.1,0,.21.23.3s0,0,.28.32a2.05,2.05,0,0,0,.49.52h0l.07.07c-.08.45-1,.25-1.34.53a5.76,5.76,0,0,0-.48,1.34,13.48,13.48,0,0,0,4.36.06l.24-.08a5,5,0,0,0-.49-1.33,2.18,2.18,0,0,0-.71-.2c-.27,0-.56,0-.6-.32l.4-.39a1.73,1.73,0,0,0,.17-.21c0-.06.13-.24.15-.25s.13,0,.23-.15a1.12,1.12,0,0,1,0-.13,1.09,1.09,0,0,0,.08-.15c.17-.35,0-.45-.17-.54a2,2,0,0,0-.06-1.09c-.09-.07-.11-.12-.21-.21s-.08-.12,0-.16l-.18,0c0-.07.09-.1.13-.16l-.25,0-.1-.13v0l0,.08Z" transform="translate(-2.48 -12.21)"/><path class="cls-1" d="M58.06,49.35c.25-.13.29,0,.44-.31.15,0,.2.05.37.05s.21-.06.39-.06c.08.33.28.25.43.32.07,1-1.7,1-1.63,0Zm-.67-2.06c-.11.32.09.35.14.61h0l.1,0c.07,0,0-.09.13.18a.47.47,0,0,0,0,.1c.43.73,1.11,1.19,1.83.35a2.81,2.81,0,0,0,.27-.36c.21-.37.07-.3.29-.23,0-.19.34-.54.07-.64-.09.06,0,0-.09.15-.05-.43-.34-.31-.47-1-.27,0-.5.4-1.37.3s-.78-.05-.84.73c-.05-.14,0-.09-.13-.14Zm-.14,0a.92.92,0,0,0,.14.55c.15.36.14,0,.33.35a2.09,2.09,0,0,0,.3.4l.36.33c0,.31-.31.27-.58.34s-.6.07-.74.2a5.33,5.33,0,0,0-.49,1.33,9.61,9.61,0,0,0,2.27.22,17,17,0,0,0,2.33-.19,5,5,0,0,0-.48-1.36c-.31-.28-1.28-.07-1.32-.54l.12-.1.11-.11a1.31,1.31,0,0,0,.23-.24,1.54,1.54,0,0,0,.19-.28c.15-.26.06-.08.27-.2,0,0,.32-.49.18-.73l-.19-.15a2.32,2.32,0,0,0,0-.91c-.19-.5-.48-.39-.3-.56-.12,0-.12,0-.18-.06a.55.55,0,0,0,.14-.13c-.15,0-.13,0-.25.07s0-.08,0-.13-.07,0-.08,0c0,.18,0,.05,0,.1a1.48,1.48,0,0,0-1.56.14,1.56,1.56,0,0,0-.52,1.49C57.38,47.19,57.29,47.23,57.25,47.31Z" transform="translate(-2.48 -12.21)"/><path class="cls-1" d="M51.44,53c.35-.11.29,0,.44-.33a2.61,2.61,0,0,0,.37.08,1.68,1.68,0,0,0,.38-.08c.09.26.16.3.44.32a.79.79,0,0,1-.82.78c-.37,0-.91-.36-.81-.77ZM52,50.34A2.19,2.19,0,0,0,53.1,50c.16.5,0,.27.35.74.06.09.08.16.12.23s0-.15.15,0,.06.18,0,.28c-.17.45-.2.29-.3.27-.12.38-.69,1.12-1.19,1.12a1.16,1.16,0,0,1-.73-.41,2.92,2.92,0,0,1-.46-.69c-.17,0,0,0-.14,0-.06-.26-.28-.39-.14-.62.13,0,0,0,.08,0s0,.08,0,0v0c.05-1.06.23-.69,1.13-.69ZM51.92,49a1.53,1.53,0,0,0-.8.49s-.12.22-.17.23c0,.17-.11.31-.14.5a5.23,5.23,0,0,0,0,.56c-.29.24-.24.33-.06.67s.09.12.28.28a.91.91,0,0,1,.08.13,2.51,2.51,0,0,0,.65.71c0,.29-.2.27-.46.32-.81.16-.84.07-1,.55l-.2.58a1.23,1.23,0,0,0-.1.46l.81.12c.35,0,.61.05,1,.06a12,12,0,0,0,2.8-.2,4.61,4.61,0,0,0-.49-1.34c-.24-.21-1.74-.2-1.21-.64a2.23,2.23,0,0,0,.47-.5s.12-.22.14-.24.15,0,.25-.16a1.21,1.21,0,0,1,0-.14.42.42,0,0,0,.07-.12c.14-.33,0-.45-.18-.54a1.91,1.91,0,0,0,0-.92,1,1,0,0,0-.31-.44c-.06-.08,0-.06,0-.11h0c-.11,0-.1,0-.17-.05l.14-.15-.23.08-.1-.23-.07.17C52.42,49,52.61,48.91,51.92,49Z" transform="translate(-2.48 -12.21)"/><path class="cls-2" d="M48.16,47.61l-1.29.18c-.15,0-.1,0-.14.09a16.63,16.63,0,0,0,2.11.31v-.6l.74-.11.56-.07c.21,0,.09,0,.14-.12a7.86,7.86,0,0,0-1-.14c-.33,0-.73-.13-1.07-.14Z" transform="translate(-2.48 -12.21)"/><path class="cls-2" d="M48.16,56.59a7.74,7.74,0,0,0-1.43.26s0,.07.19.09l.3,0,1.62.21v-.59a13.23,13.23,0,0,0,1.43-.24c0-.06,0-.1-.16-.11l-.3,0-.55-.07a10.67,10.67,0,0,0-1.1-.14Z" transform="translate(-2.48 -12.21)"/><path class="cls-1" d="M65.14,59.66c.65.14.38,0,.72,0,0,.1,0,.18.17.25l.29.1a.83.83,0,0,1-1.65,0l.1,0,.08,0a.5.5,0,0,0,.28-.26s0,0,0,0Zm-1-1.6c-.1-.05.09-.06-.15-.13-.09.29.09.36.15.61.14,0,0,0,.14,0,.42.75,1,1.64,1.94.69a2.67,2.67,0,0,0,.45-.68c.1,0,0,0,.16.05,0-.16.35-.62,0-.65l-.05.16a.6.6,0,0,0-.2-.4,1.2,1.2,0,0,1-.21-.39c-.17-.48.08-.23-.68,0a3,3,0,0,1-1.12,0c-.51,0-.44.36-.46.77Zm1.86-2c-.16,0-.23-.08-.38,0s-.1,0-.34,0-.35.07-.62.18a1.88,1.88,0,0,0-.5.61,1.76,1.76,0,0,0-.11,1c-.18.14-.26.11-.14.59.16.1,0,.22.23.31s0,0,.28.32a1.85,1.85,0,0,0,.49.51h0l.06.08c-.07.45-1,.25-1.33.53a5.26,5.26,0,0,0-.48,1.33,13.2,13.2,0,0,0,4.36.06l.23-.07a4.3,4.3,0,0,0-.49-1.33,2.19,2.19,0,0,0-.7-.2c-.27-.06-.57,0-.61-.32l.41-.39c.06-.08.11-.13.16-.21l.15-.26c.12-.12.14,0,.23-.15a.81.81,0,0,0,.06-.13s.06-.09.08-.14c.17-.36,0-.46-.17-.54a2.19,2.19,0,0,0-.06-1.1,1.29,1.29,0,0,1-.21-.2c-.13-.13-.08-.13,0-.17l-.17,0c0-.06.08-.09.13-.16l-.25,0L66.19,56v0l0,.09Z" transform="translate(-2.48 -12.21)"/><path class="cls-1" d="M64.68,52.75c.24-.14.29,0,.43-.32.16,0,.21.06.38.06s.21-.06.38-.06c.09.33.28.24.44.32.06,1-1.7,1-1.63,0ZM64,50.69c-.11.31.09.35.13.61h.13c.07,0,0-.09.12.18a.88.88,0,0,1,.06.1c.43.73,1.11,1.19,1.83.34a1.83,1.83,0,0,0,.26-.36c.21-.37.08-.3.3-.23,0-.18.34-.53.06-.63-.09,0,0,0-.08.14-.06-.42-.34-.31-.47-1-.27,0-.5.4-1.38.31s-.77-.05-.84.72c0-.13,0-.09-.12-.13Zm-.14,0a.77.77,0,0,0,.14.54c.15.37.14,0,.33.36a2.06,2.06,0,0,0,.29.4l.37.33c0,.3-.31.27-.58.33a2.06,2.06,0,0,0-.75.21,5.59,5.59,0,0,0-.49,1.33,9.26,9.26,0,0,0,2.28.21,14.46,14.46,0,0,0,2.33-.19,5.39,5.39,0,0,0-.49-1.35C67,52.59,66,52.8,66,52.34l.12-.11.12-.1.23-.24c.07-.1.14-.19.19-.28.15-.26.06-.08.26-.21,0,0,.32-.48.19-.72l-.2-.16a2,2,0,0,0,0-.9c-.18-.51-.47-.4-.3-.57a.28.28,0,0,1-.18,0,.66.66,0,0,0,.15-.14c-.15,0-.14,0-.25.08s0-.09,0-.13c-.12-.19-.07,0-.09,0,0,.19,0,.06,0,.11a1.47,1.47,0,0,0-1.57.14,1.53,1.53,0,0,0-.51,1.48C64,50.58,63.91,50.63,63.87,50.71Z" transform="translate(-2.48 -12.21)"/><path class="cls-1" d="M64.39,44.79c.25-.14.29,0,.44-.32.16,0,.2.05.38.05s.21-.05.38-.05c.09.32.28.24.44.32.06,1-1.71,1-1.64,0Zm-.66-2.06c-.11.31.08.35.13.61H64c.07,0,0-.1.13.18a.93.93,0,0,0,0,.1c.43.73,1.11,1.18,1.83.34a1.88,1.88,0,0,0,.27-.36c.21-.37.08-.3.29-.23,0-.18.35-.53.07-.63-.09.05-.05,0-.09.14,0-.42-.34-.31-.47-1-.27,0-.5.4-1.37.3s-.78,0-.84.73c-.05-.14,0-.09-.12-.13Zm-.15,0a.89.89,0,0,0,.14.54c.16.36.14,0,.33.36a3.21,3.21,0,0,0,.3.4l.36.33c0,.3-.31.27-.58.33a2.07,2.07,0,0,0-.74.21,5.19,5.19,0,0,0-.49,1.33,9.13,9.13,0,0,0,2.27.21,14.37,14.37,0,0,0,2.33-.19A4.89,4.89,0,0,0,67,44.92c-.31-.29-1.28-.08-1.32-.54l.12-.11.12-.1a2.84,2.84,0,0,0,.23-.25l.19-.27c.14-.26.06-.09.26-.21,0,0,.32-.48.18-.72l-.19-.16a2.1,2.1,0,0,0,0-.9c-.19-.51-.48-.4-.3-.57-.12,0-.12,0-.18-.06a.58.58,0,0,0,.15-.13c-.15,0-.14.05-.26.08s0-.09,0-.14-.06,0-.08,0c0,.19,0,.06,0,.11a1.46,1.46,0,0,0-1.56.14,1.53,1.53,0,0,0-.52,1.48C63.72,42.62,63.63,42.66,63.58,42.75Z" transform="translate(-2.48 -12.21)"/><path class="cls-1" d="M6.79,70V71a2.38,2.38,0,0,0,2.38,2.37H78.85A2.38,2.38,0,0,0,81.22,71V70Zm72.06,4.15H9.17A3.23,3.23,0,0,1,5.94,71V69.61a.43.43,0,0,1,.43-.43H81.65a.43.43,0,0,1,.42.43V71A3.23,3.23,0,0,1,78.85,74.19Z" transform="translate(-2.48 -12.21)"/><path class="cls-1" d="M49.3,72.16H38.71a.43.43,0,0,1-.43-.43V69.66a.43.43,0,1,1,.85,0V71.3h9.74V69.66a.43.43,0,0,1,.86,0v2.07A.43.43,0,0,1,49.3,72.16Z" transform="translate(-2.48 -12.21)"/><path class="cls-1" d="M76.48,69.49a.42.42,0,0,1-.43-.42V61.76a.43.43,0,0,1,.43-.43.44.44,0,0,1,.43.43v7.31A.43.43,0,0,1,76.48,69.49Z" transform="translate(-2.48 -12.21)"/><path class="cls-1" d="M76.48,63.08c-.24,0-.43-.3-.43-.66v-22c0-.37.19-.67.43-.67s.43.3.43.67v22C76.91,62.78,76.71,63.08,76.48,63.08Z" transform="translate(-2.48 -12.21)"/><path class="cls-1" d="M11.46,69.82A.42.42,0,0,1,11,69.4V33.35a3.46,3.46,0,0,1,3.47-3.44h59a3.43,3.43,0,0,1,3.45,3.44v8.93a.43.43,0,0,1-.43.43.43.43,0,0,1-.43-.43V33.35a2.56,2.56,0,0,0-2.59-2.58H14.51a2.6,2.6,0,0,0-2.62,2.58V69.4A.42.42,0,0,1,11.46,69.82Z" transform="translate(-2.48 -12.21)"/><path class="cls-1" d="M72.27,63c-.24,0-.43-.37-.43-.81V42.7c0-.45.19-.81.43-.81s.42.36.42.81V62.15C72.69,62.59,72.5,63,72.27,63Z" transform="translate(-2.48 -12.21)"/><path class="cls-1" d="M15.74,66.57a.44.44,0,0,1-.3-.14.44.44,0,0,1-.13-.31V34.62a.43.43,0,0,1,.43-.43H72.27a.42.42,0,0,1,.42.43v8.92a.43.43,0,0,1-.85,0V35.05H16.17V65.7l55.67,0V60.25a.43.43,0,1,1,.85,0v5.84a.43.43,0,0,1-.42.44l-56.53,0Z" transform="translate(-2.48 -12.21)"/><path class="cls-1" d="M23.92,40a1.89,1.89,0,1,0,1.89,1.89A1.89,1.89,0,0,0,23.92,40Zm0,4.63a2.75,2.75,0,1,1,2.74-2.74A2.75,2.75,0,0,1,23.92,44.66Z" transform="translate(-2.48 -12.21)"/><path class="cls-1" d="M27,47.75a.43.43,0,0,1-.43-.43,2.66,2.66,0,1,0-5.32,0,.43.43,0,0,1-.86,0,3.52,3.52,0,0,1,7,0A.42.42,0,0,1,27,47.75Z" transform="translate(-2.48 -12.21)"/><path class="cls-1" d="M23.92,38.53a4.79,4.79,0,1,0,4.79,4.79,4.8,4.8,0,0,0-4.79-4.79Zm0,10.43a5.65,5.65,0,1,1,5.64-5.64A5.65,5.65,0,0,1,23.92,49Z" transform="translate(-2.48 -12.21)"/><path class="cls-1" d="M28.74,51.89H19.13a.43.43,0,1,1,0-.85h9.61a.43.43,0,0,1,0,.85Z" transform="translate(-2.48 -12.21)"/><path class="cls-1" d="M28.74,54.72H19.13a.43.43,0,1,1,0-.85h9.61a.43.43,0,0,1,0,.85Z" transform="translate(-2.48 -12.21)"/><path class="cls-1" d="M28.74,57.55H19.13a.43.43,0,1,1,0-.85h9.61a.43.43,0,0,1,0,.85Z" transform="translate(-2.48 -12.21)"/><path class="cls-1" d="M28.74,60.32H19.13a.43.43,0,0,1-.43-.43.43.43,0,0,1,.43-.43h9.61a.42.42,0,0,1,.42.43A.43.43,0,0,1,28.74,60.32Z" transform="translate(-2.48 -12.21)"/><path class="cls-1" d="M28.74,63.14H19.13a.43.43,0,1,1,0-.85h9.61a.43.43,0,0,1,0,.85Z" transform="translate(-2.48 -12.21)"/><path class="cls-1" d="M34,17.71a.43.43,0,0,1,.43-.43h0a.42.42,0,0,1,.42.43h0a.42.42,0,0,1-.42.43h0a.43.43,0,0,1-.43-.43Zm2.16,1.1a.42.42,0,0,1,0-.6h0a.43.43,0,0,1,.61,0h0a.43.43,0,0,1,0,.6h0a.39.39,0,0,1-.31.14h0a.39.39,0,0,1-.29-.11ZM32,18.9a.43.43,0,0,1,0-.6h0a.44.44,0,0,1,.61,0h0a.43.43,0,0,1,0,.61h0a.43.43,0,0,1-.3.13h0a.39.39,0,0,1-.3-.13Zm5,1.7a.42.42,0,0,1,.41-.44h0a.43.43,0,0,1,.44.41h0a.43.43,0,0,1-.41.45h0A.43.43,0,0,1,37,20.6Zm-6,.14a.42.42,0,0,1,.42-.43h0a.42.42,0,0,1,.43.42h0a.43.43,0,0,1-.42.44h0a.43.43,0,0,1-.43-.43Zm5.3,2.32a.42.42,0,0,1,0-.6h0a.42.42,0,0,1,.6,0h0a.43.43,0,0,1,0,.6h0a.44.44,0,0,1-.31.14h0a.44.44,0,0,1-.3-.12Zm-4.26.1a.43.43,0,0,1,0-.6h0a.43.43,0,0,1,.61,0h0a.43.43,0,0,1,0,.6h0a.42.42,0,0,1-.31.13h0a.44.44,0,0,1-.3-.12Zm2,.54a.45.45,0,0,1,.42-.44h0a.43.43,0,0,1,.44.42h0a.43.43,0,0,1-.42.44h0A.44.44,0,0,1,34,23.7Z" transform="translate(-2.48 -12.21)"/><path class="cls-1" d="M5.47,25.69a.43.43,0,0,1,.43-.43h0a.43.43,0,0,1,.43.43h0a.42.42,0,0,1-.43.42h0a.43.43,0,0,1-.43-.42Zm2.16,1.1a.44.44,0,0,1,0-.61h0a.43.43,0,0,1,.6,0h0a.42.42,0,0,1,0,.6h0a.45.45,0,0,1-.32.14h0a.48.48,0,0,1-.29-.11Zm-4.16.09a.43.43,0,0,1,0-.6h0a.43.43,0,0,1,.6,0h0a.44.44,0,0,1,0,.61h0a.45.45,0,0,1-.31.12h0a.46.46,0,0,1-.3-.12Zm5,1.7h0a.44.44,0,0,1,.42-.44h0a.42.42,0,0,1,.44.41h0a.43.43,0,0,1-.41.44h0a.43.43,0,0,1-.43-.41Zm-6,.14a.43.43,0,0,1,.43-.43h0a.42.42,0,0,1,.43.42h0a.42.42,0,0,1-.42.43h0a.44.44,0,0,1-.43-.42ZM7.79,31a.44.44,0,0,1,0-.61h0a.44.44,0,0,1,.61,0h0a.43.43,0,0,1,0,.61h0a.4.4,0,0,1-.31.13h0A.41.41,0,0,1,7.79,31Zm-4.26.1a.43.43,0,0,1,0-.6h0a.42.42,0,0,1,.6,0h0a.44.44,0,0,1,0,.61h0a.43.43,0,0,1-.31.13h0a.42.42,0,0,1-.3-.12Zm2,.54A.43.43,0,0,1,6,31.24H6a.42.42,0,0,1,.43.42h0A.43.43,0,0,1,6,32.1H6A.44.44,0,0,1,5.55,31.68Z" transform="translate(-2.48 -12.21)"/><path class="cls-1" d="M60.7,12.64a.43.43,0,0,1,.43-.43h0a.43.43,0,0,1,.42.43h0a.42.42,0,0,1-.42.43h0a.43.43,0,0,1-.43-.43Zm2.16,1.1a.42.42,0,0,1,0-.6h0a.44.44,0,0,1,.61,0h0a.44.44,0,0,1,0,.61h0a.43.43,0,0,1-.31.14h0a.4.4,0,0,1-.29-.12Zm-4.16.1a.44.44,0,0,1,0-.61h0a.43.43,0,0,1,.61,0h0a.42.42,0,0,1,0,.6h0A.39.39,0,0,1,59,14h0a.42.42,0,0,1-.3-.12Zm5,1.7a.43.43,0,0,1,.41-.45h0a.44.44,0,0,1,.44.42h0a.42.42,0,0,1-.41.44h0a.43.43,0,0,1-.42-.41Zm-6,.14a.43.43,0,0,1,.42-.44h0a.43.43,0,0,1,.43.43h0a.42.42,0,0,1-.42.43h0a.42.42,0,0,1-.42-.42ZM63,18a.43.43,0,0,1,0-.6h0a.44.44,0,0,1,.61,0h0a.44.44,0,0,1,0,.61h0a.48.48,0,0,1-.31.13h0A.44.44,0,0,1,63,18Zm-4.26.11a.44.44,0,0,1,0-.61h0a.44.44,0,0,1,.61,0h0a.44.44,0,0,1,0,.61h0a.48.48,0,0,1-.31.13h0a.44.44,0,0,1-.3-.12Zm2,.53a.42.42,0,0,1,.42-.43h0a.43.43,0,0,1,.44.41h0a.43.43,0,0,1-.42.44h0A.43.43,0,0,1,60.77,18.63Z" transform="translate(-2.48 -12.21)"/><path class="cls-1" d="M52.64,26.34a.43.43,0,0,1-.43-.43V23a.43.43,0,0,1,.86,0v3A.43.43,0,0,1,52.64,26.34Z" transform="translate(-2.48 -12.21)"/><path class="cls-1" d="M54.12,24.86h-3a.43.43,0,1,1,0-.86h3a.43.43,0,0,1,0,.86Z" transform="translate(-2.48 -12.21)"/><path class="cls-1" d="M5.4,66.26A.42.42,0,0,1,5,65.84v-3a.43.43,0,0,1,.85,0v3A.42.42,0,0,1,5.4,66.26Z" transform="translate(-2.48 -12.21)"/><path class="cls-1" d="M6.88,64.78h-3a.43.43,0,1,1,0-.85h3a.43.43,0,1,1,0,.85Z" transform="translate(-2.48 -12.21)"/><path class="cls-2" d="M78.2,33.22a3.54,3.54,0,1,1,0-5,3.55,3.55,0,0,1,0,5Zm5.29-1V29.59h-2a5.8,5.8,0,0,0-.63-1.71l1.39-1.39-1.88-1.88L79,25.91a6.13,6.13,0,0,0-1.78-.82V23.33H74.57V25a5.76,5.76,0,0,0-1.92.76l-1.17-1.16-1.91,1.91,1.17,1.16A6.32,6.32,0,0,0,70,29.6H68.31v2.67h1.76A6.11,6.11,0,0,0,70.89,34l-1.32,1.32,1.89,1.88,1.4-1.41a5.48,5.48,0,0,0,1.7.63v2h2.66V36.39a5.73,5.73,0,0,0,1.55-.67l1.51,1.52,1.91-1.91-1.51-1.52a6,6,0,0,0,.67-1.56Z" transform="translate(-2.48 -12.21)"/><path class="cls-1" d="M75.7,27.61a3.07,3.07,0,0,0-2.2.91,3.1,3.1,0,0,0,0,4.4,3.05,3.05,0,0,0,2.2.91,3.09,3.09,0,0,0,2.2-.91,3.11,3.11,0,0,0-2.2-5.31Zm0,7.08a4,4,0,1,1,2.8-1.17A4,4,0,0,1,75.7,34.69Z" transform="translate(-2.48 -12.21)"/><path class="cls-1" d="M75,38.08h1.82V36.39a.43.43,0,0,1,.32-.42,5.23,5.23,0,0,0,1.43-.61.42.42,0,0,1,.53.06l1.21,1.21,1.31-1.3-1.21-1.22a.41.41,0,0,1-.07-.52,5.27,5.27,0,0,0,.62-1.46.44.44,0,0,1,.42-.33h1.7V30H81.44a.43.43,0,0,1-.42-.35,5.64,5.64,0,0,0-.58-1.58.41.41,0,0,1,.07-.51l1.09-1.09-1.28-1.28-1,1a.45.45,0,0,1-.55.05,5.38,5.38,0,0,0-1.65-.76.43.43,0,0,1-.31-.42V23.76H75V25a.44.44,0,0,1-.35.42,5.25,5.25,0,0,0-1.78.7.41.41,0,0,1-.52-.06l-.87-.86-1.3,1.31.86.86a.41.41,0,0,1,.06.52,5.74,5.74,0,0,0-.7,1.78A.42.42,0,0,1,70,30H68.74v1.8l1.33,0h0a.44.44,0,0,1,.42.33,5.31,5.31,0,0,0,.76,1.66.44.44,0,0,1-.06.55l-1,1,1.28,1.28,1.1-1.1a.42.42,0,0,1,.51-.07,5.08,5.08,0,0,0,1.58.58.43.43,0,0,1,.34.42v1.62Zm2.24.83H74.56a.42.42,0,0,1-.42-.42V36.8a6.14,6.14,0,0,1-1.2-.44l-1.18,1.18a.43.43,0,0,1-.61,0l-1.88-1.88a.43.43,0,0,1,0-.61L70.35,34a6.71,6.71,0,0,1-.6-1.31l-1.44,0h0a.38.38,0,0,1-.3-.11.4.4,0,0,1-.12-.29V29.59a.42.42,0,0,1,.13-.3.48.48,0,0,1,.3-.13h1.34a6.32,6.32,0,0,1,.55-1.42l-.93-.93a.43.43,0,0,1,0-.61l1.91-1.91a.45.45,0,0,1,.61,0l.93.93a6.46,6.46,0,0,1,1.42-.56V23.34a.41.41,0,0,1,.43-.43h2.66a.43.43,0,0,1,.31.12.42.42,0,0,1,.12.3v1.45a5.57,5.57,0,0,1,1.29.59L80,24.3a.42.42,0,0,1,.3-.12.41.41,0,0,1,.3.12l1.89,1.89a.43.43,0,0,1,0,.6L81.33,28a6.17,6.17,0,0,1,.45,1.2h1.71a.42.42,0,0,1,.3.12.43.43,0,0,1,.13.3v2.67a.39.39,0,0,1-.13.28.41.41,0,0,1-.3.11h0l-1.81,0a5.57,5.57,0,0,1-.46,1.06L82.51,35a.45.45,0,0,1,0,.61L80.6,37.54a.43.43,0,0,1-.61,0l-1.28-1.28a5.41,5.41,0,0,1-1,.44v1.81a.38.38,0,0,1-.12.28A.43.43,0,0,1,77.23,38.91Z" transform="translate(-2.48 -12.21)"/><path class="cls-1" d="M80.76,43.3a.22.22,0,0,1,.22-.22h0a.22.22,0,0,1,.23.22h0a.23.23,0,0,1-.23.23h0a.23.23,0,0,1-.22-.23Zm1.13.58a.22.22,0,0,1,0-.32h0a.22.22,0,0,1,.32,0h0a.23.23,0,0,1,0,.32h0a.26.26,0,0,1-.17.07h0a.22.22,0,0,1-.15-.06Zm-2.18,0a.23.23,0,0,1,0-.32h0a.22.22,0,0,1,.32,0h0a.22.22,0,0,1,0,.32h0a.23.23,0,0,1-.16.06h0a.22.22,0,0,1-.15-.06Zm2.62.89a.22.22,0,0,1,.21-.23h0a.22.22,0,0,1,.24.21h0a.23.23,0,0,1-.22.24h0a.22.22,0,0,1-.22-.22Zm-3.14.07a.21.21,0,0,1,.22-.22h0a.23.23,0,0,1,.23.22h0a.24.24,0,0,1-.23.23h0a.22.22,0,0,1-.22-.23ZM82,46.11a.23.23,0,0,1,0-.32h0a.23.23,0,0,1,.32,0h0a.22.22,0,0,1,0,.32h0a.2.2,0,0,1-.16.07h0a.25.25,0,0,1-.16-.06Zm-2.23.06h0a.22.22,0,0,1,0-.32h0a.23.23,0,0,1,.32,0h0a.22.22,0,0,1,0,.32h0a.2.2,0,0,1-.16.07h0a.22.22,0,0,1-.15-.06Zm1.06.28a.21.21,0,0,1,.22-.23h0a.23.23,0,0,1,.23.22h0a.24.24,0,0,1-.22.23h0A.22.22,0,0,1,80.8,46.45Z" transform="translate(-2.48 -12.21)"/><path class="cls-2" d="M20.77,19.22a.93.93,0,1,1,.92-.92.92.92,0,0,1-.92.92Zm-3.65,0A.93.93,0,1,1,18,18.3a.92.92,0,0,1-.92.92Zm-3.65,0a.93.93,0,1,1,.92-.92.93.93,0,0,1-.92.92Zm8.47-5.15H12.3a1.66,1.66,0,0,0-1.65,1.66v5.11a1.64,1.64,0,0,0,1.65,1.64h3.45L18,24.75l1.65-2.27h2.26a1.65,1.65,0,0,0,1.66-1.64V15.73A1.67,1.67,0,0,0,21.94,14.07Z" transform="translate(-2.48 -12.21)"/><path class="cls-1" d="M12.3,14.34a1.4,1.4,0,0,0-1.4,1.39v5.11a1.4,1.4,0,0,0,1.4,1.39h3.45a.32.32,0,0,1,.19.07l2,2.06,1.48-2a.28.28,0,0,1,.21-.1h2.26a1.39,1.39,0,0,0,1.39-1.39V15.73a1.39,1.39,0,0,0-1.39-1.39ZM18,25a.32.32,0,0,1-.19-.07l-2.19-2.2H12.3a1.91,1.91,0,0,1-1.91-1.9V15.73a1.92,1.92,0,0,1,1.91-1.91h9.64a1.91,1.91,0,0,1,1.9,1.91v5.11a1.9,1.9,0,0,1-1.9,1.9H19.81l-1.58,2.17a.25.25,0,0,1-.18.1Z" transform="translate(-2.48 -12.21)"/><path class="cls-1" d="M13.47,17.63a.67.67,0,1,0,.67.67.67.67,0,0,0-.67-.67Zm0,1.85a1.19,1.19,0,1,1,1.18-1.18A1.19,1.19,0,0,1,13.47,19.48Z" transform="translate(-2.48 -12.21)"/><path class="cls-1" d="M17.12,17.63a.67.67,0,1,0,.67.67.67.67,0,0,0-.67-.67Zm0,1.85A1.19,1.19,0,1,1,18.3,18.3,1.18,1.18,0,0,1,17.12,19.48Z" transform="translate(-2.48 -12.21)"/><path class="cls-1" d="M20.77,17.63a.67.67,0,1,0,.66.67.67.67,0,0,0-.66-.67Zm0,1.85A1.19,1.19,0,1,1,22,18.3,1.19,1.19,0,0,1,20.77,19.48Z" transform="translate(-2.48 -12.21)"/></svg>