<svg id="Layer_1" data-name="Layer 1" xmlns="http://www.w3.org/2000/svg" viewBox="0 0 83.14 68.26"><defs><style>.cls-1,.cls-2{fill-rule:evenodd;}.cls-2,.cls-3{fill:#25282b;}</style></defs><title>SOCIAL MARKETING STRATEGIES</title><path class="cls-1" d="M43.1,17.63a1.79,1.79,0,1,0,1.79,1.79,1.79,1.79,0,0,0-1.79-1.79Zm0,4.26a2.47,2.47,0,1,1,2.47-2.47A2.48,2.48,0,0,1,43.1,21.89Z" transform="translate(-1.63 -9.07)"/><path class="cls-1" d="M45.94,24.72a.34.34,0,0,1-.34-.34,2.5,2.5,0,0,0-5,0,.34.34,0,0,1-.34.34.34.34,0,0,1-.34-.34,3.18,3.18,0,0,1,6.36,0A.34.34,0,0,1,45.94,24.72Z" transform="translate(-1.63 -9.07)"/><path class="cls-1" d="M43.1,15.32a5.52,5.52,0,1,0,5.52,5.52,5.52,5.52,0,0,0-5.52-5.52ZM43.1,27a6.2,6.2,0,1,1,6.2-6.2A6.21,6.21,0,0,1,43.1,27Z" transform="translate(-1.63 -9.07)"/><path class="cls-2" d="M79.66,66.56,76.52,69.7l4.11,4.12a2.23,2.23,0,0,0,3.15,0h0a2.22,2.22,0,0,0,0-3.14Z" transform="translate(-1.63 -9.07)"/><path class="cls-2" d="M73.67,63.72a5.82,5.82,0,1,1,0-8.23,5.82,5.82,0,0,1,0,8.23Zm-9.44-9.44a7.53,7.53,0,1,0,10.64,0A7.53,7.53,0,0,0,64.23,54.28Z" transform="translate(-1.63 -9.07)"/><path class="cls-2" d="M9.85,58.29a2.82,2.82,0,1,1,0-4,2.82,2.82,0,0,1,0,4Zm4.22-.77V55.39H12.43a4.39,4.39,0,0,0-.5-1.36L13,52.92l-1.5-1.5-1,1a4.71,4.71,0,0,0-1.42-.66v-1.4H7v1.33a4.59,4.59,0,0,0-1.53.61l-.93-.93L3,53l.93.92a4.61,4.61,0,0,0-.6,1.53H2v2.12H3.38A4.46,4.46,0,0,0,4,58.94L3,60l1.5,1.5L5.6,60.37a4.33,4.33,0,0,0,1.35.5V62.5H9.08V60.81a4.77,4.77,0,0,0,1.23-.53l1.21,1.21L13,60l-1.2-1.21a4.83,4.83,0,0,0,.53-1.24Z" transform="translate(-1.63 -9.07)"/><path class="cls-2" d="M3.5,29.47,3,32.4H15.51l-.61-2.94A14.34,14.34,0,0,0,3.5,29.47Z" transform="translate(-1.63 -9.07)"/><path class="cls-2" d="M5.69,18.72l3.56,3.57,3.55-3.57A11.09,11.09,0,0,1,5.69,18.72Z" transform="translate(-1.63 -9.07)"/><path class="cls-1" d="M16.21,9.75Zm-13.85,0v1.19a.38.38,0,0,0,.37.37H15.82a.37.37,0,0,0,.37-.37V9.75ZM15.82,12H2.73a1,1,0,0,1-1-1.05V9.73a.66.66,0,0,1,.66-.66H16.21a.66.66,0,0,1,.66.66v1.21A1,1,0,0,1,15.82,12Z" transform="translate(-1.63 -9.07)"/><path class="cls-1" d="M2.36,34.31H16.19v-1.2a.36.36,0,0,0-.37-.36H2.73a.37.37,0,0,0-.37.36v1.2ZM16.21,35H2.34a.67.67,0,0,1-.66-.66V33.11a1,1,0,0,1,1.05-1H15.82a1,1,0,0,1,1.05,1v1.22A.67.67,0,0,1,16.21,35Z" transform="translate(-1.63 -9.07)"/><path class="cls-1" d="M15.51,32.75a.34.34,0,0,1-.34-.34c0-4.62-2.91-7.1-6-9.73s-6.55-5.59-6.48-11a.34.34,0,0,1,.68,0c-.07,5.13,3,7.74,6.24,10.51,3.06,2.61,6.23,5.32,6.23,10.25A.34.34,0,0,1,15.51,32.75Z" transform="translate(-1.63 -9.07)"/><path class="cls-1" d="M3,32.75a.34.34,0,0,1-.34-.34c0-4.93,3.17-7.64,6.23-10.25,3.24-2.77,6.31-5.38,6.24-10.51a.33.33,0,0,1,.33-.34.34.34,0,0,1,.35.33c.07,5.45-3.26,8.29-6.48,11s-6,5.11-6,9.73A.34.34,0,0,1,3,32.75Z" transform="translate(-1.63 -9.07)"/><path class="cls-1" d="M5.88,13.42a.48.48,0,1,0,.49.48.48.48,0,0,0-.49-.48Zm0,1.65A1.17,1.17,0,1,1,7.05,13.9,1.17,1.17,0,0,1,5.88,15.07Z" transform="translate(-1.63 -9.07)"/><path class="cls-1" d="M13.45,74v.73a1.89,1.89,0,0,0,1.89,1.89H70.86a1.89,1.89,0,0,0,1.89-1.89V74Zm57.41,3.3H15.34a2.57,2.57,0,0,1-2.57-2.57V73.69a.34.34,0,0,1,.34-.34h60a.34.34,0,0,1,.34.34v1.07A2.58,2.58,0,0,1,70.86,77.33Z" transform="translate(-1.63 -9.07)"/><path class="cls-1" d="M47.32,75.72H38.88a.34.34,0,0,1-.34-.34V73.72a.34.34,0,1,1,.68,0V75H47V73.72a.34.34,0,1,1,.68,0v1.66A.34.34,0,0,1,47.32,75.72Z" transform="translate(-1.63 -9.07)"/><path class="cls-1" d="M69,73.59a.34.34,0,0,1-.34-.34V67.43a.34.34,0,1,1,.68,0v5.82A.34.34,0,0,1,69,73.59Z" transform="translate(-1.63 -9.07)"/><path class="cls-1" d="M69,65.57a.34.34,0,0,1-.34-.34V54a.34.34,0,1,1,.68,0V65.23A.34.34,0,0,1,69,65.57Z" transform="translate(-1.63 -9.07)"/><path class="cls-1" d="M17.17,73.86a.35.35,0,0,1-.34-.35V44.79a2.76,2.76,0,0,1,2.77-2.74h47a2.73,2.73,0,0,1,2.74,2.74v7.12a.34.34,0,0,1-.68,0V44.79a2,2,0,0,0-2.06-2.06h-47a2.08,2.08,0,0,0-2.09,2.06V73.51A.35.35,0,0,1,17.17,73.86Z" transform="translate(-1.63 -9.07)"/><path class="cls-1" d="M65.62,64a.34.34,0,0,1-.34-.34V55.48a.34.34,0,1,1,.68,0v8.18A.34.34,0,0,1,65.62,64Z" transform="translate(-1.63 -9.07)"/><path class="cls-1" d="M20.58,71.26a.32.32,0,0,1-.24-.11.31.31,0,0,1-.1-.24V45.8a.34.34,0,0,1,.34-.34h45a.34.34,0,0,1,.34.34v7.11a.34.34,0,0,1-.68,0V46.14H20.92V70.57l44.36,0V66.23a.34.34,0,1,1,.68,0v4.65a.35.35,0,0,1-.34.35l-45,0Z" transform="translate(-1.63 -9.07)"/><path class="cls-1" d="M64.23,54.28Zm.24.25a7.17,7.17,0,1,0,5.08-2.11,7.19,7.19,0,0,0-5.08,2.11Zm5.08,12.94a7.87,7.87,0,1,1,5.56-2.3A7.85,7.85,0,0,1,69.55,67.47Z" transform="translate(-1.63 -9.07)"/><path class="cls-1" d="M65.67,55.73a5.48,5.48,0,1,0,7.76,0,5.5,5.5,0,0,0-7.76,0Zm3.88,10a6.17,6.17,0,0,1-4.36-10.52h0a6.16,6.16,0,1,1,4.36,10.52Z" transform="translate(-1.63 -9.07)"/><path class="cls-1" d="M78.07,68.44a.35.35,0,0,1-.25-.1l-3.18-3.18a.34.34,0,0,1,0-.49.34.34,0,0,1,.48,0l3.19,3.19a.34.34,0,0,1-.24.58Z" transform="translate(-1.63 -9.07)"/><path class="cls-1" d="M77,69.7l3.88,3.88a1.88,1.88,0,1,0,2.66-2.66L79.66,67,77,69.7Zm5.21,5.11a2.57,2.57,0,0,1-1.82-.75L76.28,70a.35.35,0,0,1-.1-.25.33.33,0,0,1,.1-.24l3.14-3.14a.34.34,0,0,1,.48,0L84,70.43a2.57,2.57,0,0,1-1.81,4.38Z" transform="translate(-1.63 -9.07)"/><path class="cls-1" d="M77.69,71.15a.34.34,0,0,1-.24-.58l1.75-1.74a.33.33,0,0,1,.48,0,.34.34,0,0,1,0,.48l-1.74,1.74A.35.35,0,0,1,77.69,71.15Z" transform="translate(-1.63 -9.07)"/><path class="cls-1" d="M80.18,68.67a.35.35,0,0,1-.24-.1.33.33,0,0,1,0-.48l.55-.56a.36.36,0,0,1,.49,0A.34.34,0,0,1,81,68l-.56.56A.37.37,0,0,1,80.18,68.67Z" transform="translate(-1.63 -9.07)"/><path class="cls-1" d="M7.86,53.81a2.47,2.47,0,0,0-1.76.73,2.48,2.48,0,1,0,3.51,0,2.44,2.44,0,0,0-1.75-.73Zm0,5.64a3.13,3.13,0,0,1-2.24-.92,3.16,3.16,0,1,1,4.47,0A3.11,3.11,0,0,1,7.86,59.45Z" transform="translate(-1.63 -9.07)"/><path class="cls-1" d="M7.3,62.16H8.74V60.81A.33.33,0,0,1,9,60.48,4,4,0,0,0,10.13,60a.35.35,0,0,1,.42,0l1,1,1-1-1-1a.33.33,0,0,1,0-.42A4.6,4.6,0,0,0,12,57.42a.35.35,0,0,1,.33-.27h0l1.36,0V55.73h-1.3a.34.34,0,0,1-.33-.28,4.41,4.41,0,0,0-.46-1.26.33.33,0,0,1,0-.41l.87-.87-1-1-.8.8a.35.35,0,0,1-.43,0A4.17,4.17,0,0,0,9,52.14a.34.34,0,0,1-.25-.33V50.75H7.3v1a.34.34,0,0,1-.27.34,4.26,4.26,0,0,0-1.42.56.35.35,0,0,1-.42,0l-.69-.68-1,1,.69.68a.35.35,0,0,1,0,.42,4.53,4.53,0,0,0-.56,1.42.34.34,0,0,1-.33.27h-1v1.43l1.07,0h0a.36.36,0,0,1,.33.27,4.37,4.37,0,0,0,.6,1.32.35.35,0,0,1,0,.44L3.46,60l1,1,.88-.88a.33.33,0,0,1,.4-.06A4.35,4.35,0,0,0,7,60.54a.33.33,0,0,1,.27.33v1.29Zm1.78.66H7a.34.34,0,0,1-.34-.34V61.14a5.14,5.14,0,0,1-1-.35l-.94.94a.34.34,0,0,1-.48,0l-1.5-1.5a.33.33,0,0,1,0-.48l.85-.86a6,6,0,0,1-.47-1H2a.36.36,0,0,1-.24-.09.35.35,0,0,1-.1-.24V55.39a.37.37,0,0,1,.1-.24.43.43,0,0,1,.24-.1H3a5.4,5.4,0,0,1,.44-1.13l-.74-.74a.34.34,0,0,1,0-.49l1.52-1.52a.34.34,0,0,1,.48,0l.74.74a5.64,5.64,0,0,1,1.14-.45V50.41a.31.31,0,0,1,.1-.24.35.35,0,0,1,.24-.1H9.08a.34.34,0,0,1,.34.34v1.15a4.8,4.8,0,0,1,1,.47l.85-.85a.37.37,0,0,1,.24-.1.35.35,0,0,1,.24.1l1.5,1.5a.33.33,0,0,1,0,.48l-.93.94a4.51,4.51,0,0,1,.35.95h1.37a.36.36,0,0,1,.24.09.37.37,0,0,1,.1.24v2.13a.34.34,0,0,1-.1.23.36.36,0,0,1-.24.09H12.62a4.52,4.52,0,0,1-.36.85l1,1a.33.33,0,0,1,0,.48l-1.52,1.53a.34.34,0,0,1-.48,0l-1-1a4.8,4.8,0,0,1-.84.35V62.5a.3.3,0,0,1-.1.23A.34.34,0,0,1,9.08,62.82Z" transform="translate(-1.63 -9.07)"/><path class="cls-1" d="M18.77,19.29H17.51a.34.34,0,0,1-.34-.34.34.34,0,0,1,.34-.34h1.26a.34.34,0,0,1,.34.34.34.34,0,0,1-.34.34Zm3,0H20.5a.34.34,0,0,1-.34-.34.34.34,0,0,1,.34-.34h1.26a.34.34,0,0,1,.34.34.34.34,0,0,1-.34.34Zm3,0H23.49a.34.34,0,0,1-.34-.34.34.34,0,0,1,.34-.34h1.26a.35.35,0,0,1,.34.34.34.34,0,0,1-.34.34Zm3,0H26.48a.34.34,0,0,1-.34-.34.34.34,0,0,1,.34-.34h1.26a.35.35,0,0,1,.34.34.34.34,0,0,1-.34.34Zm3,0H29.47a.34.34,0,0,1-.34-.34.34.34,0,0,1,.34-.34h1.25a.35.35,0,0,1,.35.34.35.35,0,0,1-.35.34Zm3,0H32.46a.35.35,0,0,1-.35-.34.35.35,0,0,1,.35-.34h1.25a.34.34,0,0,1,.34.34.34.34,0,0,1-.34.34Zm3,0H35.44A.34.34,0,0,1,35.1,19a.35.35,0,0,1,.34-.34H36.7A.34.34,0,0,1,37,19,.34.34,0,0,1,36.7,19.29Z" transform="translate(-1.63 -9.07)"/><path class="cls-1" d="M15.62,19.29H15a.34.34,0,0,1-.34-.34.35.35,0,0,1,.34-.34h.63A.34.34,0,0,1,16,19,.34.34,0,0,1,15.62,19.29Z" transform="translate(-1.63 -9.07)"/><path class="cls-1" d="M50.86,19.29H49.55a.34.34,0,0,1-.34-.34.34.34,0,0,1,.34-.34h1.31a.34.34,0,0,1,.34.34.34.34,0,0,1-.34.34Zm3.15,0H52.7a.34.34,0,0,1-.34-.34.34.34,0,0,1,.34-.34H54a.34.34,0,0,1,.34.34.34.34,0,0,1-.34.34Zm3.14,0H55.84A.34.34,0,0,1,55.5,19a.34.34,0,0,1,.34-.34h1.31a.34.34,0,0,1,.34.34.34.34,0,0,1-.34.34Zm3.15,0H59a.34.34,0,0,1-.34-.34.34.34,0,0,1,.34-.34H60.3a.34.34,0,0,1,.34.34A.34.34,0,0,1,60.3,19.29Z" transform="translate(-1.63 -9.07)"/><path class="cls-1" d="M43.13,30.28a.34.34,0,0,1-.34-.34V28.58a.35.35,0,0,1,.34-.35.35.35,0,0,1,.34.35v1.36a.34.34,0,0,1-.34.34Zm0,3.25a.34.34,0,0,1-.34-.34V31.83a.34.34,0,0,1,.34-.34.34.34,0,0,1,.34.34v1.36a.34.34,0,0,1-.34.34Zm0,3.25a.34.34,0,0,1-.34-.34V35.08a.34.34,0,0,1,.34-.34.34.34,0,0,1,.34.34v1.36a.34.34,0,0,1-.34.34Zm0,3.25a.34.34,0,0,1-.34-.34V38.33a.34.34,0,0,1,.34-.34.34.34,0,0,1,.34.34v1.36A.34.34,0,0,1,43.13,40Z" transform="translate(-1.63 -9.07)"/><path class="cls-1" d="M43.13,42.5a.34.34,0,0,1-.34-.34v-.63a.34.34,0,0,1,.34-.34.34.34,0,0,1,.34.34v.63A.34.34,0,0,1,43.13,42.5Z" transform="translate(-1.63 -9.07)"/><path class="cls-1" d="M27.09,50.11a1.51,1.51,0,1,0,1.51,1.51,1.51,1.51,0,0,0-1.51-1.51Zm0,3.7a2.19,2.19,0,1,1,2.19-2.19A2.19,2.19,0,0,1,27.09,53.81Z" transform="translate(-1.63 -9.07)"/><path class="cls-1" d="M29.56,56.27a.35.35,0,0,1-.35-.34,2.12,2.12,0,0,0-4.24,0,.34.34,0,0,1-.34.34.35.35,0,0,1-.34-.34,2.81,2.81,0,1,1,5.61,0A.35.35,0,0,1,29.56,56.27Z" transform="translate(-1.63 -9.07)"/><path class="cls-1" d="M27.09,48.92a3.82,3.82,0,1,0,3.82,3.82,3.82,3.82,0,0,0-3.82-3.82Zm0,8.31a4.5,4.5,0,1,1,4.5-4.49A4.49,4.49,0,0,1,27.09,57.23Z" transform="translate(-1.63 -9.07)"/><path class="cls-1" d="M30.93,59.57H23.28a.35.35,0,0,1,0-.69h7.65a.35.35,0,1,1,0,.69Z" transform="translate(-1.63 -9.07)"/><path class="cls-1" d="M30.93,61.82H23.28a.34.34,0,0,1,0-.68h7.65a.34.34,0,1,1,0,.68Z" transform="translate(-1.63 -9.07)"/><path class="cls-1" d="M30.93,64.08H23.28a.35.35,0,0,1,0-.69h7.65a.35.35,0,1,1,0,.69Z" transform="translate(-1.63 -9.07)"/><path class="cls-1" d="M30.93,66.28H23.28a.34.34,0,0,1,0-.68h7.65a.34.34,0,1,1,0,.68Z" transform="translate(-1.63 -9.07)"/><path class="cls-1" d="M30.93,68.53H23.28a.34.34,0,0,1,0-.68h7.65a.34.34,0,1,1,0,.68Z" transform="translate(-1.63 -9.07)"/><path class="cls-1" d="M62,58H51.09a1.16,1.16,0,0,1-1.16-1.16v-7.5a1.16,1.16,0,0,1,1.16-1.16H62.56a1.16,1.16,0,0,1,1.16,1.16V55A.34.34,0,0,1,63,55V49.36a.48.48,0,0,0-.48-.48H51.09a.49.49,0,0,0-.48.48v7.5a.49.49,0,0,0,.48.48H62A.34.34,0,1,1,62,58Z" transform="translate(-1.63 -9.07)"/><path class="cls-1" d="M59.93,50.76H50.28a.35.35,0,0,1-.34-.34.34.34,0,0,1,.34-.34h9.65a.34.34,0,0,1,.34.34A.34.34,0,0,1,59.93,50.76Z" transform="translate(-1.63 -9.07)"/><path class="cls-1" d="M63.18,50.76h-1.1a.34.34,0,0,1-.34-.34.34.34,0,0,1,.34-.34h1.1a.34.34,0,0,1,.34.34A.34.34,0,0,1,63.18,50.76Z" transform="translate(-1.63 -9.07)"/><path class="cls-1" d="M54.14,50.52a.34.34,0,0,1-.34-.34V49a.34.34,0,0,1,.68,0v1.21A.34.34,0,0,1,54.14,50.52Z" transform="translate(-1.63 -9.07)"/><path class="cls-1" d="M57.57,52.75H52.49a.34.34,0,0,1,0-.68h5.08a.34.34,0,0,1,0,.68Z" transform="translate(-1.63 -9.07)"/><path class="cls-1" d="M57.57,54.53H52.49a.34.34,0,0,1,0-.68h5.08a.34.34,0,0,1,0,.68Z" transform="translate(-1.63 -9.07)"/><path class="cls-1" d="M57.57,56.32H52.49a.35.35,0,0,1,0-.69h5.08a.35.35,0,0,1,0,.69Z" transform="translate(-1.63 -9.07)"/><path class="cls-1" d="M35.1,32.33a.34.34,0,0,1,.34-.34h0a.35.35,0,0,1,.35.34h0a.35.35,0,0,1-.35.34h0a.34.34,0,0,1-.34-.34Zm1.72.87a.35.35,0,0,1,0-.48h0a.34.34,0,0,1,.48,0h0a.35.35,0,0,1,0,.48h0a.33.33,0,0,1-.26.11h0a.35.35,0,0,1-.23-.09Zm-3.31.08a.33.33,0,0,1,0-.48h0a.34.34,0,0,1,.48,0h0a.36.36,0,0,1,0,.49h0a.37.37,0,0,1-.24.1h0a.35.35,0,0,1-.24-.1Zm4,1.35a.34.34,0,0,1,.32-.35h0a.35.35,0,0,1,.36.33h0a.34.34,0,0,1-.33.35h0a.33.33,0,0,1-.34-.33Zm-4.77.11a.34.34,0,0,1,.34-.34h0a.34.34,0,0,1,.34.34h0a.34.34,0,0,1-.33.34h0a.34.34,0,0,1-.34-.34ZM37,36.59a.34.34,0,0,1,0-.48h0a.36.36,0,0,1,.49,0h0a.36.36,0,0,1,0,.49h0a.35.35,0,0,1-.25.1h0a.33.33,0,0,1-.23-.09Zm-3.4.08a.34.34,0,0,1,0-.48h0a.34.34,0,0,1,.48,0h0a.34.34,0,0,1,0,.48h0a.36.36,0,0,1-.25.11h0a.34.34,0,0,1-.24-.1Zm1.61.43a.35.35,0,0,1,.34-.35h0a.34.34,0,0,1,.34.34h0a.33.33,0,0,1-.33.34h0A.34.34,0,0,1,35.16,37.1Z" transform="translate(-1.63 -9.07)"/><path class="cls-1" d="M10.06,41a.34.34,0,0,1,.34-.34h0a.34.34,0,0,1,.34.34h0a.34.34,0,0,1-.34.34h0a.34.34,0,0,1-.34-.34Zm1.72.88a.35.35,0,0,1,0-.49h0a.35.35,0,0,1,.48,0h0a.35.35,0,0,1,0,.49h0A.33.33,0,0,1,12,42h0a.35.35,0,0,1-.23-.09Zm-3.31.07a.34.34,0,0,1,0-.48h0a.35.35,0,0,1,.49,0H9a.34.34,0,0,1,0,.48H9a.37.37,0,0,1-.24.1h0a.31.31,0,0,1-.24-.1Zm4,1.36h0a.35.35,0,0,1,.33-.36h0a.35.35,0,0,1,.36.33h0a.34.34,0,0,1-.33.35h0a.34.34,0,0,1-.35-.32Zm-4.76.11A.35.35,0,0,1,8,43.05H8a.34.34,0,0,1,.34.34h0a.34.34,0,0,1-.34.34H8a.34.34,0,0,1-.34-.33Zm4.23,1.84a.34.34,0,0,1,0-.48h0a.34.34,0,0,1,.48,0h0a.34.34,0,0,1,0,.48h0a.36.36,0,0,1-.25.11h0a.3.3,0,0,1-.23-.1Zm-3.4.09a.36.36,0,0,1,0-.49h0a.36.36,0,0,1,.49,0H9a.35.35,0,0,1,0,.49H9a.31.31,0,0,1-.24.1h0a.36.36,0,0,1-.24-.09Zm1.61.42a.36.36,0,0,1,.33-.35h0a.35.35,0,0,1,.35.34h0a.34.34,0,0,1-.33.35h0A.35.35,0,0,1,10.12,45.75Z" transform="translate(-1.63 -9.07)"/><path class="cls-1" d="M56.4,28.29a.34.34,0,0,1,.34-.34h0a.34.34,0,0,1,.34.34h0a.34.34,0,0,1-.34.34h0a.34.34,0,0,1-.34-.34Zm1.72.88a.34.34,0,0,1,0-.48h0a.35.35,0,0,1,.48,0h0a.36.36,0,0,1,0,.49h0a.36.36,0,0,1-.26.11h0a.35.35,0,0,1-.23-.09Zm-3.31.07a.33.33,0,0,1,0-.48h0a.33.33,0,0,1,.48,0h0a.34.34,0,0,1,0,.48h0a.33.33,0,0,1-.24.1h0a.31.31,0,0,1-.24-.1Zm4,1.36a.35.35,0,0,1,.33-.36h0a.35.35,0,0,1,.36.33h0a.34.34,0,0,1-.33.35h0a.34.34,0,0,1-.35-.32ZM54,30.71a.35.35,0,0,1,.34-.35h0a.34.34,0,0,1,.34.34h0a.34.34,0,0,1-.34.34h0a.34.34,0,0,1-.34-.33Zm4.23,1.84a.34.34,0,0,1,0-.48h0a.34.34,0,0,1,.48,0h0a.34.34,0,0,1,0,.48h0a.36.36,0,0,1-.25.11h0a.3.3,0,0,1-.23-.1Zm-3.4.09a.35.35,0,0,1,0-.49h0a.34.34,0,0,1,.48,0h0a.36.36,0,0,1,0,.49h0a.35.35,0,0,1-.25.1h0a.36.36,0,0,1-.24-.09Zm1.61.42a.34.34,0,0,1,.34-.34h0a.33.33,0,0,1,.34.33h0a.34.34,0,0,1-.33.35h0A.35.35,0,0,1,56.46,33.06Z" transform="translate(-1.63 -9.07)"/><path class="cls-1" d="M79.84,46.22a.35.35,0,0,1,.34-.35h0a.35.35,0,0,1,.34.35h0a.34.34,0,0,1-.34.34h0a.34.34,0,0,1-.34-.34Zm1.72.87a.34.34,0,0,1,0-.48h0a.34.34,0,0,1,.48,0h0a.34.34,0,0,1,0,.48h0a.32.32,0,0,1-.25.11h0a.33.33,0,0,1-.23-.09Zm-3.32.08a.34.34,0,0,1,0-.48h0a.34.34,0,0,1,.48,0h0a.34.34,0,0,1,0,.48h0a.36.36,0,0,1-.25.11h0a.39.39,0,0,1-.24-.1Zm4,1.35a.34.34,0,0,1,.33-.35h0a.34.34,0,0,1,.35.33h0a.34.34,0,0,1-.33.35h0a.34.34,0,0,1-.34-.33Zm-4.77.11a.34.34,0,0,1,.34-.34h0a.35.35,0,0,1,.35.34h0a.34.34,0,0,1-.34.34h0a.35.35,0,0,1-.35-.34Zm4.23,1.85a.34.34,0,0,1,0-.48h0a.34.34,0,0,1,.48,0h0a.34.34,0,0,1,0,.48h0a.29.29,0,0,1-.24.11h0a.36.36,0,0,1-.24-.09Zm-3.39.08h0a.34.34,0,0,1,0-.48h0a.34.34,0,0,1,.48,0h0a.34.34,0,0,1,0,.48h0a.35.35,0,0,1-.24.11h0a.31.31,0,0,1-.24-.1ZM79.9,51a.34.34,0,0,1,.33-.35h0a.35.35,0,0,1,.35.33h0a.34.34,0,0,1-.33.35h0A.33.33,0,0,1,79.9,51Z" transform="translate(-1.63 -9.07)"/><path class="cls-1" d="M25.51,29.07a.34.34,0,0,1-.34-.34V26.37a.34.34,0,0,1,.68,0v2.36A.34.34,0,0,1,25.51,29.07Z" transform="translate(-1.63 -9.07)"/><path class="cls-1" d="M26.69,27.89H24.33a.34.34,0,1,1,0-.68h2.36a.34.34,0,0,1,0,.68Z" transform="translate(-1.63 -9.07)"/><path class="cls-1" d="M76.48,35.05a.34.34,0,0,1-.34-.34V32.35a.34.34,0,0,1,.34-.34.34.34,0,0,1,.34.34v2.36A.34.34,0,0,1,76.48,35.05Z" transform="translate(-1.63 -9.07)"/><path class="cls-1" d="M77.66,33.87H75.3a.34.34,0,0,1,0-.68h2.36a.34.34,0,0,1,0,.68Z" transform="translate(-1.63 -9.07)"/><path class="cls-1" d="M5.69,72.33A.34.34,0,0,1,5.35,72V69.63a.34.34,0,0,1,.34-.34.35.35,0,0,1,.34.34V72A.34.34,0,0,1,5.69,72.33Z" transform="translate(-1.63 -9.07)"/><path class="cls-1" d="M6.87,71.16H4.51a.35.35,0,1,1,0-.69H6.87a.35.35,0,0,1,0,.69Z" transform="translate(-1.63 -9.07)"/><path class="cls-1" d="M56.81,13.19a.35.35,0,0,1-.34-.35V10.48a.34.34,0,0,1,.68,0v2.36A.35.35,0,0,1,56.81,13.19Z" transform="translate(-1.63 -9.07)"/><path class="cls-1" d="M58,12H55.63a.35.35,0,0,1,0-.69H58A.35.35,0,0,1,58,12Z" transform="translate(-1.63 -9.07)"/><rect class="cls-3" x="35.08" y="52.13" width="2.1" height="7.55"/><rect class="cls-3" x="43.26" y="51.09" width="2.1" height="8.6"/><rect class="cls-3" x="55.53" y="51.09" width="2.1" height="8.6"/><path class="cls-1" d="M37.05,68.41h1.42V61.54H37.05v6.87Zm1.76.68h-2.1a.34.34,0,0,1-.34-.34V61.2a.34.34,0,0,1,.34-.34h2.1a.34.34,0,0,1,.34.34v7.55A.34.34,0,0,1,38.81,69.09Z" transform="translate(-1.63 -9.07)"/><path class="cls-1" d="M41.14,68.41h1.42v-3.2H41.14v3.2Zm1.76.68H40.8a.34.34,0,0,1-.34-.34V64.87a.34.34,0,0,1,.34-.34h2.1a.34.34,0,0,1,.34.34v3.88A.34.34,0,0,1,42.9,69.09Z" transform="translate(-1.63 -9.07)"/><path class="cls-1" d="M45.23,68.41h1.42V60.49H45.23v7.92Zm1.76.68h-2.1a.34.34,0,0,1-.34-.34v-8.6a.34.34,0,0,1,.34-.34H47a.34.34,0,0,1,.34.34v8.6A.34.34,0,0,1,47,69.09Z" transform="translate(-1.63 -9.07)"/><path class="cls-1" d="M49.32,68.41h1.42V64.69H49.32v3.72Zm1.76.68H49a.34.34,0,0,1-.34-.34v-4.4A.34.34,0,0,1,49,64h2.1a.34.34,0,0,1,.34.34v4.4A.34.34,0,0,1,51.08,69.09Z" transform="translate(-1.63 -9.07)"/><path class="cls-1" d="M53.41,68.41h1.42V62.59H53.41v5.82Zm1.76.68h-2.1a.34.34,0,0,1-.34-.34v-6.5a.34.34,0,0,1,.34-.34h2.1a.34.34,0,0,1,.34.34v6.5A.34.34,0,0,1,55.17,69.09Z" transform="translate(-1.63 -9.07)"/><path class="cls-1" d="M57.5,68.41h1.42V60.49H57.5v7.92Zm1.76.68h-2.1a.34.34,0,0,1-.34-.34v-8.6a.34.34,0,0,1,.34-.34h2.1a.34.34,0,0,1,.34.34v8.6A.34.34,0,0,1,59.26,69.09Z" transform="translate(-1.63 -9.07)"/><path class="cls-2" d="M69,21.39a2.2,2.2,0,1,1,2.2-2.2,2.2,2.2,0,0,1-2.2,2.2Zm0-6.76a4.57,4.57,0,1,0,4.57,4.56A4.56,4.56,0,0,0,69,14.63Z" transform="translate(-1.63 -9.07)"/><path class="cls-1" d="M61.37,19.19c1,.94,4.73,4.25,7.59,4.25s6.6-3.31,7.59-4.25C75.56,18.26,71.83,15,69,15s-6.59,3.31-7.59,4.24ZM69,24.12c-3.59,0-8.13-4.49-8.32-4.68a.36.36,0,0,1,0-.49c.19-.19,4.73-4.68,8.32-4.68s8.13,4.49,8.32,4.68a.34.34,0,0,1,0,.49C77.09,19.63,72.56,24.12,69,24.12Z" transform="translate(-1.63 -9.07)"/><path class="cls-1" d="M69,15a4.23,4.23,0,1,0,4.23,4.22A4.22,4.22,0,0,0,69,15Zm0,9.13a4.91,4.91,0,1,1,4.91-4.91A4.91,4.91,0,0,1,69,24.1Z" transform="translate(-1.63 -9.07)"/><path class="cls-1" d="M69,21.92a2.73,2.73,0,0,1-2.73-2.73.35.35,0,0,1,.69,0,2,2,0,1,0,2-2,.35.35,0,0,1-.34-.34.34.34,0,0,1,.34-.34,2.73,2.73,0,1,1,0,5.45Z" transform="translate(-1.63 -9.07)"/></svg>