<svg id="Layer_1" data-name="Layer 1" xmlns="http://www.w3.org/2000/svg" viewBox="0 0 80.92 66.15"><defs><style>.cls-1,.cls-2{fill:#25282b;}.cls-2,.cls-3{fill-rule:evenodd;}</style></defs><title>SOCIAL ANALYTICS</title><rect class="cls-1" x="14.81" y="40.18" width="7.3" height="7.3"/><rect class="cls-1" x="45.54" y="27.43" width="2.04" height="7.34"/><rect class="cls-1" x="53.48" y="26.41" width="2.04" height="8.36"/><rect class="cls-1" x="65.41" y="26.41" width="2.04" height="8.36"/><path class="cls-2" d="M79.69,17.09a1.2,1.2,0,1,1,1.19-1.19,1.19,1.19,0,0,1-1.19,1.19Zm-4.71,0a1.2,1.2,0,1,1,1.19-1.19A1.19,1.19,0,0,1,75,17.09Zm-4.71,0a1.2,1.2,0,0,1,0-2.39,1.2,1.2,0,1,1,0,2.39Zm10.94-6.65H68.76a2.13,2.13,0,0,0-2.12,2.14v6.6a2.11,2.11,0,0,0,2.12,2.11h4.46l2.93,2.93,2.14-2.93h2.92a2.13,2.13,0,0,0,2.14-2.11v-6.6A2.15,2.15,0,0,0,81.21,10.44Z" transform="translate(-2.74 -10.12)"/><rect class="cls-1" x="45.54" y="38.43" width="6.52" height="6.52"/><rect class="cls-1" x="45.54" y="47.51" width="6.52" height="6.52"/><path class="cls-2" d="M5.59,39.85a3.06,3.06,0,0,0,3.06,3.06h0a3.06,3.06,0,0,0,3.06-3.06v-10H5.59Z" transform="translate(-2.74 -10.12)"/><path class="cls-3" d="M46.05,30.54a1.26,1.26,0,0,0-1.26,1.26V66.87a1.26,1.26,0,0,0,1.26,1.26H72.42a1.26,1.26,0,0,0,1.26-1.26V31.8a1.26,1.26,0,0,0-1.26-1.26ZM72.42,68.79H46.05a1.93,1.93,0,0,1-1.93-1.92V31.8a1.93,1.93,0,0,1,1.93-1.92H72.42a1.92,1.92,0,0,1,1.92,1.92V66.87A1.92,1.92,0,0,1,72.42,68.79Z" transform="translate(-2.74 -10.12)"/><path class="cls-3" d="M71.29,66.56H47.18A1.22,1.22,0,0,1,46,65.34v-32a1.22,1.22,0,0,1,1.22-1.22H71.29a1.22,1.22,0,0,1,1.21,1.22V51.82a.33.33,0,0,1-.66,0V33.33a.55.55,0,0,0-.55-.55H47.18a.54.54,0,0,0-.55.55v32a.54.54,0,0,0,.55.55H71.29a.55.55,0,0,0,.55-.55V61.2a.33.33,0,1,1,.66,0v4.14A1.22,1.22,0,0,1,71.29,66.56Z" transform="translate(-2.74 -10.12)"/><path class="cls-3" d="M48.61,44.56H50V37.88H48.61v6.68Zm1.7.66h-2a.34.34,0,0,1-.34-.33V37.55a.34.34,0,0,1,.34-.33h2a.34.34,0,0,1,.34.33v7.34A.34.34,0,0,1,50.31,45.22Z" transform="translate(-2.74 -10.12)"/><path class="cls-3" d="M52.58,44.56H54V41.45H52.58v3.11Zm1.71.66h-2a.33.33,0,0,1-.33-.33V41.12a.33.33,0,0,1,.33-.33h2a.33.33,0,0,1,.33.33v3.77A.33.33,0,0,1,54.29,45.22Z" transform="translate(-2.74 -10.12)"/><path class="cls-3" d="M56.56,44.56h1.37v-7.7H56.56v7.7Zm1.71.66h-2a.33.33,0,0,1-.33-.33V36.53a.33.33,0,0,1,.33-.33h2a.33.33,0,0,1,.33.33v8.36A.33.33,0,0,1,58.27,45.22Z" transform="translate(-2.74 -10.12)"/><path class="cls-3" d="M60.53,44.56h1.38V40.94H60.53v3.62Zm1.71.66h-2a.33.33,0,0,1-.33-.33V40.61a.33.33,0,0,1,.33-.33h2a.33.33,0,0,1,.33.33v4.28A.33.33,0,0,1,62.24,45.22Z" transform="translate(-2.74 -10.12)"/><path class="cls-3" d="M64.51,44.56h1.38V38.9H64.51v5.66Zm1.71.66h-2a.33.33,0,0,1-.33-.33V38.57a.33.33,0,0,1,.33-.33h2a.33.33,0,0,1,.33.33v6.32A.33.33,0,0,1,66.22,45.22Z" transform="translate(-2.74 -10.12)"/><path class="cls-3" d="M68.48,44.56h1.38v-7.7H68.48v7.7Zm1.71.66h-2a.33.33,0,0,1-.33-.33V36.53a.33.33,0,0,1,.33-.33h2a.33.33,0,0,1,.33.33v8.36A.33.33,0,0,1,70.19,45.22Z" transform="translate(-2.74 -10.12)"/><path class="cls-3" d="M48.61,54.75h5.86V48.89H48.61v5.86Zm6.19.66H48.28a.34.34,0,0,1-.34-.33V48.56a.33.33,0,0,1,.34-.33H54.8a.33.33,0,0,1,.33.33v6.52A.33.33,0,0,1,54.8,55.41Z" transform="translate(-2.74 -10.12)"/><path class="cls-3" d="M48.61,63.82h5.86V58H48.61v5.86Zm6.19.66H48.28a.34.34,0,0,1-.34-.33V57.63a.34.34,0,0,1,.34-.33H54.8a.33.33,0,0,1,.33.33v6.52A.33.33,0,0,1,54.8,64.48Z" transform="translate(-2.74 -10.12)"/><path class="cls-3" d="M63.12,50.34H57.46a.33.33,0,0,1,0-.66h5.66a.33.33,0,0,1,0,.66Z" transform="translate(-2.74 -10.12)"/><path class="cls-3" d="M66.53,52.18H57.46a.34.34,0,0,1,0-.67h9.07a.34.34,0,0,1,0,.67Z" transform="translate(-2.74 -10.12)"/><path class="cls-3" d="M66.53,54H57.46a.33.33,0,0,1-.33-.33.33.33,0,0,1,.33-.33h9.07a.33.33,0,0,1,.33.33A.33.33,0,0,1,66.53,54Z" transform="translate(-2.74 -10.12)"/><path class="cls-3" d="M63.12,59.41H57.46a.33.33,0,1,1,0-.66h5.66a.33.33,0,0,1,0,.66Z" transform="translate(-2.74 -10.12)"/><path class="cls-3" d="M66.53,61.25H57.46a.34.34,0,0,1,0-.67h9.07a.34.34,0,0,1,0,.67Z" transform="translate(-2.74 -10.12)"/><path class="cls-3" d="M66.53,63H57.46a.33.33,0,1,1,0-.66h9.07a.33.33,0,1,1,0,.66Z" transform="translate(-2.74 -10.12)"/><path class="cls-3" d="M68.76,10.78a1.81,1.81,0,0,0-1.8,1.8v6.6A1.8,1.8,0,0,0,68.76,21h4.46a.31.31,0,0,1,.24.1l2.65,2.65L78,21.1a.35.35,0,0,1,.27-.13h2.92A1.8,1.8,0,0,0,83,19.18v-6.6a1.8,1.8,0,0,0-1.79-1.8Zm7.39,13.78a.3.3,0,0,1-.23-.1l-2.83-2.83H68.76a2.46,2.46,0,0,1-2.46-2.45v-6.6a2.46,2.46,0,0,1,2.46-2.46H81.21a2.46,2.46,0,0,1,2.45,2.46v6.6a2.45,2.45,0,0,1-2.45,2.45H78.46l-2,2.79a.33.33,0,0,1-.24.14Z" transform="translate(-2.74 -10.12)"/><path class="cls-3" d="M70.27,15a.87.87,0,1,0,.86.87.86.86,0,0,0-.86-.87Zm0,2.39A1.53,1.53,0,1,1,71.8,15.9,1.53,1.53,0,0,1,70.27,17.42Z" transform="translate(-2.74 -10.12)"/><path class="cls-3" d="M75,15a.87.87,0,1,0,.86.87A.86.86,0,0,0,75,15Zm0,2.39a1.53,1.53,0,1,1,1.53-1.52A1.53,1.53,0,0,1,75,17.42Z" transform="translate(-2.74 -10.12)"/><path class="cls-3" d="M79.69,15a.87.87,0,1,0,.86.87.87.87,0,0,0-.86-.87Zm0,2.39a1.53,1.53,0,1,1,1.52-1.52A1.53,1.53,0,0,1,79.69,17.42Z" transform="translate(-2.74 -10.12)"/><path class="cls-3" d="M26.35,31.18A11.55,11.55,0,0,0,37.54,42.35V31.18ZM37.86,43A12.18,12.18,0,0,1,25.68,30.85a.33.33,0,0,1,.33-.33H37.86a.34.34,0,0,1,.34.33V42.68A.33.33,0,0,1,37.86,43Z" transform="translate(-2.74 -10.12)"/><path class="cls-3" d="M40.92,40a.33.33,0,0,1-.33-.33V28.12H29.07a.33.33,0,0,1-.33-.33,12.18,12.18,0,1,1,24.35,0,11.68,11.68,0,0,1-.2,2.22.33.33,0,0,1-.38.27.34.34,0,0,1-.27-.39,11.24,11.24,0,0,0,.19-2.1,11.51,11.51,0,0,0-23-.32H40.92a.33.33,0,0,1,.33.33v11.5a11.76,11.76,0,0,0,2.84-.44.33.33,0,0,1,.41.23.33.33,0,0,1-.22.41A12.28,12.28,0,0,1,40.92,40Z" transform="translate(-2.74 -10.12)"/><path class="cls-3" d="M27.09,41.71a.3.3,0,0,1-.23-.1.33.33,0,0,1,0-.47L31.7,36.3a.33.33,0,0,1,.47,0,.32.32,0,0,1,0,.46l-4.84,4.85A.33.33,0,0,1,27.09,41.71Z" transform="translate(-2.74 -10.12)"/><path class="cls-3" d="M24.54,42.49H17.81a.33.33,0,0,1,0-.66h6.73a.33.33,0,0,1,0,.66Z" transform="translate(-2.74 -10.12)"/><path class="cls-3" d="M24.54,44.33H17.81a.33.33,0,0,1-.33-.33.33.33,0,0,1,.33-.33h6.73a.33.33,0,0,1,.33.33A.33.33,0,0,1,24.54,44.33Z" transform="translate(-2.74 -10.12)"/><path class="cls-3" d="M24.54,46.16H17.81a.33.33,0,0,1,0-.66h6.73a.33.33,0,0,1,0,.66Z" transform="translate(-2.74 -10.12)"/><path class="cls-3" d="M24.54,48H17.81a.34.34,0,0,1,0-.67h6.73a.34.34,0,0,1,0,.67Z" transform="translate(-2.74 -10.12)"/><path class="cls-3" d="M17.88,57.27h6.64V50.63H17.88v6.64Zm7,.66h-7.3a.32.32,0,0,1-.33-.33V50.3a.33.33,0,0,1,.33-.33h7.3a.33.33,0,0,1,.33.33v7.3A.33.33,0,0,1,24.85,57.93Z" transform="translate(-2.74 -10.12)"/><path class="cls-3" d="M24.53,57.55a.38.38,0,0,1-.24-.09l-6.67-6.68a.33.33,0,0,1,.47-.47L24.76,57a.33.33,0,0,1-.23.56Z" transform="translate(-2.74 -10.12)"/><path class="cls-3" d="M17.85,57.55a.33.33,0,0,1-.23-.56l6.67-6.68a.33.33,0,0,1,.47.47l-6.67,6.68A.36.36,0,0,1,17.85,57.55Z" transform="translate(-2.74 -10.12)"/><path class="cls-3" d="M11.55,65.34a1.74,1.74,0,1,0,1.74,1.74,1.74,1.74,0,0,0-1.74-1.74Zm0,4.14a2.4,2.4,0,1,1,2.4-2.4A2.41,2.41,0,0,1,11.55,69.48Z" transform="translate(-2.74 -10.12)"/><path class="cls-3" d="M14.3,72.24a.32.32,0,0,1-.32-.33,2.43,2.43,0,0,0-4.86,0,.33.33,0,0,1-.66,0,3.09,3.09,0,0,1,6.18,0A.34.34,0,0,1,14.3,72.24Z" transform="translate(-2.74 -10.12)"/><path class="cls-3" d="M11.55,63.09a5.37,5.37,0,1,0,5.36,5.37,5.37,5.37,0,0,0-5.36-5.37Zm0,11.39a6,6,0,1,1,6-6A6,6,0,0,1,11.55,74.48Z" transform="translate(-2.74 -10.12)"/><path class="cls-3" d="M13.81,24.77H10.46a.34.34,0,0,1,0-.67h3.35A.09.09,0,0,0,13.9,24V22.08a.09.09,0,0,0-.09-.09H3.49a.1.1,0,0,0-.09.09V24a.1.1,0,0,0,.09.09H7.93a.34.34,0,0,1,0,.67H3.49A.76.76,0,0,1,2.74,24V22.08a.75.75,0,0,1,.75-.75H13.81a.74.74,0,0,1,.75.75V24A.75.75,0,0,1,13.81,24.77Z" transform="translate(-2.74 -10.12)"/><path class="cls-3" d="M8.65,43.24a3.39,3.39,0,0,1-3.39-3.39V24.49a.34.34,0,1,1,.67,0V39.85a2.73,2.73,0,1,0,5.45,0V24.49a.33.33,0,1,1,.66,0V39.85A3.39,3.39,0,0,1,8.65,43.24Z" transform="translate(-2.74 -10.12)"/><path class="cls-3" d="M7.16,30.21H5.89a.33.33,0,1,1,0-.66H7.16a.33.33,0,0,1,0,.66Z" transform="translate(-2.74 -10.12)"/><path class="cls-3" d="M11.44,30.21h-.56a.33.33,0,0,1,0-.66h.56a.33.33,0,1,1,0,.66Z" transform="translate(-2.74 -10.12)"/><path class="cls-3" d="M9.45,30.21H8.59a.33.33,0,0,1,0-.66h.86a.33.33,0,0,1,0,.66Z" transform="translate(-2.74 -10.12)"/><path class="cls-3" d="M7.47,33.68H6.86a.34.34,0,1,1,0-.67h.61a.34.34,0,0,1,0,.67Z" transform="translate(-2.74 -10.12)"/><path class="cls-3" d="M10,35.77H8.44a.34.34,0,1,1,0-.67H10a.34.34,0,0,1,0,.67Z" transform="translate(-2.74 -10.12)"/><path class="cls-3" d="M11.44,35.77h-.3a.34.34,0,0,1,0-.67h.3a.34.34,0,0,1,0,.67Z" transform="translate(-2.74 -10.12)"/><path class="cls-3" d="M7.67,39.59H5.89a.34.34,0,0,1-.34-.33.34.34,0,0,1,.34-.33H7.67a.33.33,0,0,1,.33.33A.33.33,0,0,1,7.67,39.59Z" transform="translate(-2.74 -10.12)"/><path class="cls-3" d="M9.61,39.59H9a.34.34,0,0,1-.34-.33A.33.33,0,0,1,9,38.93h.61a.33.33,0,0,1,.33.33A.33.33,0,0,1,9.61,39.59Z" transform="translate(-2.74 -10.12)"/><path class="cls-3" d="M6.19,15.35a.95.95,0,1,0,.95.94.94.94,0,0,0-.95-.94Zm0,2.55A1.61,1.61,0,1,1,7.8,16.29,1.61,1.61,0,0,1,6.19,17.9Z" transform="translate(-2.74 -10.12)"/><path class="cls-3" d="M19.9,17.2a1,1,0,1,0,.94.95.95.95,0,0,0-.94-.95Zm0,2.56a1.61,1.61,0,1,1,1.61-1.61A1.62,1.62,0,0,1,19.9,19.76Z" transform="translate(-2.74 -10.12)"/><path class="cls-3" d="M12.59,17.9a.56.56,0,1,0,.56.56.56.56,0,0,0-.56-.56Zm0,1.78a1.22,1.22,0,1,1,1.22-1.22A1.22,1.22,0,0,1,12.59,19.68Z" transform="translate(-2.74 -10.12)"/><path class="cls-3" d="M15.78,13a.45.45,0,1,0,.45.45.45.45,0,0,0-.45-.45Zm0,1.56a1.11,1.11,0,1,1,1.11-1.11A1.11,1.11,0,0,1,15.78,14.6Z" transform="translate(-2.74 -10.12)"/><path class="cls-3" d="M20.51,68.64H19.9a.34.34,0,0,1,0-.67h.61a.34.34,0,0,1,0,.67Z" transform="translate(-2.74 -10.12)"/><path class="cls-3" d="M23.42,68.64H22.2a.34.34,0,1,1,0-.67h1.22a.34.34,0,0,1,0,.67Zm2.9,0H25.1a.34.34,0,0,1,0-.67h1.22a.34.34,0,0,1,0,.67Zm2.91,0H28A.34.34,0,0,1,28,68h1.23a.34.34,0,0,1,0,.67Zm2.9,0H30.91a.34.34,0,0,1,0-.67h1.22a.34.34,0,1,1,0,.67Z" transform="translate(-2.74 -10.12)"/><path class="cls-3" d="M34.35,68.64h-.64a.34.34,0,0,1,0-.67H34v-.3a.33.33,0,1,1,.66,0v.64A.33.33,0,0,1,34.35,68.64Z" transform="translate(-2.74 -10.12)"/><path class="cls-3" d="M34.35,54.44a.33.33,0,0,1-.33-.33V52.89a.33.33,0,0,1,.66,0v1.22a.33.33,0,0,1-.33.33Zm0,3a.33.33,0,0,1-.33-.33V55.85a.33.33,0,1,1,.66,0v1.22a.33.33,0,0,1-.33.33Zm0,3A.34.34,0,0,1,34,60V58.8a.33.33,0,0,1,.66,0V60a.34.34,0,0,1-.33.34Zm0,3A.33.33,0,0,1,34,63V61.76a.33.33,0,0,1,.66,0V63a.33.33,0,0,1-.33.33Zm0,3a.33.33,0,0,1-.33-.33V64.71a.33.33,0,1,1,.66,0v1.23A.33.33,0,0,1,34.35,66.27Z" transform="translate(-2.74 -10.12)"/><path class="cls-3" d="M34.35,51.54a.33.33,0,0,1-.33-.33v-.64a.33.33,0,0,1,.33-.33H35a.33.33,0,0,1,0,.66h-.31v.31A.33.33,0,0,1,34.35,51.54Z" transform="translate(-2.74 -10.12)"/><path class="cls-3" d="M38.3,50.9H36.92a.33.33,0,0,1,0-.66H38.3a.33.33,0,0,1,0,.66Zm3.31,0H40.24a.33.33,0,1,1,0-.66h1.37a.33.33,0,0,1,0,.66Z" transform="translate(-2.74 -10.12)"/><path class="cls-3" d="M44.26,50.9H43.6a.33.33,0,0,1,0-.66h.66a.33.33,0,0,1,0,.66Z" transform="translate(-2.74 -10.12)"/><path class="cls-3" d="M57.93,21.91a.34.34,0,0,1,.34-.33h0a.33.33,0,0,1,.33.33h0a.33.33,0,0,1-.33.33h0a.34.34,0,0,1-.34-.33Zm1.68.85a.31.31,0,0,1,0-.46h0a.31.31,0,0,1,.46,0h0a.32.32,0,0,1,0,.46h0a.36.36,0,0,1-.25.11h0a.31.31,0,0,1-.22-.09Zm-3.23.08a.33.33,0,0,1,0-.47h0a.33.33,0,0,1,.47,0h0a.32.32,0,0,1,0,.46h0a.3.3,0,0,1-.23.1h0a.36.36,0,0,1-.24-.09Zm3.87,1.31h0a.33.33,0,0,1,.32-.34h0a.33.33,0,0,1,.34.32h0a.33.33,0,0,1-.32.34h0a.32.32,0,0,1-.33-.32Zm-4.63.11h0a.33.33,0,0,1,.33-.33h0a.32.32,0,0,1,.33.32h0a.34.34,0,0,1-.33.34h0a.33.33,0,0,1-.33-.33Zm4.11,1.8a.33.33,0,0,1,0-.47h0a.33.33,0,0,1,.47,0h0a.32.32,0,0,1,0,.47h0a.32.32,0,0,1-.24.11h0a.31.31,0,0,1-.22-.09Zm-3.3.07a.32.32,0,0,1,0-.46h0a.33.33,0,0,1,.47,0h0a.34.34,0,0,1,0,.47h0a.39.39,0,0,1-.24.1h0a.29.29,0,0,1-.23-.1Zm1.56.42a.34.34,0,0,1,.33-.34h0a.33.33,0,0,1,.33.33h0a.33.33,0,0,1-.32.34h0A.35.35,0,0,1,58,26.55Z" transform="translate(-2.74 -10.12)"/><path class="cls-3" d="M78.16,71.31a.33.33,0,0,1,.33-.33h0a.33.33,0,0,1,.33.33h0a.33.33,0,0,1-.33.34h0a.34.34,0,0,1-.33-.34Zm1.68.86a.33.33,0,0,1,0-.47h0a.32.32,0,0,1,.47,0h0a.32.32,0,0,1,0,.47h0a.31.31,0,0,1-.24.1h0a.3.3,0,0,1-.22-.08Zm-3.23.07a.33.33,0,0,1,0-.47h0a.33.33,0,0,1,.47,0h0a.33.33,0,0,1,0,.47h0a.35.35,0,0,1-.23.09h0a.36.36,0,0,1-.24-.09Zm3.87,1.32h0a.33.33,0,0,1,.32-.35h0a.34.34,0,0,1,.34.32h0a.33.33,0,0,1-.32.35h0a.34.34,0,0,1-.33-.32Zm-4.63.1a.32.32,0,0,1,.32-.33h0a.33.33,0,0,1,.34.33h0a.33.33,0,0,1-.33.33h0a.33.33,0,0,1-.33-.33ZM80,75.46a.33.33,0,0,1,0-.47h0a.34.34,0,0,1,.47,0h0a.34.34,0,0,1,0,.47h0a.35.35,0,0,1-.24.11h0a.32.32,0,0,1-.23-.09Zm-3.3.08a.33.33,0,0,1,0-.47h0a.33.33,0,0,1,.47,0h0a.33.33,0,0,1,0,.47h0a.33.33,0,0,1-.24.1h0a.35.35,0,0,1-.23-.09Zm1.56.41a.32.32,0,0,1,.32-.33h0a.32.32,0,0,1,.34.32h0a.33.33,0,0,1-.32.34h0A.34.34,0,0,1,78.22,76Z" transform="translate(-2.74 -10.12)"/><path class="cls-3" d="M37.54,70.33a.32.32,0,0,1,.32-.33h0a.34.34,0,0,1,.34.33h0a.33.33,0,0,1-.34.33h0a.32.32,0,0,1-.32-.33Zm1.67.86a.32.32,0,0,1,0-.47h0a.32.32,0,0,1,.47,0h0a.33.33,0,0,1,0,.47h0a.31.31,0,0,1-.24.1h0a.35.35,0,0,1-.22-.08ZM36,71.26a.33.33,0,0,1,0-.47h0a.33.33,0,0,1,.47,0h0a.33.33,0,0,1,0,.47h0a.33.33,0,0,1-.23.09h0a.36.36,0,0,1-.24-.09Zm3.87,1.31a.33.33,0,0,1,.32-.34h0a.33.33,0,0,1,.34.32h0a.32.32,0,0,1-.32.34h0a.33.33,0,0,1-.33-.32Zm-4.63.11a.32.32,0,0,1,.32-.33h0a.33.33,0,0,1,.34.32h0a.33.33,0,0,1-.32.34h0a.33.33,0,0,1-.33-.33Zm4.11,1.8a.33.33,0,0,1,0-.47h0a.34.34,0,0,1,.47,0h0a.34.34,0,0,1,0,.47h0a.36.36,0,0,1-.25.11h0a.31.31,0,0,1-.22-.09Zm-3.3.08h0a.33.33,0,0,1,0-.47h0a.33.33,0,0,1,.47,0h0a.34.34,0,0,1,0,.47h0a.33.33,0,0,1-.24.1h0a.33.33,0,0,1-.23-.09Zm1.56.41a.34.34,0,0,1,.32-.34h0a.33.33,0,0,1,.34.33h0a.33.33,0,0,1-.32.34h0A.34.34,0,0,1,37.59,75Z" transform="translate(-2.74 -10.12)"/><path class="cls-3" d="M8.69,51.31A.33.33,0,0,1,9,51H9a.33.33,0,0,1,.33.33h0a.33.33,0,0,1-.33.33H9a.33.33,0,0,1-.33-.33Zm1.67.85a.33.33,0,0,1,0-.46h0a.32.32,0,0,1,.47,0h0a.33.33,0,0,1,0,.46h0a.35.35,0,0,1-.24.11h0a.33.33,0,0,1-.23-.09Zm-3.22.08a.33.33,0,0,1,0-.47h0a.34.34,0,0,1,.47,0h0a.33.33,0,0,1,0,.47h0a.33.33,0,0,1-.24.1h0a.33.33,0,0,1-.23-.09ZM11,53.55a.34.34,0,0,1,.32-.34h0a.34.34,0,0,1,.35.32h0a.33.33,0,0,1-.32.34h0a.34.34,0,0,1-.34-.32Zm-4.63.11h0a.33.33,0,0,1,.33-.33h0a.32.32,0,0,1,.33.32H7a.32.32,0,0,1-.32.34h0a.34.34,0,0,1-.34-.33Zm4.11,1.8a.33.33,0,0,1,0-.47h0a.32.32,0,0,1,.46,0h0a.33.33,0,0,1,0,.47h0a.32.32,0,0,1-.24.11h0a.33.33,0,0,1-.23-.09Zm-3.3.08a.34.34,0,0,1,0-.47h0a.33.33,0,0,1,.47,0h0a.32.32,0,0,1,0,.47h0a.35.35,0,0,1-.24.1h0a.35.35,0,0,1-.23-.09ZM8.75,56a.33.33,0,0,1,.32-.34h0a.34.34,0,0,1,.34.33h0a.33.33,0,0,1-.32.34h0A.33.33,0,0,1,8.75,56Z" transform="translate(-2.74 -10.12)"/><path class="cls-3" d="M80.88,31.66a.32.32,0,0,1-.33-.33V29a.33.33,0,0,1,.33-.33.33.33,0,0,1,.33.33v2.29A.33.33,0,0,1,80.88,31.66Z" transform="translate(-2.74 -10.12)"/><path class="cls-3" d="M82,30.52H79.73a.34.34,0,0,1,0-.67H82a.34.34,0,1,1,0,.67Z" transform="translate(-2.74 -10.12)"/><path class="cls-3" d="M79.71,60.56a.33.33,0,0,1-.33-.33v-2.3a.33.33,0,0,1,.33-.33.33.33,0,0,1,.33.33v2.3A.33.33,0,0,1,79.71,60.56Z" transform="translate(-2.74 -10.12)"/><path class="cls-3" d="M80.85,59.41H78.56a.33.33,0,0,1,0-.66h2.29a.33.33,0,0,1,0,.66Z" transform="translate(-2.74 -10.12)"/><path class="cls-3" d="M60.19,75.64a.32.32,0,0,1-.33-.33V73a.33.33,0,0,1,.33-.33.33.33,0,0,1,.33.33v2.29A.33.33,0,0,1,60.19,75.64Z" transform="translate(-2.74 -10.12)"/><path class="cls-3" d="M61.33,74.5H59a.34.34,0,0,1,0-.67h2.29a.34.34,0,1,1,0,.67Z" transform="translate(-2.74 -10.12)"/><path class="cls-3" d="M29.05,64.23a.33.33,0,0,1-.33-.33V61.6a.33.33,0,0,1,.66,0v2.3A.33.33,0,0,1,29.05,64.23Z" transform="translate(-2.74 -10.12)"/><path class="cls-3" d="M30.2,63.08H27.9a.33.33,0,0,1,0-.66h2.3a.33.33,0,0,1,0,.66Z" transform="translate(-2.74 -10.12)"/><path class="cls-3" d="M19.88,32.78a.32.32,0,0,1-.33-.33V30.16a.33.33,0,0,1,.33-.33.33.33,0,0,1,.33.33v2.29A.33.33,0,0,1,19.88,32.78Z" transform="translate(-2.74 -10.12)"/><path class="cls-3" d="M21,31.64H18.73a.33.33,0,0,1-.33-.33.33.33,0,0,1,.33-.33H21a.34.34,0,0,1,.34.33A.34.34,0,0,1,21,31.64Z" transform="translate(-2.74 -10.12)"/><path class="cls-3" d="M52.75,14.18a.32.32,0,0,1-.33-.33V11.56a.33.33,0,0,1,.33-.33.33.33,0,0,1,.33.33v2.29A.33.33,0,0,1,52.75,14.18Z" transform="translate(-2.74 -10.12)"/><path class="cls-3" d="M53.89,13H51.6a.34.34,0,0,1,0-.67h2.29a.34.34,0,0,1,0,.67Z" transform="translate(-2.74 -10.12)"/><path class="cls-3" d="M72.16,57.2a.34.34,0,0,1-.33-.34V55.18a.34.34,0,0,1,.67,0v1.68A.34.34,0,0,1,72.16,57.2Z" transform="translate(-2.74 -10.12)"/></svg>