<svg id="Layer_1" data-name="Layer 1" xmlns="http://www.w3.org/2000/svg" xmlns:xlink="http://www.w3.org/1999/xlink" viewBox="0 0 78.7 64.64"><defs><style>.cls-1,.cls-14,.cls-15,.cls-16,.cls-17,.cls-2,.cls-20,.cls-21,.cls-22,.cls-23,.cls-24,.cls-25,.cls-3,.cls-4,.cls-5{fill:none;}.cls-10,.cls-11,.cls-16,.cls-17,.cls-18,.cls-19,.cls-2,.cls-20,.cls-3,.cls-4,.cls-5,.cls-6,.cls-7,.cls-8,.cls-9{stroke:#000;}.cls-10,.cls-11,.cls-14,.cls-15,.cls-16,.cls-17,.cls-18,.cls-19,.cls-2,.cls-21,.cls-22,.cls-23,.cls-24,.cls-25,.cls-3,.cls-4,.cls-5,.cls-6,.cls-9{stroke-miterlimit:22.93;}.cls-17,.cls-2,.cls-20,.cls-21,.cls-22,.cls-23,.cls-25,.cls-6,.cls-9{stroke-width:0.58px;}.cls-10,.cls-14,.cls-19,.cls-2,.cls-20,.cls-22,.cls-25,.cls-26,.cls-3,.cls-6,.cls-7,.cls-9{fill-rule:evenodd;}.cls-3{stroke-width:0.66px;}.cls-4{stroke-width:0.61px;}.cls-24,.cls-5{stroke-width:0.58px;}.cls-10,.cls-7,.cls-8{fill:#141618;}.cls-7,.cls-8{stroke-linecap:round;stroke-width:0.58px;}.cls-20,.cls-7,.cls-8{stroke-linejoin:round;}.cls-11,.cls-12,.cls-18,.cls-19,.cls-26,.cls-9{fill:#25282b;}.cls-10,.cls-19{stroke-width:0.47px;}.cls-11{stroke-width:0.52px;}.cls-13{clip-path:url(#clip-path);}.cls-14,.cls-15{stroke:#141618;}.cls-14,.cls-15,.cls-16{stroke-width:0.58px;}.cls-18{stroke-width:0.5px;}.cls-20,.cls-21,.cls-22{stroke-dasharray:1.15 1.73;}.cls-21,.cls-22,.cls-23,.cls-24{stroke:#ccc;}.cls-25{stroke:#25282b;}</style><clipPath id="clip-path" transform="translate(-3.91 -11.05)"><rect class="cls-1" x="8.35" y="12.06" width="7.83" height="13.86" transform="matrix(0.52, -0.85, 0.85, 0.52, -10.33, 19.57)"/></clipPath></defs><title>BRAND MESSAGE</title><path class="cls-2" d="M12.44,71.09H74.17V37.39a3.49,3.49,0,0,0-3.48-3.48H15.92a3.48,3.48,0,0,0-3.48,3.48Z" transform="translate(-3.91 -11.05)"/><path class="cls-3" d="M8,71.09H78.61v2.13a2.14,2.14,0,0,1-2.13,2.13H10.12A2.14,2.14,0,0,1,8,73.22Z" transform="translate(-3.91 -11.05)"/><rect class="cls-4" x="12.78" y="26.89" width="53.22" height="30.27"/><rect class="cls-5" x="34.27" y="60.05" width="10.24" height="2.13"/><polygon class="cls-6" points="55.99 55.25 23.67 55.25 23.67 33.92 25.49 31.79 52.36 31.09 55.99 33.94 55.99 55.25"/><path class="cls-7" d="M33.7,23l24.87-.08a1.88,1.88,0,0,0-1.9,1.63V58.27h-27V27A4.06,4.06,0,0,1,33.7,23Z" transform="translate(-3.91 -11.05)"/><path class="cls-2" d="M56.67,32.6h3.79V24.78a1.9,1.9,0,0,0-1.89-1.9h0a1.91,1.91,0,0,0-1.9,1.9Z" transform="translate(-3.91 -11.05)"/><line class="cls-8" x1="28.82" y1="17.38" x2="30.81" y2="17.38"/><line class="cls-8" x1="32.84" y1="17.38" x2="39.51" y2="17.38"/><line class="cls-8" x1="42.28" y1="17.38" x2="49.66" y2="17.38"/><line class="cls-8" x1="28.82" y1="20.05" x2="34.14" y2="20.05"/><line class="cls-8" x1="36.99" y1="20.05" x2="49.66" y2="20.05"/><line class="cls-8" x1="28.82" y1="22.06" x2="30.81" y2="22.06"/><line class="cls-8" x1="32.84" y1="22.06" x2="39.51" y2="22.06"/><line class="cls-8" x1="42.28" y1="22.06" x2="49.66" y2="22.06"/><line class="cls-8" x1="28.82" y1="24.73" x2="34.14" y2="24.73"/><line class="cls-8" x1="36.99" y1="24.73" x2="49.66" y2="24.73"/><line class="cls-8" x1="28.82" y1="27.23" x2="30.81" y2="27.23"/><line class="cls-8" x1="32.84" y1="27.23" x2="39.51" y2="27.23"/><line class="cls-8" x1="42.28" y1="27.23" x2="49.66" y2="27.23"/><line class="cls-8" x1="28.82" y1="29.44" x2="34.14" y2="29.44"/><line class="cls-8" x1="36.99" y1="29.44" x2="49.66" y2="29.44"/><line class="cls-8" x1="28.82" y1="31.83" x2="30.81" y2="31.83"/><line class="cls-8" x1="32.84" y1="31.83" x2="39.51" y2="31.83"/><line class="cls-8" x1="42.28" y1="31.83" x2="49.66" y2="31.83"/><line class="cls-8" x1="28.82" y1="34.15" x2="34.14" y2="34.15"/><line class="cls-8" x1="36.99" y1="34.15" x2="49.66" y2="34.15"/><line class="cls-8" x1="28.82" y1="36.16" x2="36.18" y2="36.16"/><line class="cls-8" x1="38.29" y1="36.16" x2="49.66" y2="36.16"/><line class="cls-8" x1="34.91" y1="42.92" x2="44.47" y2="42.92"/><path class="cls-9" d="M14.75,64.39a9,9,0,1,0-9-9A9,9,0,0,0,14.75,64.39Z" transform="translate(-3.91 -11.05)"/><path class="cls-10" d="M7.76,58.09h5.5V53a2.75,2.75,0,0,0-2.75-2.75h0A2.76,2.76,0,0,0,7.76,53Z" transform="translate(-3.91 -11.05)"/><path class="cls-10" d="M13.26,58.09h8.18v-5a2.84,2.84,0,0,0-2.82-2.83H10.51a2.69,2.69,0,0,1,2.75,2.59Z" transform="translate(-3.91 -11.05)"/><rect class="cls-11" x="10.77" y="44.17" width="3.65" height="1.92" rx="0.96"/><rect class="cls-12" x="8.35" y="12.06" width="7.83" height="13.86" transform="matrix(0.52, -0.85, 0.85, 0.52, -14.25, 8.52)"/><g class="cls-13"><polyline class="cls-14" points="6.24 2.07 8.12 8.14 14.53 7.13"/><polyline class="cls-14" points="4.72 1.14 7.3 9.47 16.11 8.09"/><line class="cls-15" x1="9.77" y1="11.11" x2="12.47" y2="12.75"/><line class="cls-15" x1="9.23" y1="11.98" x2="11.93" y2="13.63"/></g><rect class="cls-16" x="8.35" y="12.06" width="7.83" height="13.86" transform="matrix(0.52, -0.85, 0.85, 0.52, -14.25, 8.52)"/><polygon class="cls-9" points="55.99 55.25 23.67 55.25 23.67 34.39 36.56 44.17 39.63 46.51 43.05 43.98 55.99 34.39 55.99 55.25"/><line class="cls-17" x1="55.99" y1="55.25" x2="43.05" y2="43.98"/><path class="cls-2" d="M27.58,45.44l16,12.12L59.91,45.44M27.58,66.3,40.47,55.22" transform="translate(-3.91 -11.05)"/><rect class="cls-18" x="11.57" y="47.18" width="1.61" height="5.72"/><path class="cls-19" d="M17.75,51.82H16.34V46.1h2a3.38,3.38,0,0,0-.6,2.06Z" transform="translate(-3.91 -11.05)"/><polyline class="cls-20" points="5.6 33.72 5.65 28.84 0.51 28.84 0.51 18.86 8.9 18.86 10.13 17.08"/><polyline class="cls-20" points="15.01 11.23 18.06 11.23 18.06 21.36 22.44 21.36 22.44 5.69 39.63 5.69 39.63 9.4"/><polyline class="cls-20" points="72.2 17.9 72.2 22.78 78.15 22.78 78.15 38.96 71.84 38.96"/><circle class="cls-21" cx="3.34" cy="15" r="2.38"/><path class="cls-22" d="M23.25,16.78a2.38,2.38,0,1,0-2.38-2.37A2.38,2.38,0,0,0,23.25,16.78Z" transform="translate(-3.91 -11.05)"/><path class="cls-22" d="M57.54,16.88a2.38,2.38,0,1,0-2.38-2.37A2.38,2.38,0,0,0,57.54,16.88Z" transform="translate(-3.91 -11.05)"/><circle class="cls-21" cx="62.58" cy="18.42" r="2.38"/><path class="cls-22" d="M79.42,60.84A2.38,2.38,0,1,0,77,58.47,2.38,2.38,0,0,0,79.42,60.84Z" transform="translate(-3.91 -11.05)"/><line class="cls-23" x1="13.99" y1="17.45" x2="13.99" y2="20.2"/><line class="cls-23" x1="15.37" y1="18.83" x2="12.62" y2="18.83"/><line class="cls-23" x1="27.98" x2="27.98" y2="2.75"/><line class="cls-24" x1="29.36" y1="1.37" x2="26.61" y2="1.37"/><line class="cls-23" x1="44.88" y1="4.53" x2="44.88" y2="7.28"/><line class="cls-23" x1="46.25" y1="5.9" x2="43.5" y2="5.9"/><line class="cls-24" x1="76.73" y1="55.71" x2="76.73" y2="58.46"/><line class="cls-23" x1="78.1" y1="57.09" x2="75.35" y2="57.09"/><line class="cls-24" x1="1.53" y1="55.81" x2="1.53" y2="58.56"/><line class="cls-23" x1="2.9" y1="57.19" x2="0.15" y2="57.19"/><circle class="cls-17" cx="70.16" cy="8.39" r="6.36"/><path class="cls-25" d="M65.87,17.53a8.43,8.43,0,0,1,5.9-6.19m5.29.23a8.41,8.41,0,0,1,5.27,6.21m-.25,4.29a8.48,8.48,0,0,1-3.66,4.59m-4.34,1.2a8.42,8.42,0,0,1-8-5.83" transform="translate(-3.91 -11.05)"/><path class="cls-26" d="M77.74,21.43a3.07,3.07,0,0,1-1.31,1.26,4.47,4.47,0,0,1-2.11.47,4,4,0,0,1-2.89-.95,3.28,3.28,0,0,1-1-2.53,4.55,4.55,0,0,1,.45-1.95,3.45,3.45,0,0,1,1.32-1.48,3.87,3.87,0,0,1,2.06-.53,3.32,3.32,0,0,1,2.41.89,2.88,2.88,0,0,1,.9,2.13,2.83,2.83,0,0,1-.73,1.93,2.12,2.12,0,0,1-1.6.84c-.48,0-.72-.21-.75-.65a1.59,1.59,0,0,1-1.18.65,1.23,1.23,0,0,1-1-.51,1.88,1.88,0,0,1-.41-1.23,2.65,2.65,0,0,1,.62-1.68,1.76,1.76,0,0,1,1.39-.78,1.31,1.31,0,0,1,1.17.71l.14-.6h.69c-.38,1.78-.59,2.74-.62,2.88a1.24,1.24,0,0,0-.06.31.21.21,0,0,0,.09.19.27.27,0,0,0,.18.07,1.11,1.11,0,0,0,.62-.3,2.17,2.17,0,0,0,.63-.79A2.24,2.24,0,0,0,77,18.72a2.2,2.2,0,0,0-.8-1.75,2.9,2.9,0,0,0-2-.69,3,3,0,0,0-2.33,1,3.33,3.33,0,0,0-.9,2.37,2.74,2.74,0,0,0,.9,2.21,3.67,3.67,0,0,0,2.44.76A4,4,0,0,0,76,22.28,2.54,2.54,0,0,0,77,21.43Zm-4.31-.49a1.25,1.25,0,0,0,1-.59A2.26,2.26,0,0,0,74.84,19a1.14,1.14,0,0,0-.26-.82.79.79,0,0,0-.64-.29,1.12,1.12,0,0,0-1,.64,2.47,2.47,0,0,0-.38,1.3,1.25,1.25,0,0,0,.25.82A.72.72,0,0,0,73.43,20.94Z" transform="translate(-3.91 -11.05)"/></svg>