<svg id="Layer_1" data-name="Layer 1" xmlns="http://www.w3.org/2000/svg" viewBox="0 0 78.89 57.26"><defs><style>.cls-1,.cls-10,.cls-11,.cls-13,.cls-16,.cls-4,.cls-7,.cls-9{fill-rule:evenodd;}.cls-16,.cls-2,.cls-4,.cls-5,.cls-8{fill:#25282b;}.cls-10,.cls-11,.cls-12,.cls-2,.cls-3,.cls-4,.cls-5,.cls-7,.cls-8,.cls-9{stroke:#000;}.cls-10,.cls-11,.cls-12,.cls-13,.cls-14,.cls-15,.cls-2,.cls-3,.cls-7,.cls-8,.cls-9{stroke-miterlimit:22.93;}.cls-11,.cls-13,.cls-15,.cls-2,.cls-3,.cls-4,.cls-5,.cls-9{stroke-width:0.67px;}.cls-10,.cls-11,.cls-12,.cls-13,.cls-14,.cls-15,.cls-3,.cls-7,.cls-9{fill:none;}.cls-4,.cls-5{stroke-linejoin:round;}.cls-6{fill:#141618;}.cls-14,.cls-7{stroke-width:0.67px;}.cls-8{stroke-width:0.7px;}.cls-10{stroke-linecap:square;stroke-width:0.72px;}.cls-11{stroke-dasharray:1.34 3.34;}.cls-12{stroke-width:0.7px;stroke-dasharray:1.4 3.51;}.cls-13,.cls-14,.cls-15{stroke:#ccc;}.cls-13{stroke-dasharray:1.34 2.01;}</style></defs><title>BRAND POSITIONING</title><path class="cls-1" d="M31.37,25.36H46.84l9.69,9.8V60.48a3,3,0,0,1-3,3H31.37a3,3,0,0,1-3-3V28.32a3,3,0,0,1,3-3ZM46.56,26H31.37a2.32,2.32,0,0,0-1.62.67h0a2.32,2.32,0,0,0-.67,1.62V60.48a2.32,2.32,0,0,0,.67,1.62h0a2.27,2.27,0,0,0,1.62.67h22.2a2.27,2.27,0,0,0,1.62-.67h0a2.3,2.3,0,0,0,.67-1.62v-25Z" transform="translate(-3.59 -14.57)"/><circle class="cls-2" cx="38.88" cy="31.55" r="6.55"/><line class="cls-3" x1="38.88" y1="23.18" x2="38.88" y2="26.81"/><line class="cls-3" x1="34.14" y1="31.55" x2="30.51" y2="31.55"/><line class="cls-3" x1="38.88" y1="36.29" x2="38.88" y2="39.92"/><line class="cls-3" x1="47.25" y1="31.55" x2="43.62" y2="31.55"/><path class="cls-4" d="M56.21,35.3H50A3.33,3.33,0,0,1,46.84,32l-.07-6.27Z" transform="translate(-3.59 -14.57)"/><rect class="cls-5" x="13.48" y="0.33" width="17.54" height="15.61"/><rect class="cls-6" x="26.09" y="3.19" width="3.16" height="0.83"/><rect class="cls-6" x="22.24" y="3.28" width="2.53" height="0.67"/><rect class="cls-6" x="15.24" y="2.85" width="5.77" height="1.52"/><rect class="cls-6" x="15.24" y="5.61" width="7.81" height="2.06"/><rect class="cls-6" x="26.09" y="6.23" width="3.16" height="0.83"/><rect class="cls-6" x="27.99" y="9.3" width="1.25" height="0.67"/><rect class="cls-6" x="22.26" y="9.05" width="4.43" height="1.17"/><rect class="cls-6" x="15.24" y="8.88" width="5.69" height="1.5"/><rect class="cls-6" x="26.09" y="12.25" width="3.16" height="0.83"/><rect class="cls-6" x="15.24" y="11.66" width="7.64" height="2.02"/><polyline class="cls-7" points="58.66 25.59 58.66 36.91 78.89 36.91"/><rect class="cls-8" x="60.56" y="32.94" width="2.23" height="3.98"/><rect class="cls-8" x="65.43" y="28.38" width="2.23" height="8.54"/><rect class="cls-8" x="70.31" y="30.79" width="2.23" height="6.12"/><rect class="cls-8" x="75.18" y="32.64" width="2.23" height="4.28"/><path class="cls-9" d="M13.32,48.83A4.35,4.35,0,1,0,9,44.48,4.35,4.35,0,0,0,13.32,48.83Z" transform="translate(-3.59 -14.57)"/><polygon class="cls-1" points="8.7 34.15 10.76 34.15 9.76 36.06 8.7 34.15"/><path class="cls-10" d="M14.79,50.56c2,.2,3.48.79,3.48,1.49,0,.86-2.2,1.56-4.92,1.56s-4.93-.7-4.93-1.56c0-.7,1.47-1.3,3.49-1.49" transform="translate(-3.59 -14.57)"/><polyline class="cls-11" points="66.97 39.48 66.97 56.87 9.98 56.93 9.98 40.27"/><polyline class="cls-11" points="66.97 22.3 66.97 15.58 52.56 15.58"/><line class="cls-12" x1="15.67" y1="29.83" x2="23.76" y2="29.83"/><path class="cls-13" d="M6.47,28.35a2.55,2.55,0,1,0-2.55-2.54A2.54,2.54,0,0,0,6.47,28.35Z" transform="translate(-3.59 -14.57)"/><line class="cls-14" x1="38.64" y1="51.49" x2="38.64" y2="54.67"/><line class="cls-15" x1="40.23" y1="53.08" x2="37.05" y2="53.08"/><line class="cls-15" x1="75.89" y1="19.25" x2="75.89" y2="22.43"/><line class="cls-14" x1="77.48" y1="20.84" x2="74.3" y2="20.84"/><line class="cls-15" x1="39.35" y1="1.86" x2="39.35" y2="5.04"/><line class="cls-15" x1="40.94" y1="3.45" x2="37.75" y2="3.45"/><line class="cls-15" x1="10.13" y1="17.45" x2="10.13" y2="20.63"/><line class="cls-14" x1="11.72" y1="19.04" x2="8.54" y2="19.04"/><path class="cls-13" d="M21.07,64.05a2.54,2.54,0,1,0-2.55-2.54A2.54,2.54,0,0,0,21.07,64.05Z" transform="translate(-3.59 -14.57)"/><path class="cls-13" d="M60.91,24.23a2.54,2.54,0,1,0-2.54-2.54A2.55,2.55,0,0,0,60.91,24.23Z" transform="translate(-3.59 -14.57)"/><path class="cls-13" d="M63.92,67.6a2.55,2.55,0,1,0-2.54-2.55A2.55,2.55,0,0,0,63.92,67.6Z" transform="translate(-3.59 -14.57)"/><polygon class="cls-16" points="7.25 31.15 9.54 32.27 9.54 29.98 7.25 28.86 7.25 31.15"/><polygon class="cls-16" points="9.77 29.64 7.57 28.56 9.72 27.56 11.92 28.55 9.77 29.64"/><polygon class="cls-16" points="12.21 31.15 9.91 32.27 9.91 29.98 12.21 28.86 12.21 31.15"/></svg>