<svg id="Layer_1" data-name="Layer 1" xmlns="http://www.w3.org/2000/svg" viewBox="0 0 78.9 65.1"><defs><style>.cls-1,.cls-10,.cls-11,.cls-12,.cls-15,.cls-16,.cls-17,.cls-18,.cls-19,.cls-20,.cls-21,.cls-22,.cls-23,.cls-3,.cls-4{fill:none;}.cls-1,.cls-10,.cls-11,.cls-12,.cls-13,.cls-14,.cls-2,.cls-20,.cls-22,.cls-3,.cls-4,.cls-5,.cls-6,.cls-7,.cls-8,.cls-9{stroke:#000;}.cls-1,.cls-10,.cls-11,.cls-12,.cls-13,.cls-14,.cls-15,.cls-16,.cls-17,.cls-18,.cls-19,.cls-2,.cls-20,.cls-21,.cls-22,.cls-23,.cls-3,.cls-4,.cls-5,.cls-6,.cls-7,.cls-8,.cls-9{stroke-miterlimit:22.93;}.cls-1{stroke-width:0.98px;}.cls-13,.cls-2,.cls-5,.cls-8,.cls-9{fill:#25282b;}.cls-10,.cls-15,.cls-17,.cls-18,.cls-2,.cls-3,.cls-5,.cls-6{stroke-width:0.7px;}.cls-13,.cls-14,.cls-15,.cls-16,.cls-2,.cls-20,.cls-21,.cls-23,.cls-3{fill-rule:evenodd;}.cls-13,.cls-14,.cls-16,.cls-19,.cls-20,.cls-23,.cls-4,.cls-7,.cls-9{stroke-width:0.7px;}.cls-14,.cls-6,.cls-7{fill:#141618;}.cls-8{stroke-width:0.98px;}.cls-11{stroke-width:0.77px;}.cls-12{stroke-width:0.87px;}.cls-15,.cls-16,.cls-17,.cls-18,.cls-19{stroke:#ccc;}.cls-15,.cls-17{stroke-dasharray:1.39 2.09;}.cls-16{stroke-dasharray:1.39 2.09;}.cls-20{stroke-dasharray:1.39 3.48;}.cls-21{stroke:#141618;stroke-linecap:round;stroke-width:0.54px;}.cls-22{stroke-width:1px;}.cls-23{stroke:#25282b;}</style></defs><title>BRAND STRATEGY</title><rect class="cls-1" x="15.34" y="15.9" width="46.01" height="40.25" rx="2.78"/><path class="cls-2" d="M64.92,29.77h-46v-.59a2.8,2.8,0,0,1,2.79-2.79H62.14a2.8,2.8,0,0,1,2.78,2.79Z" transform="translate(-3.58 -10.49)"/><path class="cls-3" d="M64.92,62.57h-46v1.29a2.8,2.8,0,0,0,2.79,2.78H62.14a2.79,2.79,0,0,0,2.78-2.78Z" transform="translate(-3.58 -10.49)"/><path class="cls-3" d="M64.92,34.52h1a1,1,0,0,1,1,1V64H64.92Z" transform="translate(-3.58 -10.49)"/><rect class="cls-4" x="42.48" y="44.7" width="16.5" height="7.37"/><rect class="cls-5" x="19.39" y="22.06" width="25.76" height="20.98"/><rect class="cls-5" x="47.11" y="21.97" width="11.66" height="3.44"/><rect class="cls-6" x="47.11" y="27.28" width="4.17" height="4.17"/><rect class="cls-5" x="47.11" y="32.79" width="4.17" height="4.17"/><rect class="cls-6" x="47.11" y="38.9" width="4.17" height="4.17"/><rect class="cls-7" x="22.07" y="32.78" width="4.82" height="10.27"/><rect class="cls-6" x="29.58" y="30.05" width="5.37" height="13"/><rect class="cls-6" x="37.7" y="27.36" width="4.8" height="15.68"/><rect class="cls-8" x="19.33" y="44.33" width="12.98" height="2.71"/><rect class="cls-9" x="33.65" y="44.33" width="4.75" height="2.71"/><rect class="cls-10" x="36.34" y="53.67" width="4" height="0.89"/><line class="cls-4" x1="26.54" y1="17.83" x2="46.17" y2="17.83"/><line class="cls-4" x1="17.46" y1="52.07" x2="17.46" y2="24.86"/><line class="cls-4" x1="19.42" y1="48.81" x2="23.07" y2="48.81"/><line class="cls-10" x1="27.4" y1="48.81" x2="35.34" y2="48.81"/><line class="cls-10" x1="24.52" y1="48.81" x2="25.85" y2="48.81"/><line class="cls-10" x1="36.72" y1="48.81" x2="38.74" y2="48.81"/><line class="cls-10" x1="19.42" y1="50.44" x2="25.18" y2="50.44"/><line class="cls-10" x1="26.57" y1="50.44" x2="34.68" y2="50.44"/><line class="cls-4" x1="36.05" y1="50.44" x2="38.74" y2="50.44"/><line class="cls-11" x1="53.67" y1="28.05" x2="57.7" y2="28.05"/><line class="cls-10" x1="53.67" y1="30.44" x2="56.34" y2="30.44"/><line class="cls-10" x1="57.06" y1="30.44" x2="58.37" y2="30.44"/><line class="cls-11" x1="53.67" y1="34" x2="57.7" y2="34"/><line class="cls-10" x1="53.67" y1="36.39" x2="56.34" y2="36.39"/><line class="cls-10" x1="57.06" y1="36.39" x2="58.37" y2="36.39"/><line class="cls-10" x1="53.67" y1="39.66" x2="56.33" y2="39.66"/><line class="cls-12" x1="53.67" y1="42.05" x2="58.21" y2="42.05"/><path class="cls-2" d="M63.44,68a5.56,5.56,0,1,0-5.56-5.56A5.57,5.57,0,0,0,63.44,68Z" transform="translate(-3.58 -10.49)"/><line class="cls-4" x1="63.81" y1="55.94" x2="65.96" y2="58.09"/><polygon class="cls-13" points="69.47 57.86 68.64 58.69 72.39 62.49 70.21 64.61 66.34 60.59 65.4 61.47 64.07 59.98 67.92 56.31 69.47 57.86"/><path class="cls-2" d="M18.49,35.78A10.69,10.69,0,1,0,7.8,25.09,10.71,10.71,0,0,0,18.49,35.78Z" transform="translate(-3.58 -10.49)"/><circle class="cls-6" cx="14.92" cy="14.59" r="8.85"/><path class="cls-2" d="M11.16,25.05c4.71-4.4,9.59-4.55,14.67,0C21.12,29.47,16.24,29.67,11.16,25.05Z" transform="translate(-3.58 -10.49)"/><path class="cls-14" d="M18.47,28.48a3.4,3.4,0,1,0-3.39-3.39A3.4,3.4,0,0,0,18.47,28.48Z" transform="translate(-3.58 -10.49)"/><path class="cls-2" d="M18.47,26.76a1.68,1.68,0,1,0-1.67-1.67A1.68,1.68,0,0,0,18.47,26.76Z" transform="translate(-3.58 -10.49)"/><path class="cls-15" d="M6.59,17.1a2.67,2.67,0,1,0-2.67-2.67A2.68,2.68,0,0,0,6.59,17.1Z" transform="translate(-3.58 -10.49)"/><path class="cls-15" d="M39,24a2.67,2.67,0,1,0-2.67-2.67A2.68,2.68,0,0,0,39,24Z" transform="translate(-3.58 -10.49)"/><path class="cls-15" d="M71,33.29a2.67,2.67,0,1,0-2.66-2.66A2.67,2.67,0,0,0,71,33.29Z" transform="translate(-3.58 -10.49)"/><path class="cls-16" d="M79.41,60.44a2.67,2.67,0,1,0-2.67-2.67A2.68,2.68,0,0,0,79.41,60.44Z" transform="translate(-3.58 -10.49)"/><path class="cls-15" d="M58.31,74.55a2.67,2.67,0,1,0-2.67-2.67A2.67,2.67,0,0,0,58.31,74.55Z" transform="translate(-3.58 -10.49)"/><circle class="cls-17" cx="9.58" cy="48.75" r="2.67"/><line class="cls-18" x1="2.1" y1="38.26" x2="2.1" y2="41.57"/><line class="cls-18" x1="3.75" y1="39.91" x2="0.44" y2="39.91"/><line class="cls-18" x1="10.62" y1="27.77" x2="10.62" y2="31.08"/><line class="cls-18" x1="12.28" y1="29.42" x2="8.97" y2="29.42"/><line class="cls-18" x1="9.4" y1="56.91" x2="9.4" y2="60.22"/><line class="cls-18" x1="11.05" y1="58.56" x2="7.74" y2="58.56"/><line class="cls-18" x1="77.24" y1="61.69" x2="77.24" y2="65"/><line class="cls-18" x1="78.9" y1="63.35" x2="75.59" y2="63.35"/><line class="cls-18" x1="73.07" y1="28.07" x2="73.07" y2="31.39"/><line class="cls-18" x1="74.73" y1="29.73" x2="71.42" y2="29.73"/><line class="cls-18" x1="41.54" y1="2.68" x2="41.54" y2="5.99"/><line class="cls-18" x1="43.2" y1="4.33" x2="39.88" y2="4.33"/><line class="cls-18" x1="27.43" y1="3.29" x2="27.43" y2="6.6"/><line class="cls-19" x1="29.09" y1="4.95" x2="25.78" y2="4.95"/><path class="cls-20" d="M16.78,51.27c-7.7-4.09-12.33-9.6-9-21.69" transform="translate(-3.58 -10.49)"/><path class="cls-20" d="M68,41.93c8.83,5.43,8.58,17.16,2,23" transform="translate(-3.58 -10.49)"/><rect class="cls-4" x="33.55" y="56.15" width="10.92" height="8.59"/><line class="cls-4" x1="49.59" y1="64.74" x2="28.55" y2="64.74"/><line class="cls-10" x1="19.1" y1="64.74" x2="6.53" y2="64.74"/><line class="cls-10" x1="25.85" y1="64.74" x2="21.14" y2="64.74"/><line class="cls-10" x1="33.55" y1="61.95" x2="19.06" y2="61.95"/><path class="cls-21" d="M62.27,58.55a4.1,4.1,0,0,1,5,2.35" transform="translate(-3.58 -10.49)"/><rect class="cls-22" x="47.81" y="2.25" width="26.47" height="12.36" rx="6.18"/><path class="cls-2" d="M64.3,11.64a5.86,5.86,0,0,1,3.37,1.06l-2.34,4.24h4.8a5.07,5.07,0,0,1,0,.55,5.86,5.86,0,1,1-5.86-5.85Z" transform="translate(-3.58 -10.49)"/><path class="cls-14" d="M73.35,15.09l-5.48.21,2.5-4.4C72.43,11.49,73.28,13,73.35,15.09Z" transform="translate(-3.58 -10.49)"/><path class="cls-23" d="M74.25,11.27c4,1.78,5.9,5,5.21,9.78" transform="translate(-3.58 -10.49)"/><path class="cls-23" d="M50,16.42a10.55,10.55,0,0,1,4.6-5" transform="translate(-3.58 -10.49)"/></svg>