<svg id="Layer_1" data-name="Layer 1" xmlns="http://www.w3.org/2000/svg" viewBox="0 0 77.28 62.85"><defs><style>.cls-1,.cls-10{fill:#25282b;}.cls-1,.cls-10,.cls-14,.cls-15,.cls-16,.cls-2,.cls-3,.cls-5,.cls-6,.cls-7,.cls-8{stroke:#000;}.cls-1,.cls-10,.cls-11,.cls-12,.cls-13,.cls-14,.cls-15,.cls-16,.cls-2,.cls-3,.cls-4,.cls-5,.cls-6,.cls-7,.cls-8{stroke-miterlimit:22.93;}.cls-1,.cls-10,.cls-11,.cls-13,.cls-16,.cls-3,.cls-4,.cls-6,.cls-7,.cls-8{stroke-width:0.56px;}.cls-15,.cls-2,.cls-5,.cls-6,.cls-7,.cls-9{fill:#141618;}.cls-12,.cls-14,.cls-2,.cls-5{stroke-width:0.56px;}.cls-11,.cls-12,.cls-13,.cls-14,.cls-16,.cls-3,.cls-4,.cls-8{fill:none;}.cls-10,.cls-11,.cls-16,.cls-3,.cls-4,.cls-5,.cls-7{fill-rule:evenodd;}.cls-4{stroke:#141618;}.cls-11,.cls-12,.cls-13{stroke:#ccc;}.cls-11{stroke-dasharray:1.12 1.68;}.cls-15{stroke-width:0.69px;}.cls-16{stroke-linecap:round;}</style></defs><title>BRAND RESEARCH</title><rect class="cls-1" x="11.81" y="13.92" width="55.06" height="41.35"/><rect class="cls-2" x="25.03" y="23.2" width="28.82" height="28.22"/><rect class="cls-1" x="11.81" y="13.92" width="55.06" height="4.93"/><circle class="cls-1" cx="39.39" cy="37.36" r="6.21"/><rect class="cls-1" x="32.83" y="1.59" width="17.07" height="15.2"/><path class="cls-3" d="M43.88,60.68A11.55,11.55,0,1,0,32.34,49.13,11.57,11.57,0,0,0,43.88,60.68Z" transform="translate(-4.49 -11.77)"/><path class="cls-4" d="M52.66,49.13a8.78,8.78,0,1,1-8.78-8.78" transform="translate(-4.49 -11.77)"/><path class="cls-5" d="M22.82,64.35a1.53,1.53,0,1,0-1.53-1.53A1.54,1.54,0,0,0,22.82,64.35Z" transform="translate(-4.49 -11.77)"/><polyline class="cls-3" points="19.49 50.06 27.55 43.49 27.55 47.78 43.34 35.94 43.34 39.69 59.35 24.37"/><circle class="cls-6" cx="15.22" cy="16.39" r="1.31"/><path class="cls-5" d="M25.33,29.47a1.31,1.31,0,1,0,0-2.61,1.31,1.31,0,0,0,0,2.61Z" transform="translate(-4.49 -11.77)"/><path class="cls-7" d="M31,29.47a1.31,1.31,0,1,0-1.31-1.31A1.31,1.31,0,0,0,31,29.47Z" transform="translate(-4.49 -11.77)"/><line class="cls-8" x1="54.79" y1="16.39" x2="65.1" y2="16.39"/><rect class="cls-9" x="34.58" y="3.24" width="3.23" height="0.7"/><rect class="cls-9" x="39.16" y="3.31" width="2.59" height="0.56"/><rect class="cls-9" x="43.01" y="2.95" width="5.91" height="1.28"/><rect class="cls-9" x="40.92" y="5.05" width="7.99" height="1.73"/><rect class="cls-9" x="34.58" y="5.56" width="3.23" height="0.7"/><rect class="cls-9" x="34.58" y="7.9" width="1.28" height="0.56"/><rect class="cls-9" x="37.2" y="7.69" width="4.54" height="0.98"/><rect class="cls-9" x="43.09" y="7.55" width="5.82" height="1.26"/><rect class="cls-9" x="34.58" y="10.15" width="3.23" height="0.7"/><rect class="cls-9" x="41.1" y="9.66" width="7.82" height="1.69"/><rect class="cls-9" x="34.58" y="12.44" width="0.64" height="0.56"/><rect class="cls-9" x="36.49" y="12.16" width="5.22" height="1.13"/><rect class="cls-9" x="43.07" y="12.09" width="5.85" height="1.26"/><rect class="cls-9" x="34.58" y="14.72" width="3.23" height="0.7"/><rect class="cls-9" x="40.44" y="14.15" width="8.48" height="1.83"/><polyline class="cls-3" points="54.83 24.37 59.35 24.37 59.35 28.82"/><path class="cls-10" d="M4.91,40.66c5.89-5.51,12-5.69,18.35,0C17.37,46.19,11.26,46.43,4.91,40.66Z" transform="translate(-4.49 -11.77)"/><polyline class="cls-3" points="32.59 0.3 51.54 0.28 51.54 13.92"/><path class="cls-3" d="M37.67,48.91a6.22,6.22,0,1,1,6,6.44" transform="translate(-4.49 -11.77)"/><path class="cls-11" d="M28.43,21.67A2.64,2.64,0,1,0,25.8,19,2.65,2.65,0,0,0,28.43,21.67Z" transform="translate(-4.49 -11.77)"/><path class="cls-11" d="M33.59,74.09a2.23,2.23,0,1,0-2.23-2.23A2.23,2.23,0,0,0,33.59,74.09Z" transform="translate(-4.49 -11.77)"/><path class="cls-11" d="M63.32,21.33a2.15,2.15,0,1,0-2.15-2.15A2.15,2.15,0,0,0,63.32,21.33Z" transform="translate(-4.49 -11.77)"/><path class="cls-11" d="M10.63,30.33a2.15,2.15,0,1,0-2.15-2.15A2.16,2.16,0,0,0,10.63,30.33Z" transform="translate(-4.49 -11.77)"/><path class="cls-11" d="M11.8,65.81a2.15,2.15,0,1,0-2.15-2.15A2.15,2.15,0,0,0,11.8,65.81Z" transform="translate(-4.49 -11.77)"/><path class="cls-11" d="M78.86,32.19a2.64,2.64,0,1,0-2.64-2.64A2.64,2.64,0,0,0,78.86,32.19Z" transform="translate(-4.49 -11.77)"/><line class="cls-12" x1="10.82" y1="3.87" x2="10.82" y2="6.53"/><line class="cls-12" x1="12.15" y1="5.2" x2="9.49" y2="5.2"/><line class="cls-13" x1="70.93" y1="3.11" x2="70.93" y2="5.77"/><line class="cls-13" x1="72.27" y1="4.44" x2="69.6" y2="4.44"/><line class="cls-13" x1="6.34" y1="38.23" x2="6.34" y2="40.89"/><line class="cls-13" x1="7.67" y1="39.56" x2="5.01" y2="39.56"/><line class="cls-12" x1="14.4" y1="59.65" x2="14.4" y2="62.31"/><line class="cls-13" x1="15.74" y1="60.98" x2="13.07" y2="60.98"/><line class="cls-13" x1="45.64" y1="57.88" x2="45.64" y2="60.55"/><line class="cls-12" x1="46.97" y1="59.22" x2="44.31" y2="59.22"/><line class="cls-14" x1="43.25" y1="62.57" x2="40.58" y2="62.57"/><circle class="cls-6" cx="68.03" cy="35.19" r="8.73"/><circle class="cls-1" cx="68.03" cy="35.19" r="7.01"/><rect class="cls-15" x="66.83" y="43.89" width="2.39" height="5.41"/><rect class="cls-1" x="65.1" y="49.3" width="5.86" height="2.15"/><rect class="cls-1" x="66" y="51.44" width="4.05" height="10.73"/><line class="cls-8" x1="70.06" y1="62.18" x2="50.6" y2="62.18"/><path class="cls-7" d="M14.06,45A4.25,4.25,0,1,0,9.81,40.7,4.25,4.25,0,0,0,14.06,45Z" transform="translate(-4.49 -11.77)"/><path class="cls-10" d="M14.06,42.76A2.06,2.06,0,1,0,12,40.7,2.06,2.06,0,0,0,14.06,42.76Z" transform="translate(-4.49 -11.77)"/><path class="cls-16" d="M68.26,43.69a5.37,5.37,0,0,1,4.91-2.06m2.62,1.07a5.37,5.37,0,0,1,1,7.54" transform="translate(-4.49 -11.77)"/></svg>