<svg id="Layer_1" data-name="Layer 1" xmlns="http://www.w3.org/2000/svg" viewBox="0 0 79.12 64.63"><defs><style>.cls-1,.cls-4,.cls-5,.cls-6{fill:#25282b;}.cls-1,.cls-11,.cls-12,.cls-13,.cls-2,.cls-3,.cls-4,.cls-5,.cls-6,.cls-7{stroke:#000;}.cls-1,.cls-10,.cls-11,.cls-12,.cls-13,.cls-14,.cls-15,.cls-16,.cls-17,.cls-2,.cls-3,.cls-4,.cls-5,.cls-6,.cls-7,.cls-9{stroke-miterlimit:22.93;}.cls-1,.cls-5,.cls-9{stroke-width:0.58px;}.cls-1,.cls-11,.cls-12,.cls-13,.cls-14,.cls-15,.cls-2,.cls-3,.cls-6,.cls-8,.cls-9{fill-rule:evenodd;}.cls-2,.cls-3,.cls-8{fill:#141618;}.cls-10,.cls-15,.cls-16,.cls-2{stroke-width:0.57px;}.cls-13,.cls-14,.cls-17,.cls-3,.cls-4,.cls-6,.cls-7{stroke-width:0.57px;}.cls-10,.cls-11,.cls-12,.cls-13,.cls-14,.cls-15,.cls-16,.cls-17,.cls-7,.cls-9{fill:none;}.cls-7{stroke-linecap:round;}.cls-10,.cls-9{stroke:#141618;}.cls-11{stroke-width:0.59px;stroke-dasharray:1.19 1.78;}.cls-12{stroke-width:0.63px;stroke-dasharray:1.25 1.88;}.cls-13,.cls-14{stroke-dasharray:1.13 1.7;}.cls-14,.cls-15,.cls-16,.cls-17{stroke:#ccc;}.cls-15{stroke-dasharray:1.13 1.7;}</style></defs><title>BRAND STORY</title><path class="cls-1" d="M42.94,59A15.49,15.49,0,1,0,27.46,43.52,15.52,15.52,0,0,0,42.94,59Z" transform="translate(-3.64 -11)"/><path class="cls-2" d="M42.94,56.11A12.59,12.59,0,1,0,30.35,43.52,12.61,12.61,0,0,0,42.94,56.11Z" transform="translate(-3.64 -11)"/><path class="cls-1" d="M16,41.07A11.34,11.34,0,1,0,4.67,29.73,11.37,11.37,0,0,0,16,41.07Z" transform="translate(-3.64 -11)"/><path class="cls-1" d="M70.07,35.38A11.34,11.34,0,1,0,58.73,24,11.36,11.36,0,0,0,70.07,35.38Z" transform="translate(-3.64 -11)"/><path class="cls-3" d="M6.7,21.29H25.28a2.78,2.78,0,0,1,2.78,2.77v8.48L33.38,38l-8.1-2.69H6.7a2.79,2.79,0,0,1-2.78-2.78V24.06A2.78,2.78,0,0,1,6.7,21.29Z" transform="translate(-3.64 -11)"/><path class="cls-2" d="M79.07,17.19H60.48A2.78,2.78,0,0,0,57.71,20v8.48l-5.32,5.47,8.09-2.7H79.07a2.78,2.78,0,0,0,2.77-2.77V20A2.78,2.78,0,0,0,79.07,17.19Z" transform="translate(-3.64 -11)"/><rect class="cls-4" x="60.9" y="8.29" width="11.06" height="9.5"/><path class="cls-1" d="M17.61,75.34A11.35,11.35,0,1,0,6.27,64,11.37,11.37,0,0,0,17.61,75.34Z" transform="translate(-3.64 -11)"/><path class="cls-3" d="M8.1,71H26.68a2.78,2.78,0,0,0,2.77-2.77V59.73l5.32-5.47L26.68,57H8.1a2.78,2.78,0,0,0-2.78,2.77v8.49A2.78,2.78,0,0,0,8.1,71Z" transform="translate(-3.64 -11)"/><circle class="cls-5" cx="67.07" cy="52.29" r="11.34"/><path class="cls-2" d="M79.7,70.13H61.12a2.78,2.78,0,0,1-2.78-2.77V58.88L53,53.41l8.1,2.7H79.7a2.78,2.78,0,0,1,2.78,2.77v8.48A2.78,2.78,0,0,1,79.7,70.13Z" transform="translate(-3.64 -11)"/><path class="cls-6" d="M44.47,47.43h-1a4.29,4.29,0,0,1-4.33-2.6H35.74A2.66,2.66,0,0,1,33,42.29h0a2.66,2.66,0,0,1,2.76-2.55h3.38a4.15,4.15,0,0,1,4.28-2.68h1.07Z" transform="translate(-3.64 -11)"/><path class="cls-6" d="M44.47,39.82a2.5,2.5,0,0,1,0,5Z" transform="translate(-3.64 -11)"/><rect class="cls-4" x="32.1" y="33.84" width="2.06" height="4.97"/><line class="cls-7" x1="45.05" y1="27.96" x2="48.15" y2="26.59"/><line class="cls-7" x1="45.05" y1="31.51" x2="48.9" y2="31.51"/><line class="cls-7" x1="45.05" y1="34.77" x2="48.15" y2="36.14"/><rect class="cls-4" x="61.54" y="47.54" width="11.06" height="9.5"/><polygon class="cls-2" points="72.6 57.04 62.28 57.04 65.74 54.22 67.52 56.33 70.41 54.14 72.6 56.89 72.6 57.04"/><path class="cls-3" d="M73.55,62.42a.81.81,0,1,0-.81-.8A.81.81,0,0,0,73.55,62.42Z" transform="translate(-3.64 -11)"/><rect class="cls-5" x="6.84" y="12.53" width="11.06" height="9.5"/><path class="cls-8" d="M13.09,31.77a.76.76,0,1,0-.76-.75A.76.76,0,0,0,13.09,31.77Z" transform="translate(-3.64 -11)"/><path class="cls-9" d="M13.58,28.64A2.22,2.22,0,0,1,15.87,31" transform="translate(-3.64 -11)"/><path class="cls-9" d="M13.58,26.77A4,4,0,0,1,17.68,31" transform="translate(-3.64 -11)"/><path class="cls-9" d="M13.57,24.89a5.92,5.92,0,0,1,6,6.07" transform="translate(-3.64 -11)"/><path class="cls-6" d="M17.26,69.81a5.7,5.7,0,1,0-5.69-5.7A5.71,5.71,0,0,0,17.26,69.81Z" transform="translate(-3.64 -11)"/><polygon class="cls-2" points="11.83 55.51 16.16 53.01 11.83 50.72 11.83 55.51"/><line class="cls-10" x1="61.94" y1="13.74" x2="70.92" y2="13.74"/><line class="cls-10" x1="61.94" y1="9.66" x2="70.92" y2="9.66"/><line class="cls-10" x1="61.94" y1="11.06" x2="70.92" y2="11.06"/><line class="cls-10" x1="61.94" y1="12.4" x2="70.92" y2="12.4"/><line class="cls-10" x1="61.94" y1="15.08" x2="70.92" y2="15.08"/><line class="cls-10" x1="61.94" y1="16.42" x2="70.92" y2="16.42"/><polyline class="cls-11" points="57.41 3.62 38.23 3.62 38.23 16.42"/><polyline class="cls-12" points="55.24 31.42 67.13 31.42 67.13 39.83"/><polyline class="cls-11" points="26.81 57.84 39.6 57.84 39.6 48.84"/><polyline class="cls-13" points="10.95 30.57 10.95 35.91 23.07 35.91"/><path class="cls-14" d="M9.07,50.41a2.5,2.5,0,1,0-2.5-2.5A2.5,2.5,0,0,0,9.07,50.41Z" transform="translate(-3.64 -11)"/><path class="cls-14" d="M10.32,16.28a2.5,2.5,0,1,0-2.5-2.5A2.51,2.51,0,0,0,10.32,16.28Z" transform="translate(-3.64 -11)"/><path class="cls-15" d="M77.66,41.49a2.5,2.5,0,1,0-2.5-2.5A2.5,2.5,0,0,0,77.66,41.49Z" transform="translate(-3.64 -11)"/><path class="cls-14" d="M50.6,66.78a2.5,2.5,0,1,0-2.5-2.5A2.51,2.51,0,0,0,50.6,66.78Z" transform="translate(-3.64 -11)"/><line class="cls-16" x1="20.32" y1="29.35" x2="20.32" y2="32.04"/><line class="cls-16" x1="21.67" y1="30.69" x2="18.97" y2="30.69"/><line class="cls-16" x1="23.67" y1="1.57" x2="23.67" y2="4.27"/><line class="cls-17" x1="25.02" y1="2.92" x2="22.32" y2="2.92"/><line class="cls-16" x1="76.13" y1="0.07" x2="76.13" y2="2.77"/><line class="cls-17" x1="77.47" y1="1.42" x2="74.78" y2="1.42"/><line class="cls-16" x1="72.28" y1="35.86" x2="72.28" y2="38.56"/><line class="cls-16" x1="73.63" y1="37.21" x2="70.93" y2="37.21"/><line class="cls-16" x1="43.18" y1="60" x2="43.18" y2="62.69"/><line class="cls-16" x1="44.52" y1="61.35" x2="41.83" y2="61.35"/><line class="cls-16" x1="31.53" y1="50.03" x2="31.53" y2="52.73"/><line class="cls-16" x1="32.88" y1="51.38" x2="30.19" y2="51.38"/><path class="cls-14" d="M34.48,26.24A2.5,2.5,0,1,0,32,23.74,2.5,2.5,0,0,0,34.48,26.24Z" transform="translate(-3.64 -11)"/><path class="cls-15" d="M50.87,24.34a2.5,2.5,0,1,0-2.5-2.5A2.5,2.5,0,0,0,50.87,24.34Z" transform="translate(-3.64 -11)"/></svg>