<svg id="Layer_1" data-name="Layer 1" xmlns="http://www.w3.org/2000/svg" viewBox="0 0 79.27 69.32"><defs><style>.cls-1,.cls-10,.cls-11,.cls-15,.cls-16,.cls-17,.cls-18,.cls-19,.cls-2,.cls-20,.cls-5,.cls-7,.cls-8,.cls-9{fill:none;}.cls-1,.cls-10,.cls-11,.cls-12,.cls-13,.cls-14,.cls-19,.cls-2,.cls-20,.cls-3,.cls-4,.cls-5,.cls-6,.cls-7,.cls-8,.cls-9{stroke:#000;}.cls-1,.cls-10,.cls-11,.cls-12,.cls-13,.cls-14,.cls-15,.cls-16,.cls-17,.cls-18,.cls-2,.cls-20,.cls-3,.cls-4,.cls-5,.cls-6,.cls-8,.cls-9{stroke-miterlimit:22.93;}.cls-1{stroke-width:0.78px;}.cls-1,.cls-11,.cls-12,.cls-13,.cls-19,.cls-3,.cls-6,.cls-7{fill-rule:evenodd;}.cls-11,.cls-12,.cls-16,.cls-17,.cls-19,.cls-2,.cls-4,.cls-6,.cls-7{stroke-width:0.66px;}.cls-12,.cls-14,.cls-3{fill:#25282b;}.cls-3{stroke-width:0.67px;}.cls-4,.cls-6{fill:#999;}.cls-5{stroke-width:0.78px;}.cls-7{stroke-linecap:round;}.cls-19,.cls-7{stroke-linejoin:round;}.cls-13,.cls-14,.cls-15,.cls-18,.cls-8{stroke-width:0.66px;}.cls-9{stroke-width:1.19px;}.cls-10{stroke-width:1.84px;}.cls-13{fill:#141618;}.cls-15,.cls-16,.cls-17,.cls-18{stroke:#ccc;}.cls-17{stroke-dasharray:1.31 1.97;}.cls-18{stroke-dasharray:1.31 1.97;}.cls-20{stroke-width:0.66px;}</style></defs><title>BRAND IDENTITY</title><path class="cls-1" d="M5,43.61H26.81A3.24,3.24,0,0,0,30,40.37V13.27A3.23,3.23,0,0,0,26.81,10H5a1.11,1.11,0,0,0-1.11,1.1V42.5A1.11,1.11,0,0,0,5,43.61Z" transform="translate(-3.53 -8.54)"/><rect class="cls-2" x="6.14" y="14.56" width="14.38" height="7.42"/><line class="cls-2" x1="16.25" y1="16.12" x2="11.2" y2="16.12"/><line class="cls-2" x1="16.25" y1="18.25" x2="9.08" y2="18.25"/><line class="cls-2" x1="16.25" y1="20.1" x2="8.85" y2="20.1"/><line class="cls-2" x1="3.03" y1="1.5" x2="3.03" y2="35.07"/><rect class="cls-2" x="0.41" y="50.12" width="33.44" height="18.88"/><polygon class="cls-3" points="28.79 50.12 16.85 60 5.37 50.12 1.05 50.12 16.85 63.68 33.21 50.12 28.79 50.12"/><line class="cls-2" x1="24.03" y1="64.29" x2="31.65" y2="64.29"/><line class="cls-2" x1="24.03" y1="66.78" x2="31.65" y2="66.78"/><rect class="cls-4" x="41.09" y="40.38" width="19.63" height="4.93"/><rect class="cls-5" x="33.93" y="39.33" width="7.16" height="7.04" rx="0.67"/><path class="cls-6" d="M37.46,53.83V49H34.72a.69.69,0,0,0-.69.69v3.5a.69.69,0,0,0,.69.69Z" transform="translate(-3.53 -8.54)"/><polygon class="cls-7" points="61 45.3 61 40.38 66.04 42.85 61 45.3"/><line class="cls-2" x1="35.42" y1="46.37" x2="35.42" y2="42.44"/><line class="cls-2" x1="39.3" y1="46.37" x2="39.3" y2="42.44"/><line class="cls-8" x1="39.33" y1="40.43" x2="39.33" y2="39.33"/><line class="cls-8" x1="35.42" y1="40.43" x2="35.42" y2="39.33"/><line class="cls-2" x1="60.72" y1="44.13" x2="54.5" y2="44.13"/><line class="cls-9" x1="44.41" y1="44.13" x2="40.99" y2="44.13"/><line class="cls-2" x1="53.59" y1="41.62" x2="41.09" y2="41.62"/><line class="cls-10" x1="60.72" y1="41.62" x2="58.5" y2="41.62"/><path class="cls-11" d="M67.58,52.46a2.08,2.08,0,0,1,0-2.15" transform="translate(-3.53 -8.54)"/><polygon class="cls-12" points="52.78 1.86 78.83 1.86 78.83 28.31 52.78 1.86"/><polygon class="cls-13" points="64.34 6.62 73.97 6.62 73.97 16.4 64.34 6.62"/><line class="cls-2" x1="78.83" y1="4.25" x2="76.31" y2="4.25"/><line class="cls-8" x1="78.83" y1="6.68" x2="77.4" y2="6.68"/><line class="cls-2" x1="78.83" y1="9.02" x2="76.31" y2="9.02"/><line class="cls-8" x1="78.83" y1="11.44" x2="77.4" y2="11.44"/><line class="cls-2" x1="78.83" y1="13.78" x2="76.31" y2="13.78"/><line class="cls-8" x1="78.83" y1="16.21" x2="77.4" y2="16.21"/><line class="cls-2" x1="78.83" y1="18.55" x2="76.31" y2="18.55"/><line class="cls-8" x1="78.83" y1="20.97" x2="77.4" y2="20.97"/><line class="cls-2" x1="78.83" y1="23.31" x2="76.31" y2="23.31"/><line class="cls-8" x1="78.83" y1="25.74" x2="77.4" y2="25.74"/><rect class="cls-14" x="16.25" y="0.33" width="2.6" height="35.71" rx="0.54"/><line class="cls-15" x1="41.12" y1="20.19" x2="41.12" y2="23.32"/><line class="cls-16" x1="42.68" y1="21.76" x2="39.55" y2="21.76"/><line class="cls-16" x1="26.1" y1="44.41" x2="26.1" y2="47.53"/><line class="cls-15" x1="27.66" y1="45.97" x2="24.53" y2="45.97"/><line class="cls-16" x1="75.98" y1="39.57" x2="75.98" y2="42.7"/><line class="cls-16" x1="77.55" y1="41.14" x2="74.42" y2="41.14"/><circle class="cls-17" cx="34.31" cy="9.11" r="2.51"/><circle class="cls-18" cx="59.48" cy="24.43" r="2.51"/><circle class="cls-17" cx="11.51" cy="43.47" r="2.51"/><circle class="cls-17" cx="54.72" cy="64.34" r="2.51"/><path class="cls-12" d="M65.77,40.17a10.62,10.62,0,1,1-12.53,8.29,10.62,10.62,0,0,1,12.53-8.29Zm-.59,3a7.61,7.61,0,1,0,5.94,9A7.6,7.6,0,0,0,65.18,43.14Z" transform="translate(-3.53 -8.54)"/><path class="cls-19" d="M68.6,65.29l1.07-.7,5.94-4.08,1.15,1.73-1.9,1.43L82,73.46c1.78,3.34-2.3,5.16-4.12,2.59l-6.76-9.76-1.38.85Z" transform="translate(-3.53 -8.54)"/><rect class="cls-20" x="70.23" y="59.05" width="0.99" height="4.31" transform="translate(-25.75 42.13) rotate(-34.41)"/></svg>