<svg id="Layer_1" data-name="Layer 1" xmlns="http://www.w3.org/2000/svg" viewBox="0 0 78.83 64.33"><defs><style>.cls-1,.cls-11,.cls-12,.cls-13,.cls-5,.cls-7{fill:none;}.cls-1,.cls-10,.cls-11,.cls-2,.cls-3,.cls-4,.cls-5,.cls-6,.cls-7,.cls-8,.cls-9{stroke:#000;}.cls-1,.cls-11,.cls-12,.cls-13,.cls-2,.cls-3,.cls-4,.cls-5,.cls-6,.cls-7,.cls-8,.cls-9{stroke-miterlimit:22.93;}.cls-1{stroke-width:0.68px;}.cls-2,.cls-3,.cls-6,.cls-9{fill:#25282b;}.cls-2,.cls-9{stroke-width:0.75px;}.cls-10,.cls-11,.cls-12,.cls-13,.cls-3,.cls-4,.cls-5,.cls-6,.cls-7,.cls-8{stroke-width:0.56px;}.cls-10,.cls-4,.cls-8{fill:#141618;}.cls-10,.cls-11,.cls-12,.cls-6,.cls-7,.cls-8,.cls-9{fill-rule:evenodd;}.cls-10{stroke-linejoin:round;}.cls-11{stroke-dasharray:1.13 2.82;}.cls-12,.cls-13{stroke:#ccc;}.cls-12{stroke-dasharray:1.13 1.69;}</style></defs><title>BRAND DEVELOPMENT</title><rect class="cls-1" x="53.09" y="13.49" width="24.15" height="36.16" rx="1.99"/><rect class="cls-2" x="55.32" y="18.1" width="19.7" height="26.94"/><rect class="cls-3" x="61.94" y="45.89" width="6.45" height="2.79" rx="1"/><rect class="cls-4" x="38.22" y="24.6" width="27.74" height="16.58"/><line class="cls-5" x1="38.22" y1="24.6" x2="52.09" y2="32.89"/><line class="cls-5" x1="51.8" y1="32.88" x2="65.97" y2="24.62"/><line class="cls-5" x1="38.22" y1="41.18" x2="47.83" y2="30.35"/><line class="cls-5" x1="65.96" y1="41.18" x2="56.17" y2="30.19"/><path class="cls-6" d="M52.9,39.73a1.66,1.66,0,1,0-1.65-1.66A1.66,1.66,0,0,0,52.9,39.73Z" transform="translate(-3.64 -10.9)"/><path class="cls-6" d="M58.07,39.73a1.66,1.66,0,1,0-1.66-1.66A1.66,1.66,0,0,0,58.07,39.73Z" transform="translate(-3.64 -10.9)"/><path class="cls-7" d="M18.68,42.89a13.2,13.2,0,1,0-13.2-13.2A13.22,13.22,0,0,0,18.68,42.89Z" transform="translate(-3.64 -10.9)"/><rect class="cls-2" x="12.18" y="27.78" width="3.19" height="7.42" transform="translate(-22.03 8.46) rotate(-45.71)"/><polygon class="cls-8" points="12.52 20.7 9.46 17.72 24.1 3.44 27.04 6.37 12.52 20.7"/><path class="cls-9" d="M26.55,13.17l1.35-1.38a1.71,1.71,0,0,1,2.43,0l2.85,2.77a1.73,1.73,0,0,1,0,2.44l-1.35,1.39Z" transform="translate(-3.64 -10.9)"/><polygon class="cls-9" points="28.89 6.77 29.96 5.65 32.58 8.2 25.32 15.85 24.05 14.63 30.31 8.19 28.89 6.77"/><polygon class="cls-10" points="10.93 23.6 6.86 19.63 5.18 24.81 10.93 23.6"/><path class="cls-6" d="M22,74.93a9.75,9.75,0,1,0-9.75-9.75A9.77,9.77,0,0,0,22,74.93Z" transform="translate(-3.64 -10.9)"/><path class="cls-6" d="M22,55.52c-6.76,6.11-6.84,12.54,0,19.31C28.61,68.4,28.52,62,22,55.52Z" transform="translate(-3.64 -10.9)"/><path class="cls-7" d="M15,71.91a12.91,12.91,0,0,1,14.09,0" transform="translate(-3.64 -10.9)"/><path class="cls-7" d="M15,58.41a12.91,12.91,0,0,0,14.09,0" transform="translate(-3.64 -10.9)"/><line class="cls-5" x1="8.62" y1="54.28" x2="28.12" y2="54.28"/><path class="cls-8" d="M14.73,60.9C11.35,58.23,7,52.83,11.59,49a5,5,0,0,1,6.67.42C21.71,53.17,18,58.5,14.73,60.9Z" transform="translate(-3.64 -10.9)"/><circle class="cls-3" cx="10.97" cy="41.9" r="2.6"/><polyline class="cls-11" points="32.15 3.64 63.83 3.64 63.83 12.65"/><polyline class="cls-11" points="29.36 58.51 61.69 58.51 61.69 50.56"/><path class="cls-12" d="M75.75,72.36A2.36,2.36,0,1,0,73.4,70,2.36,2.36,0,0,0,75.75,72.36Z" transform="translate(-3.64 -10.9)"/><path class="cls-12" d="M7.21,73.91a2.06,2.06,0,1,0-2.06-2.06A2.06,2.06,0,0,0,7.21,73.91Z" transform="translate(-3.64 -10.9)"/><path class="cls-12" d="M41.32,62.36A2.36,2.36,0,1,0,39,60,2.36,2.36,0,0,0,41.32,62.36Z" transform="translate(-3.64 -10.9)"/><path class="cls-12" d="M29.19,52.94a2.36,2.36,0,1,0-2.36-2.36A2.36,2.36,0,0,0,29.19,52.94Z" transform="translate(-3.64 -10.9)"/><path class="cls-12" d="M6.28,47.86A2.36,2.36,0,1,0,3.92,45.5,2.36,2.36,0,0,0,6.28,47.86Z" transform="translate(-3.64 -10.9)"/><path class="cls-12" d="M7,16.58a2.36,2.36,0,1,0-2.36-2.36A2.36,2.36,0,0,0,7,16.58Z" transform="translate(-3.64 -10.9)"/><path class="cls-12" d="M72,17.08a2.36,2.36,0,1,0-2.36-2.36A2.36,2.36,0,0,0,72,17.08Z" transform="translate(-3.64 -10.9)"/><path class="cls-12" d="M47.71,30.92a2.36,2.36,0,1,0-2.35-2.35A2.36,2.36,0,0,0,47.71,30.92Z" transform="translate(-3.64 -10.9)"/><path class="cls-12" d="M59.47,21.76a2.36,2.36,0,1,0-2.36-2.36A2.36,2.36,0,0,0,59.47,21.76Z" transform="translate(-3.64 -10.9)"/><line class="cls-13" x1="50.6" y1="52.88" x2="50.6" y2="55.57"/><line class="cls-13" x1="51.94" y1="54.23" x2="49.25" y2="54.23"/><line class="cls-13" x1="31.07" y1="26.39" x2="31.07" y2="29.08"/><line class="cls-13" x1="32.42" y1="27.73" x2="29.73" y2="27.73"/><line class="cls-13" x1="38.45" y1="8.06" x2="38.45" y2="10.75"/><line class="cls-13" x1="39.79" y1="9.4" x2="37.1" y2="9.4"/><line class="cls-13" x1="18.13" y1="0.39" x2="18.13" y2="3.08"/><line class="cls-13" x1="19.47" y1="1.74" x2="16.78" y2="1.74"/><line class="cls-13" x1="77.49" y1="8.06" x2="77.49" y2="10.75"/><line class="cls-13" x1="78.83" y1="9.4" x2="76.14" y2="9.4"/><line class="cls-13" x1="39.44" y1="61.55" x2="39.44" y2="64.24"/><line class="cls-13" x1="40.79" y1="62.89" x2="38.1" y2="62.89"/><line class="cls-5" x1="10.99" y1="19.21" x2="16.07" y2="14.12"/><line class="cls-5" x1="20.84" y1="9.58" x2="25.57" y2="4.9"/></svg>