<svg id="Layer_1" data-name="Layer 1" xmlns="http://www.w3.org/2000/svg" viewBox="0 0 76.97 49.33"><defs><style>.cls-1,.cls-10,.cls-11,.cls-12,.cls-13,.cls-14,.cls-18,.cls-19,.cls-2,.cls-20,.cls-21,.cls-24,.cls-25,.cls-3,.cls-4,.cls-5,.cls-6,.cls-7,.cls-8,.cls-9{fill:none;}.cls-1,.cls-13,.cls-15,.cls-16,.cls-17,.cls-19,.cls-2,.cls-20,.cls-21,.cls-22,.cls-23,.cls-24,.cls-3,.cls-4,.cls-5,.cls-6,.cls-7{stroke:#000;}.cls-1,.cls-10,.cls-11,.cls-12,.cls-13,.cls-14,.cls-15,.cls-16,.cls-17,.cls-18,.cls-19,.cls-2,.cls-20,.cls-21,.cls-22,.cls-23,.cls-24,.cls-25,.cls-3,.cls-4,.cls-5,.cls-6,.cls-7,.cls-8,.cls-9{stroke-miterlimit:22.93;}.cls-1{stroke-width:0.41px;}.cls-2{stroke-width:0.41px;}.cls-3{stroke-width:0.4px;}.cls-4{stroke-width:0.58px;}.cls-12,.cls-13,.cls-14,.cls-16,.cls-17,.cls-18,.cls-23,.cls-4,.cls-5,.cls-9{fill-rule:evenodd;}.cls-5{stroke-width:0.67px;}.cls-6{stroke-width:0.62px;}.cls-7{stroke-width:0.59px;}.cls-10,.cls-11,.cls-12,.cls-25,.cls-8,.cls-9{stroke:#ccc;}.cls-8{stroke-width:0.59px;}.cls-9{stroke-width:0.38px;stroke-dasharray:0.76 1.14;}.cls-10,.cls-11,.cls-12,.cls-13{stroke-width:0.46px;}.cls-10,.cls-12{stroke-dasharray:0.91 1.37;}.cls-14{stroke:#25282b;stroke-width:0.23px;}.cls-15{fill:#999;stroke-width:0.75px;}.cls-16{fill:#25282b;stroke-width:0.58px;stroke-dasharray:1.15 1.73;}.cls-17,.cls-23{fill:#141618;}.cls-17,.cls-19{stroke-width:0.34px;}.cls-18{stroke:#e6e6e6;stroke-width:0.17px;}.cls-19,.cls-20,.cls-21{stroke-linecap:round;}.cls-20,.cls-23{stroke-width:0.34px;}.cls-21{stroke-width:0.34px;}.cls-22{fill:#fff;stroke-width:0.56px;}.cls-24{stroke-width:0.41px;}.cls-25{stroke-width:0.71px;}</style></defs><title>RE BRANDING</title><line class="cls-1" x1="63.91" y1="37.62" x2="48.65" y2="37.62"/><line class="cls-2" x1="41.8" y1="37.62" x2="32.67" y2="37.62"/><line class="cls-3" x1="46.69" y1="37.62" x2="43.28" y2="37.62"/><path class="cls-4" d="M10.42,63.37H73.09V29.15a3.54,3.54,0,0,0-3.53-3.53H14a3.54,3.54,0,0,0-3.53,3.53Z" transform="translate(-4.86 -18.7)"/><path class="cls-5" d="M5.91,63.37H77.6v2.16a2.17,2.17,0,0,1-2.16,2.17H8.07a2.17,2.17,0,0,1-2.16-2.17Z" transform="translate(-4.86 -18.7)"/><rect class="cls-6" x="9.88" y="11.01" width="54.02" height="30.73"/><rect class="cls-7" x="31.7" y="44.67" width="10.39" height="2.16"/><line class="cls-8" x1="1.39" y1="39.2" x2="1.39" y2="41.99"/><line class="cls-8" x1="2.79" y1="40.59" y2="40.59"/><path class="cls-9" d="M52.72,54.18a1.45,1.45,0,1,0-1.44-1.45A1.45,1.45,0,0,0,52.72,54.18Z" transform="translate(-4.86 -18.7)"/><circle class="cls-10" cx="32.88" cy="31.21" r="1.73"/><line class="cls-11" x1="5.29" y1="3.85" x2="5.29" y2="6.02"/><line class="cls-11" x1="6.38" y1="4.93" x2="4.2" y2="4.93"/><line class="cls-11" x1="44.99" y1="26.5" x2="42.82" y2="26.5"/><line class="cls-11" x1="14.34" y1="39.15" x2="12.17" y2="39.15"/><path class="cls-12" d="M52.44,36.93A1.74,1.74,0,1,0,50.7,35.2,1.74,1.74,0,0,0,52.44,36.93Z" transform="translate(-4.86 -18.7)"/><circle class="cls-10" cx="14.31" cy="15.72" r="1.73"/><path class="cls-13" d="M31,52.07H27.22c-.16-4.27-3.72-5.38-3.73-8.9.31-8.08,11.12-7.31,11.24-.22C34.62,47.12,31.23,47.34,31,52.07Z" transform="translate(-4.86 -18.7)"/><path class="cls-14" d="M28.63,52.08c-.16-2.48.55-5.36-.4-7.41-.25-.76-.88-1.31-1.38-1.24-1,.19.55,3.6,1.44.75a2.63,2.63,0,0,0,.22-1.79c-.12-.39-.64-.26-.64.33.13,1,.5,1.58,1.1,1.68s.81-.41,1.12-1.61c.13-.56,0-.94-.33-.89s-.75,2.77.67,2.79c.45,0,.82-.44,1.1-1.24.57-1.64-1.36-1.07-.84,1.19.25.6.65.84,1.25.54.85-.65-.36-1-1,.07a8.49,8.49,0,0,0-1.62,6.83" transform="translate(-4.86 -18.7)"/><rect class="cls-15" x="21.82" y="33.37" width="4.86" height="0.74" rx="0.37"/><rect class="cls-15" x="21.82" y="34.12" width="4.86" height="0.74" rx="0.37"/><rect class="cls-15" x="21.82" y="34.86" width="4.86" height="0.74" rx="0.37"/><rect class="cls-15" x="21.82" y="35.61" width="4.86" height="0.74" rx="0.37"/><path class="cls-13" d="M27.25,55.1a2.2,2.2,0,0,0,3.73,0" transform="translate(-4.86 -18.7)"/><path class="cls-16" d="M69.32,46.43A12.23,12.23,0,1,0,57.09,34.21,12.24,12.24,0,0,0,69.32,46.43Z" transform="translate(-4.86 -18.7)"/><line class="cls-11" x1="45.04" x2="45.04" y2="2.17"/><line class="cls-11" x1="46.13" y1="1.09" x2="43.96" y2="1.09"/><path class="cls-17" d="M70.72,40H67.91c-.12-3.18-2.76-4-2.77-6.61a4.18,4.18,0,1,1,8.35-.16C73.41,36.29,70.89,36.46,70.72,40Z" transform="translate(-4.86 -18.7)"/><path class="cls-18" d="M69,40c-.12-1.84.4-4-.3-5.51-.19-.56-.65-1-1-.92-.74.15.4,2.68,1.07.56a1.94,1.94,0,0,0,.16-1.33c-.09-.29-.48-.19-.48.25.1.76.37,1.17.82,1.25s.6-.31.83-1.2c.1-.42,0-.7-.25-.66s-.55,2,.5,2.07c.34,0,.62-.32.82-.92.42-1.22-1-.8-.63.88.19.45.49.63.94.41.63-.49-.27-.78-.75,0A6.31,6.31,0,0,0,69.47,40" transform="translate(-4.86 -18.7)"/><line class="cls-19" x1="69.37" y1="11.01" x2="70.89" y2="9.44"/><line class="cls-20" x1="59.93" y1="11.01" x2="58.41" y2="9.44"/><line class="cls-19" x1="67.22" y1="9.37" x2="68.12" y2="7.38"/><line class="cls-19" x1="61.71" y1="9.38" x2="60.81" y2="7.38"/><line class="cls-21" x1="64.46" y1="6.72" x2="64.46" y2="8.91"/><line class="cls-19" x1="70.12" y1="13.72" x2="72.17" y2="12.97"/><line class="cls-19" x1="58.76" y1="13.72" x2="56.71" y2="12.97"/><line class="cls-19" x1="70.15" y1="16.27" x2="72.33" y2="16.26"/><line class="cls-19" x1="58.77" y1="16.27" x2="56.58" y2="16.26"/><line class="cls-20" x1="59.43" y1="18.36" x2="57.38" y2="19.11"/><line class="cls-19" x1="69.38" y1="18.36" x2="71.43" y2="19.11"/><rect class="cls-22" x="62.65" y="21.27" width="3.61" height="0.55" rx="0.28"/><rect class="cls-22" x="62.65" y="21.82" width="3.61" height="0.55" rx="0.28"/><rect class="cls-22" x="62.65" y="22.38" width="3.61" height="0.55" rx="0.28"/><rect class="cls-22" x="62.65" y="22.93" width="3.61" height="0.55" rx="0.28"/><path class="cls-23" d="M67.93,42.22H70.7A1.64,1.64,0,0,1,67.93,42.22Z" transform="translate(-4.86 -18.7)"/><path class="cls-12" d="M79,60.07a1.74,1.74,0,1,0-1.73-1.74A1.74,1.74,0,0,0,79,60.07Z" transform="translate(-4.86 -18.7)"/><line class="cls-8" x1="58.59" y1="29.38" x2="58.59" y2="32.17"/><line class="cls-8" x1="59.99" y1="30.78" x2="57.2" y2="30.78"/><line class="cls-11" x1="30.62" y1="17.49" x2="30.62" y2="19.66"/><line class="cls-11" x1="31.7" y1="18.58" x2="29.53" y2="18.58"/><path class="cls-12" d="M16.7,23.1A1.74,1.74,0,1,0,15,21.37,1.73,1.73,0,0,0,16.7,23.1Z" transform="translate(-4.86 -18.7)"/><line class="cls-24" x1="19.01" y1="33.18" x2="9.88" y2="33.18"/><line class="cls-25" x1="72.46" y1="29.88" x2="72.46" y2="33.25"/><line class="cls-25" x1="74.14" y1="31.56" x2="70.78" y2="31.56"/></svg>