<svg id="Layer_1" data-name="Layer 1" xmlns="http://www.w3.org/2000/svg" viewBox="0 0 67.83 60.53"><defs><style>.cls-1,.cls-11,.cls-16{fill:#25282b;}.cls-1,.cls-10,.cls-11,.cls-12,.cls-13,.cls-14,.cls-15,.cls-16,.cls-17,.cls-18,.cls-19,.cls-2,.cls-20,.cls-3,.cls-4,.cls-5,.cls-6,.cls-7,.cls-8,.cls-9{stroke:#000;}.cls-1,.cls-10,.cls-11,.cls-13,.cls-14,.cls-15,.cls-16,.cls-17,.cls-18,.cls-19,.cls-2,.cls-20,.cls-3,.cls-5,.cls-6,.cls-7,.cls-8,.cls-9{stroke-miterlimit:22.93;}.cls-1,.cls-3,.cls-4,.cls-5{stroke-width:0.43px;}.cls-10,.cls-12,.cls-13,.cls-17,.cls-18,.cls-2,.cls-3,.cls-4,.cls-5,.cls-6,.cls-7,.cls-8,.cls-9{fill:none;}.cls-2{stroke-width:0.52px;}.cls-10,.cls-11,.cls-12,.cls-16,.cls-19,.cls-20,.cls-3,.cls-4,.cls-9{fill-rule:evenodd;}.cls-12,.cls-4{stroke-linecap:round;}.cls-4{stroke-linejoin:round;}.cls-6{stroke-width:0.43px;}.cls-7{stroke-width:0.79px;}.cls-8{stroke-width:1.21px;}.cls-10,.cls-12,.cls-13,.cls-9{stroke-width:0.57px;}.cls-9{stroke-dasharray:1.13 2.83;}.cls-10{stroke-dasharray:1.13 1.7;}.cls-11{stroke-width:0.57px;}.cls-12{stroke-linejoin:bevel;}.cls-14,.cls-15{fill:#141618;}.cls-14{stroke-width:0.57px;}.cls-15{stroke-width:0.47px;}.cls-16{stroke-width:0.49px;}.cls-17,.cls-20{stroke-width:0.46px;}.cls-18{stroke-width:0.56px;}.cls-19{stroke-width:0.46px;}</style></defs><title>BLOG &amp;amp; ARTICLE WRITING</title><rect class="cls-1" x="0.88" y="14.18" width="4.92" height="17.19"/><rect class="cls-2" x="0.26" y="7.91" width="6.17" height="6.27"/><path class="cls-3" d="M10.48,20.84h4.28v-2.4a.61.61,0,0,0-.61-.61H11.09a.61.61,0,0,0-.61.61Z" transform="translate(-9.28 -12.93)"/><polygon class="cls-4" points="0.88 31.54 5.8 31.54 3.34 35.95 0.88 31.54"/><line class="cls-5" x1="0.26" y1="9.21" x2="3.7" y2="9.21"/><line class="cls-5" x1="0.26" y1="12.61" x2="3.7" y2="12.61"/><line class="cls-5" x1="5.46" y1="12.64" x2="6.43" y2="12.64"/><line class="cls-5" x1="5.46" y1="9.21" x2="6.43" y2="9.21"/><line class="cls-6" x1="2.22" y1="31.36" x2="2.22" y2="25.92"/><line class="cls-7" x1="2.22" y1="17.08" x2="2.22" y2="14.09"/><line class="cls-5" x1="4.42" y1="25.12" x2="4.42" y2="14.18"/><line class="cls-8" x1="4.42" y1="31.36" x2="4.42" y2="29.42"/><path class="cls-3" d="M11.68,47.21a1.79,1.79,0,0,1,1.88,0" transform="translate(-9.28 -12.93)"/><polyline class="cls-9" points="66.14 20.47 66.14 57.4 53.93 57.4"/><polyline class="cls-10" points="3.59 38.22 3.59 57.4 15.8 57.4"/><path class="cls-11" d="M34.85,37.75h24.5a1.09,1.09,0,0,1,1.09,1.08V69.62a3.57,3.57,0,0,1-3.56,3.56H33.77c-4.69-.86-4-6.92,0-7.13V38.83A1.09,1.09,0,0,1,34.85,37.75Z" transform="translate(-9.28 -12.93)"/><path class="cls-12" d="M55.77,73.18c-3.27-.94-3.45-6.45,1.13-7.15l-23.13,0" transform="translate(-9.28 -12.93)"/><line class="cls-13" x1="31.33" y1="29.84" x2="44.89" y2="29.84"/><line class="cls-13" x1="31.33" y1="34.26" x2="44.89" y2="34.26"/><line class="cls-13" x1="31.33" y1="38.14" x2="44.89" y2="38.14"/><line class="cls-13" x1="31.33" y1="42.59" x2="44.89" y2="42.59"/><rect class="cls-14" x="31.33" y="46.2" width="13.56" height="4.25"/><path class="cls-10" d="M22.84,63.54a2.67,2.67,0,1,0-2.66-2.67A2.68,2.68,0,0,0,22.84,63.54Z" transform="translate(-9.28 -12.93)"/><path class="cls-10" d="M68.45,44a2.67,2.67,0,1,0-2.67-2.67A2.67,2.67,0,0,0,68.45,44Z" transform="translate(-9.28 -12.93)"/><path class="cls-10" d="M38,32.2a2.67,2.67,0,1,0-2.67-2.66A2.67,2.67,0,0,0,38,32.2Z" transform="translate(-9.28 -12.93)"/><line class="cls-13" x1="12.78" y1="26.98" x2="12.78" y2="29.67"/><line class="cls-13" x1="14.12" y1="28.32" x2="11.43" y2="28.32"/><line class="cls-13" x1="59.22" y1="43.98" x2="59.22" y2="46.68"/><line class="cls-13" x1="60.57" y1="45.33" x2="57.88" y2="45.33"/><rect class="cls-15" x="44.38" y="1.44" width="23.2" height="16.96" rx="0.93"/><path class="cls-16" d="M76.86,17.56H53.66V15.31a.94.94,0,0,1,.93-.94H75.93a.94.94,0,0,1,.93.94Z" transform="translate(-9.28 -12.93)"/><line class="cls-17" x1="47.14" y1="8.17" x2="53.4" y2="8.17"/><line class="cls-17" x1="47.14" y1="10.4" x2="53.4" y2="10.4"/><line class="cls-17" x1="47.14" y1="12.63" x2="53.4" y2="12.63"/><line class="cls-17" x1="47.14" y1="14.86" x2="53.4" y2="14.86"/><line class="cls-17" x1="58.57" y1="8.17" x2="64.82" y2="8.17"/><line class="cls-17" x1="58.57" y1="10.4" x2="64.82" y2="10.4"/><line class="cls-17" x1="58.57" y1="12.63" x2="64.82" y2="12.63"/><line class="cls-17" x1="58.57" y1="14.86" x2="64.82" y2="14.86"/><line class="cls-18" x1="53.07" y1="3.04" x2="60.73" y2="3.04"/><path class="cls-19" d="M55.56,16.41a.49.49,0,1,0-.49-.49A.49.49,0,0,0,55.56,16.41Z" transform="translate(-9.28 -12.93)"/><path class="cls-20" d="M57.53,16.41a.49.49,0,1,0,0-1,.49.49,0,1,0,0,1Z" transform="translate(-9.28 -12.93)"/><line class="cls-13" x1="35.17" y1="3.77" x2="35.17" y2="6.47"/><line class="cls-13" x1="36.52" y1="5.12" x2="33.82" y2="5.12"/><path class="cls-10" d="M22.22,18.55a2.67,2.67,0,1,0-2.66-2.67A2.68,2.68,0,0,0,22.22,18.55Z" transform="translate(-9.28 -12.93)"/></svg>