<svg id="Layer_1" data-name="Layer 1" xmlns="http://www.w3.org/2000/svg" viewBox="0 0 78.07 63.07"><defs><style>.cls-1,.cls-15,.cls-19,.cls-5{fill:#25282b;}.cls-1,.cls-10,.cls-11,.cls-12,.cls-13,.cls-14,.cls-15,.cls-16,.cls-17,.cls-18,.cls-19,.cls-2,.cls-20,.cls-21,.cls-22,.cls-23,.cls-24,.cls-25,.cls-26,.cls-3,.cls-4,.cls-5,.cls-6,.cls-7,.cls-8,.cls-9{stroke:#000;}.cls-1,.cls-10,.cls-11,.cls-12,.cls-13,.cls-14,.cls-15,.cls-16,.cls-17,.cls-19,.cls-2,.cls-20,.cls-21,.cls-23,.cls-24,.cls-25,.cls-26,.cls-3,.cls-4,.cls-5,.cls-7,.cls-8,.cls-9{stroke-miterlimit:22.93;}.cls-1,.cls-14,.cls-4{stroke-width:0.56px;}.cls-1,.cls-12,.cls-13,.cls-14,.cls-15,.cls-16,.cls-18,.cls-2,.cls-21,.cls-22,.cls-5,.cls-6{fill-rule:evenodd;}.cls-10,.cls-11,.cls-12,.cls-13,.cls-14,.cls-17,.cls-18,.cls-2,.cls-20,.cls-21,.cls-22,.cls-23,.cls-24,.cls-25,.cls-26,.cls-4,.cls-6,.cls-7,.cls-8{fill:none;}.cls-2{stroke-width:0.64px;}.cls-16,.cls-3,.cls-9{fill:#141618;}.cls-3{stroke-width:0.59px;}.cls-12,.cls-13,.cls-5,.cls-6,.cls-8,.cls-9{stroke-width:0.56px;}.cls-18,.cls-22,.cls-6{stroke-linecap:round;}.cls-6{stroke-linejoin:bevel;}.cls-7{stroke-width:0.91px;}.cls-10{stroke-width:0.95px;}.cls-11{stroke-width:1.12px;}.cls-12{stroke-dasharray:1.12 2.8;}.cls-13{stroke-dasharray:1.12 1.68;}.cls-14{stroke-dasharray:1.12 1.68;}.cls-15{stroke-width:0.56px;}.cls-16{stroke-width:0.63px;}.cls-17,.cls-18{stroke-width:0.56px;}.cls-18,.cls-22{stroke-linejoin:round;}.cls-19,.cls-21,.cls-22,.cls-23{stroke-width:0.34px;}.cls-20{stroke-width:0.4px;}.cls-24{stroke-width:0.61px;}.cls-25{stroke-width:0.34px;}.cls-26{stroke-width:0.94px;}</style></defs><title>COPYWRITING</title><path class="cls-1" d="M17.63,71h50V43.67a2.83,2.83,0,0,0-2.82-2.82H20.45a2.82,2.82,0,0,0-2.82,2.82Z" transform="translate(-4.16 -11.69)"/><path class="cls-2" d="M14,71H71.25v1.73a1.73,1.73,0,0,1-1.72,1.73H15.75A1.73,1.73,0,0,1,14,72.71Z" transform="translate(-4.16 -11.69)"/><rect class="cls-3" x="16.91" y="32.43" width="43.12" height="24.53"/><rect class="cls-4" x="34.33" y="59.3" width="8.29" height="1.73"/><path class="cls-5" d="M27.08,61.72V26.66a4.07,4.07,0,0,1,4.05-4.05H57.44c4.57.59,4.5,7.88,0,8.13v31Z" transform="translate(-4.16 -11.69)"/><path class="cls-6" d="M32.39,22.61c3.72,1.07,3.93,7.35-1.28,8.15l26.33,0" transform="translate(-4.16 -11.69)"/><line class="cls-4" x1="32.14" y1="23.23" x2="41.79" y2="23.23"/><line class="cls-7" x1="32.14" y1="24.85" x2="47.76" y2="24.85"/><line class="cls-8" x1="32.07" y1="30.78" x2="41.71" y2="30.78"/><line class="cls-7" x1="32.07" y1="32.4" x2="47.69" y2="32.4"/><line class="cls-8" x1="32.07" y1="38.45" x2="41.71" y2="38.45"/><line class="cls-7" x1="32.07" y1="40.07" x2="47.69" y2="40.07"/><rect class="cls-9" x="24.74" y="45.54" width="5.1" height="2.72"/><line class="cls-10" x1="32.07" y1="46.09" x2="48.37" y2="46.09"/><line class="cls-11" x1="32.07" y1="47.71" x2="51.35" y2="47.71"/><polyline class="cls-12" points="69.87 16.01 69.87 47.31 64.39 47.31"/><line class="cls-4" x1="75.22" y1="22.57" x2="75.22" y2="25.24"/><line class="cls-4" x1="76.55" y1="23.9" x2="73.88" y2="23.9"/><path class="cls-13" d="M79.23,68a2.64,2.64,0,1,0-2.64-2.64A2.64,2.64,0,0,0,79.23,68Z" transform="translate(-4.16 -11.69)"/><line class="cls-8" x1="45.77" y1="2.67" x2="45.77" y2="5.35"/><line class="cls-4" x1="47.11" y1="4.01" x2="44.44" y2="4.01"/><line class="cls-8" x1="15.19" y1="20.19" x2="15.19" y2="22.86"/><line class="cls-8" x1="16.53" y1="21.53" x2="13.86" y2="21.53"/><line class="cls-8" x1="2.72" y1="23.75" x2="2.72" y2="26.43"/><line class="cls-8" x1="4.06" y1="25.09" x2="1.39" y2="25.09"/><path class="cls-14" d="M66,37.74a2.65,2.65,0,1,0-2.64-2.65A2.65,2.65,0,0,0,66,37.74Z" transform="translate(-4.16 -11.69)"/><path class="cls-14" d="M34.5,17.65A2.65,2.65,0,1,0,31.86,15,2.65,2.65,0,0,0,34.5,17.65Z" transform="translate(-4.16 -11.69)"/><path class="cls-13" d="M7.09,66.83a2.64,2.64,0,1,0-2.65-2.64A2.64,2.64,0,0,0,7.09,66.83Z" transform="translate(-4.16 -11.69)"/><polyline class="cls-12" points="7.19 26.9 7.19 43.94 12.36 43.94"/><line class="cls-8" x1="22.91" y1="43.86" x2="53.27" y2="43.86"/><path class="cls-15" d="M74,12a7.92,7.92,0,0,1,4.21,14.63v2.5A1.89,1.89,0,0,1,76.36,31H71.72a1.9,1.9,0,0,1-1.9-1.89v-2.5A7.93,7.93,0,0,1,74,12Z" transform="translate(-4.16 -11.69)"/><path class="cls-16" d="M71.69,31h4.69v1.79a.77.77,0,0,1-.76.77H72.45a.77.77,0,0,1-.76-.77Z" transform="translate(-4.16 -11.69)"/><line class="cls-17" x1="67.52" y1="20.58" x2="72.22" y2="20.58"/><path class="cls-18" d="M72.77,31A24.67,24.67,0,0,0,70,20.19l2.79,1.09c-.1-.83.26-1.86,1.31-1.86s1.41.95,1.4,1.86L78,20.16A21.89,21.89,0,0,0,75.18,31" transform="translate(-4.16 -11.69)"/><rect class="cls-19" x="5.37" y="7.45" width="3.81" height="13.28"/><rect class="cls-20" x="4.89" y="2.6" width="4.77" height="4.85"/><path class="cls-21" d="M9.79,14.29h3.3V12.43a.47.47,0,0,0-.47-.47H10.25a.47.47,0,0,0-.46.47Z" transform="translate(-4.16 -11.69)"/><polygon class="cls-22" points="5.37 20.87 9.18 20.87 7.27 24.28 5.37 20.87"/><line class="cls-23" x1="4.89" y1="3.61" x2="7.55" y2="3.61"/><line class="cls-23" x1="4.89" y1="6.24" x2="7.55" y2="6.24"/><line class="cls-23" x1="8.91" y1="6.26" x2="9.66" y2="6.26"/><line class="cls-23" x1="8.91" y1="3.61" x2="9.66" y2="3.61"/><line class="cls-23" x1="6.41" y1="20.73" x2="6.41" y2="16.52"/><line class="cls-24" x1="6.41" y1="9.69" x2="6.41" y2="7.38"/><line class="cls-25" x1="8.1" y1="15.91" x2="8.1" y2="7.45"/><line class="cls-26" x1="8.1" y1="20.73" x2="8.1" y2="19.23"/><path class="cls-21" d="M10.71,34.67a1.4,1.4,0,0,1,1.45,0" transform="translate(-4.16 -11.69)"/></svg>