<svg id="Layer_1" data-name="Layer 1" xmlns="http://www.w3.org/2000/svg" viewBox="0 0 79.81 59.72"><defs><style>.cls-1,.cls-10,.cls-11,.cls-12,.cls-13,.cls-14,.cls-15,.cls-19,.cls-2,.cls-20,.cls-21,.cls-22,.cls-23,.cls-24,.cls-25,.cls-4,.cls-5,.cls-7,.cls-8,.cls-9{fill:none;}.cls-1,.cls-10,.cls-11,.cls-12,.cls-13,.cls-14,.cls-15,.cls-16,.cls-17,.cls-18,.cls-19,.cls-2,.cls-20,.cls-21,.cls-22,.cls-23,.cls-24,.cls-25,.cls-3,.cls-4,.cls-5,.cls-7,.cls-8,.cls-9{stroke:#000;}.cls-1{stroke-miterlimit:2.61;stroke-width:0.38px;}.cls-11,.cls-12,.cls-13,.cls-14,.cls-15,.cls-16,.cls-17,.cls-19,.cls-2,.cls-20,.cls-21,.cls-23,.cls-24,.cls-25,.cls-3,.cls-4,.cls-5,.cls-7{stroke-miterlimit:22.93;}.cls-2{stroke-width:0.38px;}.cls-16,.cls-17,.cls-18,.cls-3,.cls-6{fill:#25282b;}.cls-3{stroke-width:0.49px;}.cls-10,.cls-18,.cls-19,.cls-20,.cls-21,.cls-22,.cls-25,.cls-3,.cls-6,.cls-7,.cls-8,.cls-9{fill-rule:evenodd;}.cls-4,.cls-9{stroke-width:0.44px;}.cls-5{stroke-width:0.72px;}.cls-18,.cls-7,.cls-8,.cls-9{stroke-linecap:round;}.cls-7,.cls-8{stroke-width:0.44px;}.cls-10,.cls-18,.cls-22,.cls-8,.cls-9{stroke-linejoin:round;}.cls-10,.cls-11{stroke-width:0.56px;}.cls-10{stroke-dasharray:1.11 1.67;}.cls-12{stroke-width:0.56px;}.cls-13{stroke-width:0.49px;}.cls-14{stroke-width:0.79px;}.cls-15{stroke-width:0.32px;}.cls-16,.cls-18,.cls-19{stroke-width:0.32px;}.cls-17{stroke-width:0.41px;}.cls-20{stroke-width:0.4px;stroke-dasharray:0.8 1.21;}.cls-21{stroke-width:0.62px;stroke-dasharray:1.23 1.85;}.cls-22{stroke-width:0.51px;stroke-dasharray:1.02 1.54;}.cls-23{stroke-width:0.72px;}.cls-24{stroke-width:0.72px;}.cls-25{stroke-width:0.36px;stroke-dasharray:0.73 1.09;}</style></defs><title>CORPORATE PROFILES &amp;amp; BROCHURES</title><rect class="cls-1" x="40.02" y="11.63" width="27.38" height="46.55" rx="1.79"/><rect class="cls-2" x="41.91" y="14.51" width="23.59" height="40.8" rx="1.54"/><path class="cls-3" d="M51.29,28h10.9V29.7A1.24,1.24,0,0,1,61,30.93H52.52a1.24,1.24,0,0,1-1.23-1.23Z" transform="translate(-3.19 -13.44)"/><line class="cls-4" x1="48.53" y1="32.26" x2="58.08" y2="32.26"/><line class="cls-5" x1="48.53" y1="33.99" x2="64.1" y2="33.99"/><line class="cls-4" x1="48.53" y1="39.58" x2="58.08" y2="39.58"/><line class="cls-5" x1="48.53" y1="41.3" x2="64.1" y2="41.3"/><line class="cls-4" x1="48.53" y1="47.39" x2="58.08" y2="47.39"/><line class="cls-5" x1="48.53" y1="49.11" x2="64.1" y2="49.11"/><path class="cls-6" d="M48.26,55.88a2,2,0,1,0-2-2A2,2,0,0,0,48.26,55.88Z" transform="translate(-3.19 -13.44)"/><path class="cls-7" d="M50.24,53.9a2,2,0,1,1-2-2" transform="translate(-3.19 -13.44)"/><polyline class="cls-8" points="44.24 40.16 45.02 40.9 46.86 39.06"/><path class="cls-6" d="M48.27,48.36a2,2,0,1,0-2-2A2,2,0,0,0,48.27,48.36Z" transform="translate(-3.19 -13.44)"/><path class="cls-6" d="M48.25,63.4a2,2,0,1,0-2-2A2,2,0,0,0,48.25,63.4Z" transform="translate(-3.19 -13.44)"/><path class="cls-7" d="M50.25,46.38a2,2,0,1,1-2-2" transform="translate(-3.19 -13.44)"/><polyline class="cls-9" points="44.25 32.63 45.03 33.38 46.87 31.54"/><path class="cls-7" d="M50.23,61.42a2,2,0,1,1-2-2" transform="translate(-3.19 -13.44)"/><polyline class="cls-8" points="44.23 47.68 45.01 48.42 46.85 46.58"/><rect class="cls-2" x="12.64" y="11.63" width="27.38" height="46.55" rx="1.79"/><rect class="cls-2" x="14.54" y="14.51" width="23.59" height="40.8" rx="1.54"/><polyline class="cls-10" points="0.66 26.24 0.66 21.98 12.64 21.98"/><polyline class="cls-10" points="67.39 31.4 77.47 31.4 77.47 54.21"/><line class="cls-11" x1="77.4" y1="54.68" x2="77.4" y2="57.32"/><line class="cls-11" x1="78.72" y1="56" x2="76.08" y2="56"/><line class="cls-12" x1="78.49" y1="16.1" x2="78.49" y2="18.74"/><line class="cls-11" x1="79.81" y1="17.42" x2="77.16" y2="17.42"/><line class="cls-13" x1="19.56" y1="28.9" x2="28" y2="28.9"/><line class="cls-14" x1="19.56" y1="30.52" x2="33.23" y2="30.52"/><line class="cls-13" x1="19.49" y1="36.45" x2="27.94" y2="36.45"/><line class="cls-14" x1="19.49" y1="38.07" x2="33.16" y2="38.07"/><line class="cls-13" x1="19.49" y1="44.12" x2="27.94" y2="44.12"/><line class="cls-14" x1="19.49" y1="45.74" x2="33.16" y2="45.74"/><path class="cls-3" d="M24.07,69.14H35V67.4a1.23,1.23,0,0,0-1.23-1.23H25.31a1.24,1.24,0,0,0-1.24,1.23Z" transform="translate(-3.19 -13.44)"/><rect class="cls-15" x="0.62" y="30.08" width="2.49" height="18.69"/><rect class="cls-16" x="1.27" y="28.15" width="1.32" height="1.93"/><rect class="cls-17" x="0.21" y="48.77" width="3.32" height="7.55"/><polygon class="cls-18" points="0.22 56.36 3.52 56.36 1.86 59.32 0.22 56.36"/><path class="cls-19" d="M4.43,71.64a1.19,1.19,0,0,1,1.26,0" transform="translate(-3.19 -13.44)"/><path class="cls-19" d="M6.3,43.52H8a29,29,0,0,1-1.52,7.66" transform="translate(-3.19 -13.44)"/><path class="cls-19" d="M7.15,52.29a.67.67,0,1,0-.67-.66A.67.67,0,0,0,7.15,52.29Z" transform="translate(-3.19 -13.44)"/><path class="cls-20" d="M76.5,39.73a1.89,1.89,0,1,0-1.89-1.89A1.9,1.9,0,0,0,76.5,39.73Z" transform="translate(-3.19 -13.44)"/><path class="cls-20" d="M10.73,73a1.9,1.9,0,1,0-1.89-1.9A1.9,1.9,0,0,0,10.73,73Z" transform="translate(-3.19 -13.44)"/><line class="cls-11" x1="71.89" y1="36.35" x2="71.89" y2="38.99"/><line class="cls-11" x1="73.21" y1="37.67" x2="70.56" y2="37.67"/><line class="cls-11" x1="8.59" y1="25.7" x2="8.59" y2="28.34"/><line class="cls-11" x1="9.91" y1="27.02" x2="7.26" y2="27.02"/><line class="cls-4" x1="48.53" y1="24.68" x2="58.08" y2="24.68"/><line class="cls-5" x1="48.53" y1="26.4" x2="64.1" y2="26.4"/><path class="cls-6" d="M48.27,40.77a2,2,0,1,0-2-2A2,2,0,0,0,48.27,40.77Z" transform="translate(-3.19 -13.44)"/><path class="cls-7" d="M50.25,38.79a2,2,0,1,1-2-2" transform="translate(-3.19 -13.44)"/><polyline class="cls-9" points="44.25 25.05 45.03 25.79 46.87 23.95"/><line class="cls-13" x1="19.56" y1="22.38" x2="28" y2="22.38"/><line class="cls-14" x1="19.56" y1="24" x2="33.23" y2="24"/><path class="cls-21" d="M12.79,19.66a2.9,2.9,0,1,0-2.9-2.9A2.9,2.9,0,0,0,12.79,19.66Z" transform="translate(-3.19 -13.44)"/><polyline class="cls-22" points="39.75 12.48 39.75 2.4 16.93 2.4"/><line class="cls-23" x1="51.05" x2="51.05" y2="3.45"/><line class="cls-24" x1="52.78" y1="1.72" x2="49.33" y2="1.72"/><path class="cls-25" d="M70,17.11a1.72,1.72,0,1,0-1.71-1.72A1.72,1.72,0,0,0,70,17.11Z" transform="translate(-3.19 -13.44)"/></svg>