<svg id="Layer_1" data-name="Layer 1" xmlns="http://www.w3.org/2000/svg" viewBox="0 0 79.11 66.23"><defs><style>.cls-1,.cls-12,.cls-7{fill:#25282b;}.cls-1,.cls-10,.cls-11,.cls-12,.cls-13,.cls-14,.cls-15,.cls-16,.cls-17,.cls-2,.cls-3,.cls-4,.cls-5,.cls-6,.cls-7,.cls-8,.cls-9{stroke:#000;}.cls-1,.cls-10,.cls-11,.cls-12,.cls-13,.cls-14,.cls-15,.cls-16,.cls-17,.cls-2,.cls-3,.cls-4,.cls-5,.cls-6,.cls-7,.cls-9{stroke-miterlimit:22.93;}.cls-1,.cls-16,.cls-17,.cls-4,.cls-5{stroke-width:0.56px;}.cls-1,.cls-13,.cls-14,.cls-15,.cls-16,.cls-2,.cls-5,.cls-6,.cls-7,.cls-8{fill-rule:evenodd;}.cls-10,.cls-13,.cls-14,.cls-15,.cls-16,.cls-17,.cls-2,.cls-4,.cls-8,.cls-9{fill:none;}.cls-2{stroke-width:0.64px;}.cls-11,.cls-3,.cls-5,.cls-6{fill:#141618;}.cls-3{stroke-width:0.59px;}.cls-10,.cls-11,.cls-12,.cls-13,.cls-14,.cls-15,.cls-6,.cls-7,.cls-8{stroke-width:0.56px;}.cls-8{stroke-linecap:round;stroke-linejoin:bevel;}.cls-9{stroke-width:0.91px;}.cls-14{stroke-dasharray:1.12 2.8;}.cls-15{stroke-dasharray:1.12 1.68;}.cls-16,.cls-17{stroke-dasharray:1.12 1.68;}</style></defs><title>E-MAILERS &amp;amp; SALES LETTERS</title><path class="cls-1" d="M18.08,72.56h50V45.25a2.83,2.83,0,0,0-2.82-2.82H20.9a2.82,2.82,0,0,0-2.82,2.82Z" transform="translate(-3.64 -10.11)"/><path class="cls-2" d="M14.48,72.56H71.7v1.73A1.73,1.73,0,0,1,70,76H16.2a1.72,1.72,0,0,1-1.72-1.72Z" transform="translate(-3.64 -10.11)"/><rect class="cls-3" x="17.88" y="35.59" width="43.12" height="24.53"/><rect class="cls-4" x="35.3" y="62.46" width="8.29" height="1.73"/><path class="cls-1" d="M80.2,10.39H66.12a2.27,2.27,0,0,0-2.27,2.27v7.73a2.27,2.27,0,0,0,2.27,2.27h4.77l3.43,3.4,3-3.4H80.2a2.28,2.28,0,0,0,2.28-2.27V12.66A2.28,2.28,0,0,0,80.2,10.39Z" transform="translate(-3.64 -10.11)"/><path class="cls-5" d="M67.8,18a1.32,1.32,0,1,0-1.31-1.31A1.32,1.32,0,0,0,67.8,18Z" transform="translate(-3.64 -10.11)"/><path class="cls-5" d="M73.2,18a1.32,1.32,0,1,0-1.31-1.31A1.31,1.31,0,0,0,73.2,18Z" transform="translate(-3.64 -10.11)"/><path class="cls-6" d="M78.59,18a1.32,1.32,0,1,0-1.31-1.31A1.31,1.31,0,0,0,78.59,18Z" transform="translate(-3.64 -10.11)"/><path class="cls-7" d="M27.53,63.3V28.24a4.06,4.06,0,0,1,4-4H57.89c4.57.59,4.5,7.88,0,8.12v31Z" transform="translate(-3.64 -10.11)"/><path class="cls-8" d="M32.84,24.19c3.72,1.07,3.93,7.35-1.28,8.15l26.33,0" transform="translate(-3.64 -10.11)"/><line class="cls-4" x1="33.11" y1="26.39" x2="42.76" y2="26.39"/><line class="cls-9" x1="33.11" y1="28.01" x2="48.73" y2="28.01"/><line class="cls-10" x1="33.04" y1="33.94" x2="42.68" y2="33.94"/><line class="cls-9" x1="33.04" y1="35.56" x2="48.66" y2="35.56"/><line class="cls-10" x1="33.04" y1="41.61" x2="42.68" y2="41.61"/><line class="cls-9" x1="33.04" y1="43.23" x2="48.66" y2="43.23"/><rect class="cls-11" x="25.71" y="48.7" width="5.1" height="2.72"/><line class="cls-12" x1="33.04" y1="49.25" x2="49.34" y2="49.25"/><line class="cls-12" x1="33.04" y1="50.87" x2="52.31" y2="50.87"/><rect class="cls-12" x="0.28" y="0.6" width="21.47" height="12.12"/><polyline class="cls-13" points="3.5 0.6 10.87 7.11 18.54 0.6"/><polyline class="cls-13" points="0.73 0.6 10.87 9.53 21.41 0.6"/><line class="cls-10" x1="15.45" y1="9.71" x2="20.35" y2="9.71"/><line class="cls-10" x1="15.45" y1="11.3" x2="20.35" y2="11.3"/><polyline class="cls-14" points="70.84 19.17 70.84 50.47 65.36 50.47"/><line class="cls-4" x1="76.19" y1="25.73" x2="76.19" y2="28.4"/><line class="cls-4" x1="77.52" y1="27.06" x2="74.85" y2="27.06"/><path class="cls-15" d="M79.68,69.6A2.65,2.65,0,1,0,77,67,2.64,2.64,0,0,0,79.68,69.6Z" transform="translate(-3.64 -10.11)"/><line class="cls-10" x1="46.74" y1="5.84" x2="46.74" y2="8.51"/><line class="cls-4" x1="48.08" y1="7.17" x2="45.41" y2="7.17"/><line class="cls-10" x1="16.16" y1="23.35" x2="16.16" y2="26.02"/><line class="cls-10" x1="17.5" y1="24.69" x2="14.83" y2="24.69"/><line class="cls-10" x1="3.69" y1="26.91" x2="3.69" y2="29.59"/><line class="cls-4" x1="5.03" y1="28.25" x2="2.36" y2="28.25"/><path class="cls-16" d="M66.42,39.32a2.65,2.65,0,1,0-2.64-2.65A2.65,2.65,0,0,0,66.42,39.32Z" transform="translate(-3.64 -10.11)"/><circle class="cls-17" cx="31.31" cy="6.48" r="2.64"/><path class="cls-15" d="M7.54,68.41a2.64,2.64,0,1,0-2.65-2.64A2.65,2.65,0,0,0,7.54,68.41Z" transform="translate(-3.64 -10.11)"/><polyline class="cls-14" points="8.16 15.81 8.16 47.1 13.32 47.1"/><line class="cls-10" x1="23.88" y1="47.02" x2="54.24" y2="47.02"/></svg>