<svg id="Layer_1" data-name="Layer 1" xmlns="http://www.w3.org/2000/svg" viewBox="0 0 79.14 65.83"><defs><style>.cls-1,.cls-13,.cls-14,.cls-15,.cls-16,.cls-17,.cls-18,.cls-2,.cls-4,.cls-5,.cls-7,.cls-8,.cls-9{fill:none;}.cls-1,.cls-10,.cls-11,.cls-12,.cls-13,.cls-14,.cls-15,.cls-16,.cls-17,.cls-18,.cls-3,.cls-4,.cls-5,.cls-7,.cls-8,.cls-9{stroke:#000;}.cls-1{stroke-miterlimit:2.61;stroke-width:0.57px;}.cls-2{stroke:#25282b;stroke-width:0.58px;stroke-dasharray:0.58 0.58;}.cls-10,.cls-11,.cls-13,.cls-14,.cls-15,.cls-16,.cls-17,.cls-18,.cls-2,.cls-3,.cls-4,.cls-5,.cls-7,.cls-9{stroke-miterlimit:22.93;}.cls-10,.cls-11,.cls-12,.cls-3,.cls-6{fill:#25282b;}.cls-3{stroke-width:0.54px;}.cls-12,.cls-13,.cls-14,.cls-15,.cls-16,.cls-3,.cls-6,.cls-7,.cls-8{fill-rule:evenodd;}.cls-4,.cls-8{stroke-width:0.49px;}.cls-5{stroke-width:0.8px;}.cls-12,.cls-7,.cls-8{stroke-linecap:round;}.cls-7{stroke-width:0.49px;}.cls-12,.cls-8{stroke-linejoin:round;}.cls-9{stroke-width:0.57px;}.cls-10,.cls-12,.cls-13,.cls-16,.cls-17{stroke-width:0.57px;}.cls-11{stroke-width:0.73px;}.cls-14,.cls-15,.cls-18{stroke-width:0.57px;}.cls-15{stroke-dasharray:1.13 1.7;}.cls-16{stroke-dasharray:1.13 1.7;}</style></defs><title>PRESS RELEASE</title><rect class="cls-1" x="20" y="9.37" width="40.63" height="51.44" rx="2.65"/><rect class="cls-2" x="22.81" y="12.54" width="35" height="45.08" rx="2.28"/><path class="cls-3" d="M37.93,19.65H50v1.93A1.37,1.37,0,0,1,48.61,23H39.29a1.37,1.37,0,0,1-1.36-1.37Z" transform="translate(-3.64 -10.29)"/><line class="cls-4" x1="33.63" y1="30.47" x2="44.18" y2="30.47"/><line class="cls-5" x1="33.63" y1="32.38" x2="50.83" y2="32.38"/><line class="cls-4" x1="33.63" y1="38.56" x2="44.18" y2="38.56"/><line class="cls-5" x1="33.63" y1="40.46" x2="50.83" y2="40.46"/><line class="cls-4" x1="33.63" y1="47.18" x2="44.18" y2="47.18"/><line class="cls-5" x1="33.63" y1="49.09" x2="50.83" y2="49.09"/><path class="cls-6" d="M33.45,52a2.19,2.19,0,1,0-2.19-2.18A2.19,2.19,0,0,0,33.45,52Z" transform="translate(-3.64 -10.29)"/><path class="cls-7" d="M35.63,49.82a2.19,2.19,0,1,1-2.18-2.19" transform="translate(-3.64 -10.29)"/><polyline class="cls-8" points="28.89 39.19 29.75 40.02 31.79 37.98"/><path class="cls-6" d="M33.46,43.69a2.19,2.19,0,1,0-2.19-2.19A2.19,2.19,0,0,0,33.46,43.69Z" transform="translate(-3.64 -10.29)"/><path class="cls-6" d="M33.44,60.31a2.19,2.19,0,1,0-2.19-2.18A2.19,2.19,0,0,0,33.44,60.31Z" transform="translate(-3.64 -10.29)"/><path class="cls-7" d="M35.64,41.5a2.19,2.19,0,1,1-2.18-2.18" transform="translate(-3.64 -10.29)"/><polyline class="cls-8" points="28.9 30.88 29.76 31.7 31.8 29.67"/><path class="cls-7" d="M35.62,58.13a2.19,2.19,0,1,1-2.18-2.19" transform="translate(-3.64 -10.29)"/><polyline class="cls-8" points="28.88 47.51 29.74 48.33 31.77 46.3"/><line class="cls-4" x1="33.63" y1="22.09" x2="44.18" y2="22.09"/><line class="cls-5" x1="33.63" y1="23.99" x2="50.83" y2="23.99"/><path class="cls-6" d="M33.46,35.3a2.18,2.18,0,1,0-2.19-2.18A2.19,2.19,0,0,0,33.46,35.3Z" transform="translate(-3.64 -10.29)"/><path class="cls-7" d="M35.64,33.12a2.19,2.19,0,1,1-2.18-2.18" transform="translate(-3.64 -10.29)"/><polyline class="cls-8" points="28.9 22.5 29.76 23.32 31.8 21.29"/><rect class="cls-9" x="71.52" y="12.14" width="4.4" height="33.08"/><rect class="cls-10" x="72.67" y="8.74" width="2.34" height="3.41"/><rect class="cls-11" x="70.78" y="45.22" width="5.88" height="13.36"/><polygon class="cls-12" points="70.8 58.66 76.64 58.66 73.72 63.88 70.8 58.66"/><path class="cls-13" d="M76.25,72.19a2.09,2.09,0,0,1,2.22,0" transform="translate(-3.64 -10.29)"/><path class="cls-14" d="M79.56,22.43h2.92A51.66,51.66,0,0,1,79.79,36" transform="translate(-3.64 -10.29)"/><path class="cls-13" d="M81.06,38a1.18,1.18,0,1,0-1.18-1.18A1.18,1.18,0,0,0,81.06,38Z" transform="translate(-3.64 -10.29)"/><path class="cls-15" d="M68.61,70.49a2.67,2.67,0,1,1-2.67,2.67A2.67,2.67,0,0,1,68.61,70.49Z" transform="translate(-3.64 -10.29)"/><path class="cls-16" d="M69.44,11.11a2.67,2.67,0,1,1-2.67,2.67A2.66,2.66,0,0,1,69.44,11.11Z" transform="translate(-3.64 -10.29)"/><path class="cls-15" d="M6.6,10.57a2.67,2.67,0,1,1-2.68,2.67A2.68,2.68,0,0,1,6.6,10.57Z" transform="translate(-3.64 -10.29)"/><path class="cls-16" d="M12,45.53A2.68,2.68,0,1,1,9.33,48.2,2.67,2.67,0,0,1,12,45.53Z" transform="translate(-3.64 -10.29)"/><line class="cls-17" x1="66.02" y1="34.52" x2="66.02" y2="37.22"/><line class="cls-17" x1="67.38" y1="35.87" x2="64.67" y2="35.87"/><line class="cls-17" x1="3.78" y1="55.98" x2="3.78" y2="58.68"/><line class="cls-17" x1="5.13" y1="57.33" x2="2.43" y2="57.33"/><line class="cls-17" x1="8.38" y1="15.05" x2="8.38" y2="17.75"/><line class="cls-18" x1="9.74" y1="16.4" x2="7.03" y2="16.4"/><line class="cls-17" x1="22.79" y1="0.64" x2="22.79" y2="3.34"/><line class="cls-17" x1="24.15" y1="1.99" x2="21.44" y2="1.99"/></svg>