<svg id="Layer_1" data-name="Layer 1" xmlns="http://www.w3.org/2000/svg" viewBox="0 0 78.93 65.2"><defs><style>.cls-1,.cls-19,.cls-20,.cls-21,.cls-24,.cls-6{fill:#25282b;}.cls-1,.cls-10,.cls-11,.cls-12,.cls-13,.cls-14,.cls-15,.cls-16,.cls-17,.cls-18,.cls-19,.cls-2,.cls-20,.cls-21,.cls-22,.cls-23,.cls-24,.cls-3,.cls-4,.cls-5,.cls-6,.cls-7,.cls-8,.cls-9{stroke:#000;}.cls-1,.cls-10,.cls-11,.cls-12,.cls-13,.cls-14,.cls-15,.cls-16,.cls-17,.cls-18,.cls-19,.cls-2,.cls-20,.cls-22,.cls-23,.cls-24,.cls-3,.cls-4,.cls-5,.cls-6,.cls-7,.cls-8,.cls-9{stroke-miterlimit:22.93;}.cls-1,.cls-12,.cls-16,.cls-4,.cls-9{stroke-width:0.56px;}.cls-1,.cls-10,.cls-11,.cls-12,.cls-16,.cls-17,.cls-2,.cls-21,.cls-22,.cls-23,.cls-24,.cls-6{fill-rule:evenodd;}.cls-11,.cls-12,.cls-13,.cls-14,.cls-15,.cls-16,.cls-17,.cls-18,.cls-2,.cls-22,.cls-23,.cls-4,.cls-7,.cls-8{fill:none;}.cls-2{stroke-width:0.65px;}.cls-3,.cls-5{fill:#141618;}.cls-3{stroke-width:0.6px;}.cls-5{stroke-width:0.57px;}.cls-6{stroke-width:0.61px;}.cls-10,.cls-11,.cls-15,.cls-17,.cls-7{stroke-width:0.56px;}.cls-8{stroke-width:0.69px;}.cls-11{stroke-dasharray:1.13 2.82;}.cls-12{stroke-dasharray:1.13 2.82;}.cls-13{stroke-width:1.18px;}.cls-14{stroke-width:0.94px;}.cls-15,.cls-17{stroke-dasharray:1.13 1.69;}.cls-16{stroke-dasharray:1.13 1.69;}.cls-18{stroke-width:0.32px;}.cls-19,.cls-21,.cls-22{stroke-width:0.32px;}.cls-20{stroke-width:0.41px;}.cls-21{stroke-linecap:round;stroke-linejoin:round;}.cls-23{stroke-width:0.46px;}.cls-24{stroke-width:0.44px;}</style></defs><title>PRODUCT DESCRIPTION</title><path class="cls-1" d="M17.91,72H68.22V44.56a2.84,2.84,0,0,0-2.83-2.84H20.75a2.85,2.85,0,0,0-2.84,2.84Z" transform="translate(-3.78 -10.62)"/><path class="cls-2" d="M14.29,72H71.85v1.73a1.75,1.75,0,0,1-1.74,1.74H16a1.74,1.74,0,0,1-1.74-1.74Z" transform="translate(-3.78 -10.62)"/><rect class="cls-3" x="17.6" y="34.38" width="43.37" height="24.67"/><rect class="cls-4" x="35.12" y="61.41" width="8.34" height="1.73"/><rect class="cls-5" x="50.05" y="0.46" width="28.58" height="20.89" rx="1.14"/><path class="cls-6" d="M82.41,15H53.83V12.23A1.15,1.15,0,0,1,55,11.08H81.27a1.14,1.14,0,0,1,1.14,1.15Z" transform="translate(-3.78 -10.62)"/><line class="cls-7" x1="53.45" y1="8.75" x2="61.16" y2="8.75"/><line class="cls-7" x1="53.45" y1="11.5" x2="61.16" y2="11.5"/><line class="cls-7" x1="53.45" y1="14.24" x2="61.16" y2="14.24"/><line class="cls-7" x1="53.45" y1="16.98" x2="61.16" y2="16.98"/><line class="cls-7" x1="67.52" y1="8.75" x2="75.23" y2="8.75"/><line class="cls-7" x1="67.52" y1="11.5" x2="75.23" y2="11.5"/><line class="cls-7" x1="67.52" y1="14.24" x2="75.23" y2="14.24"/><line class="cls-7" x1="67.52" y1="16.98" x2="75.23" y2="16.98"/><line class="cls-8" x1="60.76" y1="2.42" x2="70.19" y2="2.42"/><circle class="cls-9" cx="52.4" cy="2.36" r="0.61"/><path class="cls-10" d="M58.6,13.59A.61.61,0,1,0,58,13,.6.6,0,0,0,58.6,13.59Z" transform="translate(-3.78 -10.62)"/><polyline class="cls-11" points="75.33 24.47 75.33 54.85 67.36 54.85"/><polyline class="cls-12" points="10.21 54.85 2.24 54.85 2.24 34.28"/><line class="cls-4" x1="31.62" y1="41.65" x2="39.23" y2="41.65"/><line class="cls-13" x1="34.97" y1="46.65" x2="50.84" y2="46.65"/><line class="cls-14" x1="31.62" y1="51.88" x2="44.31" y2="51.88"/><line class="cls-7" x1="48.71" y1="51.88" x2="50.31" y2="51.88"/><line class="cls-7" x1="31.62" y1="46.65" x2="33.22" y2="46.65"/><line class="cls-7" x1="41.13" y1="41.65" x2="42.73" y2="41.65"/><circle class="cls-15" cx="19.79" cy="23.54" r="2.66"/><line class="cls-7" x1="7.56" y1="41.39" x2="7.56" y2="44.08"/><line class="cls-4" x1="8.9" y1="42.74" x2="6.22" y2="42.74"/><line class="cls-7" x1="33.39" y1="21.24" x2="33.39" y2="23.92"/><line class="cls-7" x1="34.73" y1="22.58" x2="32.05" y2="22.58"/><line class="cls-4" x1="31.45" y1="0.91" x2="31.45" y2="3.59"/><line class="cls-4" x1="32.79" y1="2.25" x2="30.1" y2="2.25"/><line class="cls-4" x1="69.22" y1="30.19" x2="69.22" y2="32.88"/><line class="cls-7" x1="70.56" y1="31.54" x2="67.88" y2="31.54"/><path class="cls-16" d="M51.55,39.2a2.66,2.66,0,1,0-2.66-2.66A2.66,2.66,0,0,0,51.55,39.2Z" transform="translate(-3.78 -10.62)"/><path class="cls-17" d="M47.16,16.22a2.66,2.66,0,1,0-2.66-2.66A2.67,2.67,0,0,0,47.16,16.22Z" transform="translate(-3.78 -10.62)"/><rect class="cls-18" x="0.62" y="2.21" width="2.49" height="18.69"/><rect class="cls-19" x="1.27" y="0.28" width="1.32" height="1.93"/><rect class="cls-20" x="0.21" y="20.9" width="3.32" height="7.55"/><polygon class="cls-21" points="0.22 28.5 3.52 28.5 1.86 31.45 0.22 28.5"/><path class="cls-22" d="M5,41a1.19,1.19,0,0,1,1.26,0" transform="translate(-3.78 -10.62)"/><path class="cls-22" d="M6.89,12.83H8.54A29,29,0,0,1,7,20.49" transform="translate(-3.78 -10.62)"/><path class="cls-22" d="M7.74,21.6a.67.67,0,1,0-.67-.66A.67.67,0,0,0,7.74,21.6Z" transform="translate(-3.78 -10.62)"/><path class="cls-23" d="M34.86,25.89H23.32c-3-.66-2.81-5.5.73-5.95.87-4.09,6.61-4.75,8.3-1.1C37.56,16.74,39.43,24.93,34.86,25.89Z" transform="translate(-3.78 -10.62)"/><path class="cls-24" d="M21.38,63.22V52.32h8.05a1.24,1.24,0,0,1,1.23,1.24V62a1.23,1.23,0,0,1-1.23,1.23Z" transform="translate(-3.78 -10.62)"/></svg>