<svg id="Layer_1" data-name="Layer 1" xmlns="http://www.w3.org/2000/svg" viewBox="0 0 79.48 62.01"><defs><style>.cls-1,.cls-10,.cls-11,.cls-12,.cls-13,.cls-14,.cls-15,.cls-16,.cls-17,.cls-2,.cls-21,.cls-22,.cls-23,.cls-24,.cls-25,.cls-26,.cls-27,.cls-28,.cls-31,.cls-32,.cls-33,.cls-4,.cls-5,.cls-7,.cls-8,.cls-9{fill:none;}.cls-1,.cls-10,.cls-11,.cls-12,.cls-13,.cls-14,.cls-15,.cls-16,.cls-17,.cls-18,.cls-19,.cls-2,.cls-20,.cls-21,.cls-22,.cls-23,.cls-24,.cls-25,.cls-26,.cls-27,.cls-28,.cls-29,.cls-3,.cls-30,.cls-31,.cls-32,.cls-33,.cls-4,.cls-5,.cls-7,.cls-8,.cls-9{stroke:#000;}.cls-1{stroke-miterlimit:2.61;stroke-width:0.38px;}.cls-10,.cls-12,.cls-13,.cls-14,.cls-15,.cls-16,.cls-17,.cls-18,.cls-19,.cls-2,.cls-21,.cls-22,.cls-23,.cls-24,.cls-26,.cls-27,.cls-28,.cls-29,.cls-3,.cls-30,.cls-31,.cls-4,.cls-5,.cls-7{stroke-miterlimit:22.93;}.cls-2{stroke-width:0.38px;}.cls-18,.cls-19,.cls-20,.cls-29,.cls-3,.cls-6{fill:#25282b;}.cls-3{stroke-width:0.49px;}.cls-11,.cls-20,.cls-21,.cls-22,.cls-23,.cls-24,.cls-25,.cls-28,.cls-29,.cls-3,.cls-30,.cls-32,.cls-6,.cls-7,.cls-8,.cls-9{fill-rule:evenodd;}.cls-4,.cls-9{stroke-width:0.44px;}.cls-5{stroke-width:0.72px;}.cls-20,.cls-32,.cls-7,.cls-8,.cls-9{stroke-linecap:round;}.cls-7,.cls-8{stroke-width:0.44px;}.cls-11,.cls-20,.cls-25,.cls-32,.cls-33,.cls-8,.cls-9{stroke-linejoin:round;}.cls-10{stroke-width:0.38px;}.cls-11,.cls-12,.cls-33{stroke-width:0.56px;}.cls-11,.cls-33{stroke-dasharray:1.11 1.67;}.cls-13{stroke-width:0.56px;}.cls-14{stroke-width:0.49px;}.cls-15{stroke-width:0.79px;}.cls-16{stroke-width:0.49px;}.cls-17{stroke-width:0.32px;}.cls-18,.cls-20,.cls-21{stroke-width:0.32px;}.cls-19{stroke-width:0.41px;}.cls-22{stroke-width:0.33px;stroke-dasharray:0.65 0.98;}.cls-23{stroke-width:0.4px;stroke-dasharray:0.8 1.21;}.cls-24{stroke-width:0.62px;stroke-dasharray:1.23 1.85;}.cls-25{stroke-width:0.51px;stroke-dasharray:1.02 1.54;}.cls-26{stroke-width:0.72px;}.cls-27{stroke-width:0.72px;}.cls-28{stroke-width:0.36px;stroke-dasharray:0.73 1.09;}.cls-29{stroke-width:0.41px;}.cls-30{fill:#141618;stroke-width:0.47px;}.cls-31,.cls-32{stroke-width:0.41px;}</style></defs><title>PRODUCT CATALOG &amp;amp; MARKETING COLLATERALS</title><rect class="cls-1" x="40.02" y="13.93" width="27.38" height="46.55" rx="1.79"/><rect class="cls-2" x="41.91" y="16.8" width="23.59" height="40.8" rx="1.54"/><path class="cls-3" d="M51.56,29h10.9v1.74A1.24,1.24,0,0,1,61.22,32H52.79a1.23,1.23,0,0,1-1.23-1.23Z" transform="translate(-3.46 -12.19)"/><line class="cls-4" x1="48.53" y1="34.56" x2="58.08" y2="34.56"/><line class="cls-5" x1="48.53" y1="36.28" x2="64.1" y2="36.28"/><line class="cls-4" x1="48.53" y1="41.87" x2="58.08" y2="41.87"/><line class="cls-5" x1="48.53" y1="43.6" x2="64.1" y2="43.6"/><line class="cls-4" x1="48.53" y1="49.68" x2="58.08" y2="49.68"/><line class="cls-5" x1="48.53" y1="51.4" x2="64.1" y2="51.4"/><path class="cls-6" d="M48.53,56.92a2,2,0,1,0-2-2A2,2,0,0,0,48.53,56.92Z" transform="translate(-3.46 -12.19)"/><path class="cls-7" d="M50.51,55a2,2,0,1,1-2-2" transform="translate(-3.46 -12.19)"/><polyline class="cls-8" points="44.24 42.45 45.02 43.19 46.86 41.35"/><path class="cls-6" d="M48.54,49.4a2,2,0,1,0-2-2A2,2,0,0,0,48.54,49.4Z" transform="translate(-3.46 -12.19)"/><path class="cls-6" d="M48.52,64.44a2,2,0,1,0-2-2A2,2,0,0,0,48.52,64.44Z" transform="translate(-3.46 -12.19)"/><path class="cls-7" d="M50.52,47.42a2,2,0,1,1-2-2" transform="translate(-3.46 -12.19)"/><polyline class="cls-9" points="44.25 34.93 45.03 35.67 46.87 33.83"/><path class="cls-7" d="M50.5,62.47a2,2,0,1,1-2-2" transform="translate(-3.46 -12.19)"/><polyline class="cls-9" points="44.23 49.97 45.01 50.72 46.85 48.88"/><rect class="cls-10" x="12.64" y="13.93" width="27.38" height="46.55" rx="1.79"/><rect class="cls-2" x="14.54" y="16.8" width="23.59" height="40.8" rx="1.54"/><polyline class="cls-11" points="0.66 28.54 0.66 24.28 12.64 24.28"/><polyline class="cls-11" points="67.39 33.69 77.47 33.69 77.47 56.51"/><line class="cls-12" x1="77.4" y1="56.97" x2="77.4" y2="59.62"/><line class="cls-12" x1="78.72" y1="58.29" x2="76.08" y2="58.29"/><line class="cls-13" x1="77.89" y1="26.66" x2="77.89" y2="29.3"/><line class="cls-12" x1="79.21" y1="27.98" x2="76.57" y2="27.98"/><line class="cls-14" x1="19.56" y1="31.2" x2="28" y2="31.2"/><line class="cls-15" x1="19.56" y1="32.82" x2="33.23" y2="32.82"/><line class="cls-16" x1="19.49" y1="38.75" x2="27.94" y2="38.75"/><line class="cls-15" x1="19.49" y1="40.37" x2="33.16" y2="40.37"/><line class="cls-16" x1="19.49" y1="46.42" x2="27.94" y2="46.42"/><line class="cls-15" x1="19.49" y1="48.04" x2="33.16" y2="48.04"/><path class="cls-3" d="M24.34,70.19h10.9V68.44A1.24,1.24,0,0,0,34,67.21H25.57a1.24,1.24,0,0,0-1.23,1.23Z" transform="translate(-3.46 -12.19)"/><rect class="cls-17" x="0.62" y="32.37" width="2.49" height="18.69"/><rect class="cls-18" x="1.27" y="30.44" width="1.32" height="1.93"/><rect class="cls-19" x="0.21" y="51.06" width="3.32" height="7.55"/><polygon class="cls-20" points="0.22 58.66 3.52 58.66 1.86 61.61 0.22 58.66"/><path class="cls-21" d="M4.7,72.68a1.21,1.21,0,0,1,1.26,0" transform="translate(-3.46 -12.19)"/><path class="cls-21" d="M6.57,44.56H8.22A28.93,28.93,0,0,1,6.7,52.22" transform="translate(-3.46 -12.19)"/><path class="cls-21" d="M7.42,53.34a.67.67,0,1,0-.67-.67A.67.67,0,0,0,7.42,53.34Z" transform="translate(-3.46 -12.19)"/><path class="cls-22" d="M77,68.06a1.54,1.54,0,1,0-1.53-1.53A1.54,1.54,0,0,0,77,68.06Z" transform="translate(-3.46 -12.19)"/><path class="cls-23" d="M11,74a1.9,1.9,0,1,0-1.9-1.89A1.89,1.89,0,0,0,11,74Z" transform="translate(-3.46 -12.19)"/><line class="cls-12" x1="71.89" y1="38.64" x2="71.89" y2="41.29"/><line class="cls-12" x1="73.21" y1="39.96" x2="70.56" y2="39.96"/><line class="cls-12" x1="8.59" y1="27.99" x2="8.59" y2="30.64"/><line class="cls-12" x1="9.91" y1="29.31" x2="7.26" y2="29.31"/><line class="cls-4" x1="48.53" y1="26.97" x2="58.08" y2="26.97"/><line class="cls-5" x1="48.53" y1="28.69" x2="64.1" y2="28.69"/><path class="cls-6" d="M48.54,41.81a2,2,0,1,0-2-2A2,2,0,0,0,48.54,41.81Z" transform="translate(-3.46 -12.19)"/><path class="cls-7" d="M50.52,39.83a2,2,0,1,1-2-2" transform="translate(-3.46 -12.19)"/><polyline class="cls-9" points="44.25 27.34 45.03 28.08 46.87 26.24"/><line class="cls-14" x1="19.56" y1="24.67" x2="28" y2="24.67"/><line class="cls-15" x1="19.56" y1="26.29" x2="33.23" y2="26.29"/><path class="cls-24" d="M13.06,20.7a2.9,2.9,0,1,0-2.9-2.89A2.91,2.91,0,0,0,13.06,20.7Z" transform="translate(-3.46 -12.19)"/><polyline class="cls-25" points="39.75 14.78 39.75 4.7 16.93 4.7"/><line class="cls-26" x1="51.05" y1="2.29" x2="51.05" y2="5.74"/><line class="cls-27" x1="52.78" y1="4.02" x2="49.33" y2="4.02"/><path class="cls-28" d="M63.63,22.91a1.72,1.72,0,1,0-1.72-1.71A1.72,1.72,0,0,0,63.63,22.91Z" transform="translate(-3.46 -12.19)"/><path class="cls-29" d="M76.83,12.4A5.91,5.91,0,0,1,80,23.31v1.86a1.41,1.41,0,0,1-1.41,1.41H75.1a1.41,1.41,0,0,1-1.41-1.41V23.31A5.91,5.91,0,0,1,76.83,12.4Z" transform="translate(-3.46 -12.19)"/><path class="cls-30" d="M75.08,26.59h3.5v1.34a.57.57,0,0,1-.57.56H75.65a.56.56,0,0,1-.57-.56Z" transform="translate(-3.46 -12.19)"/><line class="cls-31" x1="71.61" y1="15.35" x2="75.12" y2="15.35"/><path class="cls-32" d="M75.88,26.59a18.29,18.29,0,0,0-2.08-8.06l2.08.81c-.07-.61.19-1.38,1-1.38s1,.71,1,1.38l1.9-.83a16.23,16.23,0,0,0-2.12,8.07" transform="translate(-3.46 -12.19)"/><line class="cls-33" x1="73.36" y1="16.3" x2="73.36" y2="33.69"/></svg>