<svg id="Layer_1" data-name="Layer 1" xmlns="http://www.w3.org/2000/svg" viewBox="0 0 79.14 65.83"><defs><style>.cls-1,.cls-10,.cls-11,.cls-13,.cls-14,.cls-16,.cls-17,.cls-18,.cls-19,.cls-3,.cls-4,.cls-5,.cls-9{fill:none;}.cls-1,.cls-10,.cls-11,.cls-13,.cls-14,.cls-16,.cls-17,.cls-18,.cls-19,.cls-2,.cls-3,.cls-4,.cls-5,.cls-6,.cls-7,.cls-8,.cls-9{stroke:#000;}.cls-1,.cls-10,.cls-11,.cls-13,.cls-16,.cls-18,.cls-19,.cls-2,.cls-3,.cls-4,.cls-5,.cls-6,.cls-7,.cls-9{stroke-miterlimit:22.93;}.cls-1,.cls-16,.cls-17,.cls-19,.cls-6,.cls-8,.cls-9{stroke-width:0.57px;}.cls-12,.cls-15,.cls-2,.cls-6,.cls-7,.cls-8{fill:#25282b;}.cls-2{stroke-width:0.59px;}.cls-10,.cls-13,.cls-14,.cls-18,.cls-3{stroke-width:0.57px;}.cls-4{stroke-width:0.63px;}.cls-10,.cls-13,.cls-14,.cls-15,.cls-16,.cls-17,.cls-18,.cls-19,.cls-4,.cls-8,.cls-9{fill-rule:evenodd;}.cls-5{stroke-width:0.57px;}.cls-7{stroke-width:0.73px;}.cls-13,.cls-14,.cls-16,.cls-17,.cls-8{stroke-linecap:round;}.cls-14,.cls-17,.cls-8{stroke-linejoin:round;}.cls-11{stroke-width:0.92px;}.cls-18{stroke-dasharray:1.13 1.7;}.cls-19{stroke-dasharray:1.13 1.7;}</style></defs><title>SEO CONTENT</title><rect class="cls-1" x="20" y="9.37" width="40.63" height="51.44" rx="2.65"/><rect class="cls-1" x="22.81" y="12.54" width="35" height="45.08" rx="2.28"/><rect class="cls-2" x="29.12" y="4.99" width="21.99" height="11.61" rx="1.15"/><line class="cls-3" x1="33.11" y1="8.24" x2="47.12" y2="8.24"/><line class="cls-1" x1="35.3" y1="11.07" x2="44.93" y2="11.07"/><line class="cls-1" x1="37.32" y1="13.85" x2="42.9" y2="13.85"/><path class="cls-4" d="M36.78,26.88H50.72v2.24a1.58,1.58,0,0,1-1.58,1.57H38.36a1.58,1.58,0,0,1-1.58-1.57Z" transform="translate(-3.64 -10.29)"/><rect class="cls-5" x="71.52" y="12.14" width="4.4" height="33.08"/><rect class="cls-6" x="72.67" y="8.74" width="2.34" height="3.41"/><rect class="cls-7" x="70.78" y="45.22" width="5.88" height="13.36"/><polygon class="cls-8" points="70.8 58.66 76.64 58.66 73.72 63.88 70.8 58.66"/><path class="cls-9" d="M76.25,72.19a2.09,2.09,0,0,1,2.22,0" transform="translate(-3.64 -10.29)"/><path class="cls-10" d="M79.56,22.43h2.92A51.66,51.66,0,0,1,79.79,36" transform="translate(-3.64 -10.29)"/><path class="cls-9" d="M81.06,38a1.18,1.18,0,1,0-1.18-1.18A1.18,1.18,0,0,0,81.06,38Z" transform="translate(-3.64 -10.29)"/><line class="cls-3" x1="33.7" y1="27.66" x2="45.91" y2="27.66"/><line class="cls-11" x1="33.7" y1="29.86" x2="53.6" y2="29.86"/><line class="cls-3" x1="33.7" y1="37.01" x2="45.91" y2="37.01"/><line class="cls-11" x1="33.7" y1="39.21" x2="53.6" y2="39.21"/><line class="cls-3" x1="33.7" y1="46.99" x2="45.91" y2="46.99"/><line class="cls-11" x1="33.7" y1="49.2" x2="53.6" y2="49.2"/><circle class="cls-12" cx="29.27" cy="38.14" r="2.53"/><path class="cls-13" d="M35.44,48.42a2.53,2.53,0,1,1-2.53-2.52" transform="translate(-3.64 -10.29)"/><polyline class="cls-14" points="28.21 37.75 29.21 38.7 31.56 36.35"/><circle class="cls-12" cx="29.29" cy="28.52" r="2.53"/><path class="cls-15" d="M32.9,60.57A2.53,2.53,0,1,0,30.37,58,2.54,2.54,0,0,0,32.9,60.57Z" transform="translate(-3.64 -10.29)"/><path class="cls-16" d="M35.45,38.81a2.53,2.53,0,1,1-2.52-2.53" transform="translate(-3.64 -10.29)"/><polyline class="cls-14" points="28.22 28.13 29.22 29.08 31.57 26.73"/><path class="cls-13" d="M35.43,58a2.53,2.53,0,1,1-2.53-2.52" transform="translate(-3.64 -10.29)"/><polyline class="cls-17" points="28.2 47.37 29.2 48.32 31.55 45.97"/><path class="cls-18" d="M68.61,70.49a2.67,2.67,0,1,1-2.67,2.67A2.67,2.67,0,0,1,68.61,70.49Z" transform="translate(-3.64 -10.29)"/><path class="cls-19" d="M69.44,11.11a2.67,2.67,0,1,1-2.67,2.67A2.66,2.66,0,0,1,69.44,11.11Z" transform="translate(-3.64 -10.29)"/><path class="cls-18" d="M6.6,10.57a2.67,2.67,0,1,1-2.68,2.67A2.68,2.68,0,0,1,6.6,10.57Z" transform="translate(-3.64 -10.29)"/><path class="cls-19" d="M12,45.53A2.68,2.68,0,1,1,9.33,48.2,2.67,2.67,0,0,1,12,45.53Z" transform="translate(-3.64 -10.29)"/><line class="cls-1" x1="66.02" y1="34.52" x2="66.02" y2="37.22"/><line class="cls-1" x1="67.38" y1="35.87" x2="64.67" y2="35.87"/><line class="cls-1" x1="3.78" y1="55.98" x2="3.78" y2="58.68"/><line class="cls-1" x1="5.13" y1="57.33" x2="2.43" y2="57.33"/><line class="cls-1" x1="8.38" y1="15.05" x2="8.38" y2="17.75"/><line class="cls-3" x1="9.74" y1="16.4" x2="7.03" y2="16.4"/><line class="cls-1" x1="22.79" y1="0.64" x2="22.79" y2="3.34"/><line class="cls-1" x1="24.15" y1="1.99" x2="21.44" y2="1.99"/></svg>