<svg id="Layer_1" data-name="Layer 1" xmlns="http://www.w3.org/2000/svg" viewBox="0 0 79.14 65.2"><defs><style>.cls-1,.cls-6{fill:#25282b;}.cls-1,.cls-10,.cls-11,.cls-12,.cls-13,.cls-14,.cls-15,.cls-16,.cls-17,.cls-2,.cls-3,.cls-4,.cls-5,.cls-6,.cls-7,.cls-8,.cls-9{stroke:#000;}.cls-1,.cls-10,.cls-11,.cls-13,.cls-14,.cls-15,.cls-16,.cls-17,.cls-2,.cls-3,.cls-4,.cls-5,.cls-6,.cls-7,.cls-8,.cls-9{stroke-miterlimit:22.93;}.cls-1,.cls-11,.cls-16,.cls-4,.cls-9{stroke-width:0.56px;}.cls-1,.cls-10,.cls-11,.cls-12,.cls-15,.cls-16,.cls-2,.cls-6{fill-rule:evenodd;}.cls-10,.cls-11,.cls-12,.cls-13,.cls-14,.cls-15,.cls-16,.cls-17,.cls-2,.cls-4,.cls-7,.cls-8{fill:none;}.cls-2{stroke-width:0.65px;}.cls-3,.cls-5{fill:#141618;}.cls-3{stroke-width:0.6px;}.cls-5{stroke-width:0.57px;}.cls-6{stroke-width:0.61px;}.cls-10,.cls-12,.cls-15,.cls-17,.cls-7{stroke-width:0.56px;}.cls-8{stroke-width:0.69px;}.cls-10{stroke-dasharray:1.13 2.82;}.cls-11{stroke-dasharray:1.13 2.82;}.cls-12{stroke-linecap:round;stroke-linejoin:round;}.cls-13{stroke-width:1.18px;}.cls-14{stroke-width:0.94px;}.cls-15,.cls-17{stroke-dasharray:1.13 1.69;}.cls-16{stroke-dasharray:1.13 1.69;}</style></defs><title>WEB CONTENT</title><path class="cls-1" d="M18,72H68.29V44.56a2.85,2.85,0,0,0-2.84-2.84H20.81A2.84,2.84,0,0,0,18,44.56Z" transform="translate(-3.64 -10.62)"/><path class="cls-2" d="M14.36,72H71.91v1.73a1.74,1.74,0,0,1-1.74,1.74H16.09a1.74,1.74,0,0,1-1.73-1.74Z" transform="translate(-3.64 -10.62)"/><rect class="cls-3" x="17.8" y="34.38" width="43.37" height="24.67"/><rect class="cls-4" x="35.32" y="61.41" width="8.34" height="1.73"/><rect class="cls-5" x="50.25" y="0.46" width="28.58" height="20.89" rx="1.14"/><path class="cls-6" d="M82.48,15H53.9V12.23A1.14,1.14,0,0,1,55,11.08H81.33a1.15,1.15,0,0,1,1.15,1.15Z" transform="translate(-3.64 -10.62)"/><line class="cls-7" x1="53.65" y1="8.75" x2="61.36" y2="8.75"/><line class="cls-7" x1="53.65" y1="11.5" x2="61.36" y2="11.5"/><line class="cls-7" x1="53.65" y1="14.24" x2="61.36" y2="14.24"/><line class="cls-7" x1="53.65" y1="16.98" x2="61.36" y2="16.98"/><line class="cls-4" x1="67.73" y1="8.75" x2="75.43" y2="8.75"/><line class="cls-4" x1="67.73" y1="11.5" x2="75.43" y2="11.5"/><line class="cls-4" x1="67.73" y1="14.24" x2="75.43" y2="14.24"/><line class="cls-4" x1="67.73" y1="16.98" x2="75.43" y2="16.98"/><line class="cls-8" x1="60.96" y1="2.42" x2="70.4" y2="2.42"/><circle class="cls-9" cx="52.6" cy="2.36" r="0.61"/><circle class="cls-9" cx="55.02" cy="2.36" r="0.61"/><polyline class="cls-10" points="75.54 24.47 75.54 54.85 67.57 54.85"/><polyline class="cls-11" points="10.41 54.85 2.45 54.85 2.45 26.33 8.49 26.33 8.49 17.98"/><path class="cls-1" d="M6.28,11H20.83a2.35,2.35,0,0,1,2.35,2.35v8a2.35,2.35,0,0,1-2.35,2.35H15.91l-3.55,3.51-3.1-3.51h-3a2.36,2.36,0,0,1-2.36-2.35v-8A2.36,2.36,0,0,1,6.28,11Z" transform="translate(-3.64 -10.62)"/><polyline class="cls-12" points="6.79 3.54 3.8 6.79 6.79 9.78"/><polyline class="cls-12" points="13.04 3.54 16.02 6.79 13.03 9.78"/><line class="cls-7" x1="8.89" y1="3.46" x2="10.94" y2="9.86"/><line class="cls-4" x1="28.01" y1="41.65" x2="35.63" y2="41.65"/><line class="cls-13" x1="35.18" y1="46.65" x2="51.04" y2="46.65"/><line class="cls-14" x1="31.82" y1="51.88" x2="44.51" y2="51.88"/><line class="cls-7" x1="48.91" y1="51.88" x2="50.52" y2="51.88"/><line class="cls-7" x1="30.01" y1="46.65" x2="31.61" y2="46.65"/><line class="cls-7" x1="39.75" y1="41.65" x2="41.36" y2="41.65"/><path class="cls-15" d="M23.64,36.82A2.66,2.66,0,1,0,21,34.16,2.66,2.66,0,0,0,23.64,36.82Z" transform="translate(-3.64 -10.62)"/><line class="cls-7" x1="7.76" y1="41.39" x2="7.76" y2="44.08"/><line class="cls-4" x1="9.11" y1="42.74" x2="6.42" y2="42.74"/><line class="cls-7" x1="33.59" y1="21.24" x2="33.59" y2="23.92"/><line class="cls-4" x1="34.94" y1="22.58" x2="32.25" y2="22.58"/><line class="cls-4" x1="29.26" y1="5.41" x2="29.26" y2="8.1"/><line class="cls-4" x1="30.61" y1="6.75" x2="27.92" y2="6.75"/><line class="cls-4" x1="69.42" y1="30.19" x2="69.42" y2="32.88"/><line class="cls-7" x1="70.77" y1="31.54" x2="68.08" y2="31.54"/><path class="cls-16" d="M51.61,39.2A2.66,2.66,0,1,0,49,36.54,2.67,2.67,0,0,0,51.61,39.2Z" transform="translate(-3.64 -10.62)"/><circle class="cls-17" cx="43.58" cy="2.94" r="2.66"/></svg>